<svg width="235" height="211" viewBox="0 0 235 211" fill="none" xmlns="http://www.w3.org/2000/svg">
<path d="M117.5 210.106C181.851 210.106 234.018 207.061 234.018 203.304C234.018 199.547 181.851 196.501 117.5 196.501C53.1493 196.501 0.982422 199.547 0.982422 203.304C0.982422 207.061 53.1493 210.106 117.5 210.106Z" fill="#F5F5F5"/>
<path d="M79.3695 30.2547C79.3718 29.1354 79.2814 28.0178 79.0991 26.9135C78.2936 22.0322 75.7934 17.5911 72.0378 14.3708C68.2822 11.1504 63.5116 9.35698 58.5646 9.30566H58.3844C55.0655 9.30767 51.7947 10.0989 48.8418 11.614C45.889 13.129 43.3387 15.3246 41.4015 18.0194C41.083 18.4581 40.8006 18.9088 40.5121 19.3595C40.4886 19.3893 40.4685 19.4215 40.452 19.4557C38.4793 22.7184 37.44 26.46 37.4473 30.2728V30.3148C37.4597 34.7461 38.8761 39.0595 41.4932 42.6355C44.1102 46.2115 47.7933 48.8661 52.0133 50.218C56.2334 51.57 60.7734 51.5497 64.9812 50.1602C69.189 48.7706 72.8482 46.0832 75.4333 42.484C75.7458 42.0454 76.0342 41.6006 76.3167 41.1439C76.3402 41.1142 76.3603 41.0819 76.3768 41.0478C78.3471 37.7934 79.3825 34.0591 79.3695 30.2547ZM38.3427 29.78C38.4122 26.3488 39.3709 22.9943 41.1251 20.0446H47.6815C46.6796 23.1938 46.1549 26.4754 46.125 29.78H38.3427ZM48.6009 20.0446H57.9517V29.78H47.0264C47.0463 26.4731 47.5774 23.1892 48.6009 20.0446ZM58.8531 19.1432V10.177C60.1528 10.2949 61.3976 10.7575 62.4588 11.5172C64.6883 13.0436 66.5573 15.7238 67.8673 19.1432H58.8531ZM68.1918 20.0446C68.9353 22.2958 69.4192 24.6246 69.6341 26.9856C69.7243 27.9231 69.7663 28.8545 69.7783 29.78H58.8531V20.0446H68.1918ZM56.6296 10.4294C57.061 10.3069 57.5042 10.2303 57.9517 10.2011V19.1612H48.9374C50.6201 14.6301 53.3484 11.3369 56.6296 10.4114V10.4294ZM57.9517 30.6994V40.4348H48.6189C47.8753 38.1781 47.3954 35.8429 47.1887 33.4758C47.1045 32.5383 47.0565 31.6069 47.0445 30.6814L57.9517 30.6994ZM57.9517 41.3362V50.3024C56.6521 50.1837 55.4076 49.7212 54.346 48.9623C52.1225 47.4359 50.2535 44.7556 48.9374 41.3362H57.9517ZM60.1752 50.068C59.7439 50.1911 59.3007 50.2677 58.8531 50.2964V41.3182H67.8673C66.1847 45.8313 63.4564 49.1305 60.1752 50.05V50.068ZM58.8531 40.4528V30.6874H69.7783C69.7614 33.9945 69.2302 37.2789 68.2039 40.4228L58.8531 40.4528ZM70.6798 30.6874H78.4921C78.4194 34.1181 77.4609 37.4718 75.7097 40.4228H69.1233C70.1252 37.2736 70.6498 33.992 70.6798 30.6874ZM78.4921 29.786H70.6798C70.6798 28.8365 70.6197 27.875 70.5295 26.9075C70.3244 24.5782 69.8629 22.2787 69.1534 20.0506H75.6977C76.9624 22.1979 77.8162 24.5618 78.2157 27.0216C78.3588 27.9347 78.4431 28.8561 78.4681 29.78L78.4921 29.786ZM70.1569 13.963C72.1211 15.3779 73.8148 17.1346 75.1568 19.1492H68.8228C67.4767 15.4293 65.4515 12.4847 62.9696 10.778L62.7773 10.6518C65.4273 11.2452 67.9295 12.3696 70.1329 13.957L70.1569 13.963ZM54.0095 10.6638C51.4795 12.3284 49.4002 15.3572 48 19.1492H41.69L42.1287 18.5062C44.9826 14.5223 49.2032 11.7285 53.9854 10.6578L54.0095 10.6638ZM38.3848 30.6874H46.1671C46.1671 31.6369 46.2272 32.5984 46.3173 33.566C46.5253 35.8948 46.9868 38.194 47.6935 40.4228H41.1131C39.8459 38.2767 38.9918 35.9123 38.5951 33.4518C38.4455 32.5375 38.3612 31.6137 38.3427 30.6874H38.3848ZM41.714 41.3242H48C49.3461 45.0441 51.3713 47.9887 53.8532 49.6954L54.0515 49.8216C49.0021 48.6748 44.5857 45.633 41.714 41.3242ZM62.8133 49.8036C65.3373 48.145 67.4166 45.1102 68.8228 41.3182H75.1208C74.9765 41.5345 74.8323 41.7509 74.6821 41.9612C71.8258 45.9469 67.5999 48.7393 62.8133 49.8036Z" fill="#A5B1BF"/>
<path opacity="0.8" d="M79.3695 30.2547C79.3718 29.1354 79.2814 28.0178 79.0991 26.9135C78.2936 22.0322 75.7934 17.5911 72.0378 14.3708C68.2822 11.1504 63.5116 9.35698 58.5646 9.30566H58.3844C55.0655 9.30767 51.7947 10.0989 48.8418 11.614C45.889 13.129 43.3387 15.3246 41.4015 18.0194C41.083 18.4581 40.8006 18.9088 40.5121 19.3595C40.4886 19.3893 40.4685 19.4215 40.452 19.4557C38.4793 22.7184 37.44 26.46 37.4473 30.2728V30.3148C37.4597 34.7461 38.8761 39.0595 41.4932 42.6355C44.1102 46.2115 47.7933 48.8661 52.0133 50.218C56.2334 51.57 60.7734 51.5497 64.9812 50.1602C69.189 48.7706 72.8482 46.0832 75.4333 42.484C75.7458 42.0454 76.0342 41.6006 76.3167 41.1439C76.3402 41.1142 76.3603 41.0819 76.3768 41.0478C78.3471 37.7934 79.3825 34.0591 79.3695 30.2547ZM38.3427 29.78C38.4122 26.3488 39.3709 22.9943 41.1251 20.0446H47.6815C46.6796 23.1938 46.1549 26.4754 46.125 29.78H38.3427ZM48.6009 20.0446H57.9517V29.78H47.0264C47.0463 26.4731 47.5774 23.1892 48.6009 20.0446ZM58.8531 19.1432V10.177C60.1528 10.2949 61.3976 10.7575 62.4588 11.5172C64.6883 13.0436 66.5573 15.7238 67.8673 19.1432H58.8531ZM68.1918 20.0446C68.9353 22.2958 69.4192 24.6246 69.6341 26.9856C69.7243 27.9231 69.7663 28.8545 69.7783 29.78H58.8531V20.0446H68.1918ZM56.6296 10.4294C57.061 10.3069 57.5042 10.2303 57.9517 10.2011V19.1612H48.9374C50.6201 14.6301 53.3484 11.3369 56.6296 10.4114V10.4294ZM57.9517 30.6994V40.4348H48.6189C47.8753 38.1781 47.3954 35.8429 47.1887 33.4758C47.1045 32.5383 47.0565 31.6069 47.0445 30.6814L57.9517 30.6994ZM57.9517 41.3362V50.3024C56.6521 50.1837 55.4076 49.7212 54.346 48.9623C52.1225 47.4359 50.2535 44.7556 48.9374 41.3362H57.9517ZM60.1752 50.068C59.7439 50.1911 59.3007 50.2677 58.8531 50.2964V41.3182H67.8673C66.1847 45.8313 63.4564 49.1305 60.1752 50.05V50.068ZM58.8531 40.4528V30.6874H69.7783C69.7614 33.9945 69.2302 37.2789 68.2039 40.4228L58.8531 40.4528ZM70.6798 30.6874H78.4921C78.4194 34.1181 77.4609 37.4718 75.7097 40.4228H69.1233C70.1252 37.2736 70.6498 33.992 70.6798 30.6874ZM78.4921 29.786H70.6798C70.6798 28.8365 70.6197 27.875 70.5295 26.9075C70.3244 24.5782 69.8629 22.2787 69.1534 20.0506H75.6977C76.9624 22.1979 77.8162 24.5618 78.2157 27.0216C78.3588 27.9347 78.4431 28.8561 78.4681 29.78L78.4921 29.786ZM70.1569 13.963C72.1211 15.3779 73.8148 17.1346 75.1568 19.1492H68.8228C67.4767 15.4293 65.4515 12.4847 62.9696 10.778L62.7773 10.6518C65.4273 11.2452 67.9295 12.3696 70.1329 13.957L70.1569 13.963ZM54.0095 10.6638C51.4795 12.3284 49.4002 15.3572 48 19.1492H41.69L42.1287 18.5062C44.9826 14.5223 49.2032 11.7285 53.9854 10.6578L54.0095 10.6638ZM38.3848 30.6874H46.1671C46.1671 31.6369 46.2272 32.5984 46.3173 33.566C46.5253 35.8948 46.9868 38.194 47.6935 40.4228H41.1131C39.8459 38.2767 38.9918 35.9123 38.5951 33.4518C38.4455 32.5375 38.3612 31.6137 38.3427 30.6874H38.3848ZM41.714 41.3242H48C49.3461 45.0441 51.3713 47.9887 53.8532 49.6954L54.0515 49.8216C49.0021 48.6748 44.5857 45.633 41.714 41.3242ZM62.8133 49.8036C65.3373 48.145 67.4166 45.1102 68.8228 41.3182H75.1208C74.9765 41.5345 74.8323 41.7509 74.6821 41.9612C71.8258 45.9469 67.5999 48.7393 62.8133 49.8036Z" fill="#FAFAFA"/>
<path d="M216.229 40.2432H27.291V86.0234H216.229V40.2432Z" fill="#A5B1BF"/>
<path opacity="0.6" d="M216.229 40.2432H27.291V86.0234H216.229V40.2432Z" fill="#FAFAFA"/>
<path d="M211.97 44.5029H23.0312V90.2832H211.97V44.5029Z" fill="#FF7500"/>
<path opacity="0.3" d="M211.97 44.5029H23.0312V90.2832H211.97V44.5029Z" fill="black"/>
<path d="M207.708 48.7656H18.7695V94.5459H207.708V48.7656Z" fill="#A5B1BF"/>
<path opacity="0.1" d="M207.708 48.7656H18.7695V94.5459H207.708V48.7656Z" fill="#FAFAFA"/>
<path d="M198.695 85.5292V57.7773L27.7855 57.7773V85.5292L198.695 85.5292Z" fill="#A5B1BF"/>
<path opacity="0.9" d="M198.695 85.5292V57.7773L27.7855 57.7773V85.5292L198.695 85.5292Z" fill="#FAFAFA"/>
<path d="M169.945 57.7785V85.5303H170.949V57.7785H169.945Z" fill="#A5B1BF"/>
<path opacity="0.6" d="M169.945 57.7785V85.5303H170.949V57.7785H169.945Z" fill="#FAFAFA"/>
<path d="M32.043 61.6074V81.7031H33.0466V61.6074H32.043Z" fill="#A5B1BF"/>
<path opacity="0.6" d="M32.043 61.6074V81.7031H33.0466V61.6074H32.043Z" fill="#FAFAFA"/>
<path d="M183.863 75.1581C183.134 75.1578 182.416 74.9777 181.773 74.6337C181.13 74.2898 180.582 73.7926 180.177 73.1862C179.772 72.5797 179.522 71.8828 179.451 71.1571C179.38 70.4314 179.488 69.6993 179.767 69.0256C180.046 68.352 180.487 67.7575 181.051 67.2949C181.615 66.8322 182.284 66.5157 182.999 66.3734C183.714 66.2311 184.453 66.2673 185.151 66.4788C185.849 66.6903 186.484 67.0707 187 67.5861C187.62 68.2064 188.043 68.9968 188.214 69.8573C188.386 70.7179 188.298 71.6099 187.962 72.4205C187.626 73.2312 187.057 73.9239 186.328 74.4112C185.598 74.8985 184.74 75.1585 183.863 75.1581ZM183.863 67.496C183.115 67.4962 182.39 67.7559 181.812 68.2308C181.233 68.7057 180.838 69.3664 180.692 70.1002C180.547 70.8341 180.66 71.5957 181.014 72.2553C181.367 72.9149 181.938 73.4315 182.629 73.7172C183.321 74.0029 184.09 74.0399 184.806 73.822C185.521 73.6041 186.139 73.1446 186.554 72.5221C186.969 71.8995 187.155 71.1523 187.081 70.4078C187.007 69.6633 186.676 68.9677 186.146 68.4395C185.85 68.1334 185.495 67.8897 185.103 67.7225C184.711 67.5553 184.289 67.4681 183.863 67.4659V67.496Z" fill="#A5B1BF"/>
<path d="M189.615 77.0449C189.535 77.0446 189.457 77.0285 189.383 76.9975C189.31 76.9666 189.244 76.9214 189.188 76.8646L186.153 73.8299C186.091 73.776 186.039 73.7097 186.003 73.6351C185.967 73.5606 185.947 73.4794 185.944 73.3966C185.941 73.3138 185.955 73.2313 185.985 73.1542C186.015 73.0771 186.061 73.007 186.119 72.9485C186.178 72.8899 186.248 72.8441 186.325 72.8139C186.402 72.7837 186.485 72.7697 186.567 72.7729C186.65 72.7761 186.731 72.7964 186.806 72.8324C186.881 72.8685 186.947 72.9196 187.001 72.9825L190.036 76.0173C190.147 76.1299 190.21 76.2822 190.21 76.441C190.21 76.5997 190.147 76.752 190.036 76.8646C189.925 76.9779 189.773 77.0427 189.615 77.0449Z" fill="#A5B1BF"/>
<g opacity="0.6">
<path d="M183.863 75.1561C183.134 75.1558 182.416 74.9757 181.773 74.6318C181.13 74.2878 180.582 73.7906 180.177 73.1842C179.772 72.5778 179.522 71.8809 179.451 71.1552C179.38 70.4295 179.488 69.6974 179.767 69.0237C180.046 68.35 180.487 67.7555 181.051 67.2929C181.615 66.8303 182.284 66.5138 182.999 66.3715C183.714 66.2291 184.453 66.2653 185.151 66.4768C185.849 66.6884 186.484 67.0687 187 67.5842C187.62 68.2044 188.043 68.9948 188.214 69.8554C188.386 70.7159 188.298 71.608 187.962 72.4186C187.626 73.2292 187.057 73.922 186.328 74.4093C185.598 74.8966 184.74 75.1565 183.863 75.1561ZM183.863 67.494C183.115 67.4943 182.39 67.7539 181.812 68.2288C181.233 68.7037 180.838 69.3644 180.692 70.0983C180.547 70.8322 180.66 71.5938 181.014 72.2533C181.367 72.9129 181.938 73.4296 182.629 73.7153C183.321 74.0009 184.09 74.038 184.806 73.82C185.521 73.6021 186.139 73.1427 186.554 72.5201C186.969 71.8975 187.155 71.1503 187.081 70.4059C187.007 69.6614 186.676 68.9658 186.146 68.4375C185.85 68.1315 185.495 67.8877 185.103 67.7205C184.711 67.5534 184.289 67.4661 183.863 67.464V67.494Z" fill="#FAFAFA"/>
<path d="M189.613 77.043C189.533 77.0426 189.455 77.0265 189.382 76.9956C189.308 76.9646 189.242 76.9195 189.186 76.8627L186.151 73.8279C186.089 73.774 186.037 73.7077 186.001 73.6332C185.965 73.5586 185.945 73.4774 185.942 73.3946C185.939 73.3119 185.953 73.2294 185.983 73.1522C186.013 73.0751 186.059 73.0051 186.117 72.9465C186.176 72.888 186.246 72.8421 186.323 72.8119C186.4 72.7817 186.483 72.7678 186.566 72.771C186.648 72.7742 186.73 72.7944 186.804 72.8305C186.879 72.8666 186.945 72.9177 186.999 72.9806L190.034 76.0154C190.146 76.1279 190.208 76.2803 190.208 76.439C190.208 76.5978 190.146 76.7501 190.034 76.8627C189.923 76.9759 189.771 77.0407 189.613 77.043Z" fill="#FAFAFA"/>
</g>
<path d="M143.095 12.5703H124.201V13.0391H143.095V12.5703Z" fill="#A5B1BF"/>
<path d="M143.095 14.5576H124.201V15.0264H143.095V14.5576Z" fill="#A5B1BF"/>
<path d="M143.095 16.5527H124.201V17.0215H143.095V16.5527Z" fill="#A5B1BF"/>
<path d="M143.095 18.5439H124.201V19.0127H143.095V18.5439Z" fill="#A5B1BF"/>
<path d="M143.095 20.5312H124.201V21H143.095V20.5312Z" fill="#A5B1BF"/>
<path d="M136.521 22.5283H124.201V22.9971H136.521V22.5283Z" fill="#A5B1BF"/>
<g opacity="0.5">
<path d="M143.095 12.5693H124.201V13.0381H143.095V12.5693Z" fill="#FAFAFA"/>
<path d="M143.095 14.5586H124.201V15.0273H143.095V14.5586Z" fill="#FAFAFA"/>
<path d="M143.095 16.5537H124.201V17.0225H143.095V16.5537Z" fill="#FAFAFA"/>
<path d="M143.095 18.543H124.201V19.0117H143.095V18.543Z" fill="#FAFAFA"/>
<path d="M143.095 20.5322H124.201V21.001H143.095V20.5322Z" fill="#FAFAFA"/>
<path d="M136.521 22.5273H124.201V22.9961H136.521V22.5273Z" fill="#FAFAFA"/>
</g>
<path d="M29.3701 98.499H9.23828V98.7995H29.3701V98.499Z" fill="#A5B1BF"/>
<path d="M29.3701 99.7725H9.23828V100.073H29.3701V99.7725Z" fill="#A5B1BF"/>
<path d="M29.3701 101.046H9.23828V101.346H29.3701V101.046Z" fill="#A5B1BF"/>
<path d="M29.3701 102.32H9.23828V102.621H29.3701V102.32Z" fill="#A5B1BF"/>
<path d="M29.3701 103.594H9.23828V103.894H29.3701V103.594Z" fill="#A5B1BF"/>
<path d="M21.8943 104.875H9.23828V105.175H21.8943V104.875Z" fill="#A5B1BF"/>
<g opacity="0.4">
<path d="M29.3701 98.501H9.23828V98.8015H29.3701V98.501Z" fill="#FAFAFA"/>
<path d="M29.3701 99.7744H9.23828V100.075H29.3701V99.7744Z" fill="#FAFAFA"/>
<path d="M29.3701 101.05H9.23828V101.35H29.3701V101.05Z" fill="#FAFAFA"/>
<path d="M29.3701 102.323H9.23828V102.624H29.3701V102.323Z" fill="#FAFAFA"/>
<path d="M29.3701 103.597H9.23828V103.897H29.3701V103.597Z" fill="#FAFAFA"/>
<path d="M21.8943 104.877H9.23828V105.177H21.8943V104.877Z" fill="#FAFAFA"/>
</g>
<path d="M95.5343 15.5195C94.527 15.5195 93.561 15.9197 92.8487 16.6319C92.1365 17.3442 91.7363 18.3102 91.7363 19.3175V31.8473C91.7363 32.8546 92.1365 33.8206 92.8487 34.5329C93.561 35.2452 94.527 35.6453 95.5343 35.6453C96.5416 35.6453 97.5076 35.2452 98.2199 34.5329C98.9322 33.8206 99.3323 32.8546 99.3323 31.8473V19.3175C99.3323 18.3102 98.9322 17.3442 98.2199 16.6319C97.5076 15.9197 96.5416 15.5195 95.5343 15.5195Z" fill="#A5B1BF"/>
<path opacity="0.2" d="M95.5343 15.5195C94.527 15.5195 93.561 15.9197 92.8487 16.6319C92.1365 17.3442 91.7363 18.3102 91.7363 19.3175V31.8473C91.7363 32.8546 92.1365 33.8206 92.8487 34.5329C93.561 35.2452 94.527 35.6453 95.5343 35.6453C96.5416 35.6453 97.5076 35.2452 98.2199 34.5329C98.9322 33.8206 99.3323 32.8546 99.3323 31.8473V19.3175C99.3323 18.3102 98.9322 17.3442 98.2199 16.6319C97.5076 15.9197 96.5416 15.5195 95.5343 15.5195Z" fill="#FAFAFA"/>
<path d="M105.055 8.04985C104.051 8.05461 103.09 8.45686 102.381 9.16861C101.673 9.88035 101.275 10.8437 101.275 11.8478V31.8474C101.275 32.8547 101.676 33.8207 102.388 34.533C103.1 35.2453 104.066 35.6454 105.073 35.6454C106.081 35.6454 107.047 35.2453 107.759 34.533C108.471 33.8207 108.871 32.8547 108.871 31.8474V11.8478C108.871 11.3476 108.773 10.8522 108.581 10.3902C108.389 9.92827 108.107 9.50877 107.753 9.15586C107.398 8.80295 106.977 8.52356 106.514 8.33376C106.051 8.14396 105.556 8.04747 105.055 8.04985Z" fill="#A5B1BF"/>
<path opacity="0.3" d="M105.055 8.04985C104.051 8.05461 103.09 8.45686 102.381 9.16861C101.673 9.88035 101.275 10.8437 101.275 11.8478V31.8474C101.275 32.8547 101.676 33.8207 102.388 34.533C103.1 35.2453 104.066 35.6454 105.073 35.6454C106.081 35.6454 107.047 35.2453 107.759 34.533C108.471 33.8207 108.871 32.8547 108.871 31.8474V11.8478C108.871 11.3476 108.773 10.8522 108.581 10.3902C108.389 9.92827 108.107 9.50877 107.753 9.15586C107.398 8.80295 106.977 8.52356 106.514 8.33376C106.051 8.14396 105.556 8.04747 105.055 8.04985Z" fill="black"/>
<path d="M114.568 22.9883C113.56 22.9883 112.594 23.3884 111.882 24.1007C111.17 24.813 110.77 25.779 110.77 26.7863V31.8463C110.77 32.8536 111.17 33.8196 111.882 34.5319C112.594 35.2441 113.56 35.6443 114.568 35.6443C115.067 35.6451 115.561 35.5474 116.023 35.3569C116.484 35.1664 116.904 34.8867 117.257 34.534C117.61 34.1812 117.891 33.7623 118.082 33.3011C118.273 32.8399 118.372 32.3455 118.372 31.8463V26.7863C118.372 26.287 118.273 25.7926 118.082 25.3315C117.891 24.8703 117.61 24.4513 117.257 24.0986C116.904 23.7458 116.484 23.4662 116.023 23.2757C115.561 23.0851 115.067 22.9875 114.568 22.9883Z" fill="#A5B1BF"/>
<path opacity="0.6" d="M114.568 22.9883C113.56 22.9883 112.594 23.3884 111.882 24.1007C111.17 24.813 110.77 25.779 110.77 26.7863V31.8463C110.77 32.8536 111.17 33.8196 111.882 34.5319C112.594 35.2441 113.56 35.6443 114.568 35.6443C115.067 35.6451 115.561 35.5474 116.023 35.3569C116.484 35.1664 116.904 34.8867 117.257 34.534C117.61 34.1812 117.891 33.7623 118.082 33.3011C118.273 32.8399 118.372 32.3455 118.372 31.8463V26.7863C118.372 26.287 118.273 25.7926 118.082 25.3315C117.891 24.8703 117.61 24.4513 117.257 24.0986C116.904 23.7458 116.484 23.4662 116.023 23.2757C115.561 23.0851 115.067 22.9875 114.568 22.9883Z" fill="#FAFAFA"/>
<path d="M194.789 108.89H210.143L183.93 81.7031L194.789 108.89Z" fill="#A5B1BF"/>
<g opacity="0.1">
<path d="M194.789 108.887H210.143L183.93 81.7002L194.789 108.887Z" fill="black"/>
</g>
<g style="mix-blend-mode:multiply">
<path d="M180.029 94.5394L183.929 81.7031L186.141 94.5394H180.029Z" fill="#A5B1BF"/>
</g>
<path d="M183.93 81.7031V119.743L186.646 117.033L194.789 108.89L183.93 81.7031Z" fill="#A5B1BF"/>
<path opacity="0.3" d="M183.93 81.7031V119.743L186.646 117.033L194.789 108.89L183.93 81.7031Z" fill="#FAFAFA"/>
<path d="M211.08 0.105469H177.427C175.721 0.111791 174.087 0.791722 172.88 1.9972C171.674 3.20267 170.992 4.83605 170.984 6.54163V23.9211C170.992 25.6256 171.673 27.2581 172.878 28.4634C174.084 29.6687 175.716 30.3493 177.421 30.3572H202.114L201.933 36.4328L208.165 30.3572H211.068C212.773 30.3509 214.407 29.671 215.614 28.4655C216.82 27.26 217.502 25.6266 217.51 23.9211V6.54163C217.502 4.83812 216.822 3.20655 215.618 2.00141C214.414 0.796275 212.783 0.11495 211.08 0.105469ZM176.669 7.50916C176.669 7.03101 176.859 6.57245 177.197 6.23435C177.535 5.89625 177.994 5.70631 178.472 5.70631H186.218C186.697 5.70631 187.155 5.89625 187.493 6.23435C187.831 6.57245 188.021 7.03101 188.021 7.50916C188.021 7.9873 187.831 8.44586 187.493 8.78396C187.155 9.12206 186.697 9.312 186.218 9.312H178.466C177.989 9.31041 177.532 9.11977 177.195 8.78184C176.858 8.44391 176.669 7.98626 176.669 7.50916ZM209.169 24.3357H195.78C195.52 24.3811 195.254 24.3692 195 24.3009C194.746 24.2326 194.51 24.1096 194.309 23.9403C194.107 23.7711 193.945 23.5599 193.834 23.3214C193.723 23.0829 193.666 22.823 193.666 22.5599C193.666 22.2968 193.723 22.0369 193.834 21.7985C193.945 21.56 194.107 21.3487 194.309 21.1795C194.51 21.0103 194.746 20.8872 195 20.8189C195.254 20.7506 195.52 20.7387 195.78 20.7841H209.169C209.428 20.7387 209.694 20.7506 209.948 20.8189C210.202 20.8872 210.438 21.0103 210.639 21.1795C210.841 21.3487 211.003 21.56 211.114 21.7985C211.225 22.0369 211.283 22.2968 211.283 22.5599C211.283 22.823 211.225 23.0829 211.114 23.3214C211.003 23.5599 210.841 23.7711 210.639 23.9403C210.438 24.1096 210.202 24.2326 209.948 24.3009C209.694 24.3692 209.428 24.3811 209.169 24.3357ZM209.169 16.8179H180.269C180.01 16.8632 179.744 16.8514 179.49 16.7831C179.236 16.7148 179 16.5917 178.798 16.4225C178.597 16.2532 178.435 16.042 178.324 15.8035C178.213 15.565 178.155 15.3051 178.155 15.042C178.155 14.779 178.213 14.5191 178.324 14.2806C178.435 14.0421 178.597 13.8309 178.798 13.6616C179 13.4924 179.236 13.3693 179.49 13.301C179.744 13.2327 180.01 13.2208 180.269 13.2662H209.169C209.428 13.2208 209.694 13.2327 209.948 13.301C210.202 13.3693 210.438 13.4924 210.639 13.6616C210.841 13.8309 211.003 14.0421 211.114 14.2806C211.225 14.5191 211.283 14.779 211.283 15.042C211.283 15.3051 211.225 15.565 211.114 15.8035C211.003 16.042 210.841 16.2532 210.639 16.4225C210.438 16.5917 210.202 16.7148 209.948 16.7831C209.694 16.8514 209.428 16.8632 209.169 16.8179ZM209.169 9.29999H192.06C191.582 9.29999 191.123 9.11004 190.785 8.77194C190.447 8.43384 190.257 7.97528 190.257 7.49714C190.257 7.01899 190.447 6.56043 190.785 6.22233C191.123 5.88423 191.582 5.69429 192.06 5.69429H209.169C209.647 5.69429 210.105 5.88423 210.443 6.22233C210.782 6.56043 210.972 7.01899 210.972 7.49714C210.972 7.97528 210.782 8.43384 210.443 8.77194C210.105 9.11004 209.647 9.29999 209.169 9.29999Z" fill="#A5B1BF"/>
<path d="M158.446 55.1927C157.009 51.2445 154.814 47.6149 151.986 44.5078H104.204C101.376 47.6149 99.1814 51.2445 97.7441 55.1927L104.355 88.1006C109.412 93.5827 116.211 97.1451 123.597 98.1825C130.982 99.22 138.5 97.6685 144.871 93.7917C151.243 89.9149 156.076 83.9519 158.549 76.9156C161.023 69.8793 160.984 62.2037 158.44 55.1927H158.446Z" fill="#A5B1BF"/>
<path opacity="0.1" d="M158.446 55.1927C157.009 51.2445 154.814 47.6149 151.986 44.5078H104.204C101.376 47.6149 99.1814 51.2445 97.7441 55.1927L104.355 88.1006C109.412 93.5827 116.211 97.1451 123.597 98.1825C130.982 99.22 138.5 97.6685 144.871 93.7917C151.243 89.9149 156.076 83.9519 158.549 76.9156C161.023 69.8793 160.984 62.2037 158.44 55.1927H158.446Z" fill="#FAFAFA"/>
<path d="M160.351 67.7101C160.01 75.2981 156.996 82.5208 151.842 88.1003H104.367C100.359 83.7453 97.6232 78.3738 96.4575 72.5712C95.2919 66.7686 95.7412 60.7573 97.7564 55.1924H158.452C159.91 59.1975 160.555 63.4529 160.351 67.7101Z" fill="#A5B1BF"/>
<path opacity="0.9" d="M160.351 67.7101C160.01 75.2981 156.996 82.5208 151.842 88.1003H104.367C100.359 83.7453 97.6232 78.3738 96.4575 72.5712C95.2919 66.7686 95.7412 60.7573 97.7564 55.1924H158.452C159.91 59.1975 160.555 63.4529 160.351 67.7101Z" fill="#FAFAFA"/>
<path opacity="0.3" d="M160.352 67.7086C159.978 75.6935 156.649 83.2544 151.012 88.9219C145.374 94.5895 137.832 97.9589 129.849 98.3754C121.866 98.7919 114.013 96.2257 107.817 91.1756C101.62 86.1255 97.5226 78.9521 96.3199 71.0494C95.1173 63.1466 96.8955 55.079 101.309 48.4142C105.723 41.7494 112.456 36.9634 120.202 34.9863C127.947 33.0093 136.151 33.9822 143.219 37.7162C150.287 41.4502 155.715 47.6785 158.447 55.1908C159.904 59.1961 160.552 63.451 160.352 67.7086Z" fill="white"/>
<path opacity="0.4" d="M146.295 39.5559L99.8656 81.8987C99.6332 81.47 99.4049 81.0374 99.1805 80.6007C97.7609 77.7587 96.7744 74.7203 96.2539 71.5864L136.355 35.0127C139.904 35.9478 143.266 37.4845 146.295 39.5559Z" fill="white"/>
<path opacity="0.4" d="M158.718 55.9666L115.095 95.7734C110.57 93.777 106.565 90.7668 103.389 86.9756L151.056 43.5029C154.53 47.0168 157.151 51.2807 158.718 55.9666Z" fill="white"/>
<path d="M160.341 47.6019C156.659 41.2164 151.165 36.0667 144.555 32.8045C137.945 29.5422 130.515 28.314 123.207 29.2752C115.899 30.2363 109.04 33.3437 103.498 38.2042C97.9561 43.0646 93.9805 49.4597 92.0742 56.5802C90.1678 63.7007 90.4165 71.2267 92.7886 78.2059C95.1607 85.1851 99.5496 91.3038 105.4 95.7879C111.251 100.272 118.3 102.92 125.656 103.397C133.012 103.873 140.344 102.158 146.724 98.4662C155.27 93.5221 161.504 85.3884 164.057 75.8515C166.61 66.3146 165.274 56.1543 160.341 47.6019ZM102.65 80.9185C99.7448 75.8863 98.3966 70.1056 98.7764 64.3072C99.1562 58.5089 101.247 52.9534 104.784 48.3431C108.321 43.7329 113.146 40.2751 118.648 38.4069C124.15 36.5387 130.083 36.3439 135.696 37.8474C141.309 39.3508 146.35 42.4849 150.181 46.8533C154.013 51.2216 156.463 56.6281 157.223 62.3891C157.982 68.1501 157.015 74.0068 154.446 79.2186C151.877 84.4304 147.82 88.7633 142.788 91.6694C139.447 93.599 135.759 94.8516 131.934 95.3556C128.109 95.8596 124.222 95.6051 120.495 94.6068C116.768 93.6084 113.275 91.8857 110.214 89.5371C107.153 87.1884 104.585 84.2598 102.656 80.9185H102.65Z" fill="#A5B1BF"/>
<path opacity="0.1" d="M160.341 47.6019C156.659 41.2164 151.165 36.0667 144.555 32.8045C137.945 29.5422 130.515 28.314 123.207 29.2752C115.899 30.2363 109.04 33.3437 103.498 38.2042C97.9561 43.0646 93.9805 49.4597 92.0742 56.5802C90.1678 63.7007 90.4165 71.2267 92.7886 78.2059C95.1607 85.1851 99.5496 91.3038 105.4 95.7879C111.251 100.272 118.3 102.92 125.656 103.397C133.012 103.873 140.344 102.158 146.724 98.4662C155.27 93.5221 161.504 85.3884 164.057 75.8515C166.61 66.3146 165.274 56.1543 160.341 47.6019ZM102.65 80.9185C99.7448 75.8863 98.3966 70.1056 98.7764 64.3072C99.1562 58.5089 101.247 52.9534 104.784 48.3431C108.321 43.7329 113.146 40.2751 118.648 38.4069C124.15 36.5387 130.083 36.3439 135.696 37.8474C141.309 39.3508 146.35 42.4849 150.181 46.8533C154.013 51.2216 156.463 56.6281 157.223 62.3891C157.982 68.1501 157.015 74.0068 154.446 79.2186C151.877 84.4304 147.82 88.7633 142.788 91.6694C139.447 93.599 135.759 94.8516 131.934 95.3556C128.109 95.8596 124.222 95.6051 120.495 94.6068C116.768 93.6084 113.275 91.8857 110.214 89.5371C107.153 87.1884 104.585 84.2598 102.656 80.9185H102.65Z" fill="black"/>
<path d="M42.417 104.536L47.0203 105.606L43.2043 108.454C43.2043 108.454 40.4699 107.216 40.3438 105.275L42.417 104.536Z" fill="#E4897B"/>
<path d="M49.4811 108.671L46.1638 110.883L43.2012 108.455L47.0172 105.612L49.4811 108.671Z" fill="#E4897B"/>
<path d="M101.555 85.8412C96.6629 89.4469 91.645 92.8723 86.603 96.2196C81.5611 99.5669 76.453 102.83 71.3209 106.033C66.1888 109.236 61.0086 112.373 55.8104 115.42C53.2143 116.97 50.5942 118.473 47.9981 119.999C46.7085 120.82 45.3025 121.442 43.8275 121.844C43.0405 122.053 42.2358 122.188 41.4237 122.247C40.5221 122.32 39.6148 122.274 38.7254 122.108C38.0899 121.983 37.4853 121.733 36.9464 121.373C36.4075 121.014 35.9448 120.551 35.5848 120.013C35.2248 119.474 34.9745 118.87 34.8483 118.234C34.7221 117.599 34.7224 116.945 34.8493 116.309C34.8905 116.105 34.9467 115.904 35.0176 115.708C35.3077 114.856 35.712 114.048 36.2195 113.305C36.6722 112.636 37.1873 112.013 37.7579 111.442C38.8447 110.366 40.0864 109.458 41.4417 108.749C44.0679 107.253 46.676 105.745 49.3202 104.26C54.5845 101.286 59.8969 98.389 65.2213 95.5285C70.5457 92.668 75.9362 89.8976 81.3567 87.1933C86.7773 84.4891 92.2399 81.8569 97.8167 79.4291C98.6583 79.057 99.6077 79.0089 100.483 79.2942C101.357 79.5794 102.096 80.1778 102.557 80.9745C103.017 81.7711 103.167 82.7098 102.978 83.6103C102.788 84.5108 102.273 85.3096 101.531 85.8532L101.555 85.8412Z" fill="#A5B1BF"/>
<path opacity="0.1" d="M101.555 85.8412C96.6629 89.4469 91.645 92.8723 86.603 96.2196C81.5611 99.5669 76.453 102.83 71.3209 106.033C66.1888 109.236 61.0086 112.373 55.8104 115.42C53.2143 116.97 50.5942 118.473 47.9981 119.999C46.7085 120.82 45.3025 121.442 43.8275 121.844C43.0405 122.053 42.2358 122.188 41.4237 122.247C40.5221 122.32 39.6148 122.274 38.7254 122.108C38.0899 121.983 37.4853 121.733 36.9464 121.373C36.4075 121.014 35.9448 120.551 35.5848 120.013C35.2248 119.474 34.9745 118.87 34.8483 118.234C34.7221 117.599 34.7224 116.945 34.8493 116.309C34.8905 116.105 34.9467 115.904 35.0176 115.708C35.3077 114.856 35.712 114.048 36.2195 113.305C36.6722 112.636 37.1873 112.013 37.7579 111.442C38.8447 110.366 40.0864 109.458 41.4417 108.749C44.0679 107.253 46.676 105.745 49.3202 104.26C54.5845 101.286 59.8969 98.389 65.2213 95.5285C70.5457 92.668 75.9362 89.8976 81.3567 87.1933C86.7773 84.4891 92.2399 81.8569 97.8167 79.4291C98.6583 79.057 99.6077 79.0089 100.483 79.2942C101.357 79.5794 102.096 80.1778 102.557 80.9745C103.017 81.7711 103.167 82.7098 102.978 83.6103C102.788 84.5108 102.273 85.3096 101.531 85.8532L101.555 85.8412Z" fill="black"/>
<path d="M49.0854 76.0698C48.7849 76.5566 48.4424 77.1455 48.1179 77.6984C47.7934 78.2512 47.4749 78.8282 47.1744 79.4111C46.5734 80.5589 45.9725 81.7247 45.3715 82.9086C44.7706 84.0925 44.2838 85.3124 43.791 86.5143C43.5507 87.1152 43.2983 87.7162 43.0759 88.3171L42.7394 89.2366C42.6733 89.4109 42.6613 89.483 42.6192 89.6092C42.5771 89.7354 42.5591 89.8556 42.523 89.9758C42.2885 91.1634 42.1697 92.3709 42.1685 93.5814C42.1384 94.8735 42.1685 96.1896 42.2406 97.5177C42.3127 98.8458 42.3848 100.18 42.505 101.514C42.6252 102.848 42.7454 104.206 42.8716 105.528L40.5519 106.003C40.1433 104.663 39.8248 103.329 39.5063 101.977C39.1878 100.625 38.9474 99.2664 38.713 97.8842C38.4787 96.5021 38.3224 95.1139 38.2202 93.6776C38.0952 92.1735 38.1335 90.6603 38.3344 89.1645C38.3705 88.9541 38.4005 88.7558 38.4546 88.5635C38.5087 88.3712 38.5628 88.1008 38.6109 87.9626L38.9053 86.941C39.0976 86.2619 39.32 85.5888 39.5483 84.9218C40.0111 83.5817 40.5159 82.2656 41.0808 80.9675C41.6456 79.6695 42.2466 78.4015 42.8836 77.1515C43.2141 76.5506 43.5627 75.9075 43.9172 75.2886C44.2718 74.6696 44.6264 74.0867 45.0711 73.4316L49.0854 76.0698Z" fill="#E4897B"/>
<path d="M46.5202 200.154C46.1147 200.141 45.7117 200.084 45.3183 199.985C45.2972 199.982 45.2778 199.972 45.2627 199.957C45.2476 199.942 45.2376 199.922 45.2342 199.901C45.2303 199.879 45.2328 199.857 45.2414 199.837C45.2499 199.817 45.2641 199.799 45.2822 199.787C45.4445 199.679 46.8627 198.765 47.4096 199.012C47.4704 199.04 47.5225 199.083 47.5606 199.138C47.5987 199.193 47.6212 199.258 47.6259 199.324C47.6542 199.431 47.6523 199.544 47.6204 199.65C47.5886 199.756 47.5281 199.851 47.4457 199.925C47.1749 200.111 46.8461 200.192 46.5202 200.154ZM45.6007 199.829C46.418 199.991 47.031 199.961 47.2654 199.745C47.3169 199.695 47.3545 199.633 47.3745 199.565C47.3946 199.496 47.3963 199.424 47.3796 199.354C47.3788 199.324 47.3694 199.294 47.3523 199.268C47.3353 199.243 47.3114 199.223 47.2834 199.21C47.001 199.084 46.1777 199.48 45.6007 199.829Z" fill="#A5B1BF"/>
<path d="M45.3115 199.989C45.2938 199.994 45.275 199.994 45.2574 199.989C45.2401 199.98 45.2258 199.966 45.2162 199.949C45.2067 199.932 45.2022 199.913 45.2033 199.893C45.2033 199.839 45.2033 198.493 45.7141 198.042C45.7772 197.985 45.8516 197.943 45.9324 197.917C46.0132 197.891 46.0985 197.882 46.1828 197.892C46.2714 197.893 46.3569 197.925 46.4248 197.982C46.4927 198.039 46.5388 198.117 46.5554 198.204C46.6636 198.727 45.8103 199.737 45.3535 200.007C45.3383 200.005 45.3238 199.999 45.3115 199.989ZM46.1107 198.09C46.0196 198.091 45.932 198.125 45.8643 198.186C45.5689 198.622 45.4175 199.139 45.4317 199.665C45.8764 199.304 46.4052 198.547 46.3391 198.228C46.3391 198.174 46.297 198.114 46.1588 198.096L46.1107 198.09Z" fill="#A5B1BF"/>
<path d="M67.8035 200.152C67.3083 200.144 66.8152 200.088 66.3311 199.983C66.3081 199.981 66.2867 199.971 66.2703 199.954C66.2539 199.938 66.2436 199.916 66.241 199.893C66.2383 199.87 66.2426 199.847 66.2534 199.827C66.2641 199.807 66.2807 199.79 66.3011 199.779C66.5114 199.671 68.3744 198.722 68.9453 199.034C69.0002 199.062 69.0468 199.104 69.0805 199.156C69.1142 199.207 69.1339 199.267 69.1376 199.328C69.1507 199.428 69.1389 199.528 69.1032 199.622C69.0675 199.715 69.0091 199.798 68.9332 199.863C68.6009 200.086 68.202 200.188 67.8035 200.152ZM66.6977 199.827C67.7374 200.002 68.5006 199.953 68.789 199.701C68.8369 199.656 68.8734 199.601 68.8954 199.539C68.9173 199.477 68.9241 199.411 68.9152 199.346C68.915 199.322 68.9082 199.298 68.8955 199.277C68.8828 199.255 68.8647 199.238 68.8431 199.226C68.5306 199.058 67.4609 199.461 66.6977 199.827Z" fill="#A5B1BF"/>
<path d="M66.3498 199.991C66.3403 199.995 66.33 199.997 66.3197 199.997C66.3094 199.997 66.2992 199.995 66.2897 199.991C66.2724 199.983 66.2584 199.968 66.2497 199.951C66.2411 199.934 66.2382 199.914 66.2416 199.895C66.2416 199.841 66.3558 198.579 66.9387 198.092C67.1062 197.952 67.3219 197.883 67.5397 197.9C67.8461 197.93 67.9303 198.086 67.9543 198.212C68.0384 198.741 66.9387 199.751 66.3798 200.015L66.3498 199.991ZM67.4675 198.092C67.3264 198.094 67.1902 198.145 67.0829 198.237C66.7383 198.644 66.5283 199.147 66.482 199.679C67.0469 199.336 67.7981 198.543 67.744 198.224C67.744 198.224 67.744 198.116 67.5276 198.098L67.4675 198.092Z" fill="#A5B1BF"/>
<path d="M56.2004 58.0225C56.567 60.8289 57.4023 66.5199 55.3711 68.2386C55.3711 68.2386 55.972 71.0991 61.0921 71.4296C66.7531 71.7962 63.9767 68.7975 63.9767 68.7975C60.9359 67.86 61.1642 65.5704 61.8433 63.455L56.2004 58.0225Z" fill="#E4897B"/>
<path d="M66.7013 52.3195C66.6652 52.3187 66.63 52.3084 66.5992 52.2895C66.573 52.2762 66.5498 52.2578 66.5309 52.2353C66.5121 52.2128 66.498 52.1867 66.4896 52.1586C66.4812 52.1305 66.4785 52.101 66.4819 52.0718C66.4852 52.0427 66.4944 52.0145 66.509 51.989C66.6651 51.6711 66.8959 51.3957 67.1816 51.1864C67.4673 50.9771 67.7994 50.8401 68.1496 50.7871C68.2034 50.7892 68.2546 50.8107 68.2937 50.8477C68.3328 50.8846 68.3572 50.9345 68.3624 50.9881C68.3675 51.0416 68.353 51.0953 68.3216 51.139C68.2903 51.1827 68.2441 51.2135 68.1917 51.2258C67.9177 51.2737 67.6584 51.3843 67.4343 51.549C67.2101 51.7137 67.0272 51.9281 66.8996 52.1753C66.8826 52.2149 66.8552 52.2492 66.8203 52.2746C66.7854 52.3 66.7443 52.3155 66.7013 52.3195Z" fill="#263238"/>
<path d="M68.3164 54.7822C68.7304 55.6076 69.2562 56.372 69.8789 57.0538C69.7004 57.209 69.4901 57.3234 69.2627 57.3888C69.0354 57.4542 68.7965 57.4691 68.5628 57.4324L68.3164 54.7822Z" fill="#DE5753"/>
<path d="M67.9189 54.1698C67.955 54.5484 68.1833 54.8309 68.4237 54.8068C68.6641 54.7828 68.8444 54.4643 68.8083 54.0857C68.7723 53.7071 68.5439 53.4247 68.2975 53.4487C68.0511 53.4727 67.8829 53.7972 67.9189 54.1698Z" fill="#263238"/>
<path d="M68.2207 53.4802L69.0981 53.1377C69.0981 53.1377 68.6774 53.8829 68.2207 53.4802Z" fill="#263238"/>
<path d="M61.2051 199.876H65.8865L66.199 189.047H61.5176L61.2051 199.876Z" fill="#E4897B"/>
<path d="M39.9512 199.876H44.6326L46.1349 189.047H41.4596L39.9512 199.876Z" fill="#E4897B"/>
<path d="M44.9202 199.335H39.6619C39.5717 199.334 39.4843 199.366 39.4158 199.424C39.3473 199.483 39.3023 199.564 39.2893 199.653L38.6883 203.812C38.6765 203.917 38.6869 204.023 38.719 204.124C38.751 204.225 38.8039 204.317 38.8742 204.396C38.9446 204.475 39.0307 204.538 39.1271 204.581C39.2234 204.625 39.3279 204.647 39.4335 204.647C41.2363 204.617 42.1498 204.509 44.4634 204.509C45.8817 204.509 47.961 204.653 49.9261 204.653C51.8912 204.653 51.9933 202.712 51.176 202.538C47.5102 201.751 46.9333 200.663 45.6954 199.623C45.4792 199.439 45.2046 199.336 44.9202 199.335Z" fill="#263238"/>
<path d="M66.0463 199.335H60.794C60.7035 199.333 60.6154 199.364 60.5466 199.423C60.4778 199.482 60.4332 199.564 60.4214 199.654L59.8204 203.812C59.8095 203.917 59.8208 204.024 59.8536 204.125C59.8863 204.225 59.9398 204.318 60.0106 204.397C60.0814 204.475 60.1679 204.538 60.2645 204.581C60.3611 204.625 60.4658 204.647 60.5716 204.647C62.3745 204.617 63.2879 204.509 65.5956 204.509C67.0198 204.509 69.9585 204.653 71.9236 204.653C73.8887 204.653 73.9908 202.712 73.1735 202.538C69.5077 201.751 68.0655 200.663 66.8275 199.624C66.6098 199.437 66.3327 199.335 66.0463 199.335Z" fill="#263238"/>
<path d="M66.1931 189.047L66.0369 194.63H61.3555L61.5177 189.047H66.1931Z" fill="#CE6F64"/>
<path d="M41.4549 189.047H46.1363L45.3611 194.63H40.6797L41.4549 189.047Z" fill="#CE6F64"/>
<path d="M51.0799 76.7892C50.1914 78.1773 49.1624 79.4701 48.009 80.6473L47.4742 80.2927L41.5488 76.3565C41.5488 76.3565 44.7819 69.1451 47.2158 68.7786C49.5414 68.406 51.2361 70.8098 52.0234 73.3818C52.3238 74.3133 51.825 75.5753 51.0799 76.7892Z" fill="#A5B1BF"/>
<path opacity="0.6" d="M51.0799 76.7892C50.1914 78.1773 49.1624 79.4701 48.009 80.6473L47.4742 80.2927L41.5488 76.3565C41.5488 76.3565 44.7819 69.1451 47.2158 68.7786C49.5414 68.406 51.2361 70.8098 52.0234 73.3818C52.3238 74.3133 51.825 75.5753 51.0799 76.7892Z" fill="#FAFAFA"/>
<path d="M51.0823 76.789C50.1938 78.1771 49.1648 79.4699 48.0114 80.6471L47.4766 80.2926C47.741 78.1291 48.5823 75.9838 49.5438 75.3047C50.1328 75.3648 50.6556 75.9898 51.0823 76.789Z" fill="#A5B1BF"/>
<path opacity="0.4" d="M51.0823 76.789C50.1938 78.1771 49.1648 79.4699 48.0114 80.6471L47.4766 80.2926C47.741 78.1291 48.5823 75.9838 49.5438 75.3047C50.1328 75.3648 50.6556 75.9898 51.0823 76.789Z" fill="#FAFAFA"/>
<path d="M71.3509 80.3892C71.0685 82.1921 70.7019 84.3134 70.2091 86.8314C69.6081 90.0525 68.7668 93.9166 67.7031 98.5379L48.7432 97.336C49.5605 89.6378 49.879 84.8783 47.2168 68.8029C49.9084 68.427 52.6239 68.2482 55.3416 68.2681C58.2198 68.2492 61.0956 68.436 63.9472 68.827C67.625 69.4279 71.7595 70.5337 71.7595 70.5337C71.7595 70.5337 72.8172 70.9483 71.3509 80.3892Z" fill="#A5B1BF"/>
<path opacity="0.6" d="M71.3509 80.3892C71.0685 82.1921 70.7019 84.3134 70.2091 86.8314C69.6081 90.0525 68.7668 93.9166 67.7031 98.5379L48.7432 97.336C49.5605 89.6378 49.879 84.8783 47.2168 68.8029C49.9084 68.427 52.6239 68.2482 55.3416 68.2681C58.2198 68.2492 61.0956 68.436 63.9472 68.827C67.625 69.4279 71.7595 70.5337 71.7595 70.5337C71.7595 70.5337 72.8172 70.9483 71.3509 80.3892Z" fill="#FAFAFA"/>
<path d="M71.351 80.3905C71.0686 82.1934 70.702 84.3147 70.2092 86.8327C69.1664 84.6148 68.3004 82.3181 67.6191 79.9639H71.1407L71.351 80.3905Z" fill="#A5B1BF"/>
<path opacity="0.4" d="M71.351 80.3905C71.0686 82.1934 70.702 84.3147 70.2092 86.8327C69.1664 84.6148 68.3004 82.3181 67.6191 79.9639H71.1407L71.351 80.3905Z" fill="#FAFAFA"/>
<path d="M55.1675 54.0751C55.8826 58.6603 56.0929 60.6194 58.647 62.7648C62.487 65.9979 67.9617 64.1109 68.6287 59.3995C69.2297 55.1628 67.9557 48.3721 63.2622 46.9658C62.2299 46.6491 61.1336 46.6018 60.0778 46.8285C59.022 47.0552 58.0417 47.5483 57.2304 48.2609C56.419 48.9734 55.8035 49.8818 55.4424 50.8995C55.0813 51.9172 54.9866 53.0104 55.1675 54.0751Z" fill="#E4897B"/>
<path d="M62.6911 98.2137C62.6911 98.2137 62.3906 106.561 61.6695 117.089C61.0685 125.923 60.1611 136.284 58.8931 144.541L58.857 144.769C56.5794 159.384 46.4895 193.542 46.4895 193.542H40.1074C40.1074 193.542 45.3657 160.55 46.5195 146.067C49.4462 109.487 42.1146 105.347 48.7431 97.2822L62.6911 98.2137Z" fill="#A5B1BF"/>
<path opacity="0.3" d="M62.6911 98.2137C62.6911 98.2137 62.3906 106.561 61.6695 117.089C61.0685 125.923 60.1611 136.284 58.8931 144.541L58.857 144.769C56.5794 159.384 46.4895 193.542 46.4895 193.542H40.1074C40.1074 193.542 45.3657 160.55 46.5195 146.067C49.4462 109.487 42.1146 105.347 48.7431 97.2822L62.6911 98.2137Z" fill="black"/>
<path d="M61.6695 117.089C61.0686 125.923 60.1611 136.284 58.8931 144.541C56.7357 133.814 53.1901 118.147 57.9496 107.883C59.0854 110.797 60.4075 114.091 61.6695 117.089Z" fill="#A5B1BF"/>
<path opacity="0.4" d="M61.6695 117.089C61.0686 125.923 60.1611 136.284 58.8931 144.541C56.7357 133.814 53.1901 118.147 57.9496 107.883C59.0854 110.797 60.4075 114.091 61.6695 117.089Z" fill="black"/>
<path d="M67.7024 98.5432C67.7024 98.5432 73.1109 130.598 72.7864 144.864C72.4679 159.708 67.0293 193.541 67.0293 193.541H60.7073C60.7073 193.541 61.7049 160.567 61.146 145.994C60.5451 130.105 53.8145 97.6357 53.8145 97.6357L67.7024 98.5432Z" fill="#A5B1BF"/>
<path opacity="0.3" d="M67.7024 98.5432C67.7024 98.5432 73.1109 130.598 72.7864 144.864C72.4679 159.708 67.0293 193.541 67.0293 193.541H60.7073C60.7073 193.541 61.7049 160.567 61.146 145.994C60.5451 130.105 53.8145 97.6357 53.8145 97.6357L67.7024 98.5432Z" fill="black"/>
<path d="M59.6266 193.844H68.106L68.7671 191.001L59.3262 191.068L59.6266 193.844Z" fill="#263238"/>
<path d="M39.1836 193.844H47.663L48.324 191.001L39.2437 191.068L39.1836 193.844Z" fill="#263238"/>
<path d="M48.5274 96.1889L47.5659 97.8355C47.4877 97.9617 47.638 98.106 47.8543 98.118L67.7397 99.41C67.908 99.41 68.0582 99.3499 68.0762 99.2417L68.3587 97.5531C68.3587 97.4389 68.2325 97.3307 68.0462 97.3187L48.8158 96.0687C48.7619 96.0663 48.708 96.0758 48.6582 96.0966C48.6083 96.1173 48.5636 96.1489 48.5274 96.1889Z" fill="#263238"/>
<path d="M50.9654 98.4965L50.4546 98.4604C50.3525 98.4604 50.2744 98.3943 50.2864 98.3342L50.671 96.1408C50.671 96.0807 50.7731 96.0326 50.8753 96.0386L51.3921 96.0686C51.4943 96.0686 51.5664 96.1347 51.5604 96.2009L51.1758 98.3883C51.1638 98.4544 51.0676 98.5025 50.9654 98.4965Z" fill="#A5B1BF"/>
<path opacity="0.3" d="M50.9654 98.4965L50.4546 98.4604C50.3525 98.4604 50.2744 98.3943 50.2864 98.3342L50.671 96.1408C50.671 96.0807 50.7731 96.0326 50.8753 96.0386L51.3921 96.0686C51.4943 96.0686 51.5664 96.1347 51.5604 96.2009L51.1758 98.3883C51.1638 98.4544 51.0676 98.5025 50.9654 98.4965Z" fill="black"/>
<path d="M63.4127 99.302L62.9019 99.272C62.7997 99.272 62.7216 99.2059 62.7336 99.1398L63.1183 96.9523C63.1183 96.8862 63.2204 96.8442 63.3286 96.8502L63.8394 96.8802C63.9416 96.8802 64.0197 96.9463 64.0077 97.0124L63.6231 99.1999C63.6291 99.266 63.5329 99.3081 63.4127 99.302Z" fill="#A5B1BF"/>
<path opacity="0.3" d="M63.4127 99.302L62.9019 99.272C62.7997 99.272 62.7216 99.2059 62.7336 99.1398L63.1183 96.9523C63.1183 96.8862 63.2204 96.8442 63.3286 96.8502L63.8394 96.8802C63.9416 96.8802 64.0197 96.9463 64.0077 97.0124L63.6231 99.1999C63.6291 99.266 63.5329 99.3081 63.4127 99.302Z" fill="black"/>
<path d="M72.8346 75.3418C73.5558 77.7456 74.2409 80.1794 74.9079 82.6073L76.9211 89.8727L77.1735 90.7742L77.2396 90.9965L77.2696 91.1107V91.1708C77.2911 91.2503 77.3172 91.3286 77.3478 91.4052C77.4953 91.7704 77.6979 92.1109 77.9487 92.4148C78.6662 93.172 79.4975 93.8127 80.4126 94.3138C82.509 95.4483 84.7264 96.3434 87.023 96.982L86.6745 99.3257C83.9797 99.1868 81.3252 98.6125 78.8141 97.625C77.4246 97.0804 76.1443 96.2907 75.0341 95.2933C74.3982 94.7038 73.8695 94.0084 73.4716 93.238C73.3642 93.0298 73.2699 92.8151 73.1892 92.595L73.1231 92.4328L73.081 92.3186L73.0029 92.0962L72.6844 91.1888C71.8431 88.785 71.0618 86.3812 70.3227 83.9414C69.5835 81.5015 68.8564 79.0977 68.1953 76.6459L72.8346 75.3418Z" fill="#E4897B"/>
<path d="M71.7576 70.5092C74.1614 71.2964 76.6854 79.1568 76.6854 79.1568L68.0077 82.8947C68.0077 82.8947 64.402 74.0728 66.0006 72.0777C67.5991 70.0825 68.9993 69.6078 71.7576 70.5092Z" fill="#A5B1BF"/>
<path opacity="0.6" d="M71.7576 70.5092C74.1614 71.2964 76.6854 79.1568 76.6854 79.1568L68.0077 82.8947C68.0077 82.8947 64.402 74.0728 66.0006 72.0777C67.5991 70.0825 68.9993 69.6078 71.7576 70.5092Z" fill="#FAFAFA"/>
<path d="M67.1212 46.7009C65.5888 44.8079 53.7501 43.4558 53.1191 48.6119C48.9125 51.5566 52.9028 59.1646 53.5037 61.0996C50.6012 61.9049 41.2504 65.102 48.0952 71.3158C54.94 77.5296 65.2042 76.4719 67.2114 70.0418C68.6176 65.5467 64.1526 58.0228 64.2487 55.3906C64.3449 52.7585 69.7474 49.916 67.1212 46.7009Z" fill="#263238"/>
<path d="M54.3313 62.0476C54.3094 62.0483 54.2876 62.0438 54.2677 62.0344C54.2479 62.025 54.2305 62.011 54.2172 61.9935C53.1294 60.6715 49.3435 53.7245 50.6716 50.4193C50.8775 49.9065 51.2267 49.4638 51.6775 49.1441C52.1283 48.8244 52.6615 48.6412 53.2136 48.6164C53.233 48.6139 53.2527 48.6154 53.2716 48.6208C53.2904 48.6261 53.3079 48.6353 53.3231 48.6476C53.3383 48.66 53.3508 48.6754 53.3599 48.6927C53.3689 48.7101 53.3744 48.7291 53.3758 48.7486C53.381 48.7876 53.3707 48.8271 53.3471 48.8585C53.3235 48.89 53.2885 48.9109 53.2496 48.9169C52.7533 48.9352 52.2726 49.0956 51.8646 49.3789C51.4566 49.6623 51.1385 50.0567 50.948 50.5154C49.668 53.7125 53.3818 60.4972 54.4455 61.7952C54.4645 61.8164 54.4768 61.8427 54.4809 61.8709C54.485 61.899 54.4806 61.9277 54.4684 61.9534C54.4562 61.9791 54.4367 62.0006 54.4123 62.0152C54.3879 62.0299 54.3597 62.0369 54.3313 62.0356V62.0476Z" fill="#263238"/>
<path d="M63.3106 55.1081C63.4447 55.9857 63.8677 56.7936 64.5125 57.4038C65.3659 58.221 66.1712 57.6622 66.2493 56.6225C66.3214 55.6911 65.9608 54.1466 64.9512 53.7139C63.9416 53.2813 63.1844 54.0685 63.3106 55.1081Z" fill="#E4897B"/>
<path d="M84.0781 96.3317L87.4915 95.1719L86.9566 99.2764C86.9566 99.2764 85.6105 99.8773 83.8677 98.3629L82.2031 97.2992L83.5132 96.5841C83.6928 96.4818 83.882 96.3972 84.0781 96.3317Z" fill="#E4897B"/>
<path d="M89.8776 95.1602L88.832 98.7478L86.957 99.2707L87.4919 95.1722L89.8776 95.1602Z" fill="#E4897B"/>
</svg>
