<svg width="12" height="13" viewBox="0 0 12 13" fill="none" xmlns="http://www.w3.org/2000/svg">
<path d="M9.55122 5.38641L10.0812 4.85641C10.4712 4.46641 10.4712 3.83141 10.0812 3.44141L9.37622 2.73641C8.98622 2.34641 8.35122 2.34641 7.96122 2.73641L7.43122 3.26641L9.55122 5.38641ZM6.72122 3.97141L2.12622 8.57141V10.6914H4.24622L8.84122 6.09641L6.72122 3.97141ZM9.62622 8.94141C9.62622 10.0364 8.35622 10.6914 7.12622 10.6914C6.85122 10.6914 6.62622 10.4664 6.62622 10.1914C6.62622 9.91641 6.85122 9.69141 7.12622 9.69141C7.89622 9.69141 8.62622 9.32641 8.62622 8.94141C8.62622 8.70641 8.38622 8.50641 8.01122 8.34141L8.75122 7.60141C9.28622 7.91641 9.62622 8.33641 9.62622 8.94141ZM2.41622 6.86641C1.93122 6.58641 1.62622 6.22141 1.62622 5.69141C1.62622 4.79141 2.57122 4.37641 3.40622 4.01141C3.92122 3.78141 4.62622 3.47141 4.62622 3.19141C4.62622 2.98641 4.23622 2.69141 3.62622 2.69141C2.99622 2.69141 2.72622 2.99641 2.71122 3.01141C2.53622 3.21641 2.22122 3.24141 2.01122 3.07141C1.80622 2.90141 1.76622 2.59641 1.93622 2.38141C1.99122 2.31141 2.50622 1.69141 3.62622 1.69141C4.74622 1.69141 5.62622 2.35141 5.62622 3.19141C5.62622 4.12641 4.66122 4.55141 3.80622 4.92641C3.33622 5.13141 2.62622 5.44141 2.62622 5.69141C2.62622 5.84641 2.84122 5.99141 3.16122 6.12141L2.41622 6.86641Z" fill="#003352"/>
</svg>
