<svg width="143" height="30" viewBox="0 0 143 30" fill="none" xmlns="http://www.w3.org/2000/svg">
<g clip-path="url(#clip0_15183_87088)">
<path d="M33.8138 26.5871C31.4628 24.3118 30.2881 21.5569 30.2881 18.3237C30.2881 15.0905 31.4628 12.3356 33.8138 10.0603C36.1633 7.78508 38.9851 6.64746 42.2792 6.64746C45.5732 6.64746 48.3935 7.78508 50.7445 10.0603C53.094 12.3356 54.2703 15.0905 54.2703 18.3237C54.2703 21.5569 53.0955 24.3118 50.7445 26.5871C48.3935 28.8623 45.5718 29.9999 42.2792 29.9999C38.9866 29.9999 36.1633 28.8623 33.8138 26.5871ZM38.1252 14.192C36.9727 15.3296 36.3965 16.7064 36.3965 18.3237C36.3965 19.941 36.9727 21.3178 38.1252 22.4554C39.2777 23.593 40.6633 24.1618 42.2792 24.1618C43.895 24.1618 45.2807 23.593 46.4331 22.4554C47.5856 21.3178 48.1618 19.941 48.1618 18.3237C48.1618 16.7064 47.5856 15.3296 46.4331 14.192C45.2807 13.0544 43.895 12.4856 42.2792 12.4856C40.6633 12.4856 39.2777 13.0544 38.1252 14.192Z" fill="#10263B"/>
<path d="M60.9161 26.5871C58.5799 24.3118 57.4126 21.5569 57.4126 18.3237C57.4126 15.0905 58.5873 12.3356 60.9383 10.0603C63.2878 7.78508 66.1096 6.64746 69.4037 6.64746C72.4869 6.64746 75.1527 7.56083 77.3982 9.38756L73.7151 13.7435C72.7572 12.9059 71.3641 12.4856 69.5388 12.4856C67.8324 12.4856 66.4022 13.0395 65.2497 14.1475C64.0972 15.2554 63.521 16.647 63.521 18.3237C63.521 20.0004 64.0898 21.3549 65.2274 22.4777C66.3651 23.6004 67.8621 24.1618 69.7185 24.1618C71.7844 24.1618 73.4017 23.6524 74.569 22.6351L77.8468 27.2613C75.4809 29.0881 72.6666 30.0014 69.4037 30.0014C66.1408 30.0014 63.2507 28.8638 60.9161 26.5886V26.5871Z" fill="#10263B"/>
<path d="M80.7666 19.8061V7.09619H86.829V18.7724C86.829 20.5992 87.1275 21.9536 87.7275 22.8373C88.326 23.7209 89.3894 24.162 90.9161 24.162C94.1493 24.162 95.7666 22.1259 95.7666 18.0536V7.09619H101.784V29.5516H95.7666V26.6318C94.0602 28.8774 91.8146 30.0002 89.03 30.0002C87.7423 30.0002 86.6047 29.7982 85.6171 29.3942C84.6295 28.9903 83.8349 28.466 83.2364 27.8229C82.6364 27.1799 82.1508 26.4016 81.7765 25.4868C81.4023 24.5734 81.1394 23.6615 80.9909 22.7467C80.8409 21.8333 80.7666 20.8531 80.7666 19.8046V19.8061Z" fill="#10263B"/>
<path d="M107.174 29.5514V7.09598H113.192V10.1955C113.731 9.26726 114.591 8.44449 115.774 7.72568C116.957 7.00687 118.177 6.64746 119.435 6.64746C122.848 6.64746 125.184 8.01083 126.441 10.7346C127.13 9.53756 128.162 8.55588 129.54 7.79251C130.917 7.02914 132.234 6.64746 133.492 6.64746C139.301 6.64746 142.206 10.1509 142.206 17.1564V29.5514H136.188V17.8752C136.188 17.0673 136.143 16.393 136.053 15.8539C135.962 15.3148 135.79 14.7608 135.536 14.192C135.28 13.6232 134.869 13.197 134.3 12.9118C133.731 12.6282 132.998 12.4856 132.099 12.4856C130.661 12.4856 129.568 12.9727 128.82 13.9455C128.071 14.9183 127.697 16.0945 127.697 17.4712V29.5529H121.679V17.8767C121.679 17.0687 121.635 16.3945 121.544 15.8554C121.454 15.3163 121.281 14.7623 121.027 14.1935C120.773 13.6247 120.36 13.1985 119.792 12.9133C119.223 12.6296 118.489 12.4871 117.591 12.4871C116.094 12.4871 114.986 13.0113 114.267 14.0584C113.548 15.1069 113.189 16.3648 113.189 17.8306V29.5529H107.171L107.174 29.5514Z" fill="#10263B"/>
<path d="M17.5927 18.0993L15.4482 15.6874C15.3026 15.5225 15.0427 15.5285 14.9046 15.6993L12.9398 18.1112C12.7497 18.3443 12.916 18.6948 13.2175 18.6948H14.1858V22.7953C14.1858 23.3626 14.6462 23.8216 15.212 23.8216C15.7779 23.8216 16.2383 23.3612 16.2383 22.7953V18.6948H17.3269C17.6358 18.6948 17.7992 18.331 17.5942 18.0993H17.5927Z" fill="#10263B"/>
<path d="M6.77065 10.2698H13.6127L15.9459 13.5208H23.6108V0H17.5914V10.0604C15.9756 7.78515 13.8325 6.64604 11.1697 6.64604C8.08501 6.64604 5.5855 7.76881 3.66966 10.0144C1.75382 12.2599 0.795898 15.0297 0.795898 18.3238C0.795898 21.6178 1.75382 24.3861 3.67115 26.6317C5.58699 28.8787 8.08649 30 11.1711 30C13.8355 30 15.9771 28.8787 17.5929 26.6317V29.553H23.6122V25.7866H6.77065V10.2698Z" fill="#10263B"/>
<path d="M27.3578 13.521H23.6123V25.7868H27.3578V13.521Z" fill="#10263B"/>
</g>
<defs>
<clipPath id="clip0_15183_87088">
<rect width="141.408" height="30" fill="white" transform="translate(0.795898)"/>
</clipPath>
</defs>
</svg>
