<svg width="110" height="101" viewBox="0 0 110 101" fill="none" xmlns="http://www.w3.org/2000/svg">
<path d="M81.5064 93.1016H76.8633V99.9617H81.5064V93.1016Z" fill="white" stroke="#263238" stroke-width="1.05542" stroke-linecap="round" stroke-linejoin="round"/>
<path d="M81.297 99.0337H80.8128C80.7191 99.0229 80.6325 98.9779 80.5697 98.9074C80.5069 98.837 80.4722 98.7459 80.4722 98.6515C80.4722 98.5571 80.5069 98.466 80.5697 98.3955C80.6325 98.325 80.7191 98.2801 80.8128 98.2692H81.297C81.4894 98.2685 81.6738 98.1918 81.8098 98.0557C81.9459 97.9197 82.0226 97.7353 82.0233 97.5429V95.8814C82.0226 95.689 81.9459 95.5046 81.8098 95.3686C81.6738 95.2325 81.4894 95.1558 81.297 95.1551H80.6752C80.5738 95.1551 80.4766 95.1149 80.4049 95.0432C80.3332 94.9715 80.293 94.8743 80.293 94.7729C80.293 94.6715 80.3332 94.5743 80.4049 94.5026C80.4766 94.4309 80.5738 94.3906 80.6752 94.3906H81.297C81.4928 94.3906 81.6866 94.4292 81.8675 94.5041C82.0484 94.579 82.2127 94.6888 82.3512 94.8273C82.4896 94.9657 82.5994 95.13 82.6743 95.3109C82.7492 95.4918 82.7878 95.6856 82.7878 95.8814V97.5429C82.7871 97.9381 82.6298 98.3169 82.3504 98.5963C82.071 98.8758 81.6922 99.033 81.297 99.0337Z" fill="white" stroke="#263238" stroke-width="1.05542" stroke-linecap="round" stroke-linejoin="round"/>
<path d="M77.5897 86.6379C77.3645 86.3511 77.1919 86.0267 77.0801 85.6797" stroke="#263238" stroke-width="1.05542" stroke-linejoin="round"/>
<path d="M77.4699 92.586C77.4699 92.586 77.2762 92.3924 78.9301 91.5157C80.5839 90.6391 80.6808 89.1814 79.0269 88.0143C78.7446 87.8158 78.4771 87.5969 78.2267 87.3594" stroke="#263238" stroke-width="1.05542" stroke-linejoin="round"/>
<path d="M79.6152 92.4905C79.6152 92.4905 81.1723 91.8101 81.3659 90.5461C81.4416 90.0759 81.3914 89.5941 81.2204 89.1496C81.0494 88.7051 80.7638 88.3139 80.3925 88.0156" stroke="#263238" stroke-width="1.05542" stroke-linejoin="round"/>
<path d="M90.127 97.8203C89.0771 97.8203 88.2285 98.2484 88.2285 98.7759C88.2285 99.3034 89.0771 99.7316 90.127 99.7316C91.177 99.7316 92.023 99.3034 92.023 98.7759C92.023 98.2484 91.1744 97.8203 90.127 97.8203ZM90.127 99.1149C89.755 99.1149 89.4568 98.962 89.4568 98.7759C89.4568 98.5899 89.755 98.4396 90.127 98.4396C90.4991 98.4396 90.7947 98.5899 90.7947 98.7759C90.7947 98.962 90.4965 99.1149 90.127 99.1149Z" fill="#FF7500" stroke="#263238" stroke-width="1.05542" stroke-linejoin="round"/>
<path d="M87.6729 96.375C86.1872 96.375 84.9844 97.1573 84.9844 98.1232C84.9844 99.089 86.1872 99.8713 87.6729 99.8713C89.1586 99.8713 90.3614 99.089 90.3614 98.1232C90.3614 97.1573 89.1586 96.375 87.6729 96.375ZM87.6729 98.4952C87.3569 98.4952 87.0995 98.327 87.0995 98.1232C87.0995 97.9193 87.3543 97.7511 87.6729 97.7511C87.9914 97.7511 88.2463 97.9168 88.2463 98.1232C88.2463 98.3296 87.9889 98.4952 87.6729 98.4952Z" fill="#FF7500" stroke="#263238" stroke-width="1.05542" stroke-linejoin="round"/>
<path d="M93.7819 98.7734H83.9453L85.0819 99.9559H92.6454L93.7819 98.7734Z" fill="white" stroke="#263238" stroke-width="1.05542" stroke-linejoin="round"/>
<path d="M104.405 56.2723C104.405 56.2723 104.507 55.0261 102.904 53.1353C101.301 51.2444 100.258 50.1562 100.258 50.1562C100.258 50.1562 99.1499 52.9594 100.628 54.8325C101.72 56.162 102.922 57.3972 104.221 58.525L104.405 56.2723Z" fill="#FF7500"/>
<path d="M101.23 63.8504C101.23 63.8504 101.332 62.6043 99.7318 60.7134C98.1314 58.8225 97.0866 57.7344 97.0866 57.7344C97.0866 57.7344 95.978 60.5376 97.4561 62.4106C98.5475 63.7374 99.7486 64.9701 101.047 66.0955L101.23 63.8504Z" fill="#FF7500"/>
<path d="M104.119 58.3846C104.119 58.3846 104.354 57.1538 106.413 55.7598C108.472 54.3659 109.756 53.5938 109.756 53.5938C109.756 53.5938 110.077 56.5855 108.153 58.0024C106.747 58.9894 105.26 59.8572 103.709 60.5966L104.119 58.3846Z" fill="#FF7500"/>
<path d="M100.302 67.3382C100.302 67.3382 100.663 66.1405 102.85 64.9683C105.036 63.796 106.402 63.1641 106.402 63.1641C106.402 63.1641 106.402 66.1737 104.343 67.3816C102.842 68.2146 101.273 68.9212 99.6543 69.4942L100.302 67.3382Z" fill="#FF7500"/>
<path d="M100.053 77.4113C100.053 77.4113 100.155 76.1652 102.045 74.5623C103.936 72.9593 105.139 72.0547 105.139 72.0547C105.139 72.0547 105.776 74.9955 104.013 76.6086C102.72 77.7421 101.333 78.765 99.8691 79.6666L100.053 77.4113Z" fill="#FF7500"/>
<path d="M99.8232 79.8572C99.8232 79.8572 100.101 78.6365 98.7835 76.5443C97.466 74.4521 96.5919 73.2188 96.5919 73.2188C96.5919 73.2188 95.096 75.8308 96.2912 77.9001C97.1828 79.3689 98.1963 80.7601 99.3212 82.059L99.8232 79.8572Z" fill="#FF7500"/>
<path d="M97.5044 86.9764C97.5044 86.9764 97.6063 85.7277 99.4972 84.1248C101.388 82.5219 102.591 81.6172 102.591 81.6172C102.591 81.6172 103.228 84.558 101.462 86.1711C100.169 87.3047 98.7828 88.3277 97.3184 89.2291L97.5044 86.9764Z" fill="#FF7500"/>
<path d="M98.129 93.6447C98.129 93.6447 97.9124 92.4113 99.3344 90.3828C100.756 88.3543 101.694 87.1719 101.694 87.1719C101.694 87.1719 103.055 89.8553 101.755 91.8634C100.79 93.2843 99.7076 94.6218 98.5189 95.8617L98.129 93.6447Z" fill="#FF7500"/>
<path d="M104.591 55.9766C104.395 57.2642 104.13 58.5403 103.796 59.7991C102.812 63.3107 100.896 65.4692 99.94 68.6342C98.9844 71.7992 100.626 76.111 99.754 80.2037C98.8824 84.2963 97.0833 86.4675 97.3178 89.2656C97.5522 92.0637 99.3564 99.7418 99.3564 99.7418" stroke="#263238" stroke-width="0.527711" stroke-linecap="round" stroke-linejoin="round"/>
<path d="M104.035 59.2113L106.036 57.9219" stroke="#263238" stroke-width="0.527711" stroke-linecap="round" stroke-linejoin="round"/>
<path d="M104.259 57.559L103.586 56.0938" stroke="#263238" stroke-width="0.527711" stroke-linecap="round" stroke-linejoin="round"/>
<path d="M100.055 68.4905C100.055 68.4905 101.729 67.438 103.444 66.3906" stroke="#263238" stroke-width="0.527711" stroke-linecap="round" stroke-linejoin="round"/>
<path d="M101.047 66.0965C101.047 66.0965 99.9457 63.4156 98.5977 61.5859" stroke="#263238" stroke-width="0.527711" stroke-linecap="round" stroke-linejoin="round"/>
<path d="M99.9688 79.1912C101.005 77.6078 102.265 76.1829 103.71 74.9609" stroke="#263238" stroke-width="0.527711" stroke-linecap="round" stroke-linejoin="round"/>
<path d="M99.5172 80.9192C99.1322 79.7547 98.6506 78.6244 98.0774 77.5401C97.2696 76.1079 97.1523 75.9219 97.1523 75.9219" stroke="#263238" stroke-width="0.527711" stroke-linecap="round" stroke-linejoin="round"/>
<path d="M97.3145 89.2653C97.7949 88.3071 98.3478 87.3871 98.9683 86.5131C99.5841 85.7061 100.266 84.9517 101.007 84.2578" stroke="#263238" stroke-width="0.527711" stroke-linecap="round" stroke-linejoin="round"/>
<path d="M98.5181 95.8674C98.5049 94.9143 98.7459 93.9748 99.2163 93.1458C99.9808 91.9302 100.86 90.3273 101.219 89.6953" stroke="#263238" stroke-width="0.527711" stroke-linecap="round" stroke-linejoin="round"/>
<path d="M91.5948 71.9898C91.5948 71.9898 91.5235 71.1973 92.5352 69.9868C93.5469 68.7764 94.2018 68.0781 94.2018 68.0781C94.2018 68.0781 94.923 69.862 93.9903 71.0571C93.3013 71.9063 92.5426 72.6964 91.7223 73.4195L91.5948 71.9898Z" fill="#FF7500"/>
<path d="M93.6554 76.8023C93.6554 76.8023 93.584 76.0072 94.5957 74.7993C95.6074 73.5914 96.2623 72.8906 96.2623 72.8906C96.2623 72.8906 96.981 74.6745 96.0508 75.8671C95.3618 76.7162 94.6032 77.5064 93.7828 78.2294L93.6554 76.8023Z" fill="#FF7500"/>
<path d="M91.7896 73.3427C91.7896 73.3427 91.6342 72.5603 90.3243 71.6837C89.0145 70.807 88.1888 70.3203 88.1888 70.3203C88.1888 70.3203 87.9951 72.2265 89.2285 73.1235C90.1278 73.7451 91.0774 74.2906 92.0674 74.7544L91.7896 73.3427Z" fill="#FF7500"/>
<path d="M94.2622 79.0205C94.2622 79.0205 94.0253 78.256 92.6313 77.5246C91.2374 76.7933 90.3633 76.3906 90.3633 76.3906C90.3633 76.3906 90.3633 78.307 91.691 79.0664C92.6509 79.5891 93.6524 80.0315 94.6853 80.389L94.2622 79.0205Z" fill="#FF7500"/>
<path d="M94.4652 85.4258C94.4652 85.4258 94.3938 84.6307 93.191 83.6216C91.9882 82.6124 91.2084 82.0391 91.2084 82.0391C91.2084 82.0391 90.816 83.9121 91.9474 84.9314C92.7762 85.6453 93.6636 86.288 94.6003 86.8529L94.4652 85.4258Z" fill="#FF7500"/>
<path d="M94.6246 86.9852C94.6246 86.9852 94.4412 86.2207 95.2719 84.8701C96.1027 83.5194 96.6506 82.7422 96.6506 82.7422C96.6506 82.7422 97.6139 84.3961 96.8646 85.7212C96.3034 86.6595 95.665 87.5494 94.9559 88.3817L94.6246 86.9852Z" fill="#FF7500"/>
<path d="M96.2979 93.4729C96.2979 93.4729 96.4533 92.6906 97.7632 91.8139C99.073 90.9373 99.9013 90.4531 99.9013 90.4531C99.9013 90.4531 100.092 92.3593 98.859 93.2563C97.9591 93.877 97.0086 94.4209 96.0176 94.8822L96.2979 93.4729Z" fill="#FF7500"/>
<path d="M96.1332 91.5039C96.1332 91.5039 96.0618 90.7089 94.859 89.6972C93.6562 88.6855 92.8764 88.1172 92.8764 88.1172C92.8764 88.1172 92.4839 89.9902 93.6154 91.0096C94.4443 91.7221 95.3307 92.3648 96.2657 92.931L96.1332 91.5039Z" fill="#FF7500"/>
<path d="M95.7659 95.7486C95.7659 95.7486 95.8984 94.9637 94.9836 93.6793C94.0687 92.3949 93.4699 91.6406 93.4699 91.6406C93.4699 91.6406 92.6136 93.3531 93.452 94.6247C94.0726 95.5247 94.7673 96.3711 95.5289 97.1552L95.7659 95.7486Z" fill="#FF7500"/>
<path d="M91.4785 71.7969C91.6099 72.6177 91.7851 73.431 92.0035 74.2331C92.6457 76.4629 93.874 77.8263 94.4983 79.8395C95.1227 81.8526 94.0957 84.5998 94.669 87.2016C95.2424 89.8035 96.3994 91.1745 96.2618 92.9583C96.1242 94.7422 95.0182 99.6324 95.0182 99.6324" stroke="#263238" stroke-width="0.527711" stroke-linecap="round" stroke-linejoin="round"/>
<path d="M91.8496 73.8676L90.5703 73.0547" stroke="#263238" stroke-width="0.527711" stroke-linecap="round" stroke-linejoin="round"/>
<path d="M91.6992 72.8102L92.1197 71.875" stroke="#263238" stroke-width="0.527711" stroke-linecap="round" stroke-linejoin="round"/>
<path d="M94.422 79.7497C94.422 79.7497 93.3542 79.0897 92.2559 78.4297" stroke="#263238" stroke-width="0.527711" stroke-linecap="round" stroke-linejoin="round"/>
<path d="M93.7832 78.2337C94.1935 77.2235 94.7058 76.2578 95.3122 75.3516" stroke="#263238" stroke-width="0.527711" stroke-linecap="round" stroke-linejoin="round"/>
<path d="M94.5294 86.5586C93.8623 85.5557 93.0537 84.6545 92.1289 83.8828" stroke="#263238" stroke-width="0.527711" stroke-linecap="round" stroke-linejoin="round"/>
<path d="M94.8223 87.6593C95.0629 86.917 95.3647 86.1959 95.7244 85.5034C96.234 84.586 96.3054 84.4688 96.3054 84.4688" stroke="#263238" stroke-width="0.527711" stroke-linecap="round" stroke-linejoin="round"/>
<path d="M96.0918 94.3053C96.5699 93.8021 97.0918 93.3424 97.6514 92.9318C98.0046 92.7138 98.3395 92.4675 98.6529 92.1953" stroke="#263238" stroke-width="0.527711" stroke-linecap="round" stroke-linejoin="round"/>
<path d="M96.2625 92.9592C95.953 92.3508 95.5968 91.7672 95.1973 91.2136C94.8024 90.7037 94.3659 90.2272 93.8926 89.7891" stroke="#263238" stroke-width="0.527711" stroke-linecap="round" stroke-linejoin="round"/>
<path d="M95.5294 97.1643C95.534 96.5568 95.3756 95.9593 95.0707 95.4339C94.5814 94.6694 94.0131 93.6501 93.7812 93.25" stroke="#263238" stroke-width="0.527711" stroke-linecap="round" stroke-linejoin="round"/>
<path d="M17.2112 56.2723C17.2112 56.2723 17.3131 55.0261 15.7102 53.1353C14.1073 51.2444 13.0676 50.1562 13.0676 50.1562C13.0676 50.1562 11.9591 52.9594 13.4346 54.8325C14.5256 56.1619 15.7268 57.3971 17.0252 58.525L17.2112 56.2723Z" fill="#FF7500"/>
<path d="M14.0349 63.8504C14.0349 63.8504 14.1368 62.6043 12.5339 60.7134C10.931 58.8225 9.89126 57.7344 9.89126 57.7344C9.89126 57.7344 8.78273 60.5376 10.2608 62.4106C11.3509 63.7377 12.5512 64.9704 13.8488 66.0955L14.0349 63.8504Z" fill="#FF7500"/>
<path d="M16.9279 58.3846C16.9279 58.3846 17.1623 57.1538 19.2214 55.7598C21.2804 54.3659 22.5623 53.5938 22.5623 53.5938C22.5623 53.5938 22.8859 56.5855 20.9593 58.0024C19.5535 58.9892 18.0678 59.8569 16.5176 60.5966L16.9279 58.3846Z" fill="#FF7500"/>
<path d="M13.1049 67.3382C13.1049 67.3382 13.4642 66.1405 15.6533 64.9683C17.8423 63.796 19.2056 63.1641 19.2056 63.1641C19.2056 63.1641 19.2056 66.1737 17.1491 67.3816C15.6455 68.2115 14.0754 68.9147 12.4551 69.484L13.1049 67.3382Z" fill="#FF7500"/>
<path d="M12.8497 77.4113C12.8497 77.4113 12.9516 76.1652 14.8399 74.5623C16.7282 72.9593 17.9464 72.0547 17.9464 72.0547C17.9464 72.0547 18.5834 74.9955 16.8174 76.6086C15.5248 77.7427 14.1386 78.7657 12.6738 79.6666L12.8497 77.4113Z" fill="#FF7500"/>
<path d="M12.6259 79.8572C12.6259 79.8572 12.9062 78.6365 11.5862 76.5443C10.2662 74.4521 9.39462 73.2188 9.39462 73.2188C9.39462 73.2188 7.89874 75.8257 9.09392 77.8899C9.98644 79.358 11 80.7492 12.1239 82.0488L12.6259 79.8572Z" fill="#FF7500"/>
<path d="M10.3022 86.9764C10.3022 86.9764 10.4067 85.7277 12.295 84.1248C14.1833 82.5219 15.3989 81.6172 15.3989 81.6172C15.3989 81.6172 16.036 84.558 14.2725 86.1711C12.9789 87.3041 11.5929 88.327 10.1289 89.2291L10.3022 86.9764Z" fill="#FF7500"/>
<path d="M10.934 93.6445C10.934 93.6445 10.7148 92.4137 12.1394 90.375C13.5639 88.3363 14.4966 87.1641 14.4966 87.1641C14.4966 87.1641 15.8574 89.8475 14.5578 91.8556C13.5936 93.2796 12.5109 94.6197 11.3214 95.8616L10.934 93.6445Z" fill="#FF7500"/>
<path d="M17.3936 55.9766C17.1985 57.2645 16.9322 58.5406 16.596 59.7991C15.6123 63.3107 13.6985 65.4692 12.7429 68.6342C11.7873 71.7992 13.4284 76.111 12.5569 80.2037C11.6853 84.2963 9.8862 86.4675 10.1181 89.2656C10.35 92.0637 12.1568 99.7418 12.1568 99.7418" stroke="#263238" stroke-width="0.527711" stroke-linecap="round" stroke-linejoin="round"/>
<path d="M16.8379 59.2113L18.8383 57.9219" stroke="#263238" stroke-width="0.527711" stroke-linecap="round" stroke-linejoin="round"/>
<path d="M17.0634 57.559L16.3906 56.0938" stroke="#263238" stroke-width="0.527711" stroke-linecap="round" stroke-linejoin="round"/>
<path d="M12.8496 68.4905C12.8496 68.4905 14.5213 67.438 16.2389 66.3906" stroke="#263238" stroke-width="0.527711" stroke-linecap="round" stroke-linejoin="round"/>
<path d="M13.8494 66.0938C13.8494 66.0938 12.7485 63.4129 11.4004 61.5781" stroke="#263238" stroke-width="0.527711" stroke-linecap="round" stroke-linejoin="round"/>
<path d="M12.7734 79.1912C13.8082 77.6075 15.0674 76.1826 16.5119 74.9609" stroke="#263238" stroke-width="0.527711" stroke-linecap="round" stroke-linejoin="round"/>
<path d="M12.3219 80.9192C11.9356 79.7552 11.454 78.625 10.8821 77.5401C10.0743 76.1079 9.95703 75.9219 9.95703 75.9219" stroke="#263238" stroke-width="0.527711" stroke-linecap="round" stroke-linejoin="round"/>
<path d="M10.1191 89.2653C10.601 88.3074 11.1547 87.3873 11.7756 86.5131C12.3914 85.7061 13.0733 84.9517 13.8142 84.2578" stroke="#263238" stroke-width="0.527711" stroke-linecap="round" stroke-linejoin="round"/>
<path d="M11.3209 95.8674C11.3063 94.9141 11.5474 93.9743 12.0192 93.1458C12.7837 91.9302 13.6603 90.3273 14.0222 89.6953" stroke="#263238" stroke-width="0.527711" stroke-linecap="round" stroke-linejoin="round"/>
<path d="M4.40138 71.9898C4.40138 71.9898 4.33258 71.1973 5.34172 69.9868C6.35087 68.7764 7.01089 68.0781 7.01089 68.0781C7.01089 68.0781 7.72952 69.862 6.79683 71.0571C6.1091 71.9066 5.35128 72.6968 4.53135 73.4195L4.40138 71.9898Z" fill="#FF7500"/>
<path d="M6.45812 76.8023C6.45812 76.8023 6.38677 76.0072 7.39846 74.7993C8.41016 73.5914 9.06763 72.8906 9.06763 72.8906C9.06763 72.8906 9.78626 74.6745 8.85357 75.8671C8.16454 76.7162 7.4059 77.5064 6.58554 78.2294L6.45812 76.8023Z" fill="#FF7500"/>
<path d="M4.59397 73.3427C4.59397 73.3427 4.44107 72.5603 3.13122 71.6837C1.82137 70.807 0.993154 70.3203 0.993154 70.3203C0.993154 70.3203 0.802028 72.2265 2.03288 73.1235C2.93255 73.7445 3.88208 74.29 4.87174 74.7544L4.59397 73.3427Z" fill="#FF7500"/>
<path d="M7.06498 79.0205C7.06498 79.0205 6.83054 78.256 5.43404 77.5246C4.03755 76.7933 3.16602 76.3906 3.16602 76.3906C3.16602 76.3906 3.16602 78.307 4.4937 79.0664C5.45682 79.5897 6.46178 80.0321 7.4982 80.389L7.06498 79.0205Z" fill="#FF7500"/>
<path d="M7.27124 85.4258C7.27124 85.4258 7.19989 84.6307 5.99707 83.6216C4.79425 82.6124 4.017 82.0391 4.017 82.0391C4.017 82.0391 3.62456 83.9121 4.75603 84.9314C5.58364 85.6456 6.47024 86.2883 7.4063 86.8529L7.27124 85.4258Z" fill="#FF7500"/>
<path d="M7.42941 86.985C7.42941 86.985 7.24593 86.2205 8.07414 84.8699C8.90235 83.5193 9.45534 82.7344 9.45534 82.7344C9.45534 82.7344 10.4186 84.3883 9.66685 85.7134C9.10438 86.6545 8.46422 87.547 7.75305 88.3815L7.42941 86.985Z" fill="#FF7500"/>
<path d="M9.10258 93.4729C9.10258 93.4729 9.25803 92.6906 10.5704 91.8139C11.8828 90.9373 12.7085 90.4531 12.7085 90.4531C12.7085 90.4531 12.8971 92.3593 11.6637 93.2563C10.7638 93.877 9.81333 94.4209 8.82227 94.8822L9.10258 93.4729Z" fill="#FF7500"/>
<path d="M8.93921 91.5039C8.93921 91.5039 8.86786 90.7089 7.66504 89.6972C6.46222 88.6855 5.68497 88.1172 5.68497 88.1172C5.68497 88.1172 5.29253 89.9902 6.42399 91.0096C7.25002 91.7215 8.13396 92.3634 9.06663 92.9285L8.93921 91.5039Z" fill="#FF7500"/>
<path d="M8.57111 95.7486C8.57111 95.7486 8.70362 94.9637 7.78877 93.6793C6.87391 92.3949 6.25976 91.6406 6.25976 91.6406C6.25976 91.6406 5.40607 93.3531 6.24192 94.6247C6.86246 95.5247 7.55719 96.3711 8.31882 97.1552L8.57111 95.7486Z" fill="#FF7500"/>
<path d="M4.28516 71.7969C4.41529 72.618 4.59054 73.4313 4.81012 74.2331C5.4523 76.4629 6.6806 77.8263 7.3024 79.8395C7.92419 81.8526 6.90231 84.5998 7.47569 87.2016C8.04906 89.8035 9.20346 91.1745 9.0684 92.9583C8.93334 94.7422 7.82226 99.6324 7.82226 99.6324" stroke="#263238" stroke-width="0.527711" stroke-linecap="round" stroke-linejoin="round"/>
<path d="M4.65232 73.8676L3.37305 73.0547" stroke="#263238" stroke-width="0.527711" stroke-linecap="round" stroke-linejoin="round"/>
<path d="M4.50195 72.8102L4.92243 71.875" stroke="#263238" stroke-width="0.527711" stroke-linecap="round" stroke-linejoin="round"/>
<path d="M7.22859 79.7497C7.22859 79.7497 6.15829 79.0897 5.0625 78.4297" stroke="#263238" stroke-width="0.527711" stroke-linecap="round" stroke-linejoin="round"/>
<path d="M6.58594 78.2337C6.99563 77.2232 7.50799 76.2574 8.11494 75.3516" stroke="#263238" stroke-width="0.527711" stroke-linecap="round" stroke-linejoin="round"/>
<path d="M7.33218 86.5586C6.66499 85.5557 5.85647 84.6545 4.93164 83.8828" stroke="#263238" stroke-width="0.527711" stroke-linecap="round" stroke-linejoin="round"/>
<path d="M7.62891 87.6593C7.86487 86.9172 8.16236 86.196 8.51828 85.5034C9.02795 84.586 9.0993 84.4688 9.0993 84.4688" stroke="#263238" stroke-width="0.527711" stroke-linecap="round" stroke-linejoin="round"/>
<path d="M8.89844 94.3026C9.37563 93.797 9.89763 93.3355 10.458 92.924C10.8102 92.7056 11.1442 92.4593 11.457 92.1875" stroke="#263238" stroke-width="0.527711" stroke-linecap="round" stroke-linejoin="round"/>
<path d="M9.06859 92.9592C8.76065 92.3509 8.40622 91.7673 8.00847 91.2136C7.61297 90.7033 7.1757 90.2268 6.70117 89.7891" stroke="#263238" stroke-width="0.527711" stroke-linecap="round" stroke-linejoin="round"/>
<path d="M8.33155 97.1643C8.33626 96.5572 8.17879 95.9598 7.8754 95.4339C7.38612 94.6694 6.81784 93.6501 6.58594 93.25" stroke="#263238" stroke-width="0.527711" stroke-linecap="round" stroke-linejoin="round"/>
<path d="M94.0293 13.3906H13.3895C12.7364 13.3906 12.207 13.92 12.207 14.5731V76.3016C12.207 76.9547 12.7364 77.4841 13.3895 77.4841H94.0293C94.6823 77.4841 95.2117 76.9547 95.2117 76.3016V14.5731C95.2117 13.92 94.6823 13.3906 94.0293 13.3906Z" fill="#CCCCCC"/>
<path d="M93.2008 18.2422H14.2148V69.1148H93.2008V18.2422Z" fill="white"/>
<path d="M34.6322 18.2422H14.2148V69.1148H34.6322V18.2422Z" fill="#263238"/>
<g opacity="0.2">
<path d="M19.7596 54.244V31.63L34.6292 36.3241V26.9844H21.9104C21.4508 26.9844 20.9958 27.075 20.5712 27.251C20.1467 27.427 19.761 27.685 19.4363 28.0102C19.1116 28.3354 18.8542 28.7215 18.6787 29.1462C18.5033 29.571 18.4134 30.0262 18.4141 30.4858V56.3005L34.6292 62.595V60.1817L19.7596 54.244Z" fill="white"/>
<path d="M34.6282 59.0283V37.4489L20.834 33.0938V53.5111L34.6282 59.0283Z" fill="white"/>
<path d="M34.6293 65.4829L19.7444 59.4407C19.5792 59.3731 19.3938 59.374 19.2292 59.443C19.0646 59.5121 18.9341 59.6437 18.8665 59.809C18.7989 59.9742 18.7997 60.1595 18.8688 60.3242C18.9379 60.4888 19.0695 60.6193 19.2347 60.6869L34.6293 66.9252V65.4829Z" fill="white"/>
</g>
<path d="M73.9355 70.9531H63.156C62.8056 70.9531 62.5215 71.2372 62.5215 71.5877V74.3348C62.5215 74.6852 62.8056 74.9693 63.156 74.9693H73.9355C74.286 74.9693 74.5701 74.6852 74.5701 74.3348V71.5877C74.5701 71.2372 74.286 70.9531 73.9355 70.9531Z" fill="#A3A3A3" stroke="#FF7500" stroke-width="1.05542" stroke-miterlimit="10"/>
<path d="M66.1129 73.979C66.1025 73.9693 66.0943 73.9574 66.089 73.9442C66.0837 73.931 66.0814 73.9168 66.0823 73.9026V72.4577C66.08 72.4168 66.0937 72.3765 66.1205 72.3455C66.1327 72.3321 66.1477 72.3215 66.1644 72.3145C66.1811 72.3074 66.1992 72.3041 66.2173 72.3048C66.2476 72.3054 66.2773 72.3133 66.304 72.3277C66.3352 72.3444 66.3616 72.369 66.3804 72.3991L67.2494 73.6732V72.4194C67.2486 72.4052 67.2509 72.391 67.2562 72.3778C67.2615 72.3646 67.2696 72.3527 67.28 72.343C67.3023 72.3248 67.3302 72.3148 67.359 72.3148C67.3878 72.3148 67.4157 72.3248 67.438 72.343C67.4489 72.3525 67.4575 72.3642 67.4632 72.3775C67.4689 72.3907 67.4716 72.405 67.4711 72.4194V73.8644C67.472 73.885 67.4686 73.9056 67.4612 73.9249C67.4537 73.9442 67.4423 73.9618 67.4278 73.9765C67.414 73.99 67.3977 74.0006 67.3797 74.0076C67.3618 74.0146 67.3426 74.0179 67.3233 74.0173C67.2952 74.0172 67.2674 74.0111 67.2418 73.9994C67.2158 73.9848 67.1932 73.9648 67.1755 73.9408L66.304 72.6666V73.9026C66.3051 73.9171 66.3027 73.9316 66.2969 73.9449C66.2911 73.9582 66.2822 73.9699 66.2709 73.979C66.2486 73.9972 66.2206 74.0072 66.1919 74.0072C66.1631 74.0072 66.1352 73.9972 66.1129 73.979Z" fill="#263238"/>
<path d="M68.0616 73.9541C67.9721 73.9044 67.8987 73.8302 67.8501 73.74C67.7971 73.6378 67.7708 73.5239 67.7736 73.4088C67.772 73.305 67.7938 73.2022 67.8374 73.1081C67.8829 73.0172 67.9514 72.9399 68.0361 72.8838C68.1284 72.8258 68.2355 72.7957 68.3445 72.7972C68.4319 72.7945 68.5189 72.811 68.5993 72.8456C68.6655 72.8727 68.7235 72.9166 68.7675 72.973C68.8091 73.028 68.8402 73.0902 68.8592 73.1565C68.8808 73.2276 68.8928 73.3013 68.8949 73.3756C68.8951 73.3969 68.8879 73.4177 68.8745 73.4342C68.8676 73.4421 68.8589 73.4482 68.8492 73.4522C68.8394 73.4562 68.8289 73.4579 68.8185 73.4572H68.0005C67.9946 73.5712 68.034 73.6829 68.11 73.7681C68.1845 73.838 68.2831 73.8763 68.3853 73.8751C68.451 73.8763 68.5162 73.8632 68.5764 73.8369C68.6368 73.8081 68.694 73.7731 68.7471 73.7324C68.7602 73.7221 68.7764 73.7167 68.793 73.7171C68.8111 73.7177 68.8283 73.725 68.8414 73.7375C68.8537 73.7525 68.8601 73.7716 68.8592 73.791C68.8593 73.8039 68.8564 73.8166 68.8506 73.8281C68.8449 73.8396 68.8365 73.8496 68.8261 73.8573C68.7019 73.9712 68.5384 74.0324 68.37 74.028C68.2625 74.0307 68.1562 74.0052 68.0616 73.9541ZM68.6962 73.3247C68.694 73.2261 68.661 73.1308 68.6019 73.052C68.5715 73.0146 68.5323 72.9852 68.4879 72.9665C68.4434 72.9479 68.395 72.9405 68.347 72.945C68.295 72.9435 68.2433 72.9549 68.1967 72.9781C68.1523 72.9966 68.1136 73.0265 68.0845 73.0647C68.0548 73.1003 68.0315 73.1409 68.0157 73.1845C67.9979 73.2293 67.9867 73.2766 67.9826 73.3247H68.6962Z" fill="#263238"/>
<path d="M69.9195 73.9596L69.5806 73.5493L69.2416 73.9749C69.2336 73.9865 69.223 73.996 69.2106 74.0026C69.1982 74.0092 69.1844 74.0129 69.1703 74.0131C69.1571 74.0137 69.1439 74.0115 69.1316 74.0067C69.1193 74.0019 69.1082 73.9945 69.0989 73.9851C69.0893 73.977 69.0816 73.9668 69.0763 73.9554C69.071 73.9439 69.0683 73.9315 69.0684 73.9189C69.0692 73.9005 69.0754 73.8828 69.0862 73.8679L69.4633 73.4066L69.127 72.9887C69.1196 72.9813 69.1138 72.9726 69.1099 72.963C69.106 72.9533 69.104 72.943 69.104 72.9326C69.1041 72.9187 69.107 72.9049 69.1127 72.8922C69.1184 72.8794 69.1268 72.8681 69.1372 72.8587C69.1478 72.8479 69.1608 72.8395 69.1751 72.8343C69.1894 72.8291 69.2047 72.8271 69.2198 72.8286C69.235 72.8301 69.2496 72.8349 69.2626 72.8428C69.2757 72.8506 69.2868 72.8613 69.2952 72.874L69.6035 73.2563L69.9119 72.8689C69.9206 72.8567 69.932 72.8466 69.9453 72.8395C69.9585 72.8324 69.9733 72.8286 69.9883 72.8282C70.0007 72.8281 70.0129 72.8306 70.0243 72.8354C70.0357 72.8402 70.046 72.8473 70.0546 72.8562C70.064 72.864 70.0716 72.8737 70.0769 72.8847C70.0822 72.8957 70.085 72.9077 70.0851 72.9199C70.0841 72.9394 70.0769 72.9581 70.0648 72.9734L69.7207 73.4015L70.0877 73.8552C70.1022 73.8713 70.1104 73.8921 70.1106 73.9138C70.1102 73.9269 70.1071 73.9398 70.1013 73.9517C70.0956 73.9635 70.0875 73.974 70.0775 73.9826C70.0679 73.9924 70.0564 74.0002 70.0437 74.0054C70.031 74.0107 70.0173 74.0133 70.0036 74.0131C69.986 74.013 69.9688 74.0079 69.9539 73.9984C69.939 73.989 69.9271 73.9755 69.9195 73.9596Z" fill="#263238"/>
<path d="M70.5597 73.9381C70.5005 73.8601 70.4723 73.763 70.4807 73.6654V72.9774H70.3329C70.3118 72.9793 70.2908 72.9729 70.2743 72.9595C70.2612 72.9458 70.2539 72.9275 70.2539 72.9086C70.2539 72.8896 70.2612 72.8713 70.2743 72.8576C70.2904 72.8433 70.3114 72.836 70.3329 72.8372H70.4807L70.5087 72.4983C70.5094 72.4855 70.5126 72.4731 70.5183 72.4617C70.524 72.4503 70.532 72.4402 70.5419 72.432C70.5607 72.4151 70.5853 72.4059 70.6107 72.4065C70.6217 72.4056 70.6328 72.4069 70.6434 72.4104C70.6539 72.4139 70.6636 72.4196 70.6718 72.4269C70.6799 72.4354 70.686 72.4454 70.69 72.4564C70.6939 72.4673 70.6956 72.479 70.6948 72.4906V72.8372H70.9139C70.9246 72.8363 70.9353 72.8377 70.9454 72.8412C70.9555 72.8447 70.9647 72.8503 70.9725 72.8576C70.9799 72.8643 70.9855 72.8726 70.9891 72.8819C70.9926 72.8912 70.9939 72.9012 70.9929 72.9111C70.9929 72.9544 70.9674 72.9774 70.9139 72.9774H70.6999V73.6272C70.6957 73.6888 70.708 73.7504 70.7355 73.8056C70.7473 73.8235 70.7637 73.8379 70.783 73.8473C70.8023 73.8567 70.8237 73.8608 70.8451 73.8591H70.9471C70.9583 73.8585 70.9695 73.8602 70.98 73.8642C70.9906 73.8681 71.0002 73.8742 71.0082 73.882C71.0194 73.8976 71.0254 73.9163 71.0254 73.9355C71.0254 73.9548 71.0194 73.9735 71.0082 73.9891C70.998 74.0025 70.9837 74.0124 70.9674 74.0171H70.9139H70.7738C70.7346 74.0192 70.6954 74.0133 70.6586 73.9997C70.6218 73.9861 70.5881 73.9652 70.5597 73.9381Z" fill="#263238"/>
<path d="M89.8886 70.9531H79.1091C78.7587 70.9531 78.4746 71.2372 78.4746 71.5877V74.3348C78.4746 74.6852 78.7587 74.9693 79.1091 74.9693H89.8886C90.2391 74.9693 90.5232 74.6852 90.5232 74.3348V71.5877C90.5232 71.2372 90.2391 70.9531 89.8886 70.9531Z" fill="#A3A3A3"/>
<path d="M81.4948 73.9433C81.3767 73.866 81.2823 73.7575 81.2221 73.6299C81.1611 73.4901 81.1307 73.3389 81.1329 73.1865C81.1317 73.0694 81.1507 72.953 81.189 72.8424C81.2227 72.7401 81.2754 72.6449 81.3444 72.5621C81.4146 72.4814 81.5016 72.417 81.5993 72.3735C81.707 72.3268 81.8234 72.3034 81.9408 72.3047C82.0914 72.3032 82.2398 72.341 82.3714 72.4143C82.3875 72.4217 82.4011 72.4336 82.4106 72.4485C82.4201 72.4634 82.4251 72.4807 82.4249 72.4984C82.4245 72.5233 82.4144 72.547 82.3969 72.5647C82.3893 72.5734 82.3799 72.5805 82.3694 72.5853C82.3588 72.5901 82.3474 72.5927 82.3358 72.5927C82.3224 72.596 82.3084 72.596 82.295 72.5927L82.2669 72.5774L82.2262 72.5596L82.1676 72.5341L82.1064 72.5163L82.0325 72.5035H81.9382C81.8669 72.5018 81.7959 72.5139 81.7292 72.5392C81.6704 72.56 81.6166 72.593 81.5712 72.636C81.5277 72.6807 81.4908 72.7313 81.4617 72.7864C81.4325 72.8463 81.4111 72.9096 81.398 72.975C81.3708 73.1164 81.3708 73.2617 81.398 73.4031C81.4111 73.4676 81.4325 73.5301 81.4617 73.5891C81.4896 73.6442 81.5266 73.6942 81.5712 73.7369C81.6174 73.7807 81.672 73.8145 81.7318 73.8363C81.8005 73.8605 81.873 73.8726 81.9459 73.872C82.009 73.8728 82.0718 73.8633 82.1319 73.8439C82.1918 73.8216 82.2498 73.7943 82.3052 73.7624C82.3193 73.7547 82.335 73.7503 82.351 73.7497C82.363 73.7497 82.3749 73.7522 82.3858 73.757C82.3968 73.7618 82.4066 73.7689 82.4147 73.7777C82.4232 73.7859 82.4299 73.7958 82.4343 73.8068C82.4387 73.8178 82.4407 73.8296 82.4402 73.8414C82.4392 73.8608 82.4333 73.8796 82.4231 73.8961C82.4128 73.9126 82.3986 73.9262 82.3816 73.9357C82.2412 74.0232 82.0781 74.0675 81.9127 74.0631C81.7649 74.0635 81.62 74.0219 81.4948 73.9433Z" fill="#263238"/>
<path d="M82.7992 73.9633C82.7606 73.9334 82.7298 73.8946 82.7094 73.8502C82.689 73.8059 82.6796 73.7572 82.682 73.7084C82.6819 73.6682 82.6862 73.628 82.6948 73.5887C82.7037 73.557 82.7174 73.5269 82.7355 73.4995C82.7552 73.4724 82.7804 73.4498 82.8094 73.4332C82.8431 73.4142 82.8791 73.3997 82.9165 73.3899C82.9638 73.3757 83.0125 73.3663 83.0617 73.3619C83.1203 73.3619 83.1789 73.3619 83.2427 73.3619H83.4695V73.2319C83.4713 73.1975 83.4662 73.163 83.4544 73.1306C83.4426 73.0981 83.4243 73.0685 83.4006 73.0433C83.3476 73.0002 83.2803 72.9784 83.2121 72.9822C83.1632 72.9821 83.1146 72.9872 83.0668 72.9975C83.0274 73.0038 82.9889 73.0149 82.9521 73.0306L82.8477 73.0714C82.8385 73.074 82.8288 73.074 82.8196 73.0714C82.8095 73.0709 82.7995 73.0684 82.7903 73.064C82.7811 73.0596 82.7729 73.0535 82.7661 73.0459C82.7512 73.03 82.743 73.009 82.7432 72.9873C82.743 72.9761 82.7461 72.9652 82.752 72.9557C82.7578 72.9462 82.7663 72.9386 82.7763 72.9337C82.9119 72.8617 83.0637 72.8257 83.2172 72.8293C83.3396 72.8211 83.4608 72.8572 83.5586 72.9312C83.6017 72.9705 83.6352 73.0193 83.6564 73.0736C83.6776 73.128 83.686 73.1865 83.681 73.2446V73.9378C83.6818 73.9516 83.6795 73.9655 83.6742 73.9783C83.6689 73.9911 83.6607 74.0025 83.6504 74.0117C83.6291 74.0289 83.6026 74.0382 83.5752 74.0382C83.5479 74.0382 83.5213 74.0289 83.5 74.0117C83.4897 74.0025 83.4816 73.9911 83.4763 73.9783C83.471 73.9655 83.4686 73.9516 83.4695 73.9378V73.8231C83.4397 73.8951 83.3886 73.9562 83.3229 73.9982C83.2573 74.0401 83.1803 74.0609 83.1025 74.0576C82.9937 74.0609 82.8869 74.0277 82.7992 73.9633ZM83.365 73.7951C83.4354 73.7161 83.4728 73.613 83.4695 73.5071V73.4715C83.3701 73.4715 83.2885 73.4715 83.2274 73.4715C83.1727 73.474 83.1182 73.48 83.0643 73.4893C83.0254 73.4955 82.9882 73.5094 82.9547 73.5301C82.9321 73.5473 82.9146 73.5701 82.9037 73.5963C82.8905 73.6268 82.8844 73.6599 82.8859 73.6932C82.8832 73.723 82.8875 73.7531 82.8986 73.781C82.9096 73.8089 82.9271 73.8338 82.9496 73.8537C83.0009 73.8897 83.0628 73.9076 83.1254 73.9047C83.1701 73.9062 83.2146 73.8981 83.256 73.8809C83.2973 73.8638 83.3345 73.838 83.365 73.8053V73.7951Z" fill="#263238"/>
<path d="M84.0625 74.0109C84.0516 74.0014 84.043 73.9896 84.0373 73.9764C84.0316 73.9632 84.0288 73.9488 84.0294 73.9344V72.9533C84.0292 72.9393 84.0321 72.9255 84.0378 72.9127C84.0435 72.9 84.052 72.8886 84.0625 72.8794C84.0843 72.8623 84.1113 72.8533 84.1389 72.8539C84.1667 72.8529 84.1938 72.8619 84.2154 72.8794C84.2257 72.8881 84.2338 72.8991 84.2391 72.9115C84.2444 72.9239 84.2468 72.9373 84.246 72.9508V73.0476C84.274 72.976 84.3263 72.9164 84.3938 72.8794C84.4681 72.8395 84.5515 72.8193 84.6359 72.8208C84.6931 72.8181 84.7503 72.8268 84.8042 72.8465C84.858 72.8662 84.9073 72.8965 84.9493 72.9355C84.991 72.9825 85.0228 73.0374 85.0429 73.0969C85.063 73.1564 85.0711 73.2194 85.0665 73.282V73.9268C85.0677 73.9413 85.0652 73.9558 85.0594 73.9691C85.0537 73.9824 85.0447 73.9941 85.0334 74.0032C85.0127 74.0205 84.9864 74.0296 84.9595 74.0287C84.9317 74.03 84.9045 74.0209 84.8831 74.0032C84.8722 73.9938 84.8636 73.982 84.8579 73.9687C84.8521 73.9555 84.8494 73.9412 84.8499 73.9268V73.2795C84.8558 73.1964 84.8314 73.114 84.7811 73.0476C84.7554 73.0205 84.724 72.9993 84.6893 72.9857C84.6545 72.972 84.6171 72.9662 84.5798 72.9686C84.5366 72.968 84.4937 72.9763 84.4538 72.993C84.4139 73.0096 84.3779 73.0343 84.3479 73.0654C84.2855 73.1361 84.2495 73.2261 84.246 73.3203V73.9166C84.2467 73.9306 84.244 73.9447 84.2383 73.9575C84.2325 73.9704 84.2238 73.9817 84.2128 73.9905C84.2027 74.0002 84.1907 74.0076 84.1775 74.0125C84.1644 74.0173 84.1504 74.0193 84.1364 74.0185C84.1116 74.0247 84.0855 74.0219 84.0625 74.0109Z" fill="#263238"/>
<path d="M85.4794 73.8858C85.3756 73.7628 85.3212 73.6057 85.3265 73.4449C85.3244 73.337 85.3489 73.2302 85.3979 73.134C85.4449 73.0418 85.5163 72.9642 85.6043 72.9097C85.6985 72.8546 85.8061 72.8264 85.9152 72.8282C85.9791 72.8282 86.0426 72.8377 86.1038 72.8562C86.1542 72.8713 86.201 72.8964 86.2414 72.9301C86.2534 72.9373 86.2634 72.9474 86.2705 72.9594C86.2776 72.9714 86.2816 72.985 86.2822 72.9989C86.2825 73.007 86.2811 73.0151 86.278 73.0226C86.2749 73.03 86.2702 73.0368 86.2643 73.0423C86.251 73.054 86.2337 73.0604 86.2159 73.0601C86.1978 73.0601 86.18 73.0548 86.1649 73.0448C86.0942 72.9973 86.0106 72.9724 85.9254 72.9735C85.8722 72.972 85.8193 72.9829 85.7711 73.0055C85.7229 73.0281 85.6806 73.0616 85.6476 73.1034C85.5736 73.2023 85.5366 73.3241 85.5431 73.4475C85.5419 73.505 85.5488 73.5625 85.5635 73.6182C85.5768 73.6705 85.5983 73.7204 85.6272 73.766C85.6582 73.8116 85.7 73.8488 85.749 73.8742C85.7979 73.8995 85.8524 73.9123 85.9076 73.9113C86.0042 73.9148 86.0995 73.8881 86.1802 73.8348C86.1887 73.8268 86.1987 73.8206 86.2097 73.8166C86.2206 73.8127 86.2323 73.8111 86.2439 73.8119C86.2524 73.8115 86.2608 73.8129 86.2687 73.816C86.2766 73.8191 86.2838 73.8237 86.2898 73.8297C86.2958 73.8357 86.3005 73.8429 86.3035 73.8508C86.3066 73.8587 86.308 73.8671 86.3076 73.8756C86.3072 73.8896 86.3035 73.9033 86.2968 73.9157C86.2902 73.9281 86.2808 73.9387 86.2694 73.9469C86.1639 74.0232 86.035 74.0602 85.905 74.0514C85.8262 74.0576 85.747 74.046 85.6733 74.0173C85.5996 73.9886 85.5333 73.9436 85.4794 73.8858Z" fill="#263238"/>
<path d="M86.7745 73.9777C86.685 73.9281 86.6116 73.8538 86.563 73.7637C86.51 73.6615 86.4837 73.5475 86.4865 73.4324C86.485 73.3278 86.5067 73.2242 86.5502 73.1291C86.5942 73.0379 86.6631 72.961 86.749 72.9074C86.8408 72.8483 86.9482 72.8182 87.0574 72.8208C87.1446 72.8173 87.2316 72.833 87.3122 72.8667C87.3782 72.8953 87.436 72.94 87.4804 72.9966C87.5214 73.0511 87.5524 73.1123 87.5721 73.1776C87.5935 73.2496 87.6055 73.3241 87.6078 73.3993C87.608 73.4206 87.6008 73.4413 87.5874 73.4579C87.5804 73.4657 87.5718 73.4719 87.562 73.4758C87.5523 73.4798 87.5418 73.4815 87.5314 73.4808H86.7031C86.6994 73.537 86.7072 73.5933 86.7261 73.6463C86.7449 73.6993 86.7744 73.7479 86.8127 73.7892C86.8491 73.8247 86.8921 73.8527 86.9394 73.8715C86.9866 73.8903 87.0371 73.8996 87.0879 73.8987C87.1537 73.8999 87.2189 73.8869 87.2791 73.8605C87.3395 73.8317 87.3967 73.7967 87.4498 73.756C87.4621 73.7461 87.4774 73.7407 87.4931 73.7407C87.5023 73.7399 87.5114 73.7414 87.5199 73.7449C87.5283 73.7485 87.5358 73.754 87.5415 73.7611C87.5546 73.7759 87.5618 73.7949 87.5619 73.8146C87.5618 73.8275 87.5588 73.8401 87.5531 73.8516C87.5473 73.8631 87.539 73.8731 87.5288 73.8809C87.4046 73.9948 87.2411 74.056 87.0727 74.0516C86.9687 74.0517 86.8664 74.0263 86.7745 73.9777ZM87.409 73.3483C87.4064 73.2491 87.3735 73.1531 87.3147 73.0731C87.2838 73.0364 87.2445 73.0078 87.2001 72.9896C87.1558 72.9715 87.1077 72.9642 87.0599 72.9686C87.0074 72.9679 86.9552 72.9783 86.907 72.9992C86.8648 73.0201 86.8275 73.0496 86.7974 73.0858C86.7672 73.1221 86.7439 73.1635 86.7286 73.2081C86.7108 73.253 86.6996 73.3002 86.6955 73.3483H87.409Z" fill="#263238"/>
<path d="M87.939 74.0024C87.9285 73.9922 87.9204 73.9798 87.9151 73.9662C87.9098 73.9526 87.9075 73.938 87.9084 73.9234V72.4352C87.9082 72.4204 87.911 72.4058 87.9167 72.3922C87.9224 72.3786 87.9308 72.3663 87.9415 72.3562C87.963 72.3384 87.99 72.3285 88.018 72.3281C88.046 72.328 88.0731 72.338 88.0944 72.3562C88.1047 72.3665 88.1128 72.3788 88.1181 72.3924C88.1233 72.406 88.1257 72.4206 88.125 72.4352V73.9234C88.1257 73.9382 88.1231 73.953 88.1174 73.9666C88.1116 73.9803 88.1029 73.9925 88.0919 74.0024C88.0705 74.0206 88.0434 74.0305 88.0154 74.0304C88.0014 74.0311 87.9875 74.029 87.9743 74.0242C87.9612 74.0193 87.9492 74.0119 87.939 74.0024Z" fill="#263238"/>
<path d="M74.7949 13.3906V16.4028C74.7949 16.6245 74.883 16.8371 75.0397 16.9938C75.1965 17.1506 75.4091 17.2386 75.6308 17.2386H92.534C92.7556 17.2386 92.9682 17.1506 93.125 16.9938C93.2817 16.8371 93.3698 16.6245 93.3698 16.4028V13.3906H74.7949Z" fill="#A3A3A3"/>
<path d="M78.3895 13.3906H73.7031V16.4028C73.7031 16.6245 73.7912 16.8371 73.9479 16.9938C74.1047 17.1506 74.3173 17.2386 74.539 17.2386H78.3895V13.3906Z" fill="#A3A3A3"/>
<path d="M83.9961 13.3906V17.2361H92.5331C92.7547 17.2361 92.9673 17.148 93.1241 16.9913C93.2808 16.8345 93.3689 16.6219 93.3689 16.4002V13.3906H83.9961Z" fill="#263238"/>
<path d="M83.9995 13.3906H78.3906V17.2386H83.9995V13.3906Z" fill="#787878"/>
<path d="M89.4344 16.0809H88.6903L87.4492 14.1875H88.1908L89.4344 16.0809Z" fill="white"/>
<path d="M87.4492 16.0809H88.1908L89.4344 14.1875H88.6903L87.4492 16.0809Z" fill="white"/>
<path d="M77.4073 15.3281H74.7188V16.0442H77.4073V15.3281Z" fill="white"/>
<path d="M79.9297 14.3203V16.043H82.3914V14.3203H79.9297ZM81.9276 15.5537H80.3986V14.807H81.9276V15.5537Z" fill="white"/>
<path d="M31.6835 21.6016H25.2285V27.8781H31.6835V21.6016Z" fill="#FF7500" stroke="white" stroke-width="2.11084" stroke-miterlimit="10"/>
<path d="M66.4686 21.7812H37.7793V23.0376H66.4686V21.7812Z" fill="#263238"/>
<path d="M55.8904 24.4766H37.7793V25.7329H55.8904V24.4766Z" fill="#263238"/>
<path d="M38.3164 31.1094H81.888" stroke="#263238" stroke-width="1.05542" stroke-miterlimit="10"/>
<path d="M38.3164 39.1797H81.888" stroke="#263238" stroke-width="1.05542" stroke-miterlimit="10"/>
<path d="M38.3164 41.1484H81.888" stroke="#263238" stroke-width="1.05542" stroke-miterlimit="10"/>
<path d="M38.3164 43.1172H81.888" stroke="#263238" stroke-width="1.05542" stroke-miterlimit="10"/>
<path d="M38.3164 45.0938H45.6684" stroke="#263238" stroke-width="1.05542" stroke-miterlimit="10"/>
<path d="M38.3164 32.7188H54.8144" stroke="#263238" stroke-width="1.05542" stroke-miterlimit="10"/>
<path d="M38.3164 49.5781H54.8144" stroke="#263238" stroke-width="1.05542" stroke-miterlimit="10"/>
<path d="M15.4588 16.4717C15.4592 16.4351 15.4516 16.3988 15.4366 16.3654C15.4217 16.332 15.3997 16.3022 15.3722 16.278C15.2779 16.2118 15.1713 16.165 15.0588 16.1404C14.8805 16.1011 14.7123 16.0256 14.5644 15.9187C14.5091 15.8763 14.4646 15.8214 14.4345 15.7585C14.4044 15.6956 14.3895 15.6265 14.3911 15.5568C14.39 15.4825 14.4067 15.4089 14.44 15.3424C14.4733 15.2759 14.522 15.2183 14.5822 15.1746C14.7252 15.0699 14.8995 15.0169 15.0766 15.0242C15.2618 15.0157 15.4436 15.0765 15.5863 15.195C15.6458 15.2445 15.6933 15.307 15.7251 15.3776C15.7569 15.4483 15.7722 15.5253 15.7697 15.6027H15.4639C15.4654 15.5584 15.4573 15.5143 15.4401 15.4734C15.423 15.4325 15.3972 15.3957 15.3646 15.3657C15.2845 15.3 15.1825 15.2672 15.0791 15.274C14.983 15.2678 14.8876 15.2947 14.809 15.3504C14.7803 15.3744 14.7571 15.4044 14.7413 15.4383C14.7254 15.4722 14.7172 15.5092 14.7173 15.5466C14.7175 15.583 14.727 15.6186 14.7448 15.6503C14.7627 15.682 14.7883 15.7085 14.8192 15.7276C14.9226 15.7919 15.0364 15.8377 15.1556 15.8626C15.3274 15.9022 15.4878 15.9807 15.6245 16.092C15.6767 16.1386 15.7181 16.1961 15.7458 16.2603C15.7735 16.3246 15.7869 16.3941 15.785 16.4641C15.7871 16.5382 15.7707 16.6117 15.7373 16.678C15.704 16.7443 15.6547 16.8012 15.5939 16.8438C15.4439 16.9449 15.2649 16.9941 15.0842 16.9839C14.8969 16.9884 14.713 16.933 14.5593 16.8259C14.4892 16.7774 14.4325 16.7121 14.3942 16.636C14.3559 16.5598 14.3373 16.4753 14.3401 16.3901H14.6485C14.6459 16.4392 14.6555 16.4881 14.6764 16.5326C14.6973 16.5771 14.7288 16.6157 14.7682 16.645C14.8609 16.7063 14.9707 16.7367 15.0817 16.7316C15.1795 16.738 15.2768 16.713 15.3595 16.6603C15.3899 16.6391 15.4148 16.6109 15.4321 16.5781C15.4494 16.5453 15.4586 16.5088 15.4588 16.4717Z" fill="#263238"/>
<path d="M16.6729 16.9951C16.5832 16.9995 16.4936 16.9842 16.4104 16.9503C16.3272 16.9164 16.2524 16.8647 16.1913 16.7989C16.0676 16.6586 16.0028 16.4761 16.0104 16.2892V16.2357C16.0058 16.0498 16.0693 15.8686 16.1887 15.726C16.243 15.661 16.3114 15.609 16.3886 15.5742C16.4658 15.5393 16.55 15.5224 16.6347 15.5247C16.7164 15.5191 16.7984 15.5318 16.8746 15.5618C16.9509 15.5917 17.0195 15.6383 17.0756 15.698C17.1828 15.829 17.2373 15.9953 17.2285 16.1644V16.3529H16.3518C16.3521 16.4542 16.3872 16.5523 16.4512 16.6307C16.4827 16.6668 16.522 16.6953 16.5662 16.7138C16.6104 16.7324 16.6582 16.7406 16.7061 16.7377C16.7811 16.7394 16.856 16.7291 16.9278 16.7072C16.9904 16.6832 17.0502 16.6525 17.1061 16.6154L17.2081 16.8244C17.1449 16.8774 17.0723 16.9181 16.994 16.9441C16.8912 16.9812 16.7822 16.9985 16.6729 16.9951ZM16.6347 15.777C16.5972 15.7761 16.5601 15.7842 16.5264 15.8006C16.4927 15.817 16.4634 15.8412 16.441 15.8713C16.388 15.9408 16.3553 16.0238 16.3467 16.1108H16.9278V16.0777C16.9313 15.9988 16.9069 15.9213 16.859 15.8586C16.8321 15.8292 16.7988 15.8065 16.7616 15.7924C16.7244 15.7782 16.6845 15.7729 16.6449 15.777H16.6347Z" fill="#263238"/>
<path d="M17.8945 15.1953V15.5419H18.1494V15.7789H17.8945V16.5638C17.8902 16.6088 17.904 16.6537 17.9328 16.6886C17.9459 16.7014 17.9614 16.7114 17.9785 16.718C17.9956 16.7245 18.0138 16.7276 18.0321 16.7269H18.0857L18.1315 16.7141L18.1647 16.9486C18.1341 16.9648 18.1015 16.9768 18.0678 16.9843C18.0288 16.9883 17.9896 16.9883 17.9506 16.9843C17.9002 16.9873 17.8496 16.9798 17.8023 16.9622C17.7549 16.9447 17.7117 16.9175 17.6754 16.8823C17.6015 16.7914 17.5658 16.6754 17.576 16.5587V15.7738H17.3594V15.5368H17.576V15.1953H17.8945Z" fill="#263238"/>
<path d="M19.3161 16.7599C19.2767 16.8325 19.218 16.8928 19.1465 16.9342C19.075 16.9755 18.9935 16.9964 18.9109 16.9943C18.8444 16.998 18.7779 16.9868 18.7163 16.9617C18.6546 16.9366 18.5992 16.8981 18.5542 16.8491C18.4569 16.7188 18.4106 16.5575 18.4242 16.3955V15.5469H18.7427V16.398C18.736 16.4873 18.7574 16.5764 18.8039 16.6529C18.8265 16.6787 18.855 16.6988 18.8868 16.7117C18.9187 16.7245 18.9531 16.7297 18.9874 16.7268C19.0543 16.7292 19.1208 16.7152 19.1811 16.686C19.2324 16.6585 19.2748 16.617 19.3034 16.5662V15.5469H19.6219V16.979H19.3442L19.3161 16.7599Z" fill="#263238"/>
<path d="M21.2006 16.3001C21.2107 16.4815 21.1595 16.661 21.0554 16.8098C21.0082 16.8718 20.9467 16.9213 20.8761 16.9542C20.8055 16.9871 20.728 17.0022 20.6502 16.9983C20.5764 17.0008 20.5031 16.9859 20.4361 16.955C20.3735 16.9254 20.3186 16.8818 20.2756 16.8276V17.5182H19.957V15.5509H20.2272L20.2577 15.7293C20.303 15.6656 20.3628 15.6137 20.4322 15.5779C20.5015 15.5421 20.5785 15.5234 20.6566 15.5234C20.7346 15.5234 20.8116 15.5421 20.881 15.5779C20.9503 15.6137 21.0101 15.6656 21.0554 15.7293C21.1589 15.8936 21.2096 16.0857 21.2006 16.2797V16.3001ZM20.8846 16.2721C20.89 16.1485 20.8608 16.0259 20.8005 15.9178C20.7774 15.8713 20.7406 15.8329 20.6951 15.8078C20.6495 15.7828 20.5974 15.7723 20.5457 15.7777C20.4883 15.7756 20.4315 15.7897 20.3819 15.8186C20.3323 15.8475 20.2919 15.8899 20.2654 15.9408V16.5804C20.291 16.6286 20.3299 16.6684 20.3775 16.6951C20.4296 16.724 20.4887 16.7381 20.5482 16.7359C20.5976 16.7407 20.6473 16.7321 20.6921 16.711C20.737 16.69 20.7753 16.6572 20.8031 16.6161C20.8609 16.5211 20.8892 16.4112 20.8846 16.3001V16.2721Z" fill="#263238"/>
<path d="M22.6523 16.469L23.0345 15.07H23.2894L23.6742 16.4741L23.9774 15.0751H24.2909L23.8424 16.9787H23.5544L23.1721 15.6051L22.7899 16.9787H22.4994L22.0254 15.0547H22.3388L22.6523 16.469Z" fill="#263238"/>
<path d="M24.8693 15.1918H24.5508V14.9141H24.8693V15.1918ZM24.8693 16.9629H24.5508V15.541H24.8693V16.9629Z" fill="#263238"/>
<path d="M25.5657 16.7218H26.3302V16.9767H25.1758V16.7652L25.8919 15.8095H25.1885V15.5547H26.2945V15.756L25.5657 16.7218Z" fill="#263238"/>
<path d="M27.4428 16.9773C27.4428 16.9416 27.4224 16.9059 27.4148 16.8702C27.407 16.8367 27.4019 16.8026 27.3995 16.7683C27.3552 16.8359 27.297 16.8933 27.2287 16.9365C27.157 16.9814 27.0738 17.0044 26.9892 17.0027C26.8651 17.0111 26.7427 16.9709 26.6477 16.8906C26.6069 16.8492 26.5751 16.7997 26.5545 16.7453C26.5338 16.6909 26.5248 16.6327 26.528 16.5746C26.5255 16.5116 26.5392 16.4491 26.5677 16.3929C26.5963 16.3367 26.6387 16.2887 26.691 16.2535C26.8287 16.1695 26.9887 16.1295 27.1497 16.1389H27.4046V16.014C27.4067 15.9823 27.4021 15.9504 27.3912 15.9206C27.3802 15.8907 27.3631 15.8635 27.3409 15.8407C27.2883 15.8026 27.2249 15.782 27.1599 15.782C27.095 15.782 27.0316 15.8026 26.979 15.8407C26.9582 15.8564 26.9416 15.8768 26.9305 15.9004C26.9194 15.9239 26.9142 15.9498 26.9153 15.9758H26.612C26.6111 15.9176 26.6243 15.8601 26.6505 15.8082C26.6767 15.7562 26.7151 15.7114 26.7624 15.6776C26.8823 15.5869 27.0301 15.5409 27.1803 15.5476C27.3243 15.5404 27.4661 15.5847 27.5804 15.6725C27.632 15.717 27.6726 15.7728 27.6991 15.8356C27.7256 15.8983 27.7373 15.9664 27.7333 16.0344V16.6664C27.7294 16.7232 27.7294 16.7803 27.7333 16.8371C27.7412 16.8908 27.754 16.9437 27.7715 16.9951L27.4428 16.9773ZM27.0529 16.7479C27.1295 16.7488 27.2047 16.7276 27.2695 16.6868C27.3253 16.6552 27.3698 16.6071 27.3969 16.5491V16.3402H27.1421C27.0631 16.3355 26.9851 16.36 26.9229 16.409C26.899 16.4285 26.8795 16.4529 26.8659 16.4806C26.8522 16.5083 26.8448 16.5387 26.8439 16.5695C26.8426 16.5938 26.8467 16.6181 26.856 16.6406C26.8652 16.6631 26.8794 16.6832 26.8975 16.6995C26.9425 16.7316 26.9981 16.7453 27.0529 16.7377V16.7479Z" fill="#263238"/>
<path d="M28.7612 15.8346H28.6236C28.5692 15.8326 28.5154 15.8459 28.4681 15.8728C28.4263 15.9007 28.3928 15.9395 28.3713 15.9849V16.9788H28.0527V15.5568H28.3432L28.3662 15.7632C28.397 15.6957 28.4444 15.637 28.5038 15.5925C28.5609 15.5515 28.6297 15.53 28.7 15.5313H28.7535H28.7994L28.7612 15.8346Z" fill="#263238"/>
<path d="M28.9231 16.2801C28.9142 16.0861 28.9649 15.894 29.0684 15.7297C29.1137 15.6633 29.1751 15.6096 29.2468 15.5735C29.3186 15.5374 29.3984 15.5201 29.4787 15.5233C29.5501 15.5222 29.6208 15.5379 29.6851 15.5692C29.747 15.6009 29.801 15.6462 29.8431 15.7017V14.9219H30.1642V16.9606H29.8966L29.8635 16.7847C29.8221 16.8492 29.7646 16.9017 29.6966 16.937C29.6287 16.9724 29.5526 16.9892 29.4761 16.986C29.3979 16.9901 29.32 16.9751 29.2489 16.9422C29.1779 16.9093 29.1159 16.8597 29.0684 16.7975C28.9642 16.6486 28.9131 16.4692 28.9231 16.2878V16.2801ZM29.2417 16.3056C29.2361 16.4161 29.2627 16.5259 29.3181 16.6216C29.3436 16.6609 29.3795 16.6924 29.4218 16.7126C29.464 16.7329 29.511 16.7411 29.5577 16.7363C29.6176 16.7391 29.677 16.724 29.7284 16.693C29.7776 16.6641 29.8175 16.6216 29.8431 16.5707V15.9616C29.8175 15.9106 29.7776 15.8681 29.7284 15.8393C29.678 15.8079 29.6196 15.7919 29.5602 15.7934C29.5113 15.7909 29.4627 15.8025 29.4202 15.8269C29.3777 15.8513 29.3431 15.8875 29.3207 15.931C29.2644 16.0422 29.2372 16.1658 29.2417 16.2903V16.3056Z" fill="#263238"/>
<path d="M68.1183 72.0372C69.8297 72.0372 71.2171 70.4479 71.2171 68.4873C71.2171 66.5268 69.8297 64.9375 68.1183 64.9375C66.4069 64.9375 65.0195 66.5268 65.0195 68.4873C65.0195 70.4479 66.4069 72.0372 68.1183 72.0372Z" fill="#263238" stroke="#263238" stroke-width="1.05542" stroke-linejoin="round"/>
<path d="M52.9962 69.1742C52.0452 68.9398 51.1348 68.5644 50.2949 68.0606C48.8653 67.2145 48.8118 65.8894 49.2348 64.8828C49.6578 63.8762 53.6842 59.6409 57.7641 58.7387C61.844 57.8366 64.9148 60.6984 66.2374 63.9832C67.5599 67.268 66.5559 71.0269 65.6563 72.1379C64.7568 73.249 62.476 74.0441 61.4694 73.3025C60.4628 72.561 58.8217 70.3363 56.862 69.4367C55.6426 68.9045 54.2763 68.8117 52.9962 69.1742Z" fill="#263238" stroke="#263238" stroke-width="1.05542" stroke-linejoin="round"/>
<path d="M55.2441 62.5C55.2441 62.5 59.1584 66.9035 65.5216 66.4194" stroke="#636363" stroke-width="0.5" stroke-miterlimit="10"/>
<path d="M55.9199 61.5213L58.0733 59.7578C58.0733 59.7578 63.4554 59.8572 65.805 65.1425" stroke="#636363" stroke-width="0.5" stroke-miterlimit="10"/>
<path d="M52.9914 64.2656C52.9914 64.2656 48.5878 66.2228 49.8594 67.1045C51.1311 67.9862 51.916 67.3007 51.916 67.3007" stroke="#636363" stroke-width="0.5" stroke-miterlimit="10"/>
<path d="M50.4453 63.8748C50.4453 63.8748 51.1308 62.7969 53.6766 62.7969" stroke="#636363" stroke-width="0.5" stroke-miterlimit="10"/>
<path d="M53.9707 63.5781C54.6808 64.704 55.6113 65.6747 56.7061 66.4319C57.8009 67.1891 59.0375 67.7171 60.3416 67.9842C64.7477 68.8659 66.2155 67.788 66.2155 67.788" stroke="#636363" stroke-width="0.5" stroke-miterlimit="10"/>
<path d="M58.0495 85.6309C58.0088 88.4545 55.542 96.3748 54.3672 99.9934H66.7521L69.9146 79.2219L66.9484 77.7922C66.9484 77.7922 64.6701 76.7321 63.1258 77.1016C61.5816 77.4711 59.6295 78.6306 59.6295 78.6306L57.9884 79.2142C57.9884 79.2142 58.1005 81.9231 58.0495 85.6309Z" fill="white"/>
<mask id="mask0_8999_58260" style="mask-type:luminance" maskUnits="userSpaceOnUse" x="54" y="77" width="16" height="23">
<path d="M58.0495 85.6388C58.0088 88.4623 55.542 96.3826 54.3672 100.001H66.7521L69.9146 79.2297L66.9484 77.8C66.9484 77.8 64.6701 76.7399 63.1258 77.1094C61.5816 77.479 59.6295 78.6384 59.6295 78.6384L57.9884 79.222C57.9884 79.222 58.1005 81.9309 58.0495 85.6388Z" fill="white"/>
</mask>
<g mask="url(#mask0_8999_58260)">
<path opacity="0.2" d="M57.759 100.002C58.0138 98.8803 58.5413 96.5868 59.3975 92.8662C60.6895 87.2599 60.7991 78.4375 60.7991 78.4375C60.7048 80.7565 57.0174 95.8554 55.998 99.999L57.759 100.002Z" fill="black"/>
</g>
<path d="M58.0495 85.6309C58.0088 88.4545 55.542 96.3748 54.3672 99.9934H66.7521L69.9146 79.2219L66.9484 77.7922C66.9484 77.7922 64.6701 76.7321 63.1258 77.1016C61.5816 77.4711 59.6295 78.6306 59.6295 78.6306L57.9884 79.2142C57.9884 79.2142 58.1005 81.9231 58.0495 85.6309Z" stroke="#263238" stroke-width="1.05542" stroke-linejoin="round"/>
<path d="M59.5332 76.1034C59.5332 76.1034 60.5271 77.189 60.708 78.0019C60.8889 78.8148 60.2569 81.9824 61.7936 82.7953C63.3302 83.6083 65.0478 82.0716 65.9525 80.2623C66.8571 78.453 66.4061 77.3776 66.4061 77.3776C66.4061 77.3776 64.2349 75.2064 63.2411 73.5805C62.6164 72.5349 62.1299 71.4128 61.7936 70.2422C61.7936 70.2422 61.2508 73.2263 60.5194 74.3195C60.1299 74.8785 59.7994 75.4763 59.5332 76.1034Z" fill="white"/>
<mask id="mask1_8999_58260" style="mask-type:luminance" maskUnits="userSpaceOnUse" x="59" y="70" width="8" height="14">
<path d="M59.5332 76.1112C59.5332 76.1112 60.5271 77.1968 60.708 78.0097C60.8889 78.8226 60.2569 81.9902 61.7936 82.8032C63.3302 83.6161 65.0478 82.0794 65.9525 80.2701C66.8571 78.4608 66.4061 77.3854 66.4061 77.3854C66.4061 77.3854 64.2349 75.2142 63.2411 73.5883C62.6164 72.5427 62.1299 71.4206 61.7936 70.25C61.7936 70.25 61.2508 73.2341 60.5194 74.3274C60.1299 74.8863 59.7994 75.4841 59.5332 76.1112Z" fill="white"/>
</mask>
<g mask="url(#mask1_8999_58260)">
<path opacity="0.2" d="M60.1515 76.5041L59.9961 76.685C60.2306 76.9884 60.4298 77.3176 60.5899 77.6661C61.2897 77.3938 61.8886 76.9124 62.3049 76.2875C62.8349 75.5051 62.8859 73.9761 62.84 72.8727C62.7177 72.6331 62.603 72.3987 62.5037 72.1719C62.073 73.2141 61.1123 75.3828 60.1515 76.5041Z" fill="black"/>
</g>
<path d="M59.5332 76.1034C59.5332 76.1034 60.5271 77.189 60.708 78.0019C60.8889 78.8148 60.2569 81.9824 61.7936 82.7953C63.3302 83.6083 65.0478 82.0716 65.9525 80.2623C66.8571 78.453 66.4061 77.3776 66.4061 77.3776C66.4061 77.3776 64.2349 75.2064 63.2411 73.5805C62.6164 72.5349 62.1299 71.4128 61.7936 70.2422C61.7936 70.2422 61.2508 73.2263 60.5194 74.3195C60.1299 74.8785 59.7994 75.4763 59.5332 76.1034Z" stroke="#263238" stroke-width="0.5" stroke-linecap="round" stroke-linejoin="round"/>
<path d="M53.4252 65.25C53.4252 65.25 57.5026 68.415 59.4826 69.1388C61.4627 69.8625 63.8148 69.5006 63.8148 69.5006C63.8633 69.69 63.8637 69.8884 63.8161 70.078C63.7685 70.2676 63.6743 70.4422 63.5421 70.5862C63.2432 70.8936 62.9712 71.2261 62.7292 71.5801C62.7292 71.5801 62.8184 74.2915 61.9163 75.6574C61.0142 77.0234 59.8343 77.7369 58.2085 77.1024C56.5826 76.4678 55.2243 75.6574 54.4089 74.2992C53.5934 72.9409 53.6877 71.5877 53.3258 70.6831L52.2402 67.9716C52.2402 67.9716 52.7015 65.9737 53.4252 65.25Z" fill="white" stroke="#263238" stroke-width="0.5" stroke-linecap="round" stroke-linejoin="round"/>
<path d="M55.3262 69.9141C55.3262 69.9141 55.5402 72.8268 55.8562 72.9339C56.1722 73.0409 57.0743 72.7223 57.0743 72.7223" stroke="#263238" stroke-width="0.5" stroke-linecap="round" stroke-linejoin="round"/>
<path d="M56.6504 73.833C56.6504 73.833 57.9246 73.94 58.3986 72.9844" stroke="#263238" stroke-width="0.5" stroke-linecap="round" stroke-linejoin="round"/>
<path d="M54.9124 70.4999C55.0194 70.8338 54.9583 71.1523 54.7773 71.2109C54.5964 71.2695 54.3645 71.0427 54.2677 70.7013C54.1708 70.3598 54.2192 70.0489 54.4002 69.9928C54.5811 69.9368 54.8054 70.1661 54.9124 70.4999Z" fill="#263238"/>
<path d="M57.4485 69.6515C57.5555 69.9879 57.4944 70.3038 57.3134 70.3625C57.1325 70.4211 56.8981 70.1968 56.791 69.8528C56.684 69.5088 56.7452 69.2004 56.9261 69.1418C57.107 69.0832 57.3491 69.3176 57.4485 69.6515Z" fill="#263238"/>
<path d="M53.5258 69.5397C53.5258 69.5397 53.4723 68.9051 54.5834 69.0122" stroke="#263238" stroke-width="0.5" stroke-linecap="round" stroke-linejoin="round"/>
<path d="M55.6973 68.6932C55.845 68.4355 56.0847 68.2433 56.3683 68.1549C56.6518 68.0665 56.9583 68.0886 57.2263 68.2167" stroke="#263238" stroke-width="0.5" stroke-linecap="round" stroke-linejoin="round"/>
<path d="M55.312 69.9244C55.7453 70.9642 55.4496 72.0752 54.6546 72.4091C53.8595 72.7429 52.8707 72.167 52.4273 71.1349C51.9839 70.1028 52.2871 68.9841 53.0848 68.6503C53.8824 68.3164 54.8788 68.8847 55.312 69.9244Z" stroke="#263238" stroke-width="0.5" stroke-linejoin="round"/>
<path d="M58.8101 68.7144C59.2433 69.7542 58.9477 70.8652 58.1526 71.1991C57.3575 71.5329 56.3688 70.957 55.9254 69.9249C55.4819 68.8928 55.7852 67.7741 56.5828 67.4403C57.3805 67.1064 58.3769 67.6645 58.8101 68.7144Z" stroke="#263238" stroke-width="0.5" stroke-linejoin="round"/>
<path d="M55.168 69.5426L55.8025 69.2266" stroke="#263238" stroke-width="1.05542" stroke-linejoin="round"/>
<path d="M72.05 99.9941C73.0031 94.5814 75.6177 79.4213 74.9984 79.1155C74.267 78.746 66.4054 77.375 66.4054 77.375C66.4054 77.375 65.516 83.779 64.3514 89.658C63.5869 93.5621 62.7587 97.6726 62.2949 99.9967L72.05 99.9941Z" fill="#FF7500" stroke="#263238" stroke-width="0.5" stroke-linejoin="round"/>
<path d="M55.1375 80.2344C55.1375 80.2344 53.6773 81.4627 53.5856 82.3699C53.4938 83.2771 51.9546 94.156 51.9546 94.156C51.9546 94.156 51.5928 93.7049 51.1392 93.8859C50.8411 94.0231 50.5889 94.2434 50.4129 94.5204C50.4129 94.5204 50.2498 93.9266 49.7784 94.3395C49.3069 94.7523 48.9629 96.3323 48.9629 96.3323C48.9629 96.3323 49.6866 98.692 50.2371 99.0539C50.7875 99.4158 51.5979 98.873 51.5979 98.873C51.5979 98.873 51.5061 99.2348 52.5025 99.2348C53.4989 99.2348 53.6824 97.6931 54.0443 97.0585C54.4062 96.424 55.4968 89.6225 56.0396 85.9044C56.5824 82.1864 55.1375 80.2344 55.1375 80.2344Z" fill="#FF7500" stroke="#263238" stroke-width="0.5" stroke-linecap="round" stroke-linejoin="round"/>
<path d="M52.334 99.9975H56.921C57.3746 98.2136 58.0958 95.3034 58.8374 92.2021C60.058 87.1182 60.7028 78.0078 60.7028 78.0078L55.1321 80.2325C55.3154 83.3028 55.2797 86.3822 55.025 89.4473C54.7371 92.9233 53.2386 97.4874 52.334 99.9975Z" fill="#FF7500" stroke="#263238" stroke-width="0.5" stroke-linejoin="round"/>
<path d="M71.0879 80.4636L67.9152 93.6131L66.5544 93.2512L65.9199 93.794C65.9199 93.794 65.4663 93.1595 65.0127 93.8858C64.7672 94.2924 64.4613 94.6593 64.1055 94.9739L64.74 98.6919C64.74 98.6919 67.4336 99.7954 67.8235 99.6883C68.0959 99.6193 68.3317 99.4491 68.4832 99.2125C68.6346 98.9758 68.6903 98.6904 68.639 98.4142C68.9734 98.6072 69.3436 98.7303 69.7271 98.776C69.9641 98.776 70.6012 98.3301 71.1516 97.902C71.7556 97.4419 72.201 96.805 72.4258 96.0799C73.3814 92.9964 76.1082 84.1893 76.5414 82.9992C77.6295 80.0049 74.8187 78.9219 74.4568 78.9219" fill="#FF7500"/>
<path d="M71.0879 80.4636L67.9152 93.6131L66.5544 93.2512L65.9199 93.794C65.9199 93.794 65.4663 93.1595 65.0127 93.8858C64.7672 94.2924 64.4613 94.6593 64.1055 94.9739L64.74 98.6919C64.74 98.6919 67.4336 99.7954 67.8235 99.6883C68.0959 99.6193 68.3317 99.4491 68.4832 99.2125C68.6346 98.9758 68.6903 98.6904 68.639 98.4142C68.9734 98.6072 69.3436 98.7303 69.7271 98.776C69.9641 98.776 70.6012 98.3301 71.1516 97.902C71.7556 97.4419 72.201 96.805 72.4258 96.0799C73.3814 92.9964 76.1082 84.1893 76.5414 82.9992C77.6295 80.0049 74.8187 78.9219 74.4568 78.9219" stroke="#263238" stroke-width="0.5" stroke-linecap="round" stroke-linejoin="round"/>
<path d="M34.4779 95.9819C34.4779 95.9819 32.4698 96.9248 32.6457 97.1032C32.8215 97.2816 34.1747 96.6317 34.4779 96.5706C34.7812 96.5094 35.1278 95.8698 34.4779 95.9819Z" fill="white" stroke="#263238" stroke-width="1.05542" stroke-linecap="round" stroke-linejoin="round"/>
<path d="M35.245 95.3365C35.245 95.3365 34.5951 95.2167 34.4804 95.5123C34.3658 95.8079 33.8306 97.4032 33.8892 97.7574C33.9478 98.1116 34.4805 97.4032 34.7174 97.049C34.9544 96.6948 35.245 95.3365 35.245 95.3365Z" fill="white" stroke="#263238" stroke-width="1.05542" stroke-linecap="round" stroke-linejoin="round"/>
<path d="M36.4866 95.3423C36.4866 95.3423 35.424 95.0467 35.2456 95.3423C35.0672 95.6379 34.1243 97.7046 34.1243 97.7046C34.1243 97.7046 34.0071 97.9416 34.5371 97.7046C35.0672 97.4676 36.4866 95.3423 36.4866 95.3423Z" fill="white" stroke="#263238" stroke-width="1.05542" stroke-linecap="round" stroke-linejoin="round"/>
<path d="M49.1863 95.3362L42.451 95.9784C42.451 95.9784 37.785 95.033 37.2524 94.9743C36.7198 94.9157 36.1897 95.3286 35.9553 95.6828C35.7208 96.037 34.2402 97.9279 34.2402 97.9279L34.5945 98.0451L36.6637 96.3912C36.6637 96.3912 37.785 96.3326 38.1392 96.3326C38.4934 96.3326 37.1352 97.0971 36.7223 97.1583C36.3095 97.2194 35.8355 97.2781 35.8941 97.5125C35.9527 97.7469 37.0179 97.8081 37.2524 97.8081C37.4868 97.8081 39.1433 97.2169 39.1433 97.2169C39.4592 97.221 39.7748 97.2414 40.0887 97.2781C40.6213 97.3367 41.5667 96.9213 41.5667 96.9213C41.5667 96.9213 49.9533 98.9319 50.5445 98.8708C51.1358 98.8096 51.1791 95.7236 49.1863 95.3362Z" fill="white" stroke="#263238" stroke-width="0.5" stroke-linecap="round" stroke-linejoin="round"/>
<path d="M47.1192 95.5717C47.1192 95.5717 45.9368 96.2216 45.4042 96.2802C44.8716 96.3388 44.9328 96.8128 45.4042 96.9912C45.8757 97.1696 47.5321 96.3413 47.8863 96.3413C48.2405 96.3413 51.0157 96.5758 51.6069 96.6369C52.1981 96.6981 52.5523 96.1043 51.0768 95.6329C49.6013 95.1615 47.1192 95.5717 47.1192 95.5717Z" fill="white" stroke="#263238" stroke-width="0.5" stroke-linecap="round" stroke-linejoin="round"/>
<path d="M48.4302 94.7428C48.4302 94.7428 47.3344 94.488 47.1942 94.9442C47.0541 95.4003 45.7723 97.2122 45.7417 97.3855C45.7111 97.5588 46.1673 97.7015 46.6871 97.1306C47.207 96.5598 48.4302 94.7428 48.4302 94.7428Z" fill="white" stroke="#263238" stroke-width="0.5" stroke-linecap="round" stroke-linejoin="round"/>
<path d="M49.2446 94.5116C49.2446 94.5116 48.2991 94.2746 48.0622 94.5116C47.8252 94.7486 46.1738 97.5237 46.1738 97.7607C46.1738 97.9977 46.8237 97.8779 46.8237 97.8779L48.712 95.2786L49.3032 94.7486L49.2446 94.5116Z" fill="white" stroke="#263238" stroke-width="0.5" stroke-linecap="round" stroke-linejoin="round"/>
<path d="M66.6714 98.7634C67.0505 98.7175 67.4011 98.5387 67.661 98.2587C67.9208 97.9788 68.0731 97.6159 68.0908 97.2344C68.2081 95.8175 66.6714 94.4593 65.6087 94.4007C64.5461 94.342 59.5845 95.4633 57.5764 95.5219C55.5683 95.5805 53.7946 95.5805 53.3818 95.4047C52.9689 95.2289 49.4828 94.5179 49.2458 94.5179C49.0088 94.5179 46.5879 97.8842 46.5879 97.8842C46.5879 97.8842 46.7663 98.2996 47.2377 97.8842C47.7092 97.4689 49.2458 96.0545 49.2458 96.0545H50.9583C50.9583 96.0545 49.363 97 49.1286 97.1758C48.8941 97.3516 47.9462 98.3582 48.1832 98.4169C48.4201 98.4755 49.6586 97.4128 49.6586 97.4128L51.4425 96.9388C51.4425 96.9388 52.7421 97.767 53.922 97.8256C54.6244 97.8627 55.3274 97.7623 55.9913 97.53C55.9913 97.53 62.8336 98.822 66.6714 98.7634Z" fill="white" stroke="#263238" stroke-width="0.5" stroke-linecap="round" stroke-linejoin="round"/>
<path d="M104.942 99.9609H2.4707" stroke="#263238" stroke-width="1.05542" stroke-linejoin="round"/>
<path d="M56.6687 98.7969H24.9316V99.9615H56.6687V98.7969Z" fill="white" stroke="#263238" stroke-width="1.05542" stroke-linejoin="round"/>
<path d="M56.6682 98.7969H41.7578V99.9615H56.6682V98.7969Z" fill="#263238" stroke="#263238" stroke-width="1.05542" stroke-linejoin="round"/>
<path d="M42.4976 98.7972L36.6313 84.0703H18.3418L25.6708 98.7972H42.4976Z" fill="#263238" stroke="#263238" stroke-width="1.05542" stroke-linejoin="round"/>
<path d="M41.7593 98.7972L35.893 84.0703H17.6035L24.9326 98.7972H41.7593Z" fill="white" stroke="#263238" stroke-width="1.05542" stroke-linejoin="round"/>
</svg>
