<?xml version="1.0" encoding="utf-8"?>
<svg viewBox="0 0 100 100" fill="none" xmlns="http://www.w3.org/2000/svg">
  <rect width="100" height="100" rx="50" fill="#F6F7F8" transform="matrix(0.9999999999999999, 0, 0, 0.9999999999999999, 0, -1.7763568394002505e-15)"/>
  <path d="M68.75 50C68.75 60.3553 60.3553 68.75 50 68.75C39.6447 68.75 31.25 60.3553 31.25 50C31.25 39.6447 39.6447 31.25 50 31.25C60.3553 31.25 68.75 39.6447 68.75 50Z" fill="white" transform="matrix(0.9999999999999999, 0, 0, 0.9999999999999999, 0, -1.7763568394002505e-15)"/>
  <path d="M 50 60.417 L 50 60.402 M 49.799 54.297 C 49.749 48.203 49.659 45.027 49.7 40.836 M 68.75 50 C 68.75 60.355 60.355 68.75 50 68.75 C 39.645 68.75 31.25 60.355 31.25 50 C 31.25 39.645 39.645 31.25 50 31.25 C 60.355 31.25 68.75 39.645 68.75 50 Z" stroke="#2C3948" stroke-width="3" stroke-linecap="round" stroke-linejoin="round" transform="matrix(0.9999999999999999, 0, 0, 0.9999999999999999, 0, -1.7763568394002505e-15)"/>
  <path d="M50 73C62.7025 73 73 62.7025 73 50C73 37.2974 62.7025 27 50 27C37.2974 27 27 37.2974 27 50C27 62.7025 37.2974 73 50 73Z" stroke="#FF7500" stroke-width="5" transform="matrix(0.9999999999999999, 0, 0, 0.9999999999999999, 0, -1.7763568394002505e-15)"/>
  <path d="M68.75 50C68.75 60.3553 60.3553 68.75 50 68.75C39.6447 68.75 31.25 60.3553 31.25 50C31.25 39.6447 39.6447 31.25 50 31.25C60.3553 31.25 68.75 39.6447 68.75 50Z" stroke="white" stroke-width="3" transform="matrix(0.9999999999999999, 0, 0, 0.9999999999999999, 0, -1.7763568394002505e-15)"/>
  <circle cx="50" cy="50" r="21.25" stroke="#FF7500" stroke-width="2.5" transform="matrix(0.9999999999999999, 0, 0, 0.9999999999999999, 0, -1.7763568394002505e-15)"/>
</svg>