<svg width="224" height="161" viewBox="0 0 224 161" fill="none" xmlns="http://www.w3.org/2000/svg">
<path d="M207.28 62.1907H16.7205C9.38448 62.1907 3.37512 56.188 3.37512 48.8454C3.37512 41.5028 9.37791 35.5 16.7205 35.5H207.28C214.616 35.5 220.625 41.5028 220.625 48.8454C220.625 56.1814 214.622 62.1907 207.28 62.1907Z" stroke="#D9DBDB" stroke-width="5" stroke-miterlimit="10"/>
<path d="M207.28 62.1908H16.7205C9.38448 62.1908 3.37512 56.188 3.37512 48.8454C3.37512 41.5028 9.37791 35.5 16.7205 35.5H207.28C214.616 35.5 220.625 41.5028 220.625 48.8454C220.625 56.1814 214.622 62.1908 207.28 62.1908Z" fill="white"/>
<path d="M207.28 62.1908H169.339V35.5H207.28C214.616 35.5 220.625 41.5028 220.625 48.8454C220.625 56.1814 214.622 62.1908 207.28 62.1908Z" fill="#003352"/>
<path d="M194.755 48.6488C193.021 50.3826 190.197 50.3826 188.463 48.6488C186.73 46.9149 186.73 44.0909 188.463 42.357C190.197 40.6232 193.021 40.6232 194.755 42.357C196.489 44.0909 196.489 46.9149 194.755 48.6488ZM189.396 43.2896C188.174 44.5112 188.174 46.4946 189.396 47.7162C190.618 48.9378 192.601 48.9378 193.823 47.7162C195.044 46.4946 195.044 44.5112 193.823 43.2896C192.601 42.0681 190.618 42.0681 189.396 43.2896Z" fill="#F9FBFC"/>
<path d="M194.753 47.713L193.82 48.6465L195.371 50.1976L196.305 49.2641L194.753 47.713Z" fill="#F9FBFC"/>
<path d="M200.738 54.6322C200.351 55.0197 199.727 55.0197 199.339 54.6322L195.379 50.6719C194.992 50.2844 194.992 49.6605 195.379 49.273C195.767 48.8855 196.39 48.8855 196.778 49.273L200.738 53.2333C201.126 53.6208 201.126 54.2447 200.738 54.6322Z" fill="#F9FBFC"/>
<path d="M106.329 24.9844H28.2992V68.7575H106.329V24.9844Z" stroke="#D9DBDB" stroke-width="5" stroke-miterlimit="10"/>
<path d="M106.329 24.9844H28.2992V68.7575H106.329V24.9844Z" fill="white"/>
<path d="M88.4495 79.3554L81.9904 82.8887L92.5335 102.162L98.9926 98.6288L88.4495 79.3554Z" fill="#787E8C"/>
<path d="M48.7518 51.6993H50.7498V53.6973H48.7518V51.6993ZM45.8178 44.8593C45.8058 44.2473 45.8898 43.6773 46.0698 43.1493C46.2618 42.6213 46.5318 42.1653 46.8798 41.7813C47.2278 41.3853 47.6538 41.0793 48.1578 40.8633C48.6618 40.6473 49.2258 40.5393 49.8498 40.5393C50.4138 40.5393 50.9238 40.6233 51.3798 40.7913C51.8478 40.9473 52.2498 41.1813 52.5858 41.4933C52.9218 41.7933 53.1798 42.1653 53.3598 42.6093C53.5518 43.0533 53.6478 43.5633 53.6478 44.1393C53.6478 44.5113 53.5998 44.8473 53.5038 45.1473C53.4198 45.4353 53.3058 45.6993 53.1618 45.9393C53.0178 46.1793 52.8498 46.4013 52.6578 46.6053C52.4778 46.8093 52.2918 47.0073 52.0998 47.1993C51.9078 47.3793 51.7158 47.5653 51.5238 47.7573C51.3438 47.9373 51.1758 48.1353 51.0198 48.3513C50.8758 48.5553 50.7558 48.7833 50.6598 49.0353C50.5758 49.2753 50.5338 49.5513 50.5338 49.8633V50.5653H49.0038V49.7193C49.0278 49.2153 49.1178 48.7893 49.2738 48.4413C49.4418 48.0813 49.6398 47.7633 49.8678 47.4873C50.1078 47.2113 50.3538 46.9593 50.6058 46.7313C50.8698 46.4913 51.1098 46.2453 51.3258 45.9933C51.5538 45.7293 51.7338 45.4413 51.8658 45.1293C51.9978 44.8173 52.0518 44.4393 52.0278 43.9953C51.9798 43.3353 51.7638 42.8193 51.3798 42.4473C51.0078 42.0753 50.4978 41.8893 49.8498 41.8893C49.4178 41.8893 49.0458 41.9673 48.7338 42.1233C48.4218 42.2793 48.1578 42.4893 47.9418 42.7533C47.7378 43.0173 47.5878 43.3293 47.4918 43.6893C47.3958 44.0493 47.3478 44.4393 47.3478 44.8593H45.8178ZM58.7537 51.6993H60.7517V53.6973H58.7537V51.6993ZM55.8197 44.8593C55.8077 44.2473 55.8917 43.6773 56.0717 43.1493C56.2637 42.6213 56.5337 42.1653 56.8817 41.7813C57.2297 41.3853 57.6557 41.0793 58.1597 40.8633C58.6637 40.6473 59.2277 40.5393 59.8517 40.5393C60.4157 40.5393 60.9257 40.6233 61.3817 40.7913C61.8497 40.9473 62.2517 41.1813 62.5877 41.4933C62.9237 41.7933 63.1817 42.1653 63.3617 42.6093C63.5537 43.0533 63.6497 43.5633 63.6497 44.1393C63.6497 44.5113 63.6017 44.8473 63.5057 45.1473C63.4217 45.4353 63.3077 45.6993 63.1637 45.9393C63.0197 46.1793 62.8517 46.4013 62.6597 46.6053C62.4797 46.8093 62.2937 47.0073 62.1017 47.1993C61.9097 47.3793 61.7177 47.5653 61.5257 47.7573C61.3457 47.9373 61.1777 48.1353 61.0217 48.3513C60.8777 48.5553 60.7577 48.7833 60.6617 49.0353C60.5777 49.2753 60.5357 49.5513 60.5357 49.8633V50.5653H59.0057V49.7193C59.0297 49.2153 59.1197 48.7893 59.2757 48.4413C59.4437 48.0813 59.6417 47.7633 59.8697 47.4873C60.1097 47.2113 60.3557 46.9593 60.6077 46.7313C60.8717 46.4913 61.1117 46.2453 61.3277 45.9933C61.5557 45.7293 61.7357 45.4413 61.8677 45.1293C61.9997 44.8173 62.0537 44.4393 62.0297 43.9953C61.9817 43.3353 61.7657 42.8193 61.3817 42.4473C61.0097 42.0753 60.4997 41.8893 59.8517 41.8893C59.4197 41.8893 59.0477 41.9673 58.7357 42.1233C58.4237 42.2793 58.1597 42.4893 57.9437 42.7533C57.7397 43.0173 57.5897 43.3293 57.4937 43.6893C57.3977 44.0493 57.3497 44.4393 57.3497 44.8593H55.8197ZM68.7557 51.6993H70.7537V53.6973H68.7557V51.6993ZM65.8217 44.8593C65.8097 44.2473 65.8937 43.6773 66.0737 43.1493C66.2657 42.6213 66.5357 42.1653 66.8837 41.7813C67.2317 41.3853 67.6577 41.0793 68.1617 40.8633C68.6657 40.6473 69.2297 40.5393 69.8537 40.5393C70.4177 40.5393 70.9277 40.6233 71.3837 40.7913C71.8517 40.9473 72.2537 41.1813 72.5897 41.4933C72.9257 41.7933 73.1837 42.1653 73.3637 42.6093C73.5557 43.0533 73.6517 43.5633 73.6517 44.1393C73.6517 44.5113 73.6037 44.8473 73.5077 45.1473C73.4237 45.4353 73.3097 45.6993 73.1657 45.9393C73.0217 46.1793 72.8537 46.4013 72.6617 46.6053C72.4817 46.8093 72.2957 47.0073 72.1037 47.1993C71.9117 47.3793 71.7197 47.5653 71.5277 47.7573C71.3477 47.9373 71.1797 48.1353 71.0237 48.3513C70.8797 48.5553 70.7597 48.7833 70.6637 49.0353C70.5797 49.2753 70.5377 49.5513 70.5377 49.8633V50.5653H69.0077V49.7193C69.0317 49.2153 69.1217 48.7893 69.2777 48.4413C69.4457 48.0813 69.6437 47.7633 69.8717 47.4873C70.1117 47.2113 70.3577 46.9593 70.6097 46.7313C70.8737 46.4913 71.1137 46.2453 71.3297 45.9933C71.5577 45.7293 71.7377 45.4413 71.8697 45.1293C72.0017 44.8173 72.0557 44.4393 72.0317 43.9953C71.9837 43.3353 71.7677 42.8193 71.3837 42.4473C71.0117 42.0753 70.5017 41.8893 69.8537 41.8893C69.4217 41.8893 69.0497 41.9673 68.7377 42.1233C68.4257 42.2793 68.1617 42.4893 67.9457 42.7533C67.7417 43.0173 67.5917 43.3293 67.4957 43.6893C67.3997 44.0493 67.3517 44.4393 67.3517 44.8593H65.8217Z" fill="black"/>
<path d="M93.2265 88.0937L89.2662 80.8496C88.2614 81.5326 87.2106 82.1763 86.1204 82.7739C85.0301 83.3716 83.9202 83.9035 82.8037 84.383L86.764 91.6271C87.8739 91.1279 88.9838 90.5959 90.0675 89.9983C91.1577 89.4006 92.202 88.757 93.2199 88.0937H93.2265Z" fill="#1D262D"/>
<g opacity="0.5">
<path d="M68.0951 84.4899C88.9662 83.5421 105.117 65.8545 104.169 44.9834C103.222 24.1123 85.5341 7.96119 64.663 8.90894C43.7919 9.8567 27.6408 27.5444 28.5886 48.4155C29.5363 69.2866 47.224 85.4376 68.0951 84.4899Z" fill="#DADADA"/>
</g>
<g style="mix-blend-mode:screen" opacity="0.5">
<path d="M35.6877 43.8222C35.2674 44.052 34.7683 44.1505 34.256 44.0717C33.0213 43.8813 32.1741 42.7254 32.3645 41.4907C32.7323 39.0935 33.3562 36.7226 34.2231 34.4568C34.6697 33.2877 35.9767 32.6966 37.1457 33.1432C38.3148 33.5898 38.9058 34.8968 38.4592 36.0658C37.7105 38.0427 37.1654 40.0983 36.8436 42.1803C36.732 42.9027 36.2854 43.4938 35.6877 43.8222Z" fill="white"/>
</g>
<g style="mix-blend-mode:screen" opacity="0.5">
<path d="M52.7044 77.2432C52.0674 77.5913 51.2727 77.6307 50.5765 77.2695C44.4621 74.1171 39.4838 69.257 36.1738 63.2148C34.5056 60.1609 33.3103 56.8902 32.6273 53.5013C32.3777 52.2732 33.1724 51.0845 34.4005 50.8349C35.6287 50.5853 36.824 51.38 37.067 52.6082C37.658 55.5504 38.6957 58.3876 40.1472 61.041C43.0172 66.2885 47.3387 70.5049 52.6453 73.2436C53.7552 73.815 54.1953 75.181 53.6239 76.2975C53.4072 76.7178 53.0788 77.0396 52.6979 77.2498L52.7044 77.2432Z" fill="white"/>
</g>
<path d="M44.2782 6.28081C21.9549 18.49 13.7585 46.4811 25.9677 68.8044C38.1769 91.1277 66.168 99.3241 88.4913 87.1149C110.815 74.9057 119.011 46.9146 106.802 24.5913C94.5926 2.268 66.6015 -5.92837 44.2782 6.28081ZM84.5376 79.884C66.2074 89.9127 43.2208 83.1743 33.1986 64.8507C23.1699 46.5205 29.9017 23.5339 48.2319 13.5117C66.5621 3.48301 89.5487 10.2148 99.5709 28.545C109.6 46.8752 102.861 69.8618 84.5376 79.884Z" fill="#787E8C"/>
<path d="M101.477 97.272L90.0455 103.525L121.275 160.614L132.706 154.36L101.477 97.272Z" fill="#003352"/>
<path d="M93.9603 101.378L91.6959 102.617L122.925 159.706L125.189 158.467L93.9603 101.378Z" fill="#003352"/>
<path d="M93.9603 101.378L91.6959 102.617L122.925 159.706L125.189 158.467L93.9603 101.378Z" fill="white" fill-opacity="0.1"/>
<path d="M101.479 97.2672L97.7227 99.3223L128.952 156.411L132.709 154.356L101.479 97.2672Z" fill="#003352"/>
<path d="M101.479 97.2672L97.7227 99.3223L128.952 156.411L132.709 154.356L101.479 97.2672Z" fill="black" fill-opacity="0.2"/>
</svg>
