<svg width="30" height="25" viewBox="0 0 30 25" fill="none" xmlns="http://www.w3.org/2000/svg">
<g clip-path="url(#clip0_8964_24650)">
<path d="M15.0001 1.627V1.21409C15.0001 0.543675 14.4853 0 13.8505 0H1.86388C1.22912 0 0.714355 0.543675 0.714355 1.21409V23.1074H29.2858V2.84109C29.2858 2.17068 28.771 1.627 28.1363 1.627H15.0001Z" fill="#9F4900"/>
<path d="M28.2848 3.37695H1.98291V23.33H28.2848V3.37695Z" fill="white"/>
<path d="M14.5925 5.87054L14.1682 7.1123H1.86388C1.22912 7.1123 0.714355 7.65597 0.714355 8.32639V23.7847C0.714355 24.4551 1.22912 24.9988 1.86388 24.9988H28.1363C28.771 24.9988 29.2858 24.4551 29.2858 23.7847V6.28245C29.2858 5.61203 28.771 5.06836 28.1363 5.06836H15.6739C15.1896 5.06836 14.7567 5.38923 14.5925 5.87054Z" fill="#FF7500"/>
</g>
<defs>
<clipPath id="clip0_8964_24650">
<rect width="28.5714" height="25" fill="white" transform="translate(0.714355)"/>
</clipPath>
</defs>
</svg>
