<svg width="25" height="24" viewBox="0 0 25 24" fill="none" xmlns="http://www.w3.org/2000/svg">
<path d="M12.6579 21C10.1746 21 8.06624 20.1208 6.33291 18.3625C4.59958 16.6042 3.73291 14.475 3.73291 11.975H5.23291C5.23291 14.0583 5.94958 15.8333 7.38291 17.3C8.81624 18.7667 10.5746 19.5 12.6579 19.5C14.7746 19.5 16.5662 18.7583 18.0329 17.275C19.4996 15.7917 20.2329 13.9917 20.2329 11.875C20.2329 9.80833 19.4912 8.0625 18.0079 6.6375C16.5246 5.2125 14.7412 4.5 12.6579 4.5C11.5246 4.5 10.4621 4.75833 9.47041 5.275C8.47874 5.79167 7.61624 6.475 6.88291 7.325H9.50791V8.825H4.28291V3.625H5.78291V6.275C6.64958 5.25833 7.67874 4.45833 8.87041 3.875C10.0621 3.29167 11.3246 3 12.6579 3C13.9079 3 15.0829 3.23333 16.1829 3.7C17.2829 4.16667 18.2454 4.80417 19.0704 5.6125C19.8954 6.42083 20.5454 7.36667 21.0204 8.45C21.4954 9.53333 21.7329 10.7 21.7329 11.95C21.7329 13.2 21.4954 14.375 21.0204 15.475C20.5454 16.575 19.8954 17.5333 19.0704 18.35C18.2454 19.1667 17.2829 19.8125 16.1829 20.2875C15.0829 20.7625 13.9079 21 12.6579 21ZM15.8579 16.075L12.0079 12.275V6.925H13.5079V11.65L16.9329 15L15.8579 16.075Z" fill="#FF7500"/>
</svg>
