<svg width="100" height="100" viewBox="0 0 100 100" fill="none" xmlns="http://www.w3.org/2000/svg">
<rect width="100" height="100" rx="50" fill="#F6F7F8"/>
<path d="M68.75 50C68.75 60.3553 60.3553 68.75 50 68.75C39.6447 68.75 31.25 60.3553 31.25 50C31.25 39.6447 39.6447 31.25 50 31.25C60.3553 31.25 68.75 39.6447 68.75 50Z" fill="white"/>
<path d="M50 60.4167V60.4018M50 55.9524C50 49.2559 56.25 50.744 56.25 45.5357C56.25 42.2483 53.4518 39.5833 50 39.5833C47.2014 39.5833 44.8325 41.3351 44.0361 43.75M68.75 50C68.75 60.3553 60.3553 68.75 50 68.75C39.6447 68.75 31.25 60.3553 31.25 50C31.25 39.6447 39.6447 31.25 50 31.25C60.3553 31.25 68.75 39.6447 68.75 50Z" stroke="#2C3948" stroke-width="3" stroke-linecap="round" stroke-linejoin="round"/>
<path d="M50 73C62.7025 73 73 62.7025 73 50C73 37.2974 62.7025 27 50 27C37.2974 27 27 37.2974 27 50C27 62.7025 37.2974 73 50 73Z" stroke="#FF7500" stroke-width="5"/>
<path d="M68.75 50C68.75 60.3553 60.3553 68.75 50 68.75C39.6447 68.75 31.25 60.3553 31.25 50C31.25 39.6447 39.6447 31.25 50 31.25C60.3553 31.25 68.75 39.6447 68.75 50Z" stroke="white" stroke-width="3"/>
<circle cx="50" cy="50" r="21.25" stroke="#FF7500" stroke-width="2.5"/>
</svg>
