<svg width="200" height="53" viewBox="0 0 219 53" fill="none" xmlns="http://www.w3.org/2000/svg">
  <path
    d="M26.975 1.9013e-06C21.7725 -0.00197586 16.6863 1.53906 12.3597 4.42818C8.0332 7.3173 4.66071 11.4247 2.66889 16.2308C0.677063 21.0369 0.155392 26.3258 1.16986 31.4284C2.18434 36.5311 4.68937 41.2182 8.3681 44.8969C12.0468 48.5756 16.7339 51.0807 21.8366 52.0951C26.9392 53.1096 32.2281 52.5879 37.0342 50.5961C41.8403 48.6043 45.9477 45.2318 48.8368 40.9053C51.7259 36.5787 53.267 31.4925 53.265 26.29C53.265 22.8376 52.585 19.4189 51.2638 16.2293C49.9426 13.0396 48.0061 10.1414 45.5648 7.70016C43.1236 5.25891 40.2254 3.3224 37.0358 2.00121C33.8461 0.680013 30.4275 1.9013e-06 26.975 1.9013e-06ZM26.605 10.92C27.4747 11.5816 28.2998 12.2998 29.075 13.07C29.245 13.22 29.405 13.41 30.005 13.2C31.235 12.83 34.065 11.44 36.085 11.26C36.3871 11.1698 36.7086 11.168 37.0117 11.2548C37.3147 11.3417 37.5866 11.5135 37.795 11.75C38.6738 12.4586 39.5086 13.22 40.295 14.03C39.2139 14.126 38.1411 14.2998 37.085 14.55L36.865 14.6C36.5626 14.6607 36.2815 14.7999 36.0499 15.0035C35.8182 15.2071 35.6441 15.4679 35.545 15.76C35.5063 15.9103 35.4861 16.0648 35.485 16.22C35.4929 16.6131 35.6299 16.9926 35.875 17.3C36.263 17.896 36.5977 18.5251 36.875 19.18C35.1767 19.7035 33.5076 20.3177 31.875 21.02C31.5831 21.1351 31.3224 21.3173 31.1139 21.5518C30.9055 21.7863 30.7551 22.0666 30.675 22.37C30.6638 22.4864 30.6638 22.6036 30.675 22.72C30.6798 23.2412 30.8879 23.74 31.255 24.11C33.2678 26.6412 34.3514 29.7862 34.325 33.02C34.3251 33.8761 34.2413 34.7302 34.075 35.57C33.265 39.57 30.565 42.63 26.075 44.65C23.82 45.5967 21.3752 46.0042 18.935 45.84H19.335C23.865 45.29 27.055 43.72 29.255 39.84C32.255 34.44 29.985 27.84 25.425 24.04C24.0815 23.02 22.6643 22.1008 21.185 21.29C20.825 21.08 20.625 20.76 21.075 20.2C22.217 18.557 23.5913 17.0884 25.155 15.84C25.585 15.54 25.395 15.29 25.215 15.05C24.5462 14.4775 23.8303 13.9623 23.075 13.51C22.585 13.27 22.385 13.01 22.765 12.66C23.6108 11.8718 24.5982 11.2509 25.675 10.83C25.8207 10.7485 25.9879 10.7135 26.1541 10.7296C26.3203 10.7457 26.4776 10.8121 26.605 10.92ZM9.495 15.6C10.0649 14.4537 10.7341 13.3595 11.495 12.33C11.574 12.2104 11.6908 12.1207 11.8268 12.0754C11.9628 12.03 12.1101 12.0317 12.245 12.08C12.985 12.21 14.245 12.76 15.995 13.23C16.1275 13.2913 16.2774 13.3038 16.4183 13.2654C16.5591 13.227 16.6819 13.1401 16.765 13.02C18.4135 11.3186 20.4039 9.98595 22.605 9.11C22.8104 9.0288 23.0308 8.99217 23.2514 9.00251C23.4721 9.01285 23.6881 9.06994 23.885 9.17C24.275 9.35 24.695 9.54 25.195 9.79C24.1255 10.2385 23.1411 10.8677 22.285 11.65C22.0931 11.8165 21.9393 12.0223 21.8341 12.2536C21.7288 12.4848 21.6746 12.736 21.675 12.99C21.6693 13.0632 21.6693 13.1368 21.675 13.21C21.7372 13.5246 21.8741 13.8197 22.0743 14.0703C22.2744 14.321 22.5319 14.5198 22.825 14.65C23.2251 14.8858 23.6124 15.1428 23.985 15.42C22.6421 16.5998 21.4528 17.9437 20.445 19.42C20.244 19.6448 20.0943 19.9105 20.0063 20.1989C19.9182 20.4873 19.8939 20.7913 19.935 21.09C19.9911 21.3777 20.1098 21.6495 20.2826 21.8863C20.4554 22.123 20.6781 22.3189 20.935 22.46L21.655 22.89C22.8269 23.5356 23.9469 24.2711 25.005 25.09C28.885 28.3 31.345 34.17 28.515 39.2C26.615 42.57 23.865 44.31 19.605 44.83C18.1292 45.0063 16.6334 44.9045 15.195 44.53C15.7753 44.6043 16.36 44.6377 16.945 44.63C20.155 44.63 23.525 43.47 25.275 40.71C29.655 33.82 24.625 26.71 17.805 24.43C15.805 23.8019 13.7538 23.3502 11.675 23.08C10.945 22.99 10.765 22.76 10.995 22.25C11.7557 20.5827 12.652 18.9806 13.675 17.46C13.745 17.36 13.675 17.12 13.435 17.04C12.2809 16.7053 11.1091 16.4349 9.925 16.23C9.475 16.17 9.305 15.96 9.495 15.6ZM30.585 49.96C26.3022 50.6826 21.9033 50.2193 17.8649 48.6206C13.8265 47.0218 10.3026 44.3484 7.675 40.89C11.155 44.26 17.075 49.74 26.055 45.59C39.125 39.75 35.275 26.72 31.675 22.91C31.5873 22.8508 31.5181 22.768 31.4755 22.6711C31.4329 22.5743 31.4186 22.4673 31.4343 22.3626C31.45 22.258 31.495 22.1599 31.5642 22.0798C31.6333 21.9997 31.7238 21.9408 31.825 21.91C33.7401 21.0842 35.7077 20.386 37.715 19.82C37.965 19.75 38.015 19.63 37.885 19.32C37.5435 18.2288 37.0485 17.1918 36.415 16.24C36.085 15.88 36.235 15.66 36.605 15.57C37.7796 15.2747 38.9773 15.0806 40.185 14.99C40.3238 14.9603 40.4684 14.9742 40.599 15.0296C40.7296 15.0851 40.84 15.1795 40.915 15.3C41.5103 16.3854 41.9864 17.5321 42.335 18.72C42.3744 18.823 42.439 18.9145 42.5228 18.9861C42.6067 19.0577 42.7071 19.1072 42.815 19.13C44.9823 19.1446 47.1465 19.2949 49.295 19.58C49.4137 19.6074 49.5251 19.6599 49.6218 19.7341C49.7184 19.8083 49.7979 19.9024 49.855 20.01C50.355 21.52 51.475 28.81 48.265 36.51C44.675 45.37 37.505 48.9 30.585 49.96Z"
    fill="#FF7500" />
<path d="M61.145 38.7904L62.875 38.6404C64.745 38.4504 64.745 38.2104 64.745 32.3504V15.6404C64.745 9.78039 64.745 9.54039 62.875 9.35039L61.145 9.20039V8.15039H73.675C78.235 8.15039 85.345 8.87039 85.345 16.7904C85.345 23.3704 78.045 26.3704 73.535 26.3704H72.675V25.2904C74.745 25.2904 80.265 24.2904 80.265 17.0804C80.265 11.4604 76.465 9.73039 72.145 9.73039C71.1343 9.75715 70.129 9.88784 69.145 10.1204V32.3704C69.145 38.2304 69.145 38.4704 71.785 38.6604L73.515 38.8104V39.8104H61.145V38.7904Z" fill="#FF7500"/>
<path d="M84.935 27.2893C84.935 18.9493 91.385 13.7793 98.845 13.7793C105.945 13.7793 111.935 18.2993 111.935 26.8693C111.935 35.4393 105.755 40.4193 98.105 40.4193C90.455 40.4193 84.935 35.6293 84.935 27.2893ZM98.845 39.1493C105.405 39.1493 107.845 33.5093 107.845 27.8693C107.845 20.5793 104.215 15.0493 98.155 15.0493C92.365 15.0493 88.965 19.8793 88.965 26.5593C88.995 34.4393 93.015 39.1493 98.845 39.1493Z" fill="#FF7500"/>
<path d="M123.615 25.2108C126.615 26.9508 129.835 28.5708 129.835 33.2108C129.835 38.4208 125.005 40.4308 120.915 40.4308C118.789 40.5087 116.686 39.9742 114.855 38.8908C114.022 36.721 113.602 34.4149 113.615 32.0908L114.855 31.7808C115.275 34.5608 116.705 39.1608 121.995 39.1608C122.63 39.2022 123.266 39.1058 123.86 38.8782C124.454 38.6506 124.992 38.2971 125.437 37.8421C125.881 37.387 126.222 36.8412 126.436 36.242C126.65 35.6428 126.731 35.0045 126.675 34.3708C126.675 31.5508 124.325 29.6208 121.315 28.2708L118.835 26.9208C117.621 26.3057 116.591 25.3823 115.847 24.2432C115.102 23.1041 114.671 21.7893 114.595 20.4308C114.595 15.7208 118.535 13.7508 122.595 13.7508C124.448 13.6962 126.283 14.1198 127.925 14.9808C128.196 16.7442 128.323 18.5267 128.305 20.3108H127.305C126.915 18.3808 126.305 15.0208 121.935 15.0208C121.378 15.0056 120.824 15.1042 120.306 15.3104C119.789 15.5166 119.318 15.8261 118.924 16.2201C118.53 16.6141 118.221 17.0843 118.015 17.6019C117.808 18.1196 117.71 18.6738 117.725 19.2308C117.725 21.5108 119.385 22.7408 121.475 23.9808L123.615 25.2108Z" fill="#FF7500"/>
<path d="M129.965 38.9891L131.355 38.8791C132.855 38.7191 132.855 38.5291 132.855 33.8191V20.3691C132.855 15.6591 132.855 15.4691 131.355 15.3091L129.965 15.1991V14.3691H139.345V15.2191L137.955 15.3291C136.445 15.4891 136.445 15.6791 136.445 20.3891V33.8191C136.445 38.5291 136.445 38.7191 137.955 38.8791L139.345 38.9891V39.8391H129.965V38.9891Z" fill="#FF7500"/>
<path d="M146.985 38.9891L148.405 38.8791C150.535 38.7191 150.535 38.5291 150.535 33.8191V15.4391H148.535C143.085 15.4391 143.015 16.0191 142.165 20.4991H141.235C141.235 20.3391 141.155 19.2991 141.155 18.7991C141.168 17.3132 141.309 15.8311 141.575 14.3691H163.085C163.346 15.8353 163.486 17.3202 163.505 18.8091C163.505 19.3091 163.435 20.3491 163.435 20.5091H162.505C161.655 16.0291 161.575 15.4491 156.135 15.4491H154.135V33.8191C154.135 38.5291 154.135 38.7191 156.295 38.8791L157.685 38.9891V39.8391H146.985V38.9891Z" fill="#FF7500"/>
<path d="M164.865 38.9891L166.245 38.8791C167.755 38.7191 167.755 38.5291 167.755 33.8191V20.3691C167.755 15.6591 167.755 15.4691 166.245 15.3091L164.865 15.1991V14.3691H174.245V15.2191L172.855 15.3291C171.345 15.4891 171.345 15.6791 171.345 20.3891V33.8191C171.345 38.5291 171.345 38.7191 172.855 38.8791L174.245 38.9891V39.8391H164.865V38.9891Z" fill="#FF7500"/>
<path d="M178.765 18.2991C178.185 16.8691 177.765 15.4391 176.485 15.2991L175.365 15.1891V14.3691H184.975V15.2191L183.785 15.3291C183.165 15.4091 182.045 15.5191 182.045 16.3291C182.164 16.8567 182.331 17.3722 182.545 17.8691L189.225 35.0991C190.115 32.7791 196.175 17.7591 196.175 16.5591C196.175 15.7891 195.405 15.5591 194.675 15.4791L192.935 15.2491V14.3691H201.275V15.2191L200.275 15.4491C199.834 15.5327 199.429 15.749 199.115 16.0691C198.265 16.9191 197.025 20.6191 196.065 22.4791L193.435 28.8091C191.235 34.1391 189.305 38.8091 188.955 39.8091C188.548 40.0644 188.107 40.2597 187.645 40.3891L178.765 18.2991Z" fill="#FF7500"/>
<path d="M192.805 38.9893L193.535 38.8793C195.005 38.6493 195.205 38.2193 196.125 35.9793L204.125 16.4393C204.435 15.6693 204.745 14.8993 205.055 14.1593L206.175 13.7793L214.785 36.1393C215.365 37.6793 215.785 38.5693 216.785 38.7593L218.335 38.9893V39.8393H208.755V38.9893L210.495 38.6793C211.185 38.5693 211.695 38.3793 211.695 37.9493C211.652 37.6696 211.571 37.3971 211.455 37.1393L208.755 29.8393C207.34 29.5757 205.904 29.4451 204.465 29.4493C203.123 29.4679 201.785 29.5984 200.465 29.8393L198.465 35.2093C198.117 36.0429 197.859 36.9111 197.695 37.7993C197.695 38.5293 198.195 38.6493 198.615 38.6793L200.935 38.9893V39.8393H192.825L192.805 38.9893ZM200.915 28.3693C202.075 28.2993 203.275 28.1793 204.425 28.1793C205.664 28.1675 206.903 28.231 208.135 28.3693L204.585 19.0293L200.915 28.3693Z" fill="#FF7500"/>
<path d="M84.045 49.7794C83.9736 50.6255 83.7712 51.4554 83.445 52.2394C82.491 52.6198 81.4719 52.81 80.445 52.7994C77.665 52.7994 75.065 51.5094 75.065 47.7994C75.065 43.9294 78.175 42.7994 80.465 42.7994C81.4978 42.7532 82.5266 42.9555 83.465 43.3894C83.6061 44.094 83.6764 44.8109 83.675 45.5294L83.285 45.6194C83.2614 45.2781 83.1692 44.9451 83.0137 44.6404C82.8583 44.3356 82.6429 44.0654 82.3805 43.8459C82.1181 43.6265 81.814 43.4623 81.4866 43.3632C81.1592 43.2642 80.8151 43.2323 80.475 43.2694C78.095 43.2694 76.605 44.8294 76.605 47.5494C76.605 50.0294 77.795 52.3194 80.435 52.3194C82.835 52.3194 83.205 50.8494 83.655 49.6894L84.045 49.7794Z" fill="#FF7500"/>
<path d="M84.515 48.7907C84.5036 48.245 84.6041 47.7027 84.8102 47.1972C85.0163 46.6918 85.3236 46.2339 85.7133 45.8517C86.103 45.4695 86.5668 45.1711 87.0761 44.9749C87.5855 44.7786 88.1296 44.6887 88.675 44.7107C89.2057 44.6728 89.7385 44.7485 90.2376 44.933C90.7367 45.1174 91.1907 45.4061 91.5693 45.78C91.9479 46.1539 92.2424 46.6042 92.4331 47.101C92.6238 47.5978 92.7062 48.1295 92.675 48.6607C92.6879 49.209 92.5879 49.7541 92.3812 50.2621C92.1746 50.7701 91.8656 51.2302 91.4736 51.6138C91.0816 51.9974 90.6149 52.2963 90.1025 52.4918C89.59 52.6874 89.0429 52.7755 88.495 52.7507C87.9642 52.7891 87.4313 52.7131 86.9324 52.528C86.4335 52.3428 85.9801 52.0528 85.6028 51.6774C85.2256 51.3021 84.9332 50.8501 84.7456 50.3521C84.5579 49.8541 84.4793 49.3217 84.515 48.7907ZM88.675 52.3707C90.675 52.3707 91.405 50.6707 91.405 48.9607C91.405 46.7607 90.315 45.0907 88.475 45.0907C86.635 45.0907 85.705 46.5507 85.705 48.5707C85.745 50.9507 86.955 52.3707 88.675 52.3707Z" fill="#FF7500"/>
<path d="M93.325 52.3701L93.615 52.3001C93.7455 52.2871 93.87 52.2387 93.975 52.1601C94.1685 51.539 94.2597 50.8905 94.245 50.2401L94.435 47.3001C94.435 46.5101 94.555 45.2501 94.555 44.9301L94.875 44.8301C95.225 45.4301 97.875 50.4601 98.245 51.1001C98.615 50.5101 101.245 45.5301 101.455 44.9301L101.755 44.8301C101.755 44.9201 101.835 46.2301 101.915 47.7601L102.025 49.7601C102.035 50.5315 102.108 51.3008 102.245 52.0601C102.297 52.1278 102.363 52.1829 102.44 52.221C102.516 52.2591 102.6 52.2793 102.685 52.2801L103.035 52.3501V52.6101H100.035V52.3701L100.485 52.3001C100.985 52.2401 101.035 52.0601 101.035 51.5201C101.035 50.2301 100.835 47.7801 100.835 47.0301C100.635 47.5401 99.445 49.8301 98.295 52.1001C98.235 52.2201 98.185 52.3601 98.125 52.4801L97.805 52.6301C97.545 52.0901 96.065 49.2501 95.255 47.7101C95.145 47.4901 95.035 47.2601 94.945 47.0301C94.945 47.7001 94.745 51.0301 94.745 51.3601C94.745 52.0501 94.745 52.2401 95.295 52.3001L95.755 52.3701V52.6301H93.325V52.3701Z" fill="#FF7500"/>
<path d="M103.575 52.3702H103.995C104.445 52.3202 104.445 52.2602 104.445 50.8402V46.7002C104.445 45.2802 104.445 45.2202 103.995 45.1702H103.575V44.9102H106.575C107.685 44.9102 109.415 45.0902 109.415 47.0102C109.415 48.6002 107.635 49.3302 106.545 49.3302H106.345V49.0702C106.603 49.0792 106.86 49.0323 107.098 48.9327C107.336 48.8331 107.55 48.6832 107.725 48.4932C107.9 48.3032 108.031 48.0777 108.111 47.832C108.19 47.5864 108.215 47.3265 108.185 47.0702C108.185 45.7102 107.265 45.2902 106.185 45.2902C105.943 45.2948 105.701 45.325 105.465 45.3802V50.7802C105.465 52.2002 105.465 52.2602 106.105 52.3102H106.525V52.5702H103.525L103.575 52.3702Z" fill="#FF7500"/>
<path d="M108.785 52.3691H109.005C109.455 52.2991 109.515 52.1691 109.795 51.4891L112.215 45.5891C112.315 45.3591 112.405 45.1191 112.495 44.8991L112.835 44.7891L115.435 51.5391C115.615 52.0091 115.725 52.2691 116.035 52.3291L116.495 52.3991V52.6591H113.605V52.3691L114.125 52.2791C114.345 52.2791 114.495 52.1891 114.495 52.0591C114.481 51.9734 114.458 51.8895 114.425 51.8091L113.605 49.6091C113.18 49.5293 112.748 49.4891 112.315 49.4891C111.902 49.4943 111.491 49.5345 111.085 49.6091L110.495 51.2291C110.389 51.4802 110.308 51.7416 110.255 52.0091C110.255 52.2291 110.405 52.2691 110.535 52.2791L111.235 52.3691V52.6291H108.785V52.3691ZM111.235 49.1691C111.585 49.1691 111.945 49.1091 112.295 49.1091C112.669 49.1039 113.043 49.1239 113.415 49.1691L112.345 46.3391L111.235 49.1691Z" fill="#FF7500"/>
<path d="M116.285 52.3696H116.705C117.165 52.3696 117.245 51.9696 117.245 50.7096V44.8796L117.515 44.7796C118.515 46.0096 121.925 49.5796 123.195 50.8296V46.8296C123.195 45.5496 123.195 45.2296 122.555 45.1696H122.125V44.9096H124.675V45.1696H124.265C123.835 45.1696 123.755 45.5696 123.755 46.8296V52.5796L123.505 52.6796C123.245 52.4096 122.505 51.6796 121.305 50.3996L117.805 46.6996V50.6296C117.805 51.9096 117.805 52.2296 118.415 52.2896H118.835V52.5496H116.315L116.285 52.3696ZM118.855 43.8796C118.995 43.6496 119.415 42.8796 120.035 42.8796C120.325 42.9057 120.609 42.9801 120.875 43.0996C121.153 43.2361 121.456 43.3176 121.765 43.3396C122.095 43.3396 122.315 42.9696 122.415 42.8496L122.565 42.9896C122.435 43.2696 122.095 43.9896 121.455 43.9896C120.815 43.9896 120.115 43.5296 119.715 43.5296C119.315 43.5296 119.135 43.8896 119.015 44.0396L118.855 43.8796Z" fill="#FF7500"/>
<path d="M125.185 52.3702H125.605C126.065 52.3202 126.065 52.2602 126.065 50.8402V46.7002C126.065 45.2802 126.065 45.2202 125.605 45.1702H125.185V44.9102H128.025V45.1702H127.605C127.145 45.2202 127.145 45.2802 127.145 46.7002V50.7602C127.145 52.1802 127.145 52.2402 127.605 52.2902H128.025V52.5502H125.185V52.3702Z" fill="#FF7500"/>
<path d="M128.045 52.3691H128.265C128.705 52.2991 128.765 52.1691 129.045 51.4891L131.475 45.5891C131.565 45.3591 131.655 45.1191 131.755 44.8991L132.095 44.7891L134.695 51.5391C134.865 52.0091 134.985 52.2691 135.285 52.3291L135.755 52.3991V52.6591H132.865V52.3691L133.385 52.2791C133.595 52.2791 133.745 52.1891 133.745 52.0591C133.736 51.9724 133.712 51.8879 133.675 51.8091L132.865 49.6091C132.436 49.5299 132.001 49.4898 131.565 49.4891C131.156 49.4938 130.747 49.534 130.345 49.6091L129.745 51.2291C129.64 51.4798 129.563 51.7414 129.515 52.0091C129.515 52.2291 129.665 52.2691 129.795 52.2791L130.495 52.3691V52.6291H128.045V52.3691ZM130.495 49.1691C130.845 49.1691 131.205 49.1091 131.555 49.1091C131.929 49.1041 132.303 49.1242 132.675 49.1691L131.605 46.3391L130.495 49.1691Z" fill="#FF7500"/>
<path d="M138.345 52.3705H138.695C139.075 52.3705 139.075 52.2805 139.075 51.1005V47.7105C139.075 46.5305 139.075 46.4805 138.695 46.4405H138.345V46.2305H141.515C143.585 46.2305 144.825 47.3105 144.825 49.2305C144.825 51.7405 142.955 52.6505 140.935 52.6505H138.345V52.3705ZM139.975 52.1205C140.336 52.2014 140.705 52.2483 141.075 52.2605C142.835 52.2605 143.815 51.2605 143.815 49.4005C143.868 49.0141 143.832 48.6207 143.71 48.2505C143.587 47.8803 143.381 47.5432 143.108 47.265C142.834 46.9869 142.501 46.7751 142.133 46.646C141.765 46.5169 141.372 46.474 140.985 46.5205C140.65 46.531 140.316 46.561 139.985 46.6105L139.975 52.1205Z" fill="#FF7500"/>
<path d="M145.555 52.3705H145.905C146.275 52.3705 146.275 52.2805 146.275 51.1005V47.7105C146.275 46.5305 146.275 46.4805 145.905 46.4405H145.555V46.2305H149.675C149.743 46.5596 149.78 46.8944 149.785 47.2305C149.785 47.4505 149.785 47.5305 149.785 47.6205H149.555C149.345 46.6205 149.325 46.4405 147.955 46.4405H147.155V49.1005H148.015C148.775 49.1005 148.945 49.1005 149.015 48.6905L149.065 48.3605H149.315V50.1005H149.065L149.015 49.7705C148.955 49.3805 148.785 49.3705 148.015 49.3705H147.155V52.1505C147.5 52.2276 147.852 52.2711 148.205 52.2805C149.745 52.2805 149.845 51.7005 150.035 50.9105H150.275C150.248 51.4591 150.144 52.0011 149.965 52.5205H145.535L145.555 52.3705Z" fill="#FF7500"/>
<path d="M157.175 47.0796C158.325 47.7296 159.515 48.3396 159.515 50.0796C159.515 52.0796 157.695 52.7896 156.165 52.7896C155.365 52.8157 154.575 52.6146 153.885 52.2096C153.575 51.3918 153.419 50.5239 153.425 49.6496L153.885 49.5396C154.045 50.5396 154.585 52.3096 156.565 52.3096C156.801 52.3217 157.037 52.2833 157.257 52.197C157.477 52.1106 157.676 51.9783 157.841 51.8088C158.005 51.6394 158.132 51.4367 158.212 51.2144C158.292 50.992 158.324 50.7551 158.305 50.5196C158.305 49.5196 157.425 48.7396 156.305 48.2296L155.375 47.7196C154.917 47.493 154.527 47.1485 154.246 46.7215C153.964 46.2944 153.802 45.8002 153.775 45.2896C153.775 43.5196 155.255 42.7796 156.775 42.7796C157.47 42.7564 158.16 42.9149 158.775 43.2396C158.88 43.9009 158.931 44.5699 158.925 45.2396H158.565C158.415 44.5096 158.185 43.2396 156.565 43.2396C156.356 43.2341 156.148 43.2712 155.954 43.3486C155.76 43.4261 155.583 43.5423 155.436 43.6901C155.288 43.8379 155.172 44.0143 155.094 44.2085C155.017 44.4027 154.979 44.6106 154.985 44.8196C154.985 45.6696 155.605 46.1396 156.385 46.5996L157.175 47.0796Z" fill="#FF7500"/>
<path d="M160.225 52.3702H160.645C161.095 52.3202 161.095 52.2602 161.095 50.8402V46.7002C161.095 45.2802 161.095 45.2202 160.645 45.1702H160.225V44.9102H165.225C165.309 45.3183 165.352 45.7336 165.355 46.1502C165.355 46.4202 165.355 46.5102 165.355 46.6102H165.075C164.815 45.3602 164.795 45.1902 163.145 45.1902H162.145V48.3702H163.145C164.055 48.3702 164.265 48.3702 164.335 47.8902L164.395 47.4902H164.695V49.5902H164.395L164.335 49.1902C164.265 48.7102 164.055 48.7002 163.145 48.7002H162.145V52.0602C162.566 52.1494 162.995 52.1996 163.425 52.2102C165.275 52.2102 165.425 51.5102 165.625 50.5602H165.915C165.876 51.221 165.749 51.8736 165.535 52.5002H160.195L160.225 52.3702Z" fill="#FF7500"/>
<path d="M173.875 52.1694C172.944 52.5224 171.96 52.7184 170.965 52.7494C168.615 52.7494 166.515 51.7494 166.515 48.7494C166.515 45.7494 169.025 44.7494 170.865 44.7494C171.684 44.7206 172.498 44.8815 173.245 45.2194C173.369 45.7878 173.432 46.3676 173.435 46.9494L173.125 47.0194C173.112 46.7417 173.042 46.4698 172.918 46.2209C172.795 45.972 172.62 45.7516 172.407 45.5738C172.193 45.3959 171.945 45.2646 171.678 45.1881C171.411 45.1115 171.13 45.0916 170.855 45.1294C168.945 45.1294 167.745 46.3894 167.745 48.5694C167.745 50.5694 168.745 52.4094 171.045 52.4094C171.502 52.4094 171.959 52.3591 172.405 52.2594V51.8294C172.405 50.3994 172.405 50.3494 171.595 50.2994H171.175V49.9694H174.175V50.2194H173.755C173.535 50.2194 173.535 50.3194 173.535 51.4494C173.535 51.7994 173.535 51.8694 173.715 51.8694H173.835L173.875 52.1694Z" fill="#FF7500"/>
<path d="M181.045 52.3702C180.885 52.2002 180.795 52.0402 180.615 52.0402C179.788 52.4827 178.872 52.7323 177.935 52.7702C175.525 52.7702 175.325 51.3902 175.325 49.7702V46.7002C175.325 45.2802 175.325 45.2202 174.865 45.1702H174.445V44.9102H177.285V45.1702H176.865C176.405 45.2202 176.405 45.2802 176.405 46.7002V49.5902C176.405 51.2602 176.685 52.3702 178.495 52.3702C178.893 52.3751 179.287 52.2947 179.651 52.1342C180.015 51.9738 180.34 51.7371 180.605 51.4402V46.7002C180.605 45.2802 180.605 45.2202 180.155 45.1702H179.735V44.9102H182.565V45.1702H182.145C181.695 45.2202 181.695 45.2802 181.695 46.7002V52.5802L181.345 52.6802L181.045 52.3702Z" fill="#FF7500"/>
<path d="M183.165 52.3702H183.585C184.035 52.3202 184.035 52.2602 184.035 50.8402V46.7002C184.035 45.2802 184.035 45.2202 183.585 45.1702H183.165V44.9102H186.165C187.275 44.9102 188.835 45.0702 188.835 46.8502C188.777 47.2994 188.596 47.724 188.312 48.0769C188.028 48.4298 187.652 48.6974 187.225 48.8502C187.405 49.1702 187.785 49.9202 188.095 50.4802C188.415 51.134 188.856 51.7211 189.395 52.2102C189.577 52.293 189.776 52.3307 189.975 52.3202V52.5802H189.085C188.73 52.5469 188.391 52.4164 188.105 52.2029C187.819 51.9894 187.598 51.7013 187.465 51.3702L186.995 50.4802C186.804 50.0808 186.562 49.7077 186.275 49.3702C186.057 49.2447 185.805 49.1922 185.555 49.2202H185.125V50.7602C185.125 52.1802 185.125 52.2402 185.565 52.2902H185.985V52.5502H183.165V52.3702ZM185.165 48.9502H185.825C186.078 48.9708 186.331 48.9354 186.569 48.8465C186.806 48.7575 187.021 48.6173 187.197 48.4358C187.374 48.2542 187.509 48.0359 187.591 47.7964C187.674 47.5568 187.702 47.302 187.675 47.0502C187.699 46.8078 187.668 46.5632 187.586 46.3343C187.503 46.1053 187.369 45.8978 187.196 45.7271C187.022 45.5564 186.813 45.4267 186.582 45.3476C186.352 45.2685 186.107 45.2421 185.865 45.2702C185.622 45.2742 185.381 45.3044 185.145 45.3602L185.165 48.9502Z" fill="#FF7500"/>
<path d="M189.845 48.79C189.833 48.2408 189.935 47.695 190.143 47.1868C190.352 46.6785 190.663 46.2187 191.057 45.8359C191.451 45.4531 191.92 45.1556 192.434 44.9619C192.948 44.7682 193.496 44.6824 194.045 44.71C194.572 44.6779 195.1 44.7581 195.594 44.9452C196.088 45.1324 196.536 45.4222 196.909 45.7956C197.283 46.169 197.573 46.6174 197.76 47.1112C197.947 47.605 198.027 48.1329 197.995 48.66C198.017 49.2099 197.923 49.7582 197.721 50.2697C197.518 50.7812 197.21 51.2445 196.817 51.6298C196.424 52.0151 195.955 52.3138 195.44 52.5068C194.924 52.6997 194.374 52.7826 193.825 52.75C193.294 52.7884 192.761 52.7125 192.262 52.5273C191.763 52.3422 191.31 52.0521 190.933 51.6768C190.556 51.3014 190.263 50.8495 190.076 50.3515C189.888 49.8535 189.809 49.321 189.845 48.79ZM194.045 52.37C196.045 52.37 196.775 50.67 196.775 48.96C196.775 46.76 195.675 45.09 193.845 45.09C192.015 45.09 191.065 46.55 191.065 48.57C191.065 50.95 192.285 52.37 194.045 52.37Z" fill="#FF7500"/>
<path d="M201.795 48.1593C202.725 48.6793 203.675 49.1593 203.675 50.5693C203.675 52.1493 202.215 52.7493 200.985 52.7493C200.344 52.7739 199.709 52.6143 199.155 52.2893C198.903 51.6353 198.774 50.9402 198.775 50.2393L199.155 50.1393C199.157 50.7181 199.383 51.2735 199.786 51.6892C200.189 52.1049 200.737 52.3486 201.315 52.3693C201.502 52.3742 201.688 52.3396 201.86 52.2679C202.033 52.1961 202.188 52.0888 202.317 51.953C202.445 51.8171 202.543 51.6557 202.605 51.4793C202.667 51.303 202.691 51.1155 202.675 50.9293C202.675 50.0793 201.965 49.4993 201.055 49.0893L200.315 48.6793C199.94 48.4926 199.622 48.2084 199.395 47.8564C199.168 47.5045 199.04 47.0978 199.025 46.6793C199.025 45.2493 200.215 44.6793 201.455 44.6793C202.015 44.6619 202.569 44.7894 203.065 45.0493C203.147 45.582 203.187 46.1203 203.185 46.6593H202.885C202.765 46.0793 202.585 45.0593 201.265 45.0593C201.096 45.059 200.929 45.0933 200.774 45.1599C200.619 45.2266 200.479 45.3242 200.362 45.4469C200.246 45.5695 200.157 45.7146 200.099 45.8733C200.04 46.0319 200.015 46.2007 200.025 46.3693C200.025 47.0593 200.525 47.4293 201.155 47.8093L201.795 48.1593Z" fill="#FF7500"/>
</svg>
