<svg width="101" height="100" viewBox="0 0 101 100" fill="none" xmlns="http://www.w3.org/2000/svg">
<rect x="0.101562" width="100" height="100" rx="50" fill="#F6F7F8"/>
<path d="M49.7695 72.668C62.4721 72.668 72.7695 62.3705 72.7695 49.668C72.7695 36.9654 62.4721 26.668 49.7695 26.668C37.067 26.668 26.7695 36.9654 26.7695 49.668C26.7695 62.3705 37.067 72.668 49.7695 72.668Z" fill="white" stroke="#FF7500" stroke-width="5"/>
<path opacity="0.15" d="M61.3516 57.4991V42.4991C61.3516 42.1539 61.2117 41.8414 60.9854 41.6152L60.7266 41.8741L51.8693 50.7314C50.893 51.7077 49.3101 51.7077 48.3338 50.7314L39.4766 41.8741L39.2177 41.6152C38.9915 41.8414 38.8516 42.1539 38.8516 42.4991V57.4991C38.8516 58.1895 39.4112 58.7491 40.1016 58.7491H60.1016C60.7919 58.7491 61.3516 58.1895 61.3516 57.4991Z" fill="#2C3948"/>
<path d="M39.2177 41.6161C39.4439 41.3899 39.7564 41.25 40.1016 41.25H60.1016C60.4467 41.25 60.7592 41.3899 60.9854 41.6161M39.2177 41.6161C38.9915 41.8423 38.8516 42.1548 38.8516 42.5V57.5C38.8516 58.1904 39.4112 58.75 40.1016 58.75H60.1016C60.7919 58.75 61.3516 58.1904 61.3516 57.5V42.5C61.3516 42.1548 61.2117 41.8423 60.9854 41.6161M39.2177 41.6161L48.3338 50.7323C49.3101 51.7086 50.893 51.7086 51.8693 50.7323L60.9854 41.6161" stroke="#2C3948" stroke-width="1.5" stroke-linecap="round" stroke-linejoin="round"/>
</svg>
