<?xml version="1.0" encoding="UTF-8"?>
<!DOCTYPE svg PUBLIC "-//W3C//DTD SVG 1.1//EN" "http://www.w3.org/Graphics/SVG/1.1/DTD/svg11.dtd">
<svg xmlns="http://www.w3.org/2000/svg" version="1.1" width="500px" height="500px" style="shape-rendering:geometricPrecision; text-rendering:geometricPrecision; image-rendering:optimizeQuality; fill-rule:evenodd; clip-rule:evenodd" xmlns:xlink="http://www.w3.org/1999/xlink">
<g><path style="opacity:0.998" fill="#bdbdbd" d="M 357.5,367.5 C 345.587,343.242 328.254,323.575 305.5,308.5C 298.889,304.773 292.056,301.773 285,299.5C 261.36,311.498 237.693,311.498 214,299.5C 187.346,309.484 166.346,326.484 151,350.5C 147.792,356.261 144.625,361.928 141.5,367.5C 95.7991,323.204 80.2991,269.871 95,207.5C 110.795,154.368 144.629,117.868 196.5,98C 201.023,96.2025 205.69,95.0359 210.5,94.5C 213.228,94.8294 215.562,94.1628 217.5,92.5C 290.779,81.5665 347.612,106.9 388,168.5C 416.131,221.665 416.464,274.998 389,328.5C 380.4,343.034 369.9,356.034 357.5,367.5 Z"/></g>
<g><path style="opacity:0.655" fill="#dbdbdb" d="M 217.5,92.5 C 215.562,94.1628 213.228,94.8294 210.5,94.5C 212.599,93.3882 214.933,92.7215 217.5,92.5 Z"/></g>
<g><path style="opacity:1" fill="#f4f4f4" d="M 237.5,175.5 C 263.791,172.198 284.624,181.198 300,202.5C 315.185,232.168 310.685,258.334 286.5,281C 270.663,292.794 252.996,296.461 233.5,292C 201.953,280.093 187.787,257.259 191,223.5C 197.293,198.376 212.793,182.376 237.5,175.5 Z"/></g>
<g><path style="opacity:0.989" fill="#f4f4f4" d="M 357.5,367.5 C 308.15,409.824 252.483,420.324 190.5,399C 172.096,391.48 155.763,380.98 141.5,367.5C 144.625,361.928 147.792,356.261 151,350.5C 166.346,326.484 187.346,309.484 214,299.5C 237.693,311.498 261.36,311.498 285,299.5C 292.056,301.773 298.889,304.773 305.5,308.5C 328.254,323.575 345.587,343.242 357.5,367.5 Z"/></g>
</svg>
