<?xml version="1.0" encoding="UTF-8"?>
<svg id="Capa_2" data-name="Capa 2" xmlns="http://www.w3.org/2000/svg" viewBox="0 0 205.84 260.2">
  <defs>
    <style>
      .cls-1 {
        fill: #ff6b00;
        fill-rule: evenodd;
      }

      .cls-2 {
        fill: #4d4d4d;
      }

      .cls-3 {
        fill: #ccc;
      }
    </style>
  </defs>
  <g id="Capa_1-2" data-name="Capa 1">
    <g>
      <rect class="cls-3" x="46.19" y="122.6" width="113.45" height="15"/>
      <rect class="cls-3" x="46.19" y="52.26" width="113.45" height="15"/>
      <rect class="cls-3" x="46.19" y="192.94" width="113.45" height="15"/>
      <rect class="cls-2" x="46.19" y="137.53" width="113.45" height="2"/>
      <path class="cls-2" d="M176.72,260.2H29.11c-16.05,0-29.11-13.06-29.11-29.11V29.11C0,13.06,13.06,0,29.11,0h147.61c16.05,0,29.11,13.06,29.11,29.11v201.98c0,16.05-13.06,29.11-29.11,29.11ZM29.11,8c-11.64,0-21.11,9.47-21.11,21.11v201.98c0,11.64,9.47,21.11,21.11,21.11h147.61c11.64,0,21.11-9.47,21.11-21.11V29.11c0-11.64-9.47-21.11-21.11-21.11H29.11Z"/>
      <path class="cls-1" d="M149.14,118.15c-.88-.62-2.1-.41-2.68.57-4.68,7.24-14.57,10.07-22.08,6.27-.24-.1-.44-.26-.68-.36-1.71-.92-3.85-2.05-6.24-1.39-1.32.36-2.29,1.18-3.17,1.85-.73.62-1.36,1.13-1.9,1.13-.97.05-1.95-1.54-2.44-3.03-.1-.26-.19-.51-.24-.77-.68-2.11-1.51-4.67-3.8-6.06-2.83-1.7-6.29-.46-8.48,1.54-1.17,1.03-2.05,2.26-2.92,3.44-.58.77-1.12,1.49-1.66,2.11-3.66,4.06-9.89,5.14-14.72,2.88,3.7-3.54,6.34-7.96,7.51-12.79,1.17-4.83.49-10.84-3.8-13.25-2.19-1.23-4.82-1.23-7.41.1-2.14,1.13-4.09,3.03-5.31,5.29-1.9,3.6-2.49,7.91-1.61,12.23.68,3.24,2.1,6.16,4.09,8.48-4.09,2.52-8.87,3.75-13.55,3.13-1.07-.15-2.05.62-2.19,1.75s.58,2.16,1.66,2.31c1.02.15,2,.21,3.02.21,4.87,0,9.8-1.59,14.18-4.62,2.97,1.9,6.58,2.77,10.28,2.41,4.14-.41,7.94-2.26,10.62-5.24.73-.77,1.32-1.59,1.9-2.41.78-1.08,1.51-2.05,2.39-2.88,1.17-1.03,2.92-1.75,4.04-1.08,1.02.62,1.51,2.16,2.05,3.85.1.26.19.57.29.82,1.22,3.6,3.46,5.7,6.04,5.7h.29c1.75-.1,3.02-1.13,4.04-2,.63-.51,1.22-1.03,1.75-1.13.97-.26,2.19.41,3.51,1.08.24.15.49.26.73.36,2.78,1.39,5.8,2.05,8.87,2.05,7.02,0,14.13-3.54,18.08-9.71.63-.92.44-2.21-.49-2.83h0ZM74.77,123.96c-3.95-4.11-5.07-11.2-2.34-16.28,1.22-2.31,3.66-4.21,5.85-4.21.58,0,1.12.15,1.66.41,2.44,1.39,2.68,5.45,1.9,8.63-1.07,4.47-3.66,8.48-7.07,11.46h0Z"/>
    </g>
  </g>
</svg>