<svg width="140" height="120" viewBox="0 0 140 120" fill="none" xmlns="http://www.w3.org/2000/svg">
<path d="M23.216 8.43057C23.196 8.43057 23.4493 7.18729 23.4726 7.0973C23.7593 6.20734 24.8392 4.66073 25.8825 4.66407C26.0563 4.66897 26.2271 4.71046 26.3838 4.78584C26.5405 4.86121 26.6795 4.96878 26.7918 5.10151C26.904 5.23424 26.9871 5.38916 27.0355 5.55616C27.0838 5.72316 27.0964 5.89847 27.0725 6.07067C26.9958 6.80398 26.3358 7.43062 25.7392 7.7906C25.0392 8.22725 23.216 8.43057 23.216 8.43057Z" fill="#FF7500"/>
<path d="M21.1926 0.0687259C22.1926 0.422044 22.6659 2.24197 22.6326 3.17526C22.6326 3.25525 22.4459 4.50853 22.4292 4.50853H22.4092C22.4859 4.79519 22.5692 5.10517 22.6526 5.44516C22.7992 6.0718 22.9592 6.77843 23.0825 7.56507C23.2255 8.40772 23.319 9.25803 23.3625 10.1116C23.4157 11.0681 23.3833 12.0274 23.2659 12.9782C23.2643 12.9892 23.2643 13.0004 23.2659 13.0115C23.3959 12.7348 23.7825 11.9682 23.8158 11.9149C24.3292 11.1349 25.7758 9.91497 26.7857 10.205C26.9515 10.2555 27.1048 10.3405 27.2356 10.4543C27.3664 10.5681 27.4717 10.7082 27.5447 10.8655C27.6176 11.0228 27.6566 11.1936 27.6591 11.367C27.6616 11.5403 27.6275 11.7123 27.559 11.8716C27.2924 12.5582 26.4924 12.9882 25.8224 13.1782C25.0658 13.3948 23.3792 13.1415 23.2459 13.1182C23.1033 14.0831 22.8962 15.0375 22.6259 15.9747C22.4703 16.5213 22.3015 17.0669 22.1193 17.6113C22.2359 17.3746 22.3459 17.1647 22.3626 17.138C22.8759 16.3547 24.3258 15.1381 25.3324 15.4281C25.4983 15.4786 25.6516 15.5636 25.7823 15.6774C25.9131 15.7912 26.0184 15.9314 26.0914 16.0886C26.1644 16.2459 26.2034 16.4168 26.2058 16.5901C26.2083 16.7635 26.1742 16.9354 26.1057 17.0947C25.8391 17.7813 25.0391 18.2113 24.3692 18.4013C23.6992 18.5913 22.2459 18.4013 21.8659 18.3513L21.6559 18.9779C21.3226 19.9779 20.9593 20.9778 20.656 21.9578C20.546 22.2911 20.4493 22.6511 20.3527 22.9977C20.4593 22.7877 20.5493 22.6111 20.566 22.5844C21.076 21.8045 22.5259 20.5845 23.5325 20.8745C23.698 20.9256 23.851 21.0108 23.9816 21.1247C24.1121 21.2385 24.2174 21.3785 24.2906 21.5355C24.3637 21.6925 24.4032 21.8631 24.4064 22.0363C24.4096 22.2095 24.3765 22.3815 24.3092 22.5411C24.0425 23.2311 23.2392 23.6577 22.5692 23.851C21.8993 24.0444 20.5893 23.8744 20.136 23.811C20.046 24.1677 19.9593 24.5243 19.8893 24.8743C19.846 25.1176 19.7894 25.3443 19.7594 25.5876L19.6594 26.3043C19.6127 26.7609 19.5594 27.2309 19.526 27.6775C19.4994 27.9875 19.4794 28.2842 19.4594 28.5842C19.566 28.2508 19.7927 27.5609 19.7927 27.5075C20.1618 26.7742 20.7126 26.1477 21.3926 25.6876C21.4289 25.6027 21.4747 25.5221 21.5293 25.4476C21.6236 25.302 21.7477 25.1779 21.8933 25.0835C22.0389 24.9891 22.2028 24.9265 22.3742 24.8997C22.5457 24.873 22.7208 24.8827 22.8883 24.9283C23.0557 24.9739 23.2116 25.0543 23.3459 25.1643C24.1392 25.8476 23.9392 27.7209 23.5759 28.5808C23.5559 28.6308 23.2592 29.1541 23.0692 29.4841C23.2125 29.3075 23.3459 29.1341 23.4959 28.9575C23.7858 28.6008 24.0858 28.2542 24.4058 27.8809L24.8958 27.3509C25.0558 27.1709 25.2491 27.0176 25.4258 26.8209C25.8424 26.4176 26.2857 26.0276 26.7424 25.6443C26.4324 25.391 25.3391 24.471 25.0258 23.8444C24.7125 23.2177 24.4891 22.3411 24.8158 21.6778C24.8876 21.5196 24.9919 21.3783 25.1219 21.263C25.2518 21.1477 25.4046 21.061 25.5702 21.0085C25.7358 20.956 25.9106 20.9389 26.0833 20.9583C26.2559 20.9777 26.4226 21.0332 26.5724 21.1212C27.4557 21.6778 27.5457 23.561 27.3157 24.4543C27.3157 24.511 27.0624 25.141 26.9257 25.4843C27.2024 25.2576 27.4757 25.031 27.7623 24.8177C28.589 24.181 29.4456 23.5577 30.2956 22.9344L31.0722 22.3611C30.9622 22.2711 29.6423 21.2045 29.2889 20.5012C28.979 19.8779 28.7523 18.9979 29.079 18.3379C29.1504 18.1794 29.2544 18.0377 29.3844 17.9221C29.5143 17.8065 29.6671 17.7196 29.8329 17.6671C29.9986 17.6145 30.1736 17.5976 30.3464 17.6172C30.5192 17.6369 30.6858 17.6928 30.8355 17.7813C31.7222 18.3346 31.8088 20.2179 31.5788 21.1145C31.5622 21.1811 31.2189 22.0878 31.1222 22.3144C31.6888 21.8911 32.2521 21.4645 32.7888 21.0178C33.5189 20.4226 34.2093 19.7801 34.8554 19.0946C34.8054 19.0512 33.4221 17.9446 33.0621 17.228C32.7488 16.6047 32.5255 15.7214 32.8521 15.0614C32.9236 14.9033 33.0276 14.7621 33.1572 14.6468C33.2869 14.5315 33.4393 14.4448 33.6047 14.3923C33.77 14.3398 33.9446 14.3227 34.117 14.3421C34.2894 14.3614 34.4558 14.4169 34.6054 14.5048C35.492 15.0614 35.582 16.9447 35.352 17.838C35.352 17.898 35.0754 18.5879 34.9454 18.9146L34.9954 18.9479C35.6268 18.2393 36.1945 17.4764 36.692 16.668C36.9719 16.2247 37.2119 15.788 37.4386 15.3581C37.1586 15.1781 35.8953 14.3414 35.4987 13.7315C35.102 13.1215 34.802 12.2949 35.052 11.6016C35.1056 11.4363 35.1934 11.2842 35.3097 11.1551C35.426 11.026 35.5682 10.9229 35.727 10.8525C35.8858 10.782 36.0577 10.7458 36.2314 10.7463C36.4051 10.7467 36.5768 10.7837 36.7353 10.8549C37.6786 11.3116 37.9719 13.1882 37.8419 14.0981C37.8419 14.1481 37.7086 14.6514 37.6119 15.0147C37.7086 14.8181 37.8152 14.6181 37.9052 14.4281C38.2386 13.7181 38.5219 13.0448 38.7552 12.4282C38.8885 12.0949 38.9985 11.7782 39.0885 11.4849C38.9052 11.1516 38.1919 9.87164 38.1219 9.15167C38.0519 8.4317 38.1652 7.5584 38.7085 7.05842C38.8322 6.93668 38.9802 6.84234 39.1428 6.78154C39.3053 6.72074 39.4789 6.69484 39.6521 6.70553C39.8253 6.71622 39.9944 6.76326 40.1482 6.84358C40.3021 6.92391 40.4373 7.03572 40.5451 7.17175C41.1718 8.00838 40.5751 9.79831 40.0351 10.5583C39.9885 10.6249 39.1385 11.5582 39.1285 11.5582V11.5382C39.0352 11.8216 38.9352 12.1249 38.8152 12.4515C38.5952 13.0582 38.3386 13.7381 38.0086 14.4514C37.6597 15.2319 37.2669 15.992 36.8319 16.728C36.3466 17.5536 35.7889 18.3344 35.1654 19.0612L35.142 19.0879C35.402 18.9279 36.142 18.5013 36.2053 18.4746C37.0653 18.1079 38.9385 17.9013 39.6252 18.6879C39.7357 18.8218 39.8168 18.9774 39.8632 19.1447C39.9096 19.312 39.9202 19.4872 39.8944 19.6588C39.8686 19.8305 39.807 19.9948 39.7135 20.1411C39.62 20.2874 39.4968 20.4123 39.3518 20.5078C38.7485 20.9345 37.8452 20.8412 37.1786 20.6412C36.4286 20.4012 35.1787 19.2612 35.0654 19.1679C34.4143 19.8942 33.715 20.5757 32.9721 21.2078C32.5421 21.5778 32.0955 21.9378 31.6388 22.2944C31.8688 22.1611 32.0755 22.0444 32.1055 22.0311C32.9621 21.6645 34.8354 21.4578 35.522 22.2444C35.633 22.3781 35.7145 22.5337 35.7612 22.7011C35.8079 22.8684 35.8187 23.0438 35.7929 23.2156C35.7671 23.3874 35.7053 23.5519 35.6115 23.6981C35.5177 23.8444 35.3941 23.9692 35.2487 24.0644C34.6487 24.491 33.7421 24.3977 33.0788 24.1977C32.4155 23.9977 31.3055 23.0311 31.0189 22.7744C30.8422 22.9077 30.6855 23.0444 30.4956 23.1811C29.6589 23.821 28.829 24.4577 28.0123 25.111C27.729 25.3376 27.459 25.5743 27.1857 25.8109L27.5923 25.5843C28.449 25.2176 30.3222 25.0076 31.0089 25.7943C31.1194 25.9284 31.2006 26.0843 31.247 26.2519C31.2934 26.4194 31.3041 26.5949 31.2783 26.7668C31.2525 26.9387 31.1909 27.1033 31.0974 27.2499C31.0039 27.3964 30.8806 27.5217 30.7355 27.6175C30.1356 28.0442 29.2289 27.9509 28.5656 27.7475C27.9023 27.5442 26.899 26.6742 26.5657 26.3709C26.2957 26.6209 26.0224 26.8709 25.7724 27.1242C25.6024 27.3009 25.4391 27.4575 25.2724 27.6475L24.7925 28.1875C24.5025 28.5442 24.1992 28.9075 23.9225 29.2608C23.7292 29.5041 23.5492 29.7408 23.3692 29.9808C23.6459 29.7474 24.2058 29.3141 24.2558 29.2741C25.0458 28.7808 26.869 28.2742 27.6657 28.9675C27.7948 29.0834 27.898 29.2253 27.9687 29.3838C28.0394 29.5423 28.0759 29.7139 28.0759 29.8874C28.0759 30.061 28.0394 30.2326 27.9687 30.3911C27.898 30.5496 27.7948 30.6914 27.6657 30.8074C27.1324 31.3207 26.2257 31.374 25.5391 31.2674C24.7791 31.1474 23.4059 30.2674 23.2359 30.1408C22.9359 30.5374 22.6492 30.9207 22.3826 31.2907C21.4593 32.5673 20.7393 33.6673 20.246 34.4406L20.196 34.5206L19.556 34.2106L19.656 34.0573C20.1727 33.284 20.926 32.1907 21.8859 30.9241C22.1892 30.5207 22.5192 30.0974 22.8626 29.6674C22.5055 29.2773 22.1716 28.8666 21.8626 28.4375C21.126 28.7275 19.5994 28.7375 19.3994 28.7375C19.3694 29.2308 19.3427 29.7141 19.3227 30.1674C19.256 31.7407 19.2627 33.054 19.2794 33.9739V34.0806L18.5761 33.7473C18.5761 32.834 18.6127 31.6007 18.7061 30.1408C18.7361 29.6408 18.7794 29.1041 18.8294 28.5542C18.6327 28.5042 17.0428 28.0975 16.4428 27.6175C15.8995 27.1809 15.3262 26.4776 15.3462 25.7376C15.3449 25.564 15.3801 25.3921 15.4496 25.233C15.5191 25.0739 15.6213 24.9313 15.7496 24.8143C15.8779 24.6973 16.0294 24.6087 16.1942 24.5542C16.359 24.4996 16.5334 24.4803 16.7062 24.4977C17.7428 24.631 18.6127 26.3043 18.7827 27.2209C18.7827 27.2776 18.8361 27.8875 18.8561 28.2542C18.8794 28.0308 18.8961 27.8109 18.9227 27.5875C18.9661 27.1309 19.0261 26.6776 19.0894 26.1876C19.126 25.9509 19.166 25.7143 19.2027 25.4743C19.2394 25.2343 19.3027 24.9876 19.3527 24.741C19.4794 24.1744 19.6327 23.6044 19.8027 23.0344C19.4027 22.9944 17.9861 22.8277 17.3795 22.4778C16.7728 22.1278 16.0995 21.5211 16.0095 20.7878C15.9816 20.6163 15.9902 20.4408 16.0347 20.2729C16.0792 20.1049 16.1586 19.9482 16.2678 19.8129C16.3769 19.6777 16.5133 19.567 16.6681 19.488C16.8229 19.409 16.9926 19.3636 17.1661 19.3546C18.2094 19.3312 19.3227 20.8512 19.6294 21.7345C19.6494 21.7878 19.7994 22.4444 19.876 22.8077C19.9793 22.4744 20.0793 22.1244 20.2093 21.7811C20.5427 20.7812 20.9193 19.8045 21.286 18.8146C21.3993 18.5113 21.5059 18.2079 21.6193 17.9046C21.4759 17.9046 19.786 17.728 19.106 17.338C18.5027 17.0047 17.8294 16.3814 17.7361 15.6481C17.7088 15.4766 17.7178 15.3013 17.7625 15.1336C17.8072 14.9658 17.8866 14.8093 17.9957 14.6742C18.1047 14.5391 18.2409 14.4284 18.3954 14.3492C18.5499 14.2701 18.7194 14.2243 18.8927 14.2148C19.9393 14.1915 21.0526 15.7114 21.3593 16.5947C21.3826 16.6613 21.5959 17.5946 21.6393 17.848C21.8793 17.1813 22.1159 16.5147 22.3059 15.848C22.5878 14.9481 22.8105 14.0306 22.9725 13.1015C22.9059 13.1015 21.1426 12.9348 20.446 12.5349C19.8393 12.2015 19.166 11.5782 19.076 10.8449C19.0482 10.6736 19.0568 10.4983 19.1013 10.3305C19.1458 10.1627 19.2253 10.0062 19.3344 9.87118C19.4436 9.73621 19.5801 9.6258 19.7348 9.54718C19.8896 9.46857 20.0593 9.42352 20.2327 9.41499C21.276 9.38832 22.3892 10.9083 22.6959 11.7916C22.7159 11.8482 22.8826 12.5682 22.9525 12.9148H23.0092C23.1469 11.976 23.2004 11.0267 23.1692 10.0783C23.1692 9.55498 23.1192 9.05834 23.0692 8.57502C22.7359 8.57502 21.2226 8.57503 20.556 8.28504C19.8893 7.99505 19.1794 7.47507 19.0061 6.75844C18.9598 6.59056 18.9496 6.41482 18.9759 6.24271C19.0023 6.07059 19.0648 5.90599 19.1592 5.75968C19.2535 5.61336 19.3778 5.48863 19.5237 5.39365C19.6697 5.29867 19.834 5.23558 20.006 5.2085C21.0426 5.06518 22.3159 6.45845 22.7192 7.29841C22.7392 7.34508 22.9125 7.83506 23.0292 8.19504C23.0059 7.97505 22.9825 7.74839 22.9525 7.5284C22.8492 6.7451 22.7026 6.03514 22.5692 5.40516C22.4892 5.04851 22.4126 4.73852 22.3359 4.42854C22.0026 4.26188 20.696 3.57524 20.2493 3.02193C19.8027 2.46862 19.4027 1.66532 19.5827 0.952022C19.6225 0.783576 19.6973 0.62537 19.8021 0.487638C19.907 0.349906 20.0395 0.235716 20.1913 0.152457C20.343 0.0691984 20.5106 0.0187245 20.6831 0.00430096C20.8556 -0.0101226 21.0292 0.0118258 21.1926 0.0687259Z" fill="#FF7500"/>
<path d="M40.0847 16.1665C39.268 16.1332 37.6348 15.2965 37.6348 15.2965C37.6348 15.2965 38.5114 14.3866 38.5747 14.3366C39.3047 13.7566 41.0579 13.06 41.9279 13.6399C42.0701 13.7396 42.1897 13.8681 42.2788 14.0171C42.3679 14.1662 42.4245 14.3323 42.445 14.5047C42.4654 14.6772 42.4492 14.852 42.3975 15.0177C42.3457 15.1835 42.2595 15.3364 42.1446 15.4665C41.6779 16.0365 40.7813 16.1965 40.0847 16.1665Z" fill="#FF7500"/>
<g opacity="0.5">
<path d="M23.216 8.43057C23.196 8.43057 23.4493 7.18729 23.4726 7.0973C23.7593 6.20734 24.8392 4.66073 25.8825 4.66407C26.0563 4.66897 26.2271 4.71046 26.3838 4.78584C26.5405 4.86121 26.6795 4.96878 26.7918 5.10151C26.904 5.23424 26.9871 5.38916 27.0355 5.55616C27.0838 5.72316 27.0964 5.89847 27.0725 6.07067C26.9958 6.80398 26.3358 7.43062 25.7392 7.7906C25.0392 8.22725 23.216 8.43057 23.216 8.43057Z" fill="white"/>
<path d="M21.1926 0.0687259C22.1926 0.422044 22.6659 2.24197 22.6326 3.17526C22.6326 3.25525 22.4459 4.50853 22.4292 4.50853H22.4092C22.4859 4.79519 22.5692 5.10517 22.6526 5.44516C22.7992 6.0718 22.9592 6.77843 23.0825 7.56507C23.2255 8.40772 23.319 9.25803 23.3625 10.1116C23.4157 11.0681 23.3833 12.0274 23.2659 12.9782C23.2643 12.9892 23.2643 13.0004 23.2659 13.0115C23.3959 12.7348 23.7825 11.9682 23.8158 11.9149C24.3292 11.1349 25.7758 9.91497 26.7857 10.205C26.9515 10.2555 27.1048 10.3405 27.2356 10.4543C27.3664 10.5681 27.4717 10.7082 27.5447 10.8655C27.6176 11.0228 27.6566 11.1936 27.6591 11.367C27.6616 11.5403 27.6275 11.7123 27.559 11.8716C27.2924 12.5582 26.4924 12.9882 25.8224 13.1782C25.0658 13.3948 23.3792 13.1415 23.2459 13.1182C23.1033 14.0831 22.8962 15.0375 22.6259 15.9747C22.4703 16.5213 22.3015 17.0669 22.1193 17.6113C22.2359 17.3746 22.3459 17.1647 22.3626 17.138C22.8759 16.3547 24.3258 15.1381 25.3324 15.4281C25.4983 15.4786 25.6516 15.5636 25.7823 15.6774C25.9131 15.7912 26.0184 15.9314 26.0914 16.0886C26.1644 16.2459 26.2034 16.4168 26.2058 16.5901C26.2083 16.7635 26.1742 16.9354 26.1057 17.0947C25.8391 17.7813 25.0391 18.2113 24.3692 18.4013C23.6992 18.5913 22.2459 18.4013 21.8659 18.3513L21.6559 18.9779C21.3226 19.9779 20.9593 20.9778 20.656 21.9578C20.546 22.2911 20.4493 22.6511 20.3527 22.9977C20.4593 22.7877 20.5493 22.6111 20.566 22.5844C21.076 21.8045 22.5259 20.5845 23.5325 20.8745C23.698 20.9256 23.851 21.0108 23.9816 21.1247C24.1121 21.2385 24.2174 21.3785 24.2906 21.5355C24.3637 21.6925 24.4032 21.8631 24.4064 22.0363C24.4096 22.2095 24.3765 22.3815 24.3092 22.5411C24.0425 23.2311 23.2392 23.6577 22.5692 23.851C21.8993 24.0444 20.5893 23.8744 20.136 23.811C20.046 24.1677 19.9593 24.5243 19.8893 24.8743C19.846 25.1176 19.7894 25.3443 19.7594 25.5876L19.6594 26.3043C19.6127 26.7609 19.5594 27.2309 19.526 27.6775C19.4994 27.9875 19.4794 28.2842 19.4594 28.5842C19.566 28.2508 19.7927 27.5609 19.7927 27.5075C20.1618 26.7742 20.7126 26.1477 21.3926 25.6876C21.4289 25.6027 21.4747 25.5221 21.5293 25.4476C21.6236 25.302 21.7477 25.1779 21.8933 25.0835C22.0389 24.9891 22.2028 24.9265 22.3742 24.8997C22.5457 24.873 22.7208 24.8827 22.8883 24.9283C23.0557 24.9739 23.2116 25.0543 23.3459 25.1643C24.1392 25.8476 23.9392 27.7209 23.5759 28.5808C23.5559 28.6308 23.2592 29.1541 23.0692 29.4841C23.2125 29.3075 23.3459 29.1341 23.4959 28.9575C23.7858 28.6008 24.0858 28.2542 24.4058 27.8809L24.8958 27.3509C25.0558 27.1709 25.2491 27.0176 25.4258 26.8209C25.8424 26.4176 26.2857 26.0276 26.7424 25.6443C26.4324 25.391 25.3391 24.471 25.0258 23.8444C24.7125 23.2177 24.4891 22.3411 24.8158 21.6778C24.8876 21.5196 24.9919 21.3783 25.1219 21.263C25.2518 21.1477 25.4046 21.061 25.5702 21.0085C25.7358 20.956 25.9106 20.9389 26.0833 20.9583C26.2559 20.9777 26.4226 21.0332 26.5724 21.1212C27.4557 21.6778 27.5457 23.561 27.3157 24.4543C27.3157 24.511 27.0624 25.141 26.9257 25.4843C27.2024 25.2576 27.4757 25.031 27.7623 24.8177C28.589 24.181 29.4456 23.5577 30.2956 22.9344L31.0722 22.3611C30.9622 22.2711 29.6423 21.2045 29.2889 20.5012C28.979 19.8779 28.7523 18.9979 29.079 18.3379C29.1504 18.1794 29.2544 18.0377 29.3844 17.9221C29.5143 17.8065 29.6671 17.7196 29.8329 17.6671C29.9986 17.6145 30.1736 17.5976 30.3464 17.6172C30.5192 17.6369 30.6858 17.6928 30.8355 17.7813C31.7222 18.3346 31.8088 20.2179 31.5788 21.1145C31.5622 21.1811 31.2189 22.0878 31.1222 22.3144C31.6888 21.8911 32.2521 21.4645 32.7888 21.0178C33.5189 20.4226 34.2093 19.7801 34.8554 19.0946C34.8054 19.0512 33.4221 17.9446 33.0621 17.228C32.7488 16.6047 32.5255 15.7214 32.8521 15.0614C32.9236 14.9033 33.0276 14.7621 33.1572 14.6468C33.2869 14.5315 33.4393 14.4448 33.6047 14.3923C33.77 14.3398 33.9446 14.3227 34.117 14.3421C34.2894 14.3614 34.4558 14.4169 34.6054 14.5048C35.492 15.0614 35.582 16.9447 35.352 17.838C35.352 17.898 35.0754 18.5879 34.9454 18.9146L34.9954 18.9479C35.6268 18.2393 36.1945 17.4764 36.692 16.668C36.9719 16.2247 37.2119 15.788 37.4386 15.3581C37.1586 15.1781 35.8953 14.3414 35.4987 13.7315C35.102 13.1215 34.802 12.2949 35.052 11.6016C35.1056 11.4363 35.1934 11.2842 35.3097 11.1551C35.426 11.026 35.5682 10.9229 35.727 10.8525C35.8858 10.782 36.0577 10.7458 36.2314 10.7463C36.4051 10.7467 36.5768 10.7837 36.7353 10.8549C37.6786 11.3116 37.9719 13.1882 37.8419 14.0981C37.8419 14.1481 37.7086 14.6514 37.6119 15.0147C37.7086 14.8181 37.8152 14.6181 37.9052 14.4281C38.2386 13.7181 38.5219 13.0448 38.7552 12.4282C38.8885 12.0949 38.9985 11.7782 39.0885 11.4849C38.9052 11.1516 38.1919 9.87164 38.1219 9.15167C38.0519 8.4317 38.1652 7.5584 38.7085 7.05842C38.8322 6.93668 38.9802 6.84234 39.1428 6.78154C39.3053 6.72074 39.4789 6.69484 39.6521 6.70553C39.8253 6.71622 39.9944 6.76326 40.1482 6.84358C40.3021 6.92391 40.4373 7.03572 40.5451 7.17175C41.1718 8.00838 40.5751 9.79831 40.0351 10.5583C39.9885 10.6249 39.1385 11.5582 39.1285 11.5582V11.5382C39.0352 11.8216 38.9352 12.1249 38.8152 12.4515C38.5952 13.0582 38.3386 13.7381 38.0086 14.4514C37.6597 15.2319 37.2669 15.992 36.8319 16.728C36.3466 17.5536 35.7889 18.3344 35.1654 19.0612L35.142 19.0879C35.402 18.9279 36.142 18.5013 36.2053 18.4746C37.0653 18.1079 38.9385 17.9013 39.6252 18.6879C39.7357 18.8218 39.8168 18.9774 39.8632 19.1447C39.9096 19.312 39.9202 19.4872 39.8944 19.6588C39.8686 19.8305 39.807 19.9948 39.7135 20.1411C39.62 20.2874 39.4968 20.4123 39.3518 20.5078C38.7485 20.9345 37.8452 20.8412 37.1786 20.6412C36.4286 20.4012 35.1787 19.2612 35.0654 19.1679C34.4143 19.8942 33.715 20.5757 32.9721 21.2078C32.5421 21.5778 32.0955 21.9378 31.6388 22.2944C31.8688 22.1611 32.0755 22.0444 32.1055 22.0311C32.9621 21.6645 34.8354 21.4578 35.522 22.2444C35.633 22.3781 35.7145 22.5337 35.7612 22.7011C35.8079 22.8684 35.8187 23.0438 35.7929 23.2156C35.7671 23.3874 35.7053 23.5519 35.6115 23.6981C35.5177 23.8444 35.3941 23.9692 35.2487 24.0644C34.6487 24.491 33.7421 24.3977 33.0788 24.1977C32.4155 23.9977 31.3055 23.0311 31.0189 22.7744C30.8422 22.9077 30.6855 23.0444 30.4956 23.1811C29.6589 23.821 28.829 24.4577 28.0123 25.111C27.729 25.3376 27.459 25.5743 27.1857 25.8109L27.5923 25.5843C28.449 25.2176 30.3222 25.0076 31.0089 25.7943C31.1194 25.9284 31.2006 26.0843 31.247 26.2519C31.2934 26.4194 31.3041 26.5949 31.2783 26.7668C31.2525 26.9387 31.1909 27.1033 31.0974 27.2499C31.0039 27.3964 30.8806 27.5217 30.7355 27.6175C30.1356 28.0442 29.2289 27.9509 28.5656 27.7475C27.9023 27.5442 26.899 26.6742 26.5657 26.3709C26.2957 26.6209 26.0224 26.8709 25.7724 27.1242C25.6024 27.3009 25.4391 27.4575 25.2724 27.6475L24.7925 28.1875C24.5025 28.5442 24.1992 28.9075 23.9225 29.2608C23.7292 29.5041 23.5492 29.7408 23.3692 29.9808C23.6459 29.7474 24.2058 29.3141 24.2558 29.2741C25.0458 28.7808 26.869 28.2742 27.6657 28.9675C27.7948 29.0834 27.898 29.2253 27.9687 29.3838C28.0394 29.5423 28.0759 29.7139 28.0759 29.8874C28.0759 30.061 28.0394 30.2326 27.9687 30.3911C27.898 30.5496 27.7948 30.6914 27.6657 30.8074C27.1324 31.3207 26.2257 31.374 25.5391 31.2674C24.7791 31.1474 23.4059 30.2674 23.2359 30.1408C22.9359 30.5374 22.6492 30.9207 22.3826 31.2907C21.4593 32.5673 20.7393 33.6673 20.246 34.4406L20.196 34.5206L19.556 34.2106L19.656 34.0573C20.1727 33.284 20.926 32.1907 21.8859 30.9241C22.1892 30.5207 22.5192 30.0974 22.8626 29.6674C22.5055 29.2773 22.1716 28.8666 21.8626 28.4375C21.126 28.7275 19.5994 28.7375 19.3994 28.7375C19.3694 29.2308 19.3427 29.7141 19.3227 30.1674C19.256 31.7407 19.2627 33.054 19.2794 33.9739V34.0806L18.5761 33.7473C18.5761 32.834 18.6127 31.6007 18.7061 30.1408C18.7361 29.6408 18.7794 29.1041 18.8294 28.5542C18.6327 28.5042 17.0428 28.0975 16.4428 27.6175C15.8995 27.1809 15.3262 26.4776 15.3462 25.7376C15.3449 25.564 15.3801 25.3921 15.4496 25.233C15.5191 25.0739 15.6213 24.9313 15.7496 24.8143C15.8779 24.6973 16.0294 24.6087 16.1942 24.5542C16.359 24.4996 16.5334 24.4803 16.7062 24.4977C17.7428 24.631 18.6127 26.3043 18.7827 27.2209C18.7827 27.2776 18.8361 27.8875 18.8561 28.2542C18.8794 28.0308 18.8961 27.8109 18.9227 27.5875C18.9661 27.1309 19.0261 26.6776 19.0894 26.1876C19.126 25.9509 19.166 25.7143 19.2027 25.4743C19.2394 25.2343 19.3027 24.9876 19.3527 24.741C19.4794 24.1744 19.6327 23.6044 19.8027 23.0344C19.4027 22.9944 17.9861 22.8277 17.3795 22.4778C16.7728 22.1278 16.0995 21.5211 16.0095 20.7878C15.9816 20.6163 15.9902 20.4408 16.0347 20.2729C16.0792 20.1049 16.1586 19.9482 16.2678 19.8129C16.3769 19.6777 16.5133 19.567 16.6681 19.488C16.8229 19.409 16.9926 19.3636 17.1661 19.3546C18.2094 19.3312 19.3227 20.8512 19.6294 21.7345C19.6494 21.7878 19.7994 22.4444 19.876 22.8077C19.9793 22.4744 20.0793 22.1244 20.2093 21.7811C20.5427 20.7812 20.9193 19.8045 21.286 18.8146C21.3993 18.5113 21.5059 18.2079 21.6193 17.9046C21.4759 17.9046 19.786 17.728 19.106 17.338C18.5027 17.0047 17.8294 16.3814 17.7361 15.6481C17.7088 15.4766 17.7178 15.3013 17.7625 15.1336C17.8072 14.9658 17.8866 14.8093 17.9957 14.6742C18.1047 14.5391 18.2409 14.4284 18.3954 14.3492C18.5499 14.2701 18.7194 14.2243 18.8927 14.2148C19.9393 14.1915 21.0526 15.7114 21.3593 16.5947C21.3826 16.6613 21.5959 17.5946 21.6393 17.848C21.8793 17.1813 22.1159 16.5147 22.3059 15.848C22.5878 14.9481 22.8105 14.0306 22.9725 13.1015C22.9059 13.1015 21.1426 12.9348 20.446 12.5349C19.8393 12.2015 19.166 11.5782 19.076 10.8449C19.0482 10.6736 19.0568 10.4983 19.1013 10.3305C19.1458 10.1627 19.2253 10.0062 19.3344 9.87118C19.4436 9.73621 19.5801 9.6258 19.7348 9.54718C19.8896 9.46857 20.0593 9.42352 20.2327 9.41499C21.276 9.38832 22.3892 10.9083 22.6959 11.7916C22.7159 11.8482 22.8826 12.5682 22.9525 12.9148H23.0092C23.1469 11.976 23.2004 11.0267 23.1692 10.0783C23.1692 9.55498 23.1192 9.05834 23.0692 8.57502C22.7359 8.57502 21.2226 8.57503 20.556 8.28504C19.8893 7.99505 19.1794 7.47507 19.0061 6.75844C18.9598 6.59056 18.9496 6.41482 18.9759 6.24271C19.0023 6.07059 19.0648 5.90599 19.1592 5.75968C19.2535 5.61336 19.3778 5.48863 19.5237 5.39365C19.6697 5.29867 19.834 5.23558 20.006 5.2085C21.0426 5.06518 22.3159 6.45845 22.7192 7.29841C22.7392 7.34508 22.9125 7.83506 23.0292 8.19504C23.0059 7.97505 22.9825 7.74839 22.9525 7.5284C22.8492 6.7451 22.7026 6.03514 22.5692 5.40516C22.4892 5.04851 22.4126 4.73852 22.3359 4.42854C22.0026 4.26188 20.696 3.57524 20.2493 3.02193C19.8027 2.46862 19.4027 1.66532 19.5827 0.952022C19.6225 0.783576 19.6973 0.62537 19.8021 0.487638C19.907 0.349906 20.0395 0.235716 20.1913 0.152457C20.343 0.0691984 20.5106 0.0187245 20.6831 0.00430096C20.8556 -0.0101226 21.0292 0.0118258 21.1926 0.0687259Z" fill="white"/>
<path d="M40.0847 16.1665C39.268 16.1332 37.6348 15.2965 37.6348 15.2965C37.6348 15.2965 38.5114 14.3866 38.5747 14.3366C39.3047 13.7566 41.0579 13.06 41.9279 13.6399C42.0701 13.7396 42.1897 13.8681 42.2788 14.0171C42.3679 14.1662 42.4245 14.3323 42.445 14.5047C42.4654 14.6772 42.4492 14.852 42.3975 15.0177C42.3457 15.1835 42.2595 15.3364 42.1446 15.4665C41.6779 16.0365 40.7813 16.1965 40.0847 16.1665Z" fill="white"/>
</g>
<path d="M30.5479 36.6145C30.5479 36.6145 25.5915 24.6684 22.8183 25.1884C20.0451 25.7083 27.5747 44.2342 27.5747 44.2342C27.5747 44.2342 18.8551 27.7849 12.9087 27.7849C6.96228 27.7849 15.0886 45.9641 22.6383 52.0239C22.6383 52.0239 10.7455 39.2111 3.80909 41.981C-3.12728 44.7509 17.6652 57.7303 17.6652 57.7303C17.6652 57.7303 5.57568 53.9271 6.97228 56.8737C8.36889 59.8202 12.1254 60.3335 12.1254 60.3335L15.3053 61.0268H32.6378L35.3044 59.9902C35.3044 59.9902 46.4039 54.4471 43.4307 52.1972C40.4575 49.9473 33.9178 54.7938 33.9178 54.7938C33.9178 54.7938 45.214 42.3276 43.0341 37.6545C40.8542 32.9814 31.1412 46.1375 31.1412 46.1375C31.1412 46.1375 39.0709 29.3415 37.4743 26.3983C35.8777 23.4551 30.5479 36.6145 30.5479 36.6145Z" fill="#FF7500"/>
<path opacity="0.4" d="M30.5479 36.6145C30.5479 36.6145 25.5915 24.6684 22.8183 25.1884C20.0451 25.7083 27.5747 44.2342 27.5747 44.2342C27.5747 44.2342 18.8551 27.7849 12.9087 27.7849C6.96228 27.7849 15.0886 45.9641 22.6383 52.0239C22.6383 52.0239 10.7455 39.2111 3.80909 41.981C-3.12728 44.7509 17.6652 57.7303 17.6652 57.7303C17.6652 57.7303 5.57568 53.9271 6.97228 56.8737C8.36889 59.8202 12.1254 60.3335 12.1254 60.3335L17.3052 61.0268H31.3046L35.3044 59.9902C35.3044 59.9902 46.4039 54.4471 43.4307 52.1972C40.4575 49.9473 33.9178 54.7938 33.9178 54.7938C33.9178 54.7938 45.214 42.3276 43.0341 37.6545C40.8542 32.9814 31.1412 46.1375 31.1412 46.1375C31.1412 46.1375 39.0709 29.3415 37.4743 26.3983C35.8777 23.4551 30.5479 36.6145 30.5479 36.6145Z" fill="white"/>
<path d="M32.1352 37.25C27.7754 50.1328 27.7754 59.2491 27.7754 59.2491C27.7754 59.2491 32.9285 59.449 38.2783 55.4826" stroke="#263238" stroke-linecap="round" stroke-linejoin="round"/>
<path d="M29.9722 44.1868C29.0726 40.3357 27.8791 36.5593 26.4023 32.8906" stroke="#263238" stroke-linecap="round" stroke-linejoin="round"/>
<path d="M17.0723 36.6484L28.1685 53.1011C28.1685 53.1011 35.7015 46.768 38.278 43.1915" stroke="#263238" stroke-linecap="round" stroke-linejoin="round"/>
<path d="M27.9708 57.0634C27.9708 57.0634 16.2779 51.5136 11.5215 48.3438" stroke="#263238" stroke-linecap="round" stroke-linejoin="round"/>
<path d="M63.1755 9.94531H60.7656V110.371H63.1755V9.94531Z" fill="#C2C2C2" stroke="#ABABAB" stroke-linecap="round" stroke-linejoin="round"/>
<path d="M19.824 9.94531H17.4141V110.371H19.824V9.94531Z" fill="#C2C2C2" stroke="#ABABAB" stroke-linecap="round" stroke-linejoin="round"/>
<path d="M41.4997 9.94531H39.0898V110.371H41.4997V9.94531Z" fill="#C2C2C2" stroke="#ABABAB" stroke-linecap="round" stroke-linejoin="round"/>
<path d="M84.8474 9.94531H82.4375V110.371H84.8474V9.94531Z" fill="#C2C2C2" stroke="#ABABAB" stroke-linecap="round" stroke-linejoin="round"/>
<path d="M84.1238 13.0781H16.6367V17.6546H84.1238V13.0781Z" fill="#C2C2C2" stroke="#ABABAB" stroke-linecap="round" stroke-linejoin="round"/>
<path d="M84.1248 13.0781H40.6934V17.6546H84.1248V13.0781Z" fill="#A6A6A6" stroke="#ABABAB" stroke-linecap="round" stroke-linejoin="round"/>
<path d="M84.1238 59.1562H16.6367V63.7327H84.1238V59.1562Z" fill="#C2C2C2" stroke="#ABABAB" stroke-linecap="round" stroke-linejoin="round"/>
<path d="M84.1248 59.1562H40.6934V63.7327H84.1248V59.1562Z" fill="#A6A6A6" stroke="#ABABAB" stroke-linecap="round" stroke-linejoin="round"/>
<path d="M84.1238 105.234H16.6367V109.811H84.1238V105.234Z" fill="#C2C2C2" stroke="#ABABAB" stroke-linecap="round" stroke-linejoin="round"/>
<path d="M84.1248 105.234H40.6934V109.811H84.1248V105.234Z" fill="#A6A6A6" stroke="#ABABAB" stroke-linecap="round" stroke-linejoin="round"/>
<path d="M40.7032 80.6719H5.38477V110.341H40.7032V80.6719Z" fill="#FFF4CE"/>
<mask id="mask0_282_35905" style="mask-type:luminance" maskUnits="userSpaceOnUse" x="5" y="80" width="36" height="31">
<path d="M40.7032 80.6641H5.38477V110.333H40.7032V80.6641Z" fill="white"/>
</mask>
<g mask="url(#mask0_282_35905)">
<path opacity="0.6" d="M40.7032 80.6641H5.38477V110.333H40.7032V80.6641Z" fill="white" stroke="#696969" stroke-linecap="round" stroke-linejoin="round"/>
</g>
<path d="M40.7032 80.6719H5.38477V110.341H40.7032V80.6719Z" stroke="#696969" stroke-linecap="round" stroke-linejoin="round"/>
<path d="M40.703 80.6719H28.9668V110.341H40.703V80.6719Z" fill="#FFF4CE"/>
<mask id="mask1_282_35905" style="mask-type:luminance" maskUnits="userSpaceOnUse" x="28" y="80" width="13" height="31">
<path d="M40.701 80.6641H28.9648V110.333H40.701V80.6641Z" fill="white"/>
</mask>
<g mask="url(#mask1_282_35905)">
<path opacity="0.39" d="M40.701 80.6641H28.9648V110.333H40.701V80.6641Z" fill="white" stroke="#696969" stroke-linecap="round" stroke-linejoin="round"/>
</g>
<path d="M40.703 80.6719H28.9668V110.341H40.703V80.6719Z" stroke="#696969" stroke-linecap="round" stroke-linejoin="round"/>
<path d="M34.957 80.75V110.375" stroke="#696969" stroke-linecap="round" stroke-linejoin="round"/>
<path d="M42.4864 51.0469H7.16797V80.7156H42.4864V51.0469Z" fill="#FFF4CE"/>
<mask id="mask2_282_35905" style="mask-type:luminance" maskUnits="userSpaceOnUse" x="7" y="51" width="36" height="30">
<path d="M42.4845 51.0391H7.16602V80.7078H42.4845V51.0391Z" fill="white"/>
</mask>
<g mask="url(#mask2_282_35905)">
<path opacity="0.6" d="M42.4845 51.0391H7.16602V80.7078H42.4845V51.0391Z" fill="white" stroke="#696969" stroke-linecap="round" stroke-linejoin="round"/>
</g>
<path d="M42.4864 51.0469H7.16797V80.7156H42.4864V51.0469Z" stroke="#696969" stroke-linecap="round" stroke-linejoin="round"/>
<path d="M42.4862 51.0469H30.75V80.7156H42.4862V51.0469Z" fill="#FFF4CE"/>
<mask id="mask3_282_35905" style="mask-type:luminance" maskUnits="userSpaceOnUse" x="30" y="51" width="13" height="30">
<path d="M42.4862 51.0391H30.75V80.7078H42.4862V51.0391Z" fill="white"/>
</mask>
<g mask="url(#mask3_282_35905)">
<path opacity="0.39" d="M42.4862 51.0391H30.75V80.7078H42.4862V51.0391Z" fill="white" stroke="#696969" stroke-linecap="round" stroke-linejoin="round"/>
</g>
<path d="M42.4862 51.0469H30.75V80.7156H42.4862V51.0469Z" stroke="#696969" stroke-linecap="round" stroke-linejoin="round"/>
<path d="M36.7402 51.125V80.7504" stroke="#696969" stroke-linecap="round" stroke-linejoin="round"/>
<path d="M134.397 80.6719H99.0781V110.341H134.397V80.6719Z" fill="#FFF4CE"/>
<mask id="mask4_282_35905" style="mask-type:luminance" maskUnits="userSpaceOnUse" x="99" y="80" width="36" height="31">
<path d="M134.397 80.6641H99.0781V110.333H134.397V80.6641Z" fill="white"/>
</mask>
<g mask="url(#mask4_282_35905)">
<path opacity="0.6" d="M134.397 80.6641H99.0781V110.333H134.397V80.6641Z" fill="white" stroke="#919191" stroke-linecap="round" stroke-linejoin="round"/>
</g>
<path d="M134.397 80.6719H99.0781V110.341H134.397V80.6719Z" stroke="#919191" stroke-linecap="round" stroke-linejoin="round"/>
<path d="M134.394 80.6719H122.658V110.341H134.394V80.6719Z" fill="#FFF4CE"/>
<mask id="mask5_282_35905" style="mask-type:luminance" maskUnits="userSpaceOnUse" x="122" y="80" width="13" height="31">
<path d="M134.396 80.6641H122.66V110.333H134.396V80.6641Z" fill="white"/>
</mask>
<g mask="url(#mask5_282_35905)">
<path opacity="0.39" d="M134.396 80.6641H122.66V110.333H134.396V80.6641Z" fill="white" stroke="#919191" stroke-linecap="round" stroke-linejoin="round"/>
</g>
<path d="M134.394 80.6719H122.658V110.341H134.394V80.6719Z" stroke="#919191" stroke-linecap="round" stroke-linejoin="round"/>
<path d="M128.65 80.75V110.375" stroke="#919191" stroke-linecap="round" stroke-linejoin="round"/>
<path d="M134.397 50.9688H99.0781V80.6375H134.397V50.9688Z" fill="#FFF4CE"/>
<mask id="mask6_282_35905" style="mask-type:luminance" maskUnits="userSpaceOnUse" x="99" y="50" width="36" height="31">
<path d="M134.397 50.9688H99.0781V80.6375H134.397V50.9688Z" fill="white"/>
</mask>
<g mask="url(#mask6_282_35905)">
<path opacity="0.6" d="M134.397 50.9688H99.0781V80.6375H134.397V50.9688Z" fill="white" stroke="#919191" stroke-linecap="round" stroke-linejoin="round"/>
</g>
<path d="M134.397 50.9688H99.0781V80.6375H134.397V50.9688Z" stroke="#919191" stroke-linecap="round" stroke-linejoin="round"/>
<path d="M134.394 50.9688H122.658V80.6375H134.394V50.9688Z" fill="#FFF4CE"/>
<mask id="mask7_282_35905" style="mask-type:luminance" maskUnits="userSpaceOnUse" x="122" y="50" width="13" height="31">
<path d="M134.396 50.9688H122.66V80.6375H134.396V50.9688Z" fill="white"/>
</mask>
<g mask="url(#mask7_282_35905)">
<path opacity="0.39" d="M134.396 50.9688H122.66V80.6375H134.396V50.9688Z" fill="white" stroke="#919191" stroke-linecap="round" stroke-linejoin="round"/>
</g>
<path d="M134.394 50.9688H122.658V80.6375H134.394V50.9688Z" stroke="#919191" stroke-linecap="round" stroke-linejoin="round"/>
<path d="M128.65 51.0547V80.6801" stroke="#919191" stroke-linecap="round" stroke-linejoin="round"/>
<path d="M131.294 26.4062H102.078V50.9485H131.294V26.4062Z" fill="#FFF4CE"/>
<mask id="mask8_282_35905" style="mask-type:luminance" maskUnits="userSpaceOnUse" x="102" y="26" width="30" height="25">
<path d="M131.294 26.4062H102.078V50.9485H131.294V26.4062Z" fill="white"/>
</mask>
<g mask="url(#mask8_282_35905)">
<path opacity="0.6" d="M131.294 26.4062H102.078V50.9485H131.294V26.4062Z" fill="white" stroke="#919191" stroke-linecap="round" stroke-linejoin="round"/>
</g>
<path d="M131.294 26.4062H102.078V50.9485H131.294V26.4062Z" stroke="#919191" stroke-linecap="round" stroke-linejoin="round"/>
<path d="M131.292 26.4062H121.586V50.9485H131.292V26.4062Z" fill="#FFF4CE"/>
<mask id="mask9_282_35905" style="mask-type:luminance" maskUnits="userSpaceOnUse" x="121" y="26" width="11" height="25">
<path d="M131.29 26.4062H121.584V50.9485H131.29V26.4062Z" fill="white"/>
</mask>
<g mask="url(#mask9_282_35905)">
<path opacity="0.39" d="M131.29 26.4062H121.584V50.9485H131.29V26.4062Z" fill="white" stroke="#919191" stroke-linecap="round" stroke-linejoin="round"/>
</g>
<path d="M131.292 26.4062H121.586V50.9485H131.292V26.4062Z" stroke="#919191" stroke-linecap="round" stroke-linejoin="round"/>
<path d="M126.539 26.4766V50.9822" stroke="#919191" stroke-linecap="round" stroke-linejoin="round"/>
<path d="M127.553 99.1875H122.977V102.051H127.553V99.1875Z" fill="white" stroke="#263238" stroke-linecap="round" stroke-linejoin="round"/>
<path d="M84.4872 110.377C86.0152 110.377 87.2538 109.138 87.2538 107.61C87.2538 106.082 86.0152 104.844 84.4872 104.844C82.9593 104.844 81.7207 106.082 81.7207 107.61C81.7207 109.138 82.9593 110.377 84.4872 110.377Z" fill="#263238" stroke="#263238" stroke-linecap="round" stroke-linejoin="round"/>
<path d="M130.012 61.8125H128.379V107.667H130.012V61.8125Z" fill="#263238" stroke="#263238" stroke-linecap="round" stroke-linejoin="round"/>
<path d="M129.143 77.8547L125.28 74.7815C123.637 73.4721 122.404 71.7184 121.729 69.7289C121.053 67.7394 120.963 65.5977 121.47 63.5587C121.619 62.9635 121.962 62.4349 122.445 62.0564C122.928 61.6779 123.523 61.4711 124.136 61.4688H134.136C134.75 61.47 135.346 61.6763 135.829 62.055C136.312 62.4336 136.655 62.9629 136.803 63.5587C137.31 65.5974 137.221 67.739 136.546 69.7285C135.871 71.7181 134.639 73.472 132.996 74.7815L129.143 77.8547ZM124.143 63.032C123.876 63.0311 123.616 63.12 123.406 63.2844C123.196 63.4489 123.047 63.6793 122.983 63.9386C122.548 65.6862 122.624 67.5221 123.202 69.2276C123.781 70.9331 124.837 72.4364 126.246 73.5582L129.136 75.8581L132.029 73.5582C133.439 72.4366 134.496 70.9337 135.076 69.2283C135.656 67.5229 135.733 65.6868 135.299 63.9386C135.235 63.6796 135.086 63.4495 134.876 63.2851C134.666 63.1208 134.406 63.0317 134.139 63.032H124.143Z" fill="#263238"/>
<path d="M119.553 100.617H68.9785V106.504H119.553V100.617Z" fill="white"/>
<mask id="mask10_282_35905" style="mask-type:luminance" maskUnits="userSpaceOnUse" x="68" y="100" width="52" height="7">
<path d="M119.551 100.609H68.9766V106.496H119.551V100.609Z" fill="white"/>
</mask>
<g mask="url(#mask10_282_35905)">
<path opacity="0.28" d="M119.551 100.609H68.9766V106.496H119.551V100.609Z" fill="black" stroke="#263238" stroke-linecap="round" stroke-linejoin="round"/>
</g>
<path d="M119.553 100.617H68.9785V106.504H119.553V100.617Z" stroke="#263238" stroke-linecap="round" stroke-linejoin="round"/>
<path d="M74.6449 100.617H68.9785V106.504H74.6449V100.617Z" stroke="#263238" stroke-linecap="round" stroke-linejoin="round"/>
<path d="M119.551 100.617H113.885V106.504H119.551V100.617Z" stroke="#263238" stroke-linecap="round" stroke-linejoin="round"/>
<path d="M97.0981 100.617H91.4316V106.504H97.0981V100.617Z" stroke="#263238" stroke-linecap="round" stroke-linejoin="round"/>
<path d="M119.553 106.507H123.039L127.399 89.9375H123.913L119.553 106.507Z" fill="white" stroke="#263238" stroke-linecap="round" stroke-linejoin="round"/>
<path d="M131.487 96.9062H126.91V104.319H131.487V96.9062Z" fill="white" stroke="#263238" stroke-linecap="round" stroke-linejoin="round"/>
<path d="M128.077 110.375C127.818 110.371 127.57 110.266 127.386 110.082C127.203 109.899 127.098 109.651 127.094 109.392V105.702C127.098 105.443 127.203 105.195 127.386 105.011C127.57 104.828 127.818 104.723 128.077 104.719C128.336 104.723 128.584 104.828 128.768 105.011C128.951 105.195 129.056 105.443 129.06 105.702V109.402C129.053 109.66 128.947 109.905 128.764 110.086C128.581 110.267 128.335 110.371 128.077 110.375Z" fill="#263238"/>
<path d="M130.413 110.375C130.154 110.371 129.906 110.266 129.722 110.082C129.539 109.899 129.434 109.651 129.43 109.392V105.702C129.434 105.443 129.539 105.195 129.722 105.011C129.906 104.828 130.154 104.723 130.413 104.719C130.675 104.719 130.927 104.822 131.114 105.006C131.301 105.19 131.409 105.44 131.413 105.702V109.402C131.406 109.662 131.298 109.91 131.111 110.092C130.924 110.274 130.674 110.375 130.413 110.375Z" fill="#263238"/>
<path d="M0.914062 110.367H138.845" stroke="#263238" stroke-linecap="round" stroke-linejoin="round"/>
<path d="M48.5028 120.002C61.8012 120.002 72.5817 118.691 72.5817 117.075C72.5817 115.459 61.8012 114.148 48.5028 114.148C35.2043 114.148 24.4238 115.459 24.4238 117.075C24.4238 118.691 35.2043 120.002 48.5028 120.002Z" fill="#FF7500"/>
<path opacity="0.5" d="M48.5028 120.002C61.8012 120.002 72.5817 118.691 72.5817 117.075C72.5817 115.459 61.8012 114.148 48.5028 114.148C35.2043 114.148 24.4238 115.459 24.4238 117.075C24.4238 118.691 35.2043 120.002 48.5028 120.002Z" fill="white"/>
<path d="M98.331 117.066C98.331 117.873 92.9546 118.526 86.3315 118.526C79.7085 118.526 74.332 117.859 74.332 117.066C74.332 116.273 79.7051 115.609 86.3315 115.609C92.9579 115.609 98.331 116.273 98.331 117.066Z" fill="#FF7500"/>
<path opacity="0.5" d="M98.331 117.066C98.331 117.873 92.9546 118.526 86.3315 118.526C79.7085 118.526 74.332 117.859 74.332 117.066C74.332 116.273 79.7051 115.609 86.3315 115.609C92.9579 115.609 98.331 116.273 98.331 117.066Z" fill="white"/>
<path d="M53.3059 20.6639C53.3059 20.6639 51.4426 19.2006 49.306 19.9306C47.1695 20.6606 45.5495 24.2204 44.9729 27.1136C44.3962 30.0068 42.1797 32.2001 42.713 35.5933C43.2463 38.9865 47.1028 39.5164 51.7593 40.0164C56.4157 40.5164 58.9423 39.9497 61.1355 36.8899C63.3288 33.83 62.3988 30.1068 61.1022 26.8136C59.8056 23.5205 57.6457 20.4639 55.8491 19.8973C54.0525 19.3306 53.3059 20.6639 53.3059 20.6639Z" fill="#263238" stroke="#263238" stroke-linecap="round" stroke-linejoin="round"/>
<path d="M45.6055 38.0703C45.9199 38.2117 46.2469 38.3233 46.5821 38.4036" stroke="white" stroke-linecap="round" stroke-linejoin="round"/>
<path d="M52.8394 23.0312C52.08 24.728 51.1174 26.3263 49.9728 27.791C48.0663 30.2409 43.8498 32.5542 43.5798 35.1241C43.5364 35.4681 43.5666 35.8175 43.6683 36.149C43.77 36.4806 43.9409 36.7868 44.1698 37.0473" stroke="white" stroke-linecap="round" stroke-linejoin="round"/>
<path d="M60.5755 35.3281C60.4377 35.6507 60.2608 35.9552 60.0488 36.2348" stroke="white" stroke-linecap="round" stroke-linejoin="round"/>
<path d="M58.9727 28.8828C58.9727 28.8828 61.1159 31.356 60.9092 33.9959" stroke="white" stroke-linecap="round" stroke-linejoin="round"/>
<path d="M52.4336 21.6676C51.5983 21.5826 50.7547 21.6989 49.9736 22.0069C49.1924 22.3148 48.4964 22.8054 47.9438 23.4376C47.8671 23.5242 47.7971 23.6109 47.7305 23.6976" stroke="white" stroke-linecap="round" stroke-linejoin="round"/>
<path d="M40.1378 84.5022L39.7211 90.9153C39.7211 90.9153 37.9479 99.5183 37.3879 103.065C36.8279 106.611 35.8013 112.004 35.6146 112.004C35.428 112.004 32.3681 113.854 31.3881 115.364C30.4082 116.874 31.6515 117.514 33.0114 117.031C34.3713 116.548 36.2179 115.181 36.8212 113.558C37.4245 111.934 37.7245 111.331 37.7645 111.068C37.8045 110.804 44.2542 93.4885 44.8942 91.6386C45.5342 89.7887 46.8941 84.3556 46.8941 84.3556L50.064 73.6027C50.064 73.6027 53.4572 84.6589 53.4972 85.1489C53.5372 85.6389 57.0037 113.898 57.1637 114.954C57.3237 116.011 57.277 116.764 57.917 116.991C58.557 117.217 60.0669 117.217 60.8602 117.217C61.6535 117.217 64.4067 117.634 65.7633 117.294C67.1199 116.954 67.2733 116.728 66.33 116.048C65.3867 115.368 60.1469 114.934 59.6636 112.954C59.6236 112.804 59.5869 83.7156 59.5869 83.7156C59.5869 83.7156 59.1336 74.096 58.3803 71.3828H40.9477L40.1378 84.5022Z" fill="white" stroke="#263238" stroke-linecap="round" stroke-linejoin="round"/>
<path d="M33.0065 117.024C34.3631 116.53 36.2131 115.174 36.8164 113.551L36.943 113.217C36.1731 114.037 34.9431 115.177 34.9431 115.177C34.8677 114.79 34.6996 114.428 34.4531 114.121C34.3456 114.002 34.2079 113.915 34.0546 113.868C33.9014 113.822 33.7384 113.818 33.5832 113.857L34.9165 112.391C33.9165 113.011 32.1166 114.277 31.4099 115.367C30.4 116.87 31.6399 117.514 33.0065 117.024Z" fill="#263238" stroke="#263238" stroke-linecap="round" stroke-linejoin="round"/>
<path d="M66.3058 116.037C65.6591 115.574 63.0026 115.224 61.2293 114.414C61.1561 114.476 61.099 114.555 61.0626 114.644C60.9501 114.964 60.8621 115.291 60.7993 115.624L57.1328 114.841V114.944C57.2828 116.001 57.2461 116.754 57.8861 116.981C58.5261 117.207 60.036 117.207 60.8293 117.207C61.6226 117.207 64.3758 117.624 65.7324 117.284C67.089 116.944 67.2624 116.731 66.3058 116.037Z" fill="#263238" stroke="#263238" stroke-linecap="round" stroke-linejoin="round"/>
<path d="M45.2165 55.7344C45.2165 55.7344 43.4866 56.531 41.3933 60.2908C39.1034 64.394 39.4967 66.6739 39.4634 71.6237C39.4301 76.5735 39.3301 84.7898 39.3301 84.7898C39.3301 84.7898 45.6631 86.4864 50.2063 86.2197C54.7494 85.9531 60.5125 84.9231 60.5125 84.9231C60.5125 84.9231 59.2825 68.1638 58.1193 63.344C56.956 58.5243 56.256 56.3443 56.256 56.3443C54.0077 56.6564 51.7295 56.69 49.473 56.4443C45.6165 56.0677 45.2165 55.7344 45.2165 55.7344Z" fill="#263238" stroke="#263238" stroke-linecap="round" stroke-linejoin="round"/>
<path d="M52.502 70.5547C52.6753 71.1247 52.8353 71.7013 52.9753 72.278" stroke="white" stroke-linecap="round" stroke-linejoin="round"/>
<path d="M48.4863 61.125C49.8291 63.6026 50.9812 66.1788 51.9328 68.8313" stroke="white" stroke-linecap="round" stroke-linejoin="round"/>
<path d="M87.6778 52.549C87.4778 52.4157 84.2013 51.9024 84.2013 51.9024L83.5613 51.639C83.5613 51.639 87.5278 51.9557 87.5611 51.789C87.5944 51.6224 87.7278 51.4224 87.4611 51.3891C87.1945 51.3557 82.0913 50.3191 82.0913 50.3191C82.0913 50.3191 83.388 49.0925 83.5546 48.8258C83.7213 48.5592 83.9513 48.0259 83.6846 48.0259C83.418 48.0259 83.3513 48.1925 82.988 48.4259C82.6247 48.6592 81.1914 49.2258 80.7914 49.5558C80.3914 49.8858 79.1981 50.7524 79.1981 50.7524L65.3387 48.8458C65.3387 48.8458 60.4723 42.8461 59.4157 41.5662C58.6812 40.712 57.845 39.9508 56.9258 39.2996C55.9058 38.8496 55.9258 39.6029 55.9258 39.6029L58.0557 49.0692C58.0557 49.0692 63.5655 52.3524 63.9055 52.3524C64.2455 52.3524 79.1315 52.8457 79.1315 52.8457C79.1315 52.8457 80.1314 53.3123 80.7581 53.709C81.3847 54.1056 85.3812 55.3756 85.3812 55.3756C85.3812 55.3756 85.6479 55.2422 85.3479 55.0089C85.0479 54.7756 83.1213 53.8456 83.1213 53.8456L87.1211 54.7122C87.1211 54.7122 87.3545 54.5456 87.2545 54.3789C87.1545 54.2123 83.5879 52.849 83.5879 52.849L87.5878 53.049C87.5878 53.049 87.8744 52.6823 87.6778 52.549Z" fill="white" stroke="#263238" stroke-linecap="round" stroke-linejoin="round"/>
<path d="M64.5021 47.8159C63.0655 46.046 60.1956 42.5128 59.4157 41.5662C58.6812 40.712 57.845 39.9508 56.9258 39.2996C55.9058 38.8496 55.9258 39.6029 55.9258 39.6029L58.0557 49.0692C58.0557 49.0692 60.5423 50.5491 62.2755 51.5224L64.5021 47.8159Z" fill="white" stroke="#263238" stroke-linecap="round" stroke-linejoin="round"/>
<path d="M49.7725 38.4901C49.7725 38.4901 46.8793 38.6234 45.106 40.5867C43.3328 42.5499 43.5427 46.8697 44.276 49.463C45.0093 52.0562 45.9426 53.4861 45.7393 54.3861C45.536 55.286 44.8094 55.5827 45.206 56.4127C45.6027 57.2426 47.8992 58.1426 51.9557 58.0093C56.0122 57.8759 56.7788 57.0093 56.8122 56.2493C56.8455 55.4894 56.5455 54.8527 56.6455 54.3861C56.7455 53.9194 59.672 51.3262 59.672 48.4663C59.672 45.6065 58.4088 44.6098 58.1088 42.5466C57.8088 40.4833 57.9088 40.1867 56.6788 39.2867C55.4489 38.3868 51.4024 37.9235 49.7725 38.4901Z" fill="white" stroke="#263238" stroke-linecap="round" stroke-linejoin="round"/>
<path d="M48.4594 48.3984C47.4924 49.2076 46.4192 49.8805 45.2695 50.3984" stroke="#263238" stroke-linecap="round" stroke-linejoin="round"/>
<path d="M48.7799 48.7344C48.7799 48.7344 48.0632 51.0476 46.3066 52.3242" stroke="#263238" stroke-linecap="round" stroke-linejoin="round"/>
<path d="M55.9592 40.5781L56.2925 43.7713L54.8926 42.1414L55.9592 40.5781Z" fill="white" stroke="#263238" stroke-linecap="round" stroke-linejoin="round"/>
<path d="M54.0957 44.0364L55.959 40.5766L54.2624 38.75L54.0957 44.0364Z" fill="white" stroke="#263238" stroke-linecap="round" stroke-linejoin="round"/>
<path d="M50.5059 32.8359C50.7964 33.9888 50.9409 35.1736 50.9358 36.3625C50.9261 37.1323 50.848 37.8997 50.7025 38.6557L54.0957 44.0421L55.059 39.0423L55.6923 35.5825C55.6923 35.5825 51.8358 35.3625 50.5059 32.8359Z" fill="white" stroke="#263238" stroke-linecap="round" stroke-linejoin="round"/>
<path d="M53.8962 41.1484L54.0962 44.0416L53.0996 42.4784L53.8962 41.1484Z" fill="white" stroke="#263238" stroke-linecap="round" stroke-linejoin="round"/>
<path d="M49.5723 38.5216L52.6655 44.0747L53.8954 41.1481L50.6056 36.625L49.5723 38.5216Z" fill="white" stroke="#263238" stroke-linecap="round" stroke-linejoin="round"/>
<path d="M103.764 41.1094H75.6953V64.1417H103.764V41.1094Z" fill="#FF7500"/>
<mask id="mask11_282_35905" style="mask-type:luminance" maskUnits="userSpaceOnUse" x="75" y="41" width="29" height="24">
<path d="M103.762 41.1094H75.6934V64.1417H103.762V41.1094Z" fill="white"/>
</mask>
<g mask="url(#mask11_282_35905)">
<path opacity="0.2" d="M103.762 41.1094H75.6934V64.1417H103.762V41.1094Z" fill="black"/>
</g>
<path d="M103.764 41.1094H75.6953V64.1417H103.764V41.1094Z" stroke="#263238" stroke-linecap="round" stroke-linejoin="round"/>
<path d="M97.8207 41.1094H69.752V64.1417H97.8207V41.1094Z" fill="#FF7500" stroke="#263238" stroke-linecap="round" stroke-linejoin="round"/>
<path d="M108.387 71.8936C107.487 70.467 103.764 64.1406 103.764 64.1406H97.8242L100.881 71.8936H108.387Z" fill="#FF7500"/>
<mask id="mask12_282_35905" style="mask-type:luminance" maskUnits="userSpaceOnUse" x="97" y="64" width="12" height="8">
<path d="M108.385 71.8936C107.485 70.467 103.762 64.1406 103.762 64.1406H97.8223L100.879 71.8936H108.385Z" fill="white"/>
</mask>
<g mask="url(#mask12_282_35905)">
<path opacity="0.2" d="M108.385 71.8936C107.485 70.467 103.762 64.1406 103.762 64.1406H97.8223L100.879 71.8936H108.385Z" fill="black"/>
</g>
<path d="M108.387 71.8936C107.487 70.467 103.764 64.1406 103.764 64.1406H97.8242L100.881 71.8936H108.387Z" stroke="#263238" stroke-linecap="round" stroke-linejoin="round"/>
<path d="M65.1133 71.8936C66.0132 70.467 69.7331 64.1406 69.7331 64.1406H75.6762L72.6196 71.8936H65.1133Z" fill="#FF7500" stroke="#263238" stroke-linecap="round" stroke-linejoin="round"/>
<path d="M69.7317 64.1406L67.1484 71.8936H96.4638L97.8238 64.1406H69.7317Z" fill="#FF7500" stroke="#263238" stroke-linecap="round" stroke-linejoin="round"/>
<path d="M107.377 49.4453V57.1583" stroke="#263238" stroke-linecap="round" stroke-linejoin="round"/>
<path d="M108.838 52.7812V59.0343" stroke="#263238" stroke-linecap="round" stroke-linejoin="round"/>
<path d="M66.7344 57.1562V61.9494" stroke="#263238" stroke-linecap="round" stroke-linejoin="round"/>
<path d="M65.4844 59.8672V63.617" stroke="#263238" stroke-linecap="round" stroke-linejoin="round"/>
<path d="M44.9492 46.7674C45.9439 47.894 47.0984 48.8688 48.3757 49.6606C50.3757 50.8573 57.7087 55.0137 58.2853 55.2471C58.862 55.4804 76.3745 52.6205 76.3745 52.6205C76.3745 52.6205 77.3745 53.0872 78.0045 53.4838C78.6344 53.8805 82.6276 55.1504 82.6276 55.1504C82.6276 55.1504 82.8942 55.0171 82.5943 54.7871C82.2943 54.5571 80.3677 53.6205 80.3677 53.6205L84.3675 54.4871C84.3675 54.4871 84.6008 54.3204 84.5008 54.1538C84.4009 53.9871 80.8343 52.6238 80.8343 52.6238L84.8342 52.8238C84.8342 52.8238 85.1342 52.4572 84.9342 52.3239C84.7342 52.1905 80.6377 51.2572 80.6377 51.2572C80.6377 51.2572 84.9942 50.8906 85.0275 50.7239C85.0608 50.5573 85.1941 50.3606 84.9275 50.3273C84.6608 50.2939 79.2077 49.7606 79.2077 49.7606C79.2077 49.7606 80.6377 48.864 80.8043 48.5974C80.971 48.3307 81.2043 47.7974 80.9377 47.7974C80.671 47.7974 80.6043 47.964 80.241 48.1974C79.8777 48.4307 78.4444 48.9973 78.0445 49.3273C77.6445 49.6573 76.4479 50.5273 76.4479 50.5273L60.4219 50.5606L50.4723 42.7109" fill="white"/>
<path d="M44.9492 46.7674C45.9439 47.894 47.0984 48.8688 48.3757 49.6606C50.3757 50.8573 57.7087 55.0137 58.2853 55.2471C58.862 55.4804 76.3745 52.6205 76.3745 52.6205C76.3745 52.6205 77.3745 53.0872 78.0045 53.4838C78.6344 53.8805 82.6276 55.1504 82.6276 55.1504C82.6276 55.1504 82.8942 55.0171 82.5943 54.7871C82.2943 54.5571 80.3677 53.6205 80.3677 53.6205L84.3675 54.4871C84.3675 54.4871 84.6008 54.3204 84.5008 54.1538C84.4009 53.9871 80.8343 52.6238 80.8343 52.6238L84.8342 52.8238C84.8342 52.8238 85.1342 52.4572 84.9342 52.3239C84.7342 52.1905 80.6377 51.2572 80.6377 51.2572C80.6377 51.2572 84.9942 50.8906 85.0275 50.7239C85.0608 50.5573 85.1941 50.3606 84.9275 50.3273C84.6608 50.2939 79.2077 49.7606 79.2077 49.7606C79.2077 49.7606 80.6377 48.864 80.8043 48.5974C80.971 48.3307 81.2043 47.7974 80.9377 47.7974C80.671 47.7974 80.6043 47.964 80.241 48.1974C79.8777 48.4307 78.4444 48.9973 78.0445 49.3273C77.6445 49.6573 76.4479 50.5273 76.4479 50.5273L60.4219 50.5606L50.4723 42.7109" stroke="#263238" stroke-linecap="round" stroke-linejoin="round"/>
<path d="M84.9214 50.3268C84.6581 50.2934 79.2017 49.7601 79.2017 49.7601C79.2017 49.7601 80.6316 48.8635 80.7983 48.5968C80.9649 48.3302 81.1983 47.7969 80.9316 47.7969C80.6649 47.7969 80.5983 47.9635 80.235 48.1969C79.8717 48.4302 78.4384 48.9968 78.0384 49.3268C77.6384 49.6568 76.4418 50.5268 76.4418 50.5268L60.4158 50.5601L58.6392 49.1501C57.9726 50.3201 56.726 52.5133 55.916 53.9599C57.1626 54.6532 58.1059 55.1699 58.2959 55.2465C58.8626 55.4799 76.3851 52.62 76.3851 52.62C76.3851 52.62 77.3851 53.0866 78.0151 53.4833C78.645 53.8799 82.6382 55.1499 82.6382 55.1499C82.6382 55.1499 82.9048 55.0166 82.6049 54.7866C82.3049 54.5566 80.3783 53.62 80.3783 53.62L84.3781 54.4866C84.3781 54.4866 84.6114 54.3199 84.5114 54.1533C84.4114 53.9866 80.8449 52.6233 80.8449 52.6233L84.8448 52.8233C84.8448 52.8233 85.1448 52.4567 84.9448 52.3233C84.7448 52.19 80.6383 51.2567 80.6383 51.2567C80.6383 51.2567 84.9948 50.8901 85.0281 50.7234C85.0614 50.5568 85.1881 50.3601 84.9214 50.3268Z" fill="white" stroke="#263238" stroke-linecap="round" stroke-linejoin="round"/>
<path d="M58.0855 30.0408C58.1423 29.9718 58.2174 29.9202 58.3021 29.8919C58.3868 29.8635 58.4778 29.8595 58.5647 29.8804C58.6516 29.9012 58.7308 29.946 58.7935 30.0098C58.8561 30.0735 58.8995 30.1536 58.9188 30.2408C58.9745 30.6024 58.9559 30.9715 58.8642 31.3257C58.7725 31.6798 58.6097 32.0116 58.3855 32.3007C58.0189 32.6674 57.6855 32.7674 57.6855 32.3007C57.7781 31.5408 57.9116 30.7864 58.0855 30.0408Z" fill="white" stroke="#263238" stroke-linecap="round" stroke-linejoin="round"/>
<path d="M53.9943 24.2188C53.8774 25.8409 53.1833 27.3675 52.0377 28.5219C50.9704 29.5714 49.7636 30.4687 48.4512 31.1884C48.4512 31.1884 48.6445 32.2317 49.0378 32.5584C49.4311 32.885 50.2111 32.8217 50.2111 32.8217C50.6646 34.0615 51.402 35.1779 52.3643 36.0816C53.9276 37.5148 55.7542 37.3848 56.7975 35.2349C57.8408 33.085 58.3641 30.9285 58.2341 29.6885L58.1041 28.4486C58.1041 28.4486 54.7109 26.5653 53.9943 24.2188Z" fill="white" stroke="#263238" stroke-linecap="round" stroke-linejoin="round"/>
<path d="M53.7961 30.6604C53.9618 30.6604 54.0961 30.4216 54.0961 30.1271C54.0961 29.8325 53.9618 29.5938 53.7961 29.5938C53.6304 29.5938 53.4961 29.8325 53.4961 30.1271C53.4961 30.4216 53.6304 30.6604 53.7961 30.6604Z" fill="#263238"/>
<path d="M55.4269 34.9182C55.5926 34.9182 55.7269 34.6794 55.7269 34.3849C55.7269 34.0903 55.5926 33.8516 55.4269 33.8516C55.2613 33.8516 55.127 34.0903 55.127 34.3849C55.127 34.6794 55.2613 34.9182 55.4269 34.9182Z" fill="#263238"/>
<path d="M56.6906 30.6604C56.8563 30.6604 56.9906 30.4216 56.9906 30.1271C56.9906 29.8325 56.8563 29.5938 56.6906 29.5938C56.5249 29.5938 56.3906 29.8325 56.3906 30.1271C56.3906 30.4216 56.5249 30.6604 56.6906 30.6604Z" fill="#263238"/>
<path d="M56.0887 29.5625C55.9741 29.9618 55.9402 30.3799 55.9887 30.7924C56.0887 31.3591 56.5553 32.3224 56.1553 32.489C55.9728 32.5723 55.771 32.6039 55.5717 32.5804C55.3725 32.5569 55.1835 32.4792 55.0254 32.3557" stroke="#263238" stroke-linecap="round" stroke-linejoin="round"/>
<path d="M52.9297 29.1626C52.9297 29.1626 53.0897 28.1426 54.4263 28.2593" stroke="#263238" stroke-linecap="round" stroke-linejoin="round"/>
<path d="M56.5078 28.5696C56.5078 28.5696 57.7544 27.5696 58.1577 29.3995" stroke="#263238" stroke-linecap="round" stroke-linejoin="round"/>
</svg>