<?xml version="1.0" encoding="UTF-8"?>
<svg id="Capa_2" data-name="Capa 2" xmlns="http://www.w3.org/2000/svg" viewBox="0 0 234.24 260.2">
  <defs>
    <style>
      .cls-1 {
        fill: #4d4d4d;
      }

      .cls-2 {
        fill: #fff;
      }

      .cls-3 {
        fill: #ff6b00;
      }
    </style>
  </defs>
  <g id="Capa_1-2" data-name="Capa 1">
    <g>
      <path class="cls-1" d="M176.72,260.2H29.11c-16.05,0-29.11-13.06-29.11-29.11V29.11C0,13.06,13.06,0,29.11,0h147.61c16.05,0,29.11,13.06,29.11,29.11v201.98c0,16.05-13.06,29.11-29.11,29.11ZM29.11,8c-11.64,0-21.11,9.47-21.11,21.11v201.98c0,11.64,9.47,21.11,21.11,21.11h147.61c11.64,0,21.11-9.47,21.11-21.11V29.11c0-11.64-9.47-21.11-21.11-21.11H29.11Z"/>
      <g>
        <circle class="cls-3" cx="201.84" cy="130.1" r="32.4"/>
        <path class="cls-2" d="M216.64,125.6h-10.3v-10.3c0-2.49-2.01-4.5-4.5-4.5s-4.5,2.01-4.5,4.5v10.3h-10.3c-2.49,0-4.5,2.01-4.5,4.5s2.01,4.5,4.5,4.5h10.3v10.3c0,2.49,2.01,4.5,4.5,4.5s4.5-2.01,4.5-4.5v-10.3h10.3c2.49,0,4.5-2.01,4.5-4.5s-2.01-4.5-4.5-4.5Z"/>
      </g>
    </g>
  </g>
</svg>