<svg width="175" height="130" viewBox="0 0 175 130" fill="none" xmlns="http://www.w3.org/2000/svg">
<path d="M17.053 12.8516L14.9297 16.1919H71.8751L73.4455 12.8516H17.053Z" stroke="#2C3948" stroke-linecap="round" stroke-linejoin="round"/>
<path d="M17.053 16.0859L14.9297 19.4263H71.8751L73.4455 16.0859H17.053Z" stroke="#2C3948" stroke-linecap="round" stroke-linejoin="round"/>
<path d="M17.053 19.3281L14.9297 22.6685H71.8751L73.4455 19.3281H17.053Z" stroke="#2C3948" stroke-linecap="round" stroke-linejoin="round"/>
<path d="M17.053 22.5625L14.9297 25.9028H71.8751L73.4455 22.5625H17.053Z" stroke="#2C3948" stroke-linecap="round" stroke-linejoin="round"/>
<path d="M17.053 25.8047L14.9297 29.145H71.8751L73.4455 25.8047H17.053Z" stroke="#2C3948" stroke-linecap="round" stroke-linejoin="round"/>
<path d="M17.053 29.0391L14.9297 32.3823H71.8751L73.4455 29.0391H17.053Z" stroke="#2C3948" stroke-linecap="round" stroke-linejoin="round"/>
<path d="M17.053 32.2812L14.9297 35.6216H71.8751L73.4455 32.2812H17.053Z" stroke="#2C3948" stroke-linecap="round" stroke-linejoin="round"/>
<path d="M17.053 35.5156L14.9297 38.8588H71.8751L73.4455 35.5156H17.053Z" stroke="#2C3948" stroke-linecap="round" stroke-linejoin="round"/>
<path d="M17.053 38.75L14.9297 42.0903H71.8751L73.4455 38.75H17.053Z" stroke="#2C3948" stroke-linecap="round" stroke-linejoin="round"/>
<path d="M17.053 41.9922L14.9297 45.3354H71.8751L73.4455 41.9922H17.053Z" stroke="#2C3948" stroke-linecap="round" stroke-linejoin="round"/>
<path d="M17.053 45.2266L14.9297 48.5669H71.8751L73.4455 45.2266H17.053Z" stroke="#2C3948" stroke-linecap="round" stroke-linejoin="round"/>
<path d="M17.053 48.4688L14.9297 51.8119H71.8751L73.4455 48.4688H17.053Z" stroke="#2C3948" stroke-linecap="round" stroke-linejoin="round"/>
<path d="M17.053 51.7031L14.9297 55.0435H71.8751L73.4455 51.7031H17.053Z" stroke="#2C3948" stroke-linecap="round" stroke-linejoin="round"/>
<path d="M17.053 54.9453L14.9297 58.2885H71.8751L73.4455 54.9453H17.053Z" stroke="#2C3948" stroke-linecap="round" stroke-linejoin="round"/>
<path d="M17.053 58.1797L14.9297 61.5229H71.8751L73.4455 58.1797H17.053Z" stroke="#2C3948" stroke-linecap="round" stroke-linejoin="round"/>
<path d="M17.053 61.4141L14.9297 64.7573H71.8751L73.4455 61.4141H17.053Z" stroke="#2C3948" stroke-linecap="round" stroke-linejoin="round"/>
<path d="M17.053 64.6562L14.9297 67.9994H71.8751L73.4455 64.6562H17.053Z" stroke="#2C3948" stroke-linecap="round" stroke-linejoin="round"/>
<path d="M17.053 67.8906L14.9297 71.2338H71.8751L73.4455 67.8906H17.053Z" stroke="#2C3948" stroke-linecap="round" stroke-linejoin="round"/>
<path d="M17.053 71.1328L14.9297 74.476H71.8751L73.4455 71.1328H17.053Z" stroke="#2C3948" stroke-linecap="round" stroke-linejoin="round"/>
<path d="M17.053 74.3672L14.9297 77.7104H71.8751L73.4455 74.3672H17.053Z" stroke="#2C3948" stroke-linecap="round" stroke-linejoin="round"/>
<path d="M17.053 77.6094L14.9297 80.9526H71.8751L73.4455 77.6094H17.053Z" stroke="#2C3948" stroke-linecap="round" stroke-linejoin="round"/>
<path d="M17.053 80.8438L14.9297 84.1869H71.8751L73.4455 80.8438H17.053Z" stroke="#2C3948" stroke-linecap="round" stroke-linejoin="round"/>
<path d="M17.053 84.0781L14.9297 87.4213H71.8751L73.4455 84.0781H17.053Z" stroke="#2C3948" stroke-linecap="round" stroke-linejoin="round"/>
<path d="M73.4454 12.8516V87.4734H71.875" stroke="#2C3948" stroke-linecap="round" stroke-linejoin="round"/>
<path d="M78.0081 12.8516L75.8848 16.1919H132.83L134.398 12.8516H78.0081Z" stroke="#2C3948" stroke-linecap="round" stroke-linejoin="round"/>
<path d="M78.0081 16.0859L75.8848 19.4263H132.83L134.398 16.0859H78.0081Z" stroke="#2C3948" stroke-linecap="round" stroke-linejoin="round"/>
<path d="M78.0081 19.3281L75.8848 22.6685H132.83L134.398 19.3281H78.0081Z" stroke="#2C3948" stroke-linecap="round" stroke-linejoin="round"/>
<path d="M78.0081 22.5625L75.8848 25.9028H132.83L134.398 22.5625H78.0081Z" stroke="#2C3948" stroke-linecap="round" stroke-linejoin="round"/>
<path d="M78.0081 25.8047L75.8848 29.145H132.83L134.398 25.8047H78.0081Z" stroke="#2C3948" stroke-linecap="round" stroke-linejoin="round"/>
<path d="M78.0081 29.0391L75.8848 32.3823H132.83L134.398 29.0391H78.0081Z" stroke="#2C3948" stroke-linecap="round" stroke-linejoin="round"/>
<path d="M78.0081 32.2812L75.8848 35.6216H132.83L134.398 32.2812H78.0081Z" stroke="#2C3948" stroke-linecap="round" stroke-linejoin="round"/>
<path d="M78.0081 35.5156L75.8848 38.8588H132.83L134.398 35.5156H78.0081Z" stroke="#2C3948" stroke-linecap="round" stroke-linejoin="round"/>
<path d="M78.0081 38.75L75.8848 42.0903H132.83L134.398 38.75H78.0081Z" stroke="#2C3948" stroke-linecap="round" stroke-linejoin="round"/>
<path d="M78.0081 41.9922L75.8848 45.3354H132.83L134.398 41.9922H78.0081Z" stroke="#2C3948" stroke-linecap="round" stroke-linejoin="round"/>
<path d="M78.0081 45.2266L75.8848 48.5669H132.83L134.398 45.2266H78.0081Z" stroke="#2C3948" stroke-linecap="round" stroke-linejoin="round"/>
<path d="M78.0081 48.4688L75.8848 51.8119H132.83L134.398 48.4688H78.0081Z" stroke="#2C3948" stroke-linecap="round" stroke-linejoin="round"/>
<path d="M78.0081 51.7031L75.8848 55.0435H132.83L134.398 51.7031H78.0081Z" stroke="#2C3948" stroke-linecap="round" stroke-linejoin="round"/>
<path d="M78.0081 54.9453L75.8848 58.2885H132.83L134.398 54.9453H78.0081Z" stroke="#2C3948" stroke-linecap="round" stroke-linejoin="round"/>
<path d="M78.0081 58.1797L75.8848 61.5229H132.83L134.398 58.1797H78.0081Z" stroke="#2C3948" stroke-linecap="round" stroke-linejoin="round"/>
<path d="M78.0081 61.4141L75.8848 64.7573H132.83L134.398 61.4141H78.0081Z" stroke="#2C3948" stroke-linecap="round" stroke-linejoin="round"/>
<path d="M78.0081 64.6562L75.8848 67.9994H132.83L134.398 64.6562H78.0081Z" stroke="#2C3948" stroke-linecap="round" stroke-linejoin="round"/>
<path d="M78.0081 67.8906L75.8848 71.2338H132.83L134.398 67.8906H78.0081Z" stroke="#2C3948" stroke-linecap="round" stroke-linejoin="round"/>
<path d="M78.0081 71.1328L75.8848 74.476H132.83L134.398 71.1328H78.0081Z" stroke="#2C3948" stroke-linecap="round" stroke-linejoin="round"/>
<path d="M78.0081 74.3672L75.8848 77.7104H132.83L134.398 74.3672H78.0081Z" stroke="#2C3948" stroke-linecap="round" stroke-linejoin="round"/>
<path d="M78.0081 77.6094L75.8848 80.9526H132.83L134.398 77.6094H78.0081Z" stroke="#2C3948" stroke-linecap="round" stroke-linejoin="round"/>
<path d="M78.0081 80.8438L75.8848 84.1869H132.83L134.398 80.8438H78.0081Z" stroke="#2C3948" stroke-linecap="round" stroke-linejoin="round"/>
<path d="M78.0081 84.0781L75.8848 87.4213H132.83L134.398 84.0781H78.0081Z" stroke="#2C3948" stroke-linecap="round" stroke-linejoin="round"/>
<path d="M134.398 12.8516V87.4734H132.83" stroke="#2C3948" stroke-linecap="round" stroke-linejoin="round"/>
<path d="M136.884 43.5711C136.884 43.5711 136.18 45.5121 134.678 45.7771C133.176 46.0422 130.534 43.1294 132.209 41.6302C133.885 40.131 136.18 42.5137 136.884 43.5711Z" fill="#FAB931" stroke="#2C3948" stroke-linecap="round" stroke-linejoin="round"/>
<path d="M139.178 34.044C139.178 34.044 136.972 39.425 137.855 42.0728C138.739 44.7206 144.205 46.6586 145.793 43.2128C147.38 39.767 143.852 34.9218 142.529 33.8616C141.207 32.8014 139.62 33.1633 139.178 34.044Z" fill="#FAB931" stroke="#2C3948" stroke-linecap="round" stroke-linejoin="round"/>
<path d="M152.047 36.3322C152.047 36.3322 148.253 39.7723 147.812 43.2124C147.37 46.6525 149.929 47.8894 152.577 47.4476C155.225 47.0059 156.544 40.3024 155.752 37.2157C154.96 34.129 152.047 36.3322 152.047 36.3322Z" fill="#FAB931" stroke="#2C3948" stroke-linecap="round" stroke-linejoin="round"/>
<path d="M152.765 55.3906C152.765 55.3906 148.529 55.5673 148.353 57.5938C148.176 59.6202 150.205 60.0648 152.234 58.3006C154.264 56.5364 154.529 55.479 152.765 55.3906Z" fill="#FAB931" stroke="#2C3948" stroke-linecap="round" stroke-linejoin="round"/>
<path d="M142.265 59.6364C142.265 59.6364 141.826 61.754 140.236 62.5492C138.646 63.3444 135.827 61.6656 137.326 59.1091C138.825 56.5525 141.473 58.5647 142.265 59.6364Z" fill="#FAB931" stroke="#2C3948" stroke-linecap="round" stroke-linejoin="round"/>
<path d="M138.559 53.0053C138.559 53.0053 137.767 51.2411 134.677 52.3869C131.588 53.5326 130.357 55.2997 132.298 55.9295C134.239 56.5594 138.559 53.0053 138.559 53.0053Z" fill="#FAB931" stroke="#2C3948" stroke-linecap="round" stroke-linejoin="round"/>
<path d="M147.381 31.8371C147.381 31.8371 147.911 33.0712 148.971 32.8062C150.031 32.5411 150.294 30.9536 151.97 31.3811C153.645 31.8086 155.056 33.761 155.056 32.8803C155.056 31.9996 152.939 29.7109 150.559 29.7109C148.179 29.7109 147.469 30.6885 147.381 31.8371Z" fill="#FAB931" stroke="#2C3948" stroke-linecap="round" stroke-linejoin="round"/>
<path d="M143.018 45.1641C143.018 45.1641 144.864 50.5793 145.261 55.1822C145.657 59.7852 145.261 67.1755 145.261 67.1755" stroke="#2C3948" stroke-linecap="round" stroke-linejoin="round"/>
<path d="M149.481 47.0078C149.481 47.0078 147.372 53.204 146.845 57.1571C146.318 61.1102 146.184 67.1753 146.184 67.1753" stroke="#2C3948" stroke-linecap="round" stroke-linejoin="round"/>
<path d="M148.423 58.0781C148.423 58.0781 147.5 58.3432 146.973 67.304" stroke="#2C3948" stroke-linecap="round" stroke-linejoin="round"/>
<path d="M142.264 59.6411C142.264 59.6411 143.15 58.8887 143.689 60.6016C144.227 62.3145 143.951 67.06 143.951 67.06" stroke="#2C3948" stroke-linecap="round" stroke-linejoin="round"/>
<path d="M144.547 58.7812C145.237 62.646 144.598 66.9183 144.598 66.9183" stroke="#2C3948" stroke-linecap="round" stroke-linejoin="round"/>
<path d="M138.559 53.009C138.559 53.009 142.355 52.2794 143.94 56.5033C144.098 56.9251 144.23 57.3563 144.336 57.7944" stroke="#2C3948" stroke-linecap="round" stroke-linejoin="round"/>
<path d="M154.412 48.9182C154.412 48.9182 155.207 47.1539 158.294 48.3025C161.381 49.4511 162.618 51.2125 160.677 51.831C158.736 52.4495 154.412 48.9182 154.412 48.9182Z" fill="#FAB931" stroke="#2C3948" stroke-linecap="round" stroke-linejoin="round"/>
<path d="M151.036 49.6953C150.103 50.3694 149.405 51.3195 149.041 52.4115C147.459 56.6296 147.639 67.044 147.639 67.044" stroke="#2C3948" stroke-linecap="round" stroke-linejoin="round"/>
<path d="M154.411 48.9224C153.519 48.7971 152.609 48.9214 151.783 49.2816" stroke="#2C3948" stroke-linecap="round" stroke-linejoin="round"/>
<path d="M141.045 46.2578C142.035 47.4548 142.793 48.8252 143.282 50.2993C145.391 56.3643 146.181 64.1423 145.788 67.0409" stroke="#2C3948" stroke-linecap="round" stroke-linejoin="round"/>
<path d="M136.883 43.5703C136.883 43.5703 138.724 43.8553 140.588 45.7592" stroke="#2C3948" stroke-linecap="round" stroke-linejoin="round"/>
<path d="M146.399 51.9453C146.271 59.5979 146.18 67.1849 146.18 67.1849" stroke="#2C3948" stroke-linecap="round" stroke-linejoin="round"/>
<path d="M147.381 31.8399C147.381 31.8399 146.974 31.4551 146.709 38.3096C146.606 40.9716 146.504 45.9251 146.424 50.9841" stroke="#2C3948" stroke-linecap="round" stroke-linejoin="round"/>
<path d="M149.979 80.6231H142.249C141.849 80.6229 141.464 80.474 141.168 80.2053C140.872 79.9366 140.686 79.5675 140.647 79.1696L139.459 66.9141H152.772L151.581 79.1696C151.542 79.5675 151.356 79.9366 151.06 80.2053C150.764 80.474 150.379 80.6229 149.979 80.6231Z" fill="white" stroke="#2C3948" stroke-linecap="round" stroke-linejoin="round"/>
<path d="M139.855 71L139.995 72.4479H152.234L152.373 71H139.855Z" fill="#2C3948" stroke="#2C3948" stroke-linecap="round" stroke-linejoin="round"/>
<path d="M151.926 75.6098L152.003 74.8203H140.227L140.304 75.6098H151.926Z" fill="#2C3948" stroke="#2C3948" stroke-linecap="round" stroke-linejoin="round"/>
<path d="M150.926 70.3356C151.508 70.3356 151.98 69.8635 151.98 69.2811C151.98 68.6987 151.508 68.2266 150.926 68.2266C150.343 68.2266 149.871 68.6987 149.871 69.2811C149.871 69.8635 150.343 70.3356 150.926 70.3356Z" fill="#2C3948" stroke="#2C3948" stroke-linecap="round" stroke-linejoin="round"/>
<path d="M141.435 70.3356C142.018 70.3356 142.49 69.8635 142.49 69.2811C142.49 68.6987 142.018 68.2266 141.435 68.2266C140.853 68.2266 140.381 68.6987 140.381 69.2811C140.381 69.8635 140.853 70.3356 141.435 70.3356Z" fill="#2C3948" stroke="#2C3948" stroke-linecap="round" stroke-linejoin="round"/>
<path d="M143.545 69.2811C143.545 69.4897 143.607 69.6936 143.723 69.867C143.839 70.0404 144.003 70.1756 144.196 70.2554C144.389 70.3352 144.601 70.3561 144.805 70.3154C145.01 70.2747 145.198 70.1743 145.345 70.0268C145.493 69.8793 145.593 69.6914 145.634 69.4868C145.674 69.2823 145.654 69.0702 145.574 68.8775C145.494 68.6849 145.359 68.5202 145.185 68.4043C145.012 68.2884 144.808 68.2266 144.599 68.2266C144.32 68.2266 144.052 68.3377 143.854 68.5354C143.656 68.7332 143.545 69.0014 143.545 69.2811Z" fill="#2C3948" stroke="#2C3948" stroke-linecap="round" stroke-linejoin="round"/>
<path d="M147.762 70.3356C148.344 70.3356 148.816 69.8635 148.816 69.2811C148.816 68.6987 148.344 68.2266 147.762 68.2266C147.179 68.2266 146.707 68.6987 146.707 69.2811C146.707 69.8635 147.179 70.3356 147.762 70.3356Z" fill="#2C3948" stroke="#2C3948" stroke-linecap="round" stroke-linejoin="round"/>
<path opacity="0.38" d="M130.891 50.9158L130.743 50.8645L130.837 49.7416C130.839 49.7056 130.828 49.6701 130.805 49.6418C130.794 49.6278 130.779 49.6163 130.763 49.6079C130.747 49.5996 130.729 49.5947 130.711 49.5934L106.859 47.5698C106.84 47.5682 106.821 47.5705 106.804 47.5763C106.786 47.5822 106.77 47.5916 106.756 47.604C106.729 47.6275 106.712 47.6599 106.708 47.6952L105.676 59.8595C104.328 58.9475 101.563 57.2944 98.9695 55.801C98.6418 55.2623 98.3824 54.8519 98.2542 54.6609C97.9997 54.3151 97.6985 54.0062 97.3592 53.7432C97.537 53.6303 97.6982 53.4931 97.838 53.3356C98.7643 52.1956 99.7248 49.9611 99.7619 49.8727L100.104 49.1602C100.366 49.2873 100.653 49.3554 100.945 49.3597C101.188 49.3674 101.427 49.2986 101.629 49.163C102.298 48.6728 104.054 45.3895 103.242 44.2266C103.175 44.1248 103.086 44.0394 102.981 43.9767C102.876 43.9141 102.759 43.8758 102.638 43.8647L103.43 42.2059C104.497 42.4294 105.576 42.594 106.662 42.699C109.72 42.9298 111.33 43.0039 112.183 43.0039C113.118 43.0039 113.135 42.9156 113.149 42.85C113.163 42.7845 113.112 42.6904 112.986 42.6505C112.368 42.4424 107.551 39.7519 106.87 39.1848C106.339 38.7005 105.846 38.1754 105.397 37.6143C105.519 36.5541 106.277 29.54 105.3 28.5082C104.254 27.4052 94.8112 23.9252 93.4431 23.7229C92.0038 23.5091 89.832 24.2929 89.0597 25.3018L89.0426 25.3332C88.4725 26.667 87.7458 28.3116 87.1016 29.748C86.2894 31.5635 85.7649 32.6694 85.5483 33.0342C85.5483 33.0342 85.5483 33.0485 85.5483 33.057C85.5341 33.0811 85.5179 33.104 85.4999 33.1254C85.0923 33.3734 77.5822 34.2427 76.8583 34.2427C76.6502 34.2427 76.6132 34.3595 76.6075 34.4108C76.5533 34.8469 79.1726 36.1209 85.021 37.7369C84.9583 38.1986 84.87 38.8513 84.7702 39.5923C83.7442 39.4014 83.0858 39.4156 82.7752 39.6351C82.7135 39.6768 82.6618 39.7317 82.6239 39.7957C82.586 39.8598 82.5627 39.9315 82.5557 40.0056C82.5397 40.454 82.6183 40.9007 82.7866 41.3167C82.7866 41.5561 82.8208 43.1749 83.3281 43.9644C83.5293 44.2537 83.7908 44.4958 84.0948 44.6741C84.0691 44.8707 84.0463 45.0532 84.0264 45.2128C83.875 46.659 83.8645 48.1166 83.995 49.5649L82.3106 49.2143C82.2909 49.2101 82.2705 49.2101 82.2507 49.2143C82.2507 49.2143 82.2507 49.2143 82.2336 49.2143C82.2251 49.2128 82.2165 49.2128 82.208 49.2143L81.7349 49.5734L78.6852 48.556C78.6612 48.5487 78.6357 48.5478 78.6113 48.5532C78.5868 48.5587 78.5642 48.5705 78.5456 48.5873L76.3453 50.7306C76.3204 50.7559 76.3053 50.7892 76.3025 50.8246L76.2712 51.6797L70.0009 53.5095C66.5979 54.3645 63.0523 55.3506 62.9241 55.8209C62.7217 56.5562 61.918 63.2768 61.8895 63.8012C61.5718 64.1854 61.232 64.5508 60.872 64.8957C59.2075 66.5858 57.8395 68.0308 57.982 68.6578C58.1729 69.4872 59.0565 72.5568 59.2018 73.0584C58.8171 73.5914 56.0809 77.4818 56.8305 78.8442C57.7369 80.4944 59.4213 83.4328 60.4872 84.5672C61.3736 85.5106 62.146 85.9324 63.0523 85.9324C63.3161 85.93 63.5788 85.8994 63.8361 85.8412C63.9843 85.807 64.56 85.7272 65.455 85.6103L59.0536 117.609C59.0492 117.629 59.0495 117.649 59.0544 117.669C59.0594 117.689 59.0688 117.708 59.082 117.724C59.0952 117.739 59.1119 117.752 59.1307 117.76C59.1495 117.768 59.1699 117.772 59.1904 117.771H105.217C105.235 117.771 105.253 117.768 105.269 117.761C105.286 117.754 105.301 117.744 105.314 117.731C105.328 117.719 105.338 117.703 105.345 117.686C105.352 117.669 105.355 117.65 105.354 117.631L104.661 89.0732C105.386 90.1461 106.231 91.1321 107.181 92.0117C109.626 94.2547 112.103 96.2527 112.126 96.2726C112.151 96.2917 112.182 96.3018 112.214 96.3011C112.232 96.3013 112.25 96.2979 112.267 96.2911C112.283 96.2842 112.298 96.2741 112.311 96.2612L112.371 96.2014C113.744 94.7788 114.892 93.1544 115.774 91.3847C115.817 91.2992 115.856 91.2137 115.896 91.1253C116.717 91.0626 117.461 90.9743 117.606 90.9543L117.906 91.0313C118.102 91.6412 118.268 92.0488 118.379 92.1029C118.705 92.2273 119.053 92.2845 119.402 92.2711C119.733 92.282 120.064 92.2318 120.377 92.1229C120.715 92.1941 121.06 92.2332 121.406 92.2397C121.679 92.2669 121.952 92.1962 122.178 92.0402C122.449 92.2566 122.774 92.3928 123.119 92.4335C123.206 92.435 123.293 92.4154 123.372 92.3765C123.603 92.2625 123.965 91.5215 124.304 90.6665C124.438 91.2878 124.689 92.3167 124.98 92.7527C125.062 92.884 125.176 92.992 125.312 93.0663C125.448 93.1407 125.6 93.179 125.755 93.1774H125.826C125.997 93.1697 126.163 93.1195 126.309 93.0314C126.455 92.9434 126.577 92.8201 126.664 92.6729C126.901 92.197 126.448 88.5517 126.322 88.298C126.197 88.0443 125.51 87.842 125.182 87.7679C125.222 86.6278 123.272 85.9324 122.987 85.8384C122.631 85.445 120.576 84.4817 120.109 84.2622C119.841 84.0114 117.968 82.4695 117.387 82.3242C116.806 82.1788 116.076 82.4439 115.543 82.9797C115.53 82.992 115.519 83.007 115.512 83.0238C115.506 83.0405 115.502 83.0585 115.503 83.0766C115.342 83.1892 115.193 83.3181 115.058 83.4613C115.016 83.5098 114.962 83.564 114.905 83.621C114.357 83.2263 113.839 82.7909 113.357 82.3185C113.106 81.9779 112.82 81.6654 112.502 81.3865C112.519 81.3209 112.547 81.2269 112.579 81.1157L127.924 82.4182C127.958 82.4183 127.991 82.4055 128.017 82.3822C128.042 82.359 128.058 82.3271 128.061 82.2928L129.711 62.8293L130.059 62.6897C130.214 62.6317 130.351 62.5308 130.452 62.3987C130.552 62.2665 130.614 62.1085 130.629 61.943L131.484 51.845C131.504 51.6459 131.457 51.4458 131.349 51.2771C131.242 51.1084 131.08 50.9811 130.891 50.9158Z" fill="black"/>
<path d="M91.2638 58.7188L96.2202 76.9168C96.2202 76.9168 97.9901 76.988 98.0614 77.4127C98.1326 77.8374 97.4258 80.2457 97.4258 80.2457C97.7644 80.5443 98.0728 80.8756 98.3464 81.2347C98.5573 81.5796 101.601 83.8596 101.601 83.8596C101.601 83.8596 102.741 84.9997 101.53 88.7448C100.319 92.4898 97.2804 95.471 97.2804 95.471C97.2804 95.471 94.7324 93.4189 92.1816 91.0819C90.6326 89.6504 89.3602 87.9461 88.428 86.0542C88.428 86.0542 87.3677 75.0072 87.439 73.5907C87.5102 72.1742 91.2638 58.7188 91.2638 58.7188Z" fill="#2C3948" stroke="#2C3948" stroke-linecap="round" stroke-linejoin="round"/>
<path d="M91.4805 82.8168C92.3897 81.5742 93.6751 79.9126 94.2394 79.6076C95.16 79.1117 96.7874 80.1035 96.7874 80.1035" stroke="#2C3948" stroke-linecap="round" stroke-linejoin="round"/>
<path d="M90.4844 84.2155C90.4844 84.2155 90.7694 83.8193 91.1627 83.2578" stroke="#2C3948" stroke-linecap="round" stroke-linejoin="round"/>
<path d="M95.0875 77.2738C95.0875 77.2738 92.4683 77.2025 91.1914 79.0437" stroke="#2C3948" stroke-linecap="round" stroke-linejoin="round"/>
<path d="M101.533 88.7424C102.741 85.0002 101.601 83.8602 101.601 83.8602L100.986 83.3984L100.82 83.5039C100.82 83.5039 97.2092 84.2136 95.9352 85.4163C94.6612 86.6191 94.1653 89.4521 94.8721 90.7973C95.5789 92.1426 97.2804 95.4715 97.2804 95.4715C97.497 95.2606 100.37 92.3621 101.533 88.7424Z" fill="#2C3948" stroke="#2C3948" stroke-linecap="round" stroke-linejoin="round"/>
<path d="M61.1696 49.4394L49.7691 52.7683L50.7609 76.4899L42.5469 117.628H90.0612L88.9981 73.7366C88.9981 73.7366 91.3352 59.1497 91.2782 58.7251C91.2212 58.3004 80.4478 52.1385 80.4478 52.1385C80.4478 52.1385 66.8299 48.1654 61.1696 49.4394Z" fill="#FF7500" stroke="#2C3948" stroke-linecap="round" stroke-linejoin="round"/>
<path d="M63.1589 117.633L46.3033 98.8281L42.5469 117.633H63.1589Z" fill="#2C3948" stroke="#2C3948" stroke-linecap="round" stroke-linejoin="round"/>
<path d="M69.6572 113.445L69.2383 117.045" stroke="#2C3948" stroke-linecap="round" stroke-linejoin="round"/>
<path d="M73.1508 83.4141L69.8789 111.533" stroke="#2C3948" stroke-linecap="round" stroke-linejoin="round"/>
<path d="M85.3143 56.314L90.9091 59.8538L90.4844 58.2264L84.8184 54.7578" stroke="#2C3948" stroke-linecap="round" stroke-linejoin="round"/>
<path d="M65.8336 47.5695L62.6073 46.4922L60.3272 48.7039L59.9082 60.244L67.2615 61.0192C67.2615 61.0192 61.1623 66.9389 62.1313 68.1445C63.1003 69.3501 68.8262 74.8993 72.7736 76.8716C76.721 78.8439 75.7036 78.4876 75.7036 78.4876L77.0887 74.7112C77.0887 74.7112 68.0595 51.6937 68.0025 51.5141C67.9455 51.3345 65.8336 47.5695 65.8336 47.5695Z" fill="#FF7500" stroke="#2C3948" stroke-linecap="round" stroke-linejoin="round"/>
<path d="M77.089 74.7114L73.5605 82.3639C73.5605 82.3639 79.0613 78.5989 83.308 73.7537C87.5546 68.9085 88.6263 66.7595 88.1532 65.6252C87.68 64.4908 82.7721 61.0792 82.7721 61.0792C82.7721 61.0792 87.1357 61.6179 87.4948 61.3785C87.8539 61.1391 83.6443 54.0252 82.755 52.7113C81.8658 51.3974 78.9273 49.9609 78.9273 49.9609C78.9273 49.9609 80.4236 65.2661 77.089 74.7114Z" fill="#FF7500" stroke="#2C3948" stroke-linecap="round" stroke-linejoin="round"/>
<path d="M89.4132 96.6388V90.8958L88.9971 73.7295C88.9971 73.7295 91.3342 59.1426 91.2772 58.718C91.2345 58.4558 87.1331 56.0189 83.9895 54.1834C82.9577 53.5821 81.2704 50.2474 80.8372 51.9461L78.0213 67.9068L73.4611 80.8577L59.829 66.3591L49.3377 83.6195L49.2266 84.1667L89.4132 96.6388Z" fill="#2C3948" stroke="#2C3948" stroke-linecap="round" stroke-linejoin="round"/>
<path d="M66.373 47.1484L69.2431 47.747L74.2052 56.5823C74.2052 56.5823 67.3307 49.5995 66.373 47.1484Z" fill="white" stroke="#2C3948" stroke-linecap="round" stroke-linejoin="round"/>
<path d="M64.4004 48.6406C64.4004 48.6406 65.8939 55.5778 69.8413 61.9735C73.7887 68.3692 77.3143 73.4538 77.3143 73.4538C77.3143 73.4538 80.8997 66.3969 81.1391 63.5268C81.3785 60.6567 81.1391 56.2333 81.1391 56.2333L64.4004 48.6406Z" fill="white" stroke="#2C3948" stroke-linecap="round" stroke-linejoin="round"/>
<path d="M73.248 60.422L76.4772 63.9476L75.1633 68.0147L77.1356 71.66L79.6466 66.8176L77.9137 63.3519L79.9458 59.9432L76.7765 57.3125L73.248 60.422Z" fill="#2C3948" stroke="#2C3948" stroke-linecap="round" stroke-linejoin="round"/>
<path d="M77.2544 58.8033L71.8734 62.2719C71.8734 62.2719 68.6442 58.0281 66.8515 54.6193C65.8254 52.7164 65.0038 50.7101 64.4004 48.6341L66.3727 47.1406C66.3727 47.1406 72.5916 55.9275 77.2544 58.8033Z" fill="white" stroke="#2C3948" stroke-linecap="round" stroke-linejoin="round"/>
<path d="M77.2559 58.8047L81.2004 62.3331C81.2004 62.3331 81.9785 58.5653 81.5595 56.4733C81.1406 54.3813 80.7245 52.6484 80.7245 52.6484C80.7245 52.6484 78.869 57.5506 77.2559 58.8047Z" fill="white" stroke="#2C3948" stroke-linecap="round" stroke-linejoin="round"/>
<path d="M71.3887 53.8466C71.3887 53.8466 74.6777 56.8364 75.7522 57.6145C76.1227 57.8795 77.2485 58.8087 77.2485 58.8087C77.2485 58.8087 78.4741 57.3836 78.742 57.016C79.4602 55.9985 80.358 54.5649 80.358 54.5649L81.7831 50.9766L71.3887 53.8466Z" fill="#2C3948" stroke="#2C3948" stroke-linecap="round" stroke-linejoin="round"/>
<path d="M64.4004 48.6406C64.4004 48.6406 69.1829 58.331 72.7113 63.1762C76.2398 68.0214 77.3741 71.1224 77.3741 71.1224C77.3741 71.1224 80.3041 65.2027 80.6632 63.4698C81.0223 61.7369 81.4982 55.4581 81.4982 55.4581C81.4982 55.4581 82.5157 60.5883 81.0793 65.861C80.2271 69.0019 78.875 71.9852 77.0749 74.6964C77.0749 74.6964 70.9756 65.1913 68.4647 60.8876C65.9537 56.5839 64.4004 48.6406 64.4004 48.6406Z" fill="#2C3948" stroke="#2C3948" stroke-linecap="round" stroke-linejoin="round"/>
<path d="M69.4419 34.4531C69.4419 34.4531 68.5869 40.5866 68.3161 42.8952C68.0454 45.2038 68.2591 48.242 68.6011 49.2538C68.9432 50.2656 70.2884 54.4895 71.4142 54.7146C72.54 54.9398 73.7228 55.1079 74.6235 54.6006C75.5241 54.0933 81.3782 52.349 82.333 51.1805C83.2878 50.0119 84.3025 47.6349 84.3025 47.6349L88.6375 38.5715L69.4419 34.4531Z" fill="white" stroke="#2C3948" stroke-linecap="round" stroke-linejoin="round"/>
<path d="M85.4824 38.5078C85.4824 38.5078 83.7951 40.2521 84.3566 40.5314C84.9181 40.8107 85.3143 41.0387 85.3143 41.0387C85.3143 41.0387 84.4592 42.4467 84.6958 42.6718C84.9323 42.897 86.8904 42.2215 86.8904 42.2215L88.4095 38.9553L85.4824 38.5078Z" fill="#2C3948" stroke="#2C3948" stroke-linecap="round" stroke-linejoin="round"/>
<path d="M73.3533 38.832C72.2193 38.2242 71.0204 37.7462 69.7793 37.4069C68.0493 36.988 66.8579 36.931 66.7981 37.5266C66.7859 37.9755 66.8674 38.4221 67.0375 38.8377C67.0375 38.8377 67.0375 40.6846 67.5733 41.5197C68.1091 42.3547 69.5997 42.8906 70.7911 42.9447C71.9824 42.9989 72.638 42.6455 72.9971 42.0498C73.2422 41.6394 73.5671 40.391 73.7552 39.6443C73.794 39.4833 73.775 39.3137 73.7016 39.1653C73.6281 39.0168 73.5049 38.8989 73.3533 38.832Z" fill="#2C3948" stroke="#2C3948" stroke-linecap="round" stroke-linejoin="round"/>
<path d="M76.0272 39.6075C77.4301 39.5721 78.8326 39.6945 80.2083 39.9723C82.0951 40.4141 83.2836 40.9414 83.0584 41.5484C82.8504 41.9916 82.5524 42.3867 82.1834 42.7084C82.1834 42.7084 81.2771 44.5069 80.3479 45.0541C79.4188 45.6013 77.703 45.3961 76.5145 44.8688C75.326 44.3416 74.8615 43.6718 74.8045 42.9165C74.7646 42.3978 75.0581 41.0212 75.2462 40.206C75.2868 40.0303 75.3877 39.8744 75.5315 39.7655C75.6753 39.6567 75.8527 39.6017 76.0329 39.6104L76.0272 39.6075Z" fill="#2C3948" stroke="#2C3948" stroke-linecap="round" stroke-linejoin="round"/>
<path d="M73.3535 38.8281L76.0269 39.6034L75.2403 40.199C75.2403 40.199 74.1857 39.7288 73.7582 39.8399C73.7582 39.8399 73.8722 39.0533 73.3535 38.8281Z" fill="#2C3948" stroke="#2C3948" stroke-linecap="round" stroke-linejoin="round"/>
<path d="M82.8759 41.1328L87.1112 41.7883L86.8917 42.2216L82.3828 42.4467C82.3828 42.4467 83.2464 41.7883 82.8759 41.1328Z" fill="#2C3948" stroke="#2C3948" stroke-linecap="round" stroke-linejoin="round"/>
<path d="M85.2577 43.0072C85.2577 43.0072 87.116 40.8127 87.9026 41.9385C88.6892 43.0642 86.8908 46.3846 86.2723 46.835C85.6539 47.2853 84.4141 46.778 84.4141 46.3846" fill="white"/>
<path d="M85.2577 43.0072C85.2577 43.0072 87.116 40.8127 87.9026 41.9385C88.6892 43.0642 86.8908 46.3846 86.2723 46.835C85.6539 47.2853 84.4141 46.778 84.4141 46.3846" stroke="#2C3948" stroke-linecap="round" stroke-linejoin="round"/>
<path d="M76.4199 38.9928C76.4199 38.9928 79.709 38.2118 81.9292 39.6511" stroke="#2C3948" stroke-linecap="round" stroke-linejoin="round"/>
<path d="M71.0332 36.8125C71.5467 36.8295 72.0489 36.9675 72.4991 37.2151C72.9492 37.4627 73.3346 37.813 73.624 38.2376" stroke="#2C3948" stroke-linecap="round" stroke-linejoin="round"/>
<path d="M73.1702 41.625C73.1702 41.625 71.0327 45.8175 70.95 46.2279C70.8674 46.6384 72.6772 47.0516 73.5151 47.083C74.353 47.1143 74.3701 46.7153 74.3701 46.7153" stroke="#2C3948" stroke-linecap="round" stroke-linejoin="round"/>
<path d="M71.5254 49.3125L73.0074 49.7258" stroke="#2C3948" stroke-linecap="round" stroke-linejoin="round"/>
<path d="M73.4964 22.4101C73.4964 22.4101 70.119 30.2336 69.7912 30.5129C69.4635 30.7922 61.5259 31.6957 60.7877 31.6957C60.0495 31.6957 62.589 33.383 72.2138 35.8056C81.8387 38.2282 88.5906 39.9126 91.5747 40.1378C94.5588 40.3629 98.7228 40.5881 98.0473 40.3629C97.3718 40.1378 92.3613 37.3247 91.6858 36.7604C91.1174 36.2398 90.5905 35.6756 90.1097 35.0731C90.1097 35.0731 91.0674 26.8078 90.0556 25.7304C89.0438 24.6531 79.4161 21.0591 77.897 20.8339C76.3778 20.6088 74.2403 21.4439 73.4964 22.4101Z" fill="#FF7500" stroke="#2C3948" stroke-linecap="round" stroke-linejoin="round"/>
<path d="M83.2773 28.5703C83.7135 28.7317 84.1746 28.8157 84.6397 28.8183" stroke="#2C3948" stroke-linecap="round" stroke-linejoin="round"/>
<path d="M86.7237 26.6276C86.7237 26.6276 78.561 22.2955 78.675 24.262C78.752 25.6358 80.6102 27.3402 82.4343 28.2237" stroke="#2C3948" stroke-linecap="round" stroke-linejoin="round"/>
<path d="M71.4882 26.9766C70.8013 28.5042 70.1401 29.9378 69.875 30.3825C70.9523 31.0066 72.7878 31.856 75.9144 32.882C82.9485 35.1878 90.0966 35.0766 90.0966 35.0766C90.0966 35.0766 90.2705 33.586 90.3816 31.7904L81.9852 30.2371C78.3681 29.575 74.8438 28.4803 71.4882 26.9766Z" fill="#2C3948" stroke="#2C3948" stroke-linecap="round" stroke-linejoin="round"/>
<path d="M73.4103 28.2734L72.8203 29.727" stroke="white" stroke-linecap="round" stroke-linejoin="round"/>
<path d="M75.542 23.0156L73.4102 28.2741" stroke="#2C3948" stroke-linecap="round" stroke-linejoin="round"/>
<path d="M76.0829 21.6797L75.6953 22.6373" stroke="#2C3948" stroke-linecap="round" stroke-linejoin="round"/>
<path d="M113.52 81.1252L88.8945 79.0389L91.7446 45.4531L116.37 47.5423L116.261 48.8106L116.518 48.8989C116.681 48.9553 116.821 49.0642 116.915 49.2087C117.01 49.3532 117.053 49.5249 117.039 49.697L116.156 60.1198C116.143 60.2627 116.091 60.3993 116.006 60.5145C115.92 60.6297 115.804 60.719 115.671 60.7725L115.232 60.9464L113.52 81.1252Z" fill="white" stroke="#2C3948" stroke-linecap="round" stroke-linejoin="round"/>
<path d="M82.0572 72.3849C82.0572 72.3849 87.3698 64.8092 87.6519 64.6667C87.9341 64.5242 93.2467 63.7462 93.6001 63.6749C93.9536 63.6036 97.8497 64.8149 97.8497 64.8149C97.8497 64.8149 98.2031 65.385 97.7072 65.7355L97.2112 66.089C97.3784 66.4737 97.4971 66.8777 97.5647 67.2917C97.5647 67.6451 97.14 68.1467 97.14 68.1467C97.14 68.1467 97.425 69.0018 97.0687 69.3523C96.7125 69.7029 93.8139 70.3413 93.6001 70.4126C93.3864 70.4838 91.6051 72.0429 91.6051 72.0429C91.6051 72.0429 94.2272 71.6866 95.0765 71.5469C95.9258 71.4073 96.5643 71.6866 96.3505 72.325C96.1367 72.9634 95.3587 73.18 94.7231 73.3169C94.0875 73.4537 90.3311 74.5196 90.3311 74.5196C90.3311 74.5196 87.3584 76.9992 85.8706 77.4239C84.3829 77.8485 81.6211 78.3445 81.6211 78.3445L82.0572 72.3849Z" fill="#A1A1A1" stroke="#2C3948" stroke-linecap="round" stroke-linejoin="round"/>
<path d="M97.2112 66.0887L93.318 65.6641L89.2109 66.5846" stroke="#2C3948" stroke-linecap="round" stroke-linejoin="round"/>
<path d="M97.1401 68.1337L93.8141 67.8516L89.707 69.6215" stroke="#2C3948" stroke-linecap="round" stroke-linejoin="round"/>
<path d="M79.4382 71.25L82.6959 71.4638L82.2 79.5353L78.6602 79.6065L79.4382 71.25Z" fill="#A1A1A1" stroke="#2C3948" stroke-linecap="round" stroke-linejoin="round"/>
<path d="M59.3276 50.2891C59.3276 50.2891 46.7244 53.1221 46.5021 53.903C46.2798 54.6839 45.4532 61.832 45.4532 62.1142C45.4532 62.3964 41.2037 66.1528 41.4175 67.0734C41.6312 67.994 42.6915 71.6735 42.6915 71.6735C42.6915 71.6735 39.4338 76.1368 40.2119 77.5533C40.99 78.9698 42.834 82.2246 43.9655 83.4302C45.097 84.6358 46.0233 84.9978 47.2916 84.7128C48.5599 84.4278 79.2984 80.8167 79.2984 80.8167L80.219 71.1263L59.2592 69.4162C59.2592 69.4162 59.8293 65.5942 59.8948 64.7449C59.9604 63.8955 58.6921 61.9831 57.418 60.2132" fill="#FF7500"/>
<path d="M59.3276 50.2891C59.3276 50.2891 46.7244 53.1221 46.5021 53.903C46.2798 54.6839 45.4532 61.832 45.4532 62.1142C45.4532 62.3964 41.2037 66.1528 41.4175 67.0734C41.6312 67.994 42.6915 71.6735 42.6915 71.6735C42.6915 71.6735 39.4338 76.1368 40.2119 77.5533C40.99 78.9698 42.834 82.2246 43.9655 83.4302C45.097 84.6358 46.0233 84.9978 47.2916 84.7128C48.5599 84.4278 79.2984 80.8167 79.2984 80.8167L80.219 71.1263L59.2592 69.4162C59.2592 69.4162 59.8292 65.5942 59.8948 64.7449C59.9604 63.8955 58.6921 61.9831 57.418 60.2132" stroke="#2C3948" stroke-linecap="round" stroke-linejoin="round"/>
<path d="M44.4672 72.4609C43.823 72.9854 43.3585 73.43 43.2559 73.6608" stroke="#2C3948" stroke-linecap="round" stroke-linejoin="round"/>
<path d="M58.1957 69.2723C58.1957 69.2723 51.4694 69.0585 49.7679 69.3435C48.8673 69.4917 47.2028 70.4836 45.7578 71.4897" stroke="#2C3948" stroke-linecap="round" stroke-linejoin="round"/>
<path d="M48.9901 68.4873C48.9901 68.4873 44.4584 69.0574 44.6009 68.2764C44.7435 67.4955 47.5024 67.2133 49.8395 67.3558C51.3219 67.4702 52.7665 67.8791 54.089 68.5586" stroke="#2C3948" stroke-linecap="round" stroke-linejoin="round"/>
<path d="M55.8882 61.5549C54.808 60.5089 53.42 59.2891 52.8157 59.2891C51.7526 59.2891 47.8594 60.7141 47.8594 60.7141" stroke="#2C3948" stroke-linecap="round" stroke-linejoin="round"/>
<path d="M57.3465 63.038C57.3465 63.038 56.956 62.6162 56.3945 62.0547" stroke="#2C3948" stroke-linecap="round" stroke-linejoin="round"/>
<path d="M58.0625 53.7558L59.0458 53.2656" stroke="#2C3948" stroke-linecap="round" stroke-linejoin="round"/>
<path d="M56.7088 51.1484C56.7088 51.1484 49.1332 53.8389 49.4866 54.2636C49.84 54.6883 51.8237 56.5437 52.3196 56.4582C52.6303 56.4126 55.1868 55.1757 57.0565 54.2551" stroke="#2C3948" stroke-linecap="round" stroke-linejoin="round"/>
<path d="M53.097 54.615C53.097 54.9656 52.6866 55.2534 52.1764 55.2534C51.6663 55.2534 51.2559 54.9684 51.2559 54.615C51.2559 54.2616 51.6691 53.9766 52.1764 53.9766C52.6838 53.9766 53.097 54.2616 53.097 54.615Z" stroke="#2C3948" stroke-linecap="round" stroke-linejoin="round"/>
<path d="M95.0879 86.7577C95.0879 86.7577 99.3346 83.5 100.326 82.4398C101.318 81.3795 102.521 81.5848 102.949 81.8698C103.376 82.1548 108.469 87.2508 108.894 87.6755C109.319 88.1001 108.609 89.8017 108.609 89.8017C108.609 89.8017 106.329 90.3717 105.351 90.3717C104.513 90.3208 103.682 90.1784 102.874 89.947C102.874 89.947 99.5455 90.3717 98.6961 90.0895C97.8468 89.8073 95.0879 86.7577 95.0879 86.7577Z" fill="#A1A1A1" stroke="#2C3948" stroke-linecap="round" stroke-linejoin="round"/>
<path d="M97.0011 86.5488C97.0011 86.5488 100.752 89.5214 100.683 89.8064C100.615 90.0915 98.9734 91.2914 98.4176 91.2914C97.8619 91.2914 94.5928 88.1762 94.3106 87.6803C94.0285 87.1843 95.8668 86.4775 96.0805 86.4062" fill="#A1A1A1"/>
<path d="M97.0011 86.5488C97.0011 86.5488 100.752 89.5214 100.683 89.8064C100.615 90.0915 98.9734 91.2914 98.4176 91.2914C97.8619 91.2914 94.5928 88.1762 94.3106 87.6803C94.0285 87.1843 95.8668 86.4775 96.0805 86.4062" stroke="#2C3948" stroke-linecap="round" stroke-linejoin="round"/>
<path d="M101.531 83.1512C101.531 83.1512 103.301 90.9406 103.726 91.1543C104.374 91.3683 105.073 91.3683 105.721 91.1543C106.149 90.9406 105.581 83.5046 105.368 83.2937C105.154 83.0828 103.173 81.4525 102.606 81.2986C102.039 81.1447 101.332 81.4411 100.836 81.937" fill="#A1A1A1"/>
<path d="M101.531 83.1512C101.531 83.1512 103.301 90.9406 103.726 91.1543C104.374 91.3683 105.073 91.3683 105.721 91.1543C106.149 90.9406 105.581 83.5046 105.368 83.2937C105.154 83.0828 103.173 81.4525 102.606 81.2986C102.039 81.1447 101.332 81.4411 100.836 81.937" stroke="#2C3948" stroke-linecap="round" stroke-linejoin="round"/>
<path d="M105.354 83.2891C105.354 83.2891 108.115 84.5631 108.329 84.9165C108.543 85.2699 107.691 90.5113 107.548 91.0072C107.406 91.5031 105.707 91.1497 105.707 91.1497L105.354 83.2891Z" fill="#A1A1A1" stroke="#2C3948" stroke-linecap="round" stroke-linejoin="round"/>
<path d="M108.33 84.9219C108.33 84.9219 110.735 85.7028 110.524 86.917C110.313 88.1311 109.179 91.2349 108.754 91.4486C108.33 91.6624 107.549 91.024 107.549 91.024L108.33 84.9219Z" fill="#A1A1A1" stroke="#2C3948" stroke-linecap="round" stroke-linejoin="round"/>
<path d="M110.524 86.9062C110.524 86.9062 111.587 87.12 111.727 87.4022C111.867 87.6843 112.297 91.3667 112.08 91.7913C111.864 92.216 111.02 92.501 110.595 91.8626C110.171 91.2242 109.814 89.2433 109.814 89.2433L110.524 86.9062Z" fill="#A1A1A1" stroke="#2C3948" stroke-linecap="round" stroke-linejoin="round"/>
<path d="M94.7879 58.2406L94.3176 55.0741L93.7163 55.1625L93.6621 54.7948L95.3408 54.5469L95.395 54.9145L94.825 55L95.2952 58.1808L94.7879 58.2406Z" fill="#FF7500"/>
<path d="M97.1223 57.9226C96.9226 57.9614 96.716 57.9427 96.5266 57.8684C96.368 57.7936 96.2387 57.6683 96.159 57.5122C96.0668 57.3236 96.0052 57.1216 95.9766 56.9137L95.7771 55.5684C95.741 55.3648 95.741 55.1564 95.7771 54.9528C95.8105 54.7846 95.8987 54.6323 96.0279 54.5196C96.1884 54.3972 96.3799 54.3222 96.5808 54.3029C96.7782 54.2617 96.9834 54.2795 97.1708 54.3542C97.3255 54.4242 97.4528 54.5435 97.5327 54.6934C97.6271 54.8771 97.6888 55.0757 97.7151 55.2805L97.9146 56.6315C97.9506 56.8361 97.9506 57.0454 97.9146 57.25C97.8835 57.4209 97.7975 57.577 97.6695 57.6946C97.5147 57.8248 97.3237 57.9043 97.1223 57.9226ZM97.0625 57.5321C97.1688 57.5235 97.2692 57.4793 97.3475 57.4067C97.4074 57.3372 97.4434 57.2503 97.4501 57.1588C97.4579 57.0426 97.4522 56.9259 97.433 56.8111L97.2021 55.2549C97.1862 55.1399 97.1575 55.0271 97.1166 54.9186C97.0858 54.8351 97.0262 54.7653 96.9485 54.7219C96.8526 54.6763 96.7442 54.6643 96.6406 54.6877C96.5352 54.698 96.4356 54.7408 96.3556 54.8103C96.2938 54.8754 96.2565 54.9601 96.2502 55.0497C96.2424 55.1649 96.2481 55.2806 96.2673 55.3945L96.4953 56.9507C96.5107 57.066 96.5403 57.179 96.5836 57.287C96.6135 57.3748 96.6743 57.4488 96.7546 57.4951C96.8486 57.5462 96.9573 57.5633 97.0625 57.5435V57.5321Z" fill="#FF7500"/>
<path d="M98.5713 57.685L98.0469 54.1338L98.9276 54.0026C99.1037 53.9686 99.2858 53.9823 99.4548 54.0426C99.5915 54.1005 99.7063 54.2003 99.7826 54.3276C99.871 54.487 99.9271 54.6623 99.9479 54.8434C99.9775 55.0104 99.9688 55.182 99.9222 55.3451C99.8795 55.4879 99.7939 55.6143 99.6771 55.707C99.5408 55.8072 99.3807 55.8701 99.2126 55.8894L98.8221 55.9464L99.0672 57.5995L98.5713 57.685ZM98.7708 55.6044L98.9988 55.5702C99.1132 55.5571 99.2243 55.5233 99.3266 55.4705C99.3638 55.4504 99.3965 55.4228 99.4225 55.3894C99.4485 55.3561 99.4673 55.3177 99.4776 55.2767C99.5014 55.162 99.5014 55.0436 99.4776 54.9289C99.4613 54.7975 99.4297 54.6684 99.3836 54.5442C99.3672 54.5044 99.342 54.4689 99.3099 54.4403C99.2778 54.4117 99.2397 54.3907 99.1983 54.3789C99.0741 54.3542 98.9463 54.3542 98.8221 54.3789L98.5912 54.4131L98.7708 55.6044Z" fill="#FF7500"/>
<path d="M102.522 57.1424C102.343 57.1749 102.159 57.1551 101.992 57.0854C101.842 57.0171 101.716 56.906 101.63 56.7662C101.529 56.6081 101.461 56.4319 101.427 56.2475L101.846 56.0622C101.874 56.1841 101.912 56.3034 101.96 56.4185C102.002 56.5215 102.069 56.6126 102.154 56.6835C102.199 56.7156 102.249 56.7383 102.302 56.75C102.356 56.7618 102.411 56.7624 102.465 56.7519C102.52 56.7491 102.575 56.7341 102.624 56.708C102.673 56.6819 102.716 56.6453 102.75 56.6009C102.809 56.5037 102.829 56.3872 102.804 56.276C102.79 56.1373 102.731 56.0071 102.636 55.9054C102.539 55.8096 102.432 55.7246 102.317 55.6518L101.644 55.2129C101.522 55.1409 101.417 55.0437 101.336 54.9279C101.255 54.7943 101.203 54.6445 101.185 54.4889C101.162 54.3795 101.162 54.2665 101.185 54.1571C101.208 54.0477 101.254 53.9442 101.319 53.8534C101.462 53.681 101.667 53.5715 101.889 53.5484C102.013 53.5255 102.141 53.5255 102.265 53.5484C102.369 53.5669 102.467 53.6109 102.55 53.6767C102.638 53.7489 102.711 53.8381 102.764 53.9389C102.83 54.0629 102.879 54.1952 102.909 54.3322L102.505 54.506C102.481 54.3988 102.448 54.2938 102.405 54.1925C102.369 54.1051 102.309 54.0298 102.231 53.9759C102.145 53.9269 102.044 53.9098 101.946 53.9275C101.894 53.9322 101.843 53.9473 101.797 53.9717C101.75 53.9962 101.709 54.0296 101.675 54.07C101.644 54.1142 101.623 54.1645 101.613 54.2175C101.602 54.2705 101.603 54.3251 101.616 54.3778C101.624 54.47 101.657 54.5584 101.71 54.6343C101.767 54.7097 101.838 54.7743 101.918 54.8253L102.596 55.2613C102.752 55.3621 102.894 55.485 103.015 55.6261C103.148 55.7888 103.23 55.9871 103.251 56.1962C103.281 56.3527 103.267 56.5143 103.212 56.6636C103.159 56.798 103.069 56.9147 102.952 56.9999C102.822 57.0812 102.675 57.13 102.522 57.1424Z" fill="#FF7500"/>
<path d="M103.752 56.9127L103.225 53.3615L104.601 53.1562L104.655 53.5268L103.775 53.655L103.949 54.8321L104.664 54.7238L104.715 55.0744L104 55.1827L104.194 56.4823L105.083 56.3512L105.137 56.7075L103.752 56.9127Z" fill="#FF7500"/>
<path d="M106.445 56.5593C106.24 56.6016 106.026 56.5767 105.836 56.488C105.68 56.401 105.557 56.266 105.485 56.1032C105.4 55.9226 105.343 55.7305 105.314 55.5332L105.129 54.2792C105.098 54.0675 105.098 53.8524 105.129 53.6407C105.15 53.4662 105.23 53.3041 105.357 53.1819C105.518 53.0473 105.717 52.9656 105.927 52.9482C106.109 52.9127 106.297 52.9285 106.471 52.9938C106.613 53.0564 106.731 53.1647 106.805 53.3016C106.891 53.4689 106.947 53.6504 106.97 53.8374L107.013 54.1224L106.542 54.1908L106.505 53.94C106.49 53.8234 106.466 53.7081 106.434 53.5951C106.415 53.507 106.364 53.4289 106.292 53.3757C106.198 53.3249 106.089 53.3116 105.987 53.3386C105.934 53.3376 105.882 53.3477 105.834 53.3682C105.785 53.3887 105.742 53.4192 105.706 53.4576C105.67 53.4961 105.643 53.5417 105.626 53.5914C105.609 53.6411 105.603 53.6939 105.608 53.7462C105.606 53.8759 105.614 54.0055 105.633 54.1338L105.844 55.5389C105.86 55.6818 105.895 55.8219 105.95 55.955C105.981 56.0414 106.044 56.1127 106.126 56.1545C106.217 56.1909 106.316 56.1998 106.411 56.1802C106.465 56.1792 106.518 56.1671 106.568 56.1445C106.617 56.122 106.66 56.0895 106.696 56.0491C106.749 55.971 106.774 55.8778 106.768 55.784C106.766 55.6599 106.755 55.5361 106.736 55.4135L106.696 55.1513L107.167 55.08L107.204 55.3451C107.234 55.5339 107.234 55.7263 107.204 55.9151C107.182 56.0776 107.107 56.2282 106.99 56.3426C106.836 56.471 106.645 56.5469 106.445 56.5593Z" fill="#FF7500"/>
<path d="M107.79 56.3179L107.266 52.7666L107.981 52.6612C108.18 52.6234 108.384 52.6234 108.582 52.6612C108.738 52.6953 108.875 52.7843 108.97 52.912C109.076 53.0698 109.142 53.2506 109.164 53.4393C109.179 53.5661 109.179 53.6943 109.164 53.8212C109.154 53.929 109.12 54.0332 109.064 54.1261C109.01 54.2163 108.931 54.2886 108.836 54.3342L109.603 56.0443L109.124 56.1155L108.414 54.5195L108.029 54.5765L108.275 56.2409L107.79 56.3179ZM107.987 54.223L108.175 54.1946C108.292 54.1828 108.405 54.1479 108.508 54.0919C108.589 54.0468 108.649 53.9723 108.676 53.8839C108.703 53.7638 108.703 53.6392 108.676 53.5191C108.667 53.3595 108.603 53.208 108.497 53.0887C108.428 53.0433 108.35 53.0133 108.268 53.001C108.186 52.9887 108.103 52.9943 108.024 53.0175L107.804 53.0488L107.987 54.223Z" fill="#FF7500"/>
<path d="M110.065 55.9802L109.541 52.4289L110.918 52.2266L110.972 52.5942L110.091 52.7225L110.265 53.8996L110.98 53.7913L111.032 54.1418L110.316 54.2501L110.51 55.5498L111.399 55.4187L111.451 55.775L110.065 55.9802Z" fill="#FF7500"/>
<path d="M112.239 55.6562L111.769 52.4726L111.167 52.5609L111.113 52.1933L112.792 51.9453L112.846 52.313L112.276 52.4013L112.746 55.5821L112.239 55.6562Z" fill="#FF7500"/>
<path d="M94.3009 59.4938C93.9806 59.4933 93.6711 59.378 93.4284 59.1689C93.1858 58.9597 93.0262 58.6706 92.9785 58.3538L92.4655 54.6486C92.4175 54.2977 92.5105 53.942 92.7242 53.6594C92.9379 53.3769 93.2547 53.1904 93.6055 53.1409L105.305 51.5078L105.348 51.8071L93.6454 53.4345C93.5108 53.4534 93.3813 53.4986 93.2642 53.5675C93.1471 53.6365 93.0448 53.7278 92.963 53.8364C92.8812 53.9449 92.8216 54.0684 92.7876 54.2C92.7536 54.3315 92.7458 54.4685 92.7647 54.603L93.2777 58.3082C93.3159 58.5801 93.4604 58.8259 93.6794 58.9915C93.8985 59.1571 94.1742 59.2291 94.4463 59.1917L96.9088 58.8497L96.9487 59.1347L94.4862 59.4767C94.4249 59.4866 94.363 59.4923 94.3009 59.4938Z" fill="#FF7500"/>
<path d="M98.5145 58.9208L98.4746 58.6215L113.153 56.5809C113.287 56.5623 113.417 56.5174 113.534 56.4488C113.651 56.3801 113.753 56.289 113.835 56.1807C113.917 56.0725 113.976 55.9491 114.01 55.8177C114.044 55.6863 114.052 55.5495 114.033 55.4152L113.52 51.71C113.501 51.5754 113.456 51.4459 113.387 51.3288C113.318 51.2118 113.227 51.1094 113.119 51.0276C113.01 50.9458 112.886 50.8862 112.755 50.8522C112.623 50.8182 112.486 50.8104 112.352 50.8293L106.409 51.6559L106.367 51.3708L112.312 50.5443C112.486 50.5198 112.663 50.5299 112.833 50.5739C113.003 50.618 113.162 50.6952 113.303 50.8012C113.443 50.9071 113.56 51.0396 113.649 51.1912C113.738 51.3428 113.796 51.5103 113.82 51.6844L114.333 55.3895C114.381 55.7406 114.289 56.0967 114.075 56.3794C113.861 56.6622 113.544 56.8484 113.193 56.8972L98.5145 58.9208Z" fill="#FF7500"/>
<path d="M93.1214 83.1484H80.1562V115.138H93.1214V83.1484Z" fill="#4F4F4F" stroke="#2C3948" stroke-linecap="round" stroke-linejoin="round"/>
<path d="M122.383 91.2031H81.9766V114.654H122.383V91.2031Z" fill="white" stroke="#2C3948" stroke-linecap="round" stroke-linejoin="round"/>
<path d="M80.6663 83.1484H77.5996V115.138H80.6663V83.1484Z" fill="white" stroke="#2C3948" stroke-linecap="round" stroke-linejoin="round"/>
<path d="M157.241 80.7188H115.883V117.633H157.241V80.7188Z" fill="white" stroke="#2C3948" stroke-linecap="round" stroke-linejoin="round"/>
<path d="M167.238 80.7188H154.758V117.633H167.238V80.7188Z" fill="#2C3948" stroke="#2C3948" stroke-linecap="round" stroke-linejoin="round"/>
<path d="M24.8543 64.9136L21.5111 63.8591H21.494C21.3988 63.8133 21.2968 63.7835 21.1919 63.7707C21.0049 63.7112 20.8055 63.7026 20.6141 63.7459C20.4227 63.7892 20.2463 63.8827 20.1031 64.0169C19.9599 64.1511 19.8551 64.321 19.7995 64.5092C19.7439 64.6974 19.7395 64.897 19.7868 65.0875L5.55046 93.62C5.15802 93.4831 4.74079 93.4318 4.32687 93.4696C3.91294 93.5074 3.51192 93.6334 3.15079 93.8392C2.78966 94.045 2.47682 94.3258 2.23331 94.6627C1.9898 94.9995 1.82128 95.3846 1.7391 95.7921C1.65691 96.1995 1.66296 96.6199 1.75684 97.0248C1.85073 97.4297 2.03026 97.8098 2.28337 98.1395C2.53648 98.4692 2.85728 98.7408 3.22418 98.9361C3.59108 99.1315 3.99557 99.2459 4.41041 99.2718L14.4029 116.566H16.683L6.35134 98.6818C6.91921 98.2567 7.31127 97.6379 7.45312 96.9428C7.59497 96.2477 7.47674 95.5248 7.12087 94.9111L21.4342 66.162L24.1902 67.017C24.4703 67.1051 24.7739 67.0783 25.0342 66.9425C25.2945 66.8067 25.4902 66.5731 25.5782 66.2931C25.6663 66.013 25.6395 65.7095 25.5037 65.4491C25.368 65.1888 25.1344 64.9931 24.8543 64.9051V64.9136Z" fill="#2C3948"/>
<path d="M33.2597 115.281H4.1543V117.687H33.2597V115.281Z" fill="#2C3948" stroke="#2C3948" stroke-linecap="round" stroke-linejoin="round"/>
<path d="M23.6818 61.4709L22.457 69.1172L30.1033 70.3419L31.3281 62.6956L23.6818 61.4709Z" fill="#2C3948" stroke="#2C3948" stroke-linecap="round" stroke-linejoin="round"/>
<path d="M38.8222 59.9766L36.3711 75.2646L29.3398 70.217L30.5654 62.573L38.8222 59.9766Z" fill="#2C3948" stroke="#2C3948" stroke-linecap="round" stroke-linejoin="round"/>
<path d="M1.37891 117.633H173.899" stroke="#2C3948" stroke-linecap="round" stroke-linejoin="round"/>
<path d="M15.1016 117.633H19.5392" stroke="#2C3948" stroke-linecap="round" stroke-linejoin="round"/>
</svg>
