<svg width="139" height="130" viewBox="0 0 139 130" fill="none" xmlns="http://www.w3.org/2000/svg">
<path d="M138.385 127.94C138.385 129.075 107.486 129.998 69.381 129.998C31.2763 129.998 0.373047 129.075 0.373047 127.94C0.373047 126.806 31.2727 125.883 69.381 125.883C107.489 125.883 138.385 126.806 138.385 127.94Z" fill="#111111"/>
<path opacity="0.3" d="M138.385 127.94C138.385 129.075 107.486 129.998 69.381 129.998C31.2763 129.998 0.373047 129.075 0.373047 127.94C0.373047 126.806 31.2727 125.883 69.381 125.883C107.489 125.883 138.385 126.806 138.385 127.94Z" fill="white"/>
<path d="M125.175 88.3303C125.175 88.3485 126.109 87.367 126.16 87.2979C126.753 86.5055 127.432 84.6224 126.789 83.7172C126.678 83.5703 126.537 83.4483 126.376 83.3592C126.215 83.2701 126.037 83.2159 125.854 83.2001C125.67 83.1844 125.486 83.2074 125.312 83.2676C125.138 83.3279 124.978 83.4241 124.844 83.55C124.255 84.0662 124.117 85.0223 124.168 85.7602C124.23 86.6254 125.175 88.3267 125.175 88.3303Z" fill="#BDBDBD"/>
<path d="M133.668 84.9491C132.759 84.3129 130.884 85.0073 130.095 85.6035C130.026 85.658 129.051 86.5886 129.07 86.5959H129.091C128.793 86.7049 128.477 86.8213 128.132 86.9594C127.499 87.2139 126.787 87.512 126.031 87.8828C125.214 88.2797 124.421 88.7214 123.653 89.206C122.793 89.746 121.983 90.3616 121.232 91.0454C121.223 91.053 121.214 91.0615 121.207 91.0709C121.366 90.791 121.792 89.9803 121.817 89.9221C122.181 88.9988 122.337 87.0139 121.479 86.3051C121.332 86.1931 121.164 86.1133 120.984 86.0708C120.805 86.0283 120.618 86.0241 120.437 86.0583C120.255 86.0926 120.083 86.1647 119.931 86.2698C119.78 86.3749 119.652 86.5108 119.556 86.6686C119.127 87.3229 119.243 88.279 119.491 88.977C119.767 89.7658 121.021 91.0672 121.123 91.1581C120.374 91.8723 119.675 92.6362 119.029 93.4447C118.665 93.9136 118.284 94.3971 117.938 94.8988C118.069 94.6516 118.186 94.4262 118.197 94.3935C118.56 93.4738 118.716 91.4853 117.858 90.7764C117.712 90.6645 117.544 90.5848 117.364 90.5423C117.185 90.4998 116.999 90.4956 116.818 90.5299C116.637 90.5642 116.465 90.6362 116.313 90.7414C116.162 90.8465 116.034 90.9823 115.939 91.1399C115.506 91.7907 115.626 92.7504 115.87 93.4447C116.114 94.139 117.168 95.2878 117.448 95.5822L117.022 96.1421C116.368 97.0545 115.721 97.9597 115.056 98.8394C114.823 99.1484 114.583 99.4465 114.329 99.7409C114.445 99.5192 114.543 99.3338 114.554 99.3047C114.918 98.3814 115.074 96.3965 114.216 95.6695C114.069 95.557 113.901 95.4767 113.721 95.4339C113.541 95.391 113.355 95.3866 113.173 95.421C112.992 95.4553 112.819 95.5275 112.668 95.633C112.516 95.7385 112.388 95.8748 112.293 96.033C111.86 96.6873 111.98 97.6434 112.227 98.3414C112.475 99.0393 113.42 100.072 113.751 100.424C113.496 100.722 113.242 101.017 112.98 101.293C112.798 101.479 112.638 101.657 112.442 101.842L111.886 102.366C111.522 102.686 111.159 103.02 110.777 103.325C110.523 103.54 110.279 103.736 110.05 103.936C110.283 103.634 110.733 103.027 110.777 102.973C111.187 102.204 111.392 101.343 111.373 100.472C111.422 100.388 111.463 100.3 111.497 100.21C111.565 100.038 111.596 99.8547 111.588 99.6704C111.581 99.4862 111.534 99.3056 111.452 99.1404C111.37 98.9752 111.255 98.8291 111.113 98.7114C110.971 98.5938 110.806 98.5074 110.628 98.4577C109.537 98.1923 108.047 99.5119 107.527 100.355C107.498 100.406 107.222 100.981 107.058 101.348C107.12 101.119 107.189 100.893 107.251 100.657C107.382 100.188 107.498 99.7155 107.614 99.2029C107.665 98.9557 107.72 98.7049 107.774 98.4541C107.829 98.2032 107.862 97.9342 107.909 97.6725C108 97.0618 108.065 96.4401 108.12 95.8112C108.53 95.9239 109.995 96.3056 110.73 96.1748C111.464 96.0439 112.362 95.7167 112.733 95.0297C112.827 94.8709 112.886 94.6941 112.907 94.5109C112.928 94.3276 112.909 94.142 112.853 93.9663C112.798 93.7906 112.705 93.6286 112.582 93.4911C112.459 93.3536 112.309 93.2436 112.14 93.1684C111.115 92.7395 109.432 93.8191 108.789 94.5716C108.749 94.6189 108.349 95.2114 108.134 95.5422C108.163 95.1787 108.192 94.7861 108.211 94.4008C108.254 93.3102 108.269 92.1724 108.287 91.0527C108.287 90.711 108.287 90.3693 108.309 90.0276C108.454 90.0675 110.188 90.5583 111.01 90.4311C111.737 90.322 112.642 89.9767 113.016 89.286C113.109 89.1267 113.167 88.9498 113.187 88.7667C113.207 88.5835 113.188 88.3982 113.132 88.2228C113.076 88.0473 112.983 87.8856 112.861 87.7482C112.738 87.6107 112.588 87.5005 112.42 87.4247C111.399 86.9994 109.712 88.0791 109.068 88.8316C109.021 88.8861 108.447 89.7404 108.309 89.9658C108.327 89.2133 108.352 88.4608 108.407 87.7228C108.477 86.7253 108.611 85.7333 108.807 84.7528C108.876 84.7528 110.682 85.2908 111.526 85.16C112.253 85.0509 113.154 84.7056 113.529 84.0149C113.622 83.8558 113.68 83.6791 113.7 83.4962C113.72 83.3132 113.702 83.128 113.646 82.9526C113.59 82.7772 113.498 82.6154 113.376 82.4778C113.254 82.3402 113.104 82.2297 112.936 82.1536C111.911 81.7283 110.224 82.8043 109.585 83.5605C109.541 83.6077 109.101 84.2584 108.901 84.5711L108.843 84.5492C109.068 83.5671 109.38 82.6071 109.777 81.681C109.988 81.1685 110.217 80.6922 110.453 80.2269C110.781 80.3578 112.271 80.954 113.049 80.9104C113.827 80.8667 114.721 80.6341 115.168 79.9906C115.278 79.8427 115.356 79.6734 115.396 79.4936C115.436 79.3139 115.438 79.1277 115.402 78.9471C115.365 78.7665 115.291 78.5956 115.185 78.4453C115.078 78.2951 114.941 78.1688 114.783 78.0749C113.812 77.5405 112.017 78.4384 111.297 79.1036C111.257 79.14 110.901 79.558 110.642 79.867C110.752 79.6635 110.861 79.449 110.97 79.2527C111.377 78.5256 111.791 77.8713 112.166 77.3006C112.38 76.9806 112.58 76.6935 112.773 76.4245C113.158 76.3881 114.721 76.21 115.379 75.8355C116.037 75.4611 116.735 74.8213 116.833 74.0434C116.863 73.8615 116.854 73.6755 116.807 73.4973C116.761 73.3191 116.676 73.1529 116.561 73.0095C116.445 72.866 116.301 72.7486 116.136 72.6649C115.972 72.5812 115.792 72.5332 115.608 72.5238C114.499 72.4947 113.318 74.1052 112.991 75.0394C112.962 75.123 112.664 76.4354 112.682 76.4317H112.707C112.518 76.6741 112.318 76.9503 112.107 77.2606C111.719 77.824 111.286 78.4638 110.864 79.1909C110.4 79.9707 109.981 80.7767 109.61 81.6047C109.191 82.5308 108.854 83.4918 108.603 84.4765C108.605 84.4886 108.605 84.5009 108.603 84.5129C108.603 84.1894 108.494 83.2842 108.48 83.2151C108.276 82.2481 107.305 80.4959 106.204 80.3869C106.02 80.373 105.835 80.398 105.662 80.4602C105.488 80.5225 105.33 80.6206 105.197 80.7482C105.064 80.8758 104.959 81.03 104.889 81.2007C104.82 81.3715 104.787 81.5549 104.793 81.7392C104.793 82.5208 105.422 83.2551 106.011 83.6986C106.676 84.2039 108.44 84.6001 108.581 84.6292C108.353 85.639 108.192 86.6627 108.098 87.6937C108.043 88.2935 108.003 88.897 107.971 89.5114C107.945 89.2314 107.92 88.9806 107.912 88.9479C107.705 87.9773 106.735 86.2287 105.633 86.116C105.449 86.1021 105.265 86.1271 105.091 86.1894C104.918 86.2516 104.759 86.3498 104.626 86.4773C104.493 86.6049 104.388 86.7591 104.319 86.9299C104.249 87.1006 104.216 87.2841 104.223 87.4683C104.223 88.2499 104.852 88.9842 105.44 89.4314C106.029 89.8785 107.538 90.2493 107.934 90.3438C107.934 90.5765 107.912 90.8091 107.905 91.0418C107.862 92.1615 107.825 93.2811 107.756 94.3753C107.731 94.7607 107.691 95.1424 107.654 95.5204C107.633 95.2732 107.607 95.0624 107.603 95.0333C107.396 94.0627 106.426 92.3141 105.324 92.2014C105.14 92.1876 104.956 92.2126 104.782 92.2748C104.609 92.3371 104.45 92.4352 104.317 92.5628C104.184 92.6903 104.079 92.8445 104.01 93.0153C103.94 93.186 103.907 93.3695 103.914 93.5538C103.914 94.339 104.543 95.0697 105.131 95.5168C105.72 95.9639 107.084 96.302 107.553 96.4111C107.505 96.8 107.454 97.189 107.389 97.5598C107.338 97.8143 107.309 98.0651 107.244 98.3159L107.069 99.043C106.938 99.5119 106.811 99.9991 106.673 100.453C106.578 100.77 106.484 101.071 106.389 101.377C106.418 100.991 106.458 100.239 106.455 100.174C106.4 99.1884 105.706 97.309 104.637 97.0327C104.458 96.9916 104.272 96.9887 104.091 97.0243C103.91 97.0598 103.739 97.1329 103.589 97.2388C103.438 97.3447 103.312 97.4811 103.217 97.6391C103.123 97.7971 103.063 97.9732 103.041 98.156C102.921 98.9303 103.43 99.7482 103.946 100.279C104.463 100.81 106.128 101.504 106.331 101.584C106.171 102.086 106.015 102.569 105.859 103.038C105.317 104.619 104.808 105.917 104.441 106.819C104.441 106.852 104.415 106.881 104.401 106.91L105.062 107.273C105.084 107.215 105.11 107.157 105.131 107.095C105.495 106.175 105.971 104.852 106.48 103.242C106.644 102.733 106.807 102.187 106.971 101.624C107.526 101.693 108.084 101.73 108.643 101.733C108.843 102.544 109.77 103.874 109.89 104.045C109.483 104.376 109.083 104.696 108.701 104.99C107.378 106.012 106.237 106.808 105.43 107.36L105.335 107.426L106.062 107.826C106.847 107.262 107.88 106.481 109.105 105.506C109.519 105.172 109.959 104.805 110.403 104.416C110.566 104.554 111.893 105.681 112.678 105.906C113.387 106.11 114.35 106.175 114.976 105.706C115.127 105.601 115.254 105.465 115.349 105.307C115.444 105.15 115.505 104.974 115.528 104.791C115.55 104.608 115.534 104.423 115.48 104.247C115.427 104.071 115.336 103.908 115.216 103.769C114.467 102.951 112.486 103.224 111.58 103.638C111.529 103.663 110.984 104.001 110.642 104.205C110.824 104.049 111.006 103.9 111.184 103.736C111.548 103.42 111.911 103.089 112.297 102.733L112.842 102.198C113.027 102.02 113.205 101.813 113.387 101.62C113.802 101.162 114.198 100.679 114.587 100.184C114.87 100.504 115.885 101.639 116.557 101.944C117.23 102.249 118.171 102.46 118.862 102.093C119.027 102.011 119.173 101.896 119.29 101.754C119.408 101.613 119.495 101.448 119.545 101.271C119.595 101.094 119.607 100.908 119.581 100.726C119.555 100.544 119.49 100.369 119.393 100.214C118.775 99.2938 116.775 99.2611 115.823 99.5337C115.761 99.5519 115.096 99.8246 114.732 99.9809C114.961 99.6828 115.197 99.3847 115.419 99.0721C116.07 98.1742 116.699 97.2544 117.331 96.3238L117.917 95.4804C118.015 95.5931 119.193 96.96 119.949 97.2981C120.618 97.6071 121.559 97.8179 122.25 97.4471C122.416 97.3664 122.562 97.2515 122.681 97.11C122.799 96.9686 122.886 96.8037 122.936 96.6263C122.986 96.4488 122.998 96.2628 122.971 96.0803C122.945 95.8979 122.88 95.7232 122.781 95.5677C122.163 94.648 120.163 94.6152 119.211 94.8915C119.142 94.9097 118.189 95.3059 117.953 95.4186C118.382 94.8006 118.818 94.1863 119.273 93.601C119.878 92.8055 120.537 92.0513 121.243 91.3435C121.29 91.398 122.512 92.8267 123.282 93.183C123.955 93.4956 124.896 93.7028 125.587 93.3356C125.752 93.2544 125.899 93.1394 126.017 92.9978C126.135 92.8563 126.221 92.6916 126.272 92.5143C126.322 92.337 126.334 92.1512 126.307 91.9689C126.281 91.7866 126.216 91.6119 126.118 91.4562C125.5 90.5329 123.5 90.5038 122.548 90.7764C122.486 90.7946 121.763 91.0963 121.421 91.2454L121.385 91.1908C122.114 90.4983 122.904 89.8718 123.744 89.3187C124.206 89.0061 124.66 88.7334 125.111 88.4826C125.311 88.7698 126.238 90.0821 126.899 90.482C127.561 90.8818 128.444 91.1763 129.171 90.8855C129.345 90.8224 129.503 90.7233 129.636 90.5947C129.769 90.4662 129.873 90.311 129.942 90.1394C130.01 89.9678 130.042 89.7837 130.035 89.599C130.027 89.4143 129.981 89.2333 129.898 89.0679C129.386 88.0827 127.401 87.8355 126.427 88.0027C126.372 88.0027 125.841 88.1627 125.46 88.279L126.07 87.9446C126.816 87.5592 127.525 87.2466 128.146 86.9776C128.51 86.8285 128.83 86.6977 129.135 86.5813C129.48 86.7631 130.876 87.4792 131.632 87.5265C132.389 87.5738 133.326 87.4284 133.835 86.8358C133.952 86.7025 134.04 86.5471 134.095 86.3789C134.15 86.2106 134.17 86.033 134.154 85.8568C134.138 85.6806 134.087 85.5093 134.004 85.3533C133.92 85.1973 133.806 85.0598 133.668 84.9491Z" fill="#BDBDBD"/>
<path d="M108.133 78.4622C108.66 79.1529 110.387 80.0508 110.391 80.0508C110.395 80.0508 110.638 78.7349 110.642 78.6476C110.7 77.6588 110.227 75.7176 109.188 75.3177C109.014 75.2561 108.829 75.2318 108.645 75.2463C108.462 75.2608 108.283 75.3138 108.121 75.402C107.959 75.4901 107.818 75.6114 107.706 75.7578C107.594 75.9043 107.514 76.0727 107.472 76.252C107.268 77.0045 107.701 77.877 108.133 78.4622Z" fill="#BDBDBD"/>
<g opacity="0.5">
<path d="M125.175 88.3303C125.175 88.3485 126.109 87.367 126.16 87.2979C126.753 86.5055 127.432 84.6224 126.789 83.7172C126.678 83.5703 126.537 83.4483 126.376 83.3592C126.215 83.2701 126.037 83.2159 125.854 83.2001C125.67 83.1844 125.486 83.2074 125.312 83.2676C125.138 83.3279 124.978 83.4241 124.844 83.55C124.255 84.0662 124.117 85.0223 124.168 85.7602C124.23 86.6254 125.175 88.3267 125.175 88.3303Z" fill="white"/>
<path d="M133.668 84.9491C132.759 84.3129 130.884 85.0073 130.095 85.6035C130.026 85.658 129.051 86.5886 129.07 86.5959H129.091C128.793 86.7049 128.477 86.8213 128.132 86.9594C127.499 87.2139 126.787 87.512 126.031 87.8828C125.214 88.2797 124.421 88.7214 123.653 89.206C122.793 89.746 121.983 90.3616 121.232 91.0454C121.223 91.053 121.214 91.0615 121.207 91.0709C121.366 90.791 121.792 89.9803 121.817 89.9221C122.181 88.9988 122.337 87.0139 121.479 86.3051C121.332 86.1931 121.164 86.1133 120.984 86.0708C120.805 86.0283 120.618 86.0241 120.437 86.0583C120.255 86.0926 120.083 86.1647 119.931 86.2698C119.78 86.3749 119.652 86.5108 119.556 86.6686C119.127 87.3229 119.243 88.279 119.491 88.977C119.767 89.7658 121.021 91.0672 121.123 91.1581C120.374 91.8723 119.675 92.6362 119.029 93.4447C118.665 93.9136 118.284 94.3971 117.938 94.8988C118.069 94.6516 118.186 94.4262 118.197 94.3935C118.56 93.4738 118.716 91.4853 117.858 90.7764C117.712 90.6645 117.544 90.5848 117.364 90.5423C117.185 90.4998 116.999 90.4956 116.818 90.5299C116.637 90.5642 116.465 90.6362 116.313 90.7414C116.162 90.8465 116.034 90.9823 115.939 91.1399C115.506 91.7907 115.626 92.7504 115.87 93.4447C116.114 94.139 117.168 95.2878 117.448 95.5822L117.022 96.1421C116.368 97.0545 115.721 97.9597 115.056 98.8394C114.823 99.1484 114.583 99.4465 114.329 99.7409C114.445 99.5192 114.543 99.3338 114.554 99.3047C114.918 98.3814 115.074 96.3965 114.216 95.6695C114.069 95.557 113.901 95.4767 113.721 95.4339C113.541 95.391 113.355 95.3866 113.173 95.421C112.992 95.4553 112.819 95.5275 112.668 95.633C112.516 95.7385 112.388 95.8748 112.293 96.033C111.86 96.6873 111.98 97.6434 112.227 98.3414C112.475 99.0393 113.42 100.072 113.751 100.424C113.496 100.722 113.242 101.017 112.98 101.293C112.798 101.479 112.638 101.657 112.442 101.842L111.886 102.366C111.522 102.686 111.159 103.02 110.777 103.325C110.523 103.54 110.279 103.736 110.05 103.936C110.283 103.634 110.733 103.027 110.777 102.973C111.187 102.204 111.392 101.343 111.373 100.472C111.422 100.388 111.463 100.3 111.497 100.21C111.565 100.038 111.596 99.8547 111.588 99.6704C111.581 99.4862 111.534 99.3056 111.452 99.1404C111.37 98.9752 111.255 98.8291 111.113 98.7114C110.971 98.5938 110.806 98.5074 110.628 98.4577C109.537 98.1923 108.047 99.5119 107.527 100.355C107.498 100.406 107.222 100.981 107.058 101.348C107.12 101.119 107.189 100.893 107.251 100.657C107.382 100.188 107.498 99.7155 107.614 99.2029C107.665 98.9557 107.72 98.7049 107.774 98.4541C107.829 98.2032 107.862 97.9342 107.909 97.6725C108 97.0618 108.065 96.4401 108.12 95.8112C108.53 95.9239 109.995 96.3056 110.73 96.1748C111.464 96.0439 112.362 95.7167 112.733 95.0297C112.827 94.8709 112.886 94.6941 112.907 94.5109C112.928 94.3276 112.909 94.142 112.853 93.9663C112.798 93.7906 112.705 93.6286 112.582 93.4911C112.459 93.3536 112.309 93.2436 112.14 93.1684C111.115 92.7395 109.432 93.8191 108.789 94.5716C108.749 94.6189 108.349 95.2114 108.134 95.5422C108.163 95.1787 108.192 94.7861 108.211 94.4008C108.254 93.3102 108.269 92.1724 108.287 91.0527C108.287 90.711 108.287 90.3693 108.309 90.0276C108.454 90.0675 110.188 90.5583 111.01 90.4311C111.737 90.322 112.642 89.9767 113.016 89.286C113.109 89.1267 113.167 88.9498 113.187 88.7667C113.207 88.5835 113.188 88.3982 113.132 88.2228C113.076 88.0473 112.983 87.8856 112.861 87.7482C112.738 87.6107 112.588 87.5005 112.42 87.4247C111.399 86.9994 109.712 88.0791 109.068 88.8316C109.021 88.8861 108.447 89.7404 108.309 89.9658C108.327 89.2133 108.352 88.4608 108.407 87.7228C108.477 86.7253 108.611 85.7333 108.807 84.7528C108.876 84.7528 110.682 85.2908 111.526 85.16C112.253 85.0509 113.154 84.7056 113.529 84.0149C113.622 83.8558 113.68 83.6791 113.7 83.4962C113.72 83.3132 113.702 83.128 113.646 82.9526C113.59 82.7772 113.498 82.6154 113.376 82.4778C113.254 82.3402 113.104 82.2297 112.936 82.1536C111.911 81.7283 110.224 82.8043 109.585 83.5605C109.541 83.6077 109.101 84.2584 108.901 84.5711L108.843 84.5492C109.068 83.5671 109.38 82.6071 109.777 81.681C109.988 81.1685 110.217 80.6922 110.453 80.2269C110.781 80.3578 112.271 80.954 113.049 80.9104C113.827 80.8667 114.721 80.6341 115.168 79.9906C115.278 79.8427 115.356 79.6734 115.396 79.4936C115.436 79.3139 115.438 79.1277 115.402 78.9471C115.365 78.7665 115.291 78.5956 115.185 78.4453C115.078 78.2951 114.941 78.1688 114.783 78.0749C113.812 77.5405 112.017 78.4384 111.297 79.1036C111.257 79.14 110.901 79.558 110.642 79.867C110.752 79.6635 110.861 79.449 110.97 79.2527C111.377 78.5256 111.791 77.8713 112.166 77.3006C112.38 76.9806 112.58 76.6935 112.773 76.4245C113.158 76.3881 114.721 76.21 115.379 75.8355C116.037 75.4611 116.735 74.8213 116.833 74.0434C116.863 73.8615 116.854 73.6755 116.807 73.4973C116.761 73.3191 116.676 73.1529 116.561 73.0095C116.445 72.866 116.301 72.7486 116.136 72.6649C115.972 72.5812 115.792 72.5332 115.608 72.5238C114.499 72.4947 113.318 74.1052 112.991 75.0394C112.962 75.123 112.664 76.4354 112.682 76.4317H112.707C112.518 76.6741 112.318 76.9503 112.107 77.2606C111.719 77.824 111.286 78.4638 110.864 79.1909C110.4 79.9707 109.981 80.7767 109.61 81.6047C109.191 82.5308 108.854 83.4918 108.603 84.4765C108.605 84.4886 108.605 84.5009 108.603 84.5129C108.603 84.1894 108.494 83.2842 108.48 83.2151C108.276 82.2481 107.305 80.4959 106.204 80.3869C106.02 80.373 105.835 80.398 105.662 80.4602C105.488 80.5225 105.33 80.6206 105.197 80.7482C105.064 80.8758 104.959 81.03 104.889 81.2007C104.82 81.3715 104.787 81.5549 104.793 81.7392C104.793 82.5208 105.422 83.2551 106.011 83.6986C106.676 84.2039 108.44 84.6001 108.581 84.6292C108.353 85.639 108.192 86.6627 108.098 87.6937C108.043 88.2935 108.003 88.897 107.971 89.5114C107.945 89.2314 107.92 88.9806 107.912 88.9479C107.705 87.9773 106.735 86.2287 105.633 86.116C105.449 86.1021 105.265 86.1271 105.091 86.1894C104.918 86.2516 104.759 86.3498 104.626 86.4773C104.493 86.6049 104.388 86.7591 104.319 86.9299C104.249 87.1006 104.216 87.2841 104.223 87.4683C104.223 88.2499 104.852 88.9842 105.44 89.4314C106.029 89.8785 107.538 90.2493 107.934 90.3438C107.934 90.5765 107.912 90.8091 107.905 91.0418C107.862 92.1615 107.825 93.2811 107.756 94.3753C107.731 94.7607 107.691 95.1424 107.654 95.5204C107.633 95.2732 107.607 95.0624 107.603 95.0333C107.396 94.0627 106.426 92.3141 105.324 92.2014C105.14 92.1876 104.956 92.2126 104.782 92.2748C104.609 92.3371 104.45 92.4352 104.317 92.5628C104.184 92.6903 104.079 92.8445 104.01 93.0153C103.94 93.186 103.907 93.3695 103.914 93.5538C103.914 94.339 104.543 95.0697 105.131 95.5168C105.72 95.9639 107.084 96.302 107.553 96.4111C107.505 96.8 107.454 97.189 107.389 97.5598C107.338 97.8143 107.309 98.0651 107.244 98.3159L107.069 99.043C106.938 99.5119 106.811 99.9991 106.673 100.453C106.578 100.77 106.484 101.071 106.389 101.377C106.418 100.991 106.458 100.239 106.455 100.174C106.4 99.1884 105.706 97.309 104.637 97.0327C104.458 96.9916 104.272 96.9887 104.091 97.0243C103.91 97.0598 103.739 97.1329 103.589 97.2388C103.438 97.3447 103.312 97.4811 103.217 97.6391C103.123 97.7971 103.063 97.9732 103.041 98.156C102.921 98.9303 103.43 99.7482 103.946 100.279C104.463 100.81 106.128 101.504 106.331 101.584C106.171 102.086 106.015 102.569 105.859 103.038C105.317 104.619 104.808 105.917 104.441 106.819C104.441 106.852 104.415 106.881 104.401 106.91L105.062 107.273C105.084 107.215 105.11 107.157 105.131 107.095C105.495 106.175 105.971 104.852 106.48 103.242C106.644 102.733 106.807 102.187 106.971 101.624C107.526 101.693 108.084 101.73 108.643 101.733C108.843 102.544 109.77 103.874 109.89 104.045C109.483 104.376 109.083 104.696 108.701 104.99C107.378 106.012 106.237 106.808 105.43 107.36L105.335 107.426L106.062 107.826C106.847 107.262 107.88 106.481 109.105 105.506C109.519 105.172 109.959 104.805 110.403 104.416C110.566 104.554 111.893 105.681 112.678 105.906C113.387 106.11 114.35 106.175 114.976 105.706C115.127 105.601 115.254 105.465 115.349 105.307C115.444 105.15 115.505 104.974 115.528 104.791C115.55 104.608 115.534 104.423 115.48 104.247C115.427 104.071 115.336 103.908 115.216 103.769C114.467 102.951 112.486 103.224 111.58 103.638C111.529 103.663 110.984 104.001 110.642 104.205C110.824 104.049 111.006 103.9 111.184 103.736C111.548 103.42 111.911 103.089 112.297 102.733L112.842 102.198C113.027 102.02 113.205 101.813 113.387 101.62C113.802 101.162 114.198 100.679 114.587 100.184C114.87 100.504 115.885 101.639 116.557 101.944C117.23 102.249 118.171 102.46 118.862 102.093C119.027 102.011 119.173 101.896 119.29 101.754C119.408 101.613 119.495 101.448 119.545 101.271C119.595 101.094 119.607 100.908 119.581 100.726C119.555 100.544 119.49 100.369 119.393 100.214C118.775 99.2938 116.775 99.2611 115.823 99.5337C115.761 99.5519 115.096 99.8246 114.732 99.9809C114.961 99.6828 115.197 99.3847 115.419 99.0721C116.07 98.1742 116.699 97.2544 117.331 96.3238L117.917 95.4804C118.015 95.5931 119.193 96.96 119.949 97.2981C120.618 97.6071 121.559 97.8179 122.25 97.4471C122.416 97.3664 122.562 97.2515 122.681 97.11C122.799 96.9686 122.886 96.8037 122.936 96.6263C122.986 96.4488 122.998 96.2628 122.971 96.0803C122.945 95.8979 122.88 95.7232 122.781 95.5677C122.163 94.648 120.163 94.6152 119.211 94.8915C119.142 94.9097 118.189 95.3059 117.953 95.4186C118.382 94.8006 118.818 94.1863 119.273 93.601C119.878 92.8055 120.537 92.0513 121.243 91.3435C121.29 91.398 122.512 92.8267 123.282 93.183C123.955 93.4956 124.896 93.7028 125.587 93.3356C125.752 93.2544 125.899 93.1394 126.017 92.9978C126.135 92.8563 126.221 92.6916 126.272 92.5143C126.322 92.337 126.334 92.1512 126.307 91.9689C126.281 91.7866 126.216 91.6119 126.118 91.4562C125.5 90.5329 123.5 90.5038 122.548 90.7764C122.486 90.7946 121.763 91.0963 121.421 91.2454L121.385 91.1908C122.114 90.4983 122.904 89.8718 123.744 89.3187C124.206 89.0061 124.66 88.7334 125.111 88.4826C125.311 88.7698 126.238 90.0821 126.899 90.482C127.561 90.8818 128.444 91.1763 129.171 90.8855C129.345 90.8224 129.503 90.7233 129.636 90.5947C129.769 90.4662 129.873 90.311 129.942 90.1394C130.01 89.9678 130.042 89.7837 130.035 89.599C130.027 89.4143 129.981 89.2333 129.898 89.0679C129.386 88.0827 127.401 87.8355 126.427 88.0027C126.372 88.0027 125.841 88.1627 125.46 88.279L126.07 87.9446C126.816 87.5592 127.525 87.2466 128.146 86.9776C128.51 86.8285 128.83 86.6977 129.135 86.5813C129.48 86.7631 130.876 87.4792 131.632 87.5265C132.389 87.5738 133.326 87.4284 133.835 86.8358C133.952 86.7025 134.04 86.5471 134.095 86.3789C134.15 86.2106 134.17 86.033 134.154 85.8568C134.138 85.6806 134.087 85.5093 134.004 85.3533C133.92 85.1973 133.806 85.0598 133.668 84.9491Z" fill="white"/>
<path d="M108.133 78.4622C108.66 79.1529 110.387 80.0508 110.391 80.0508C110.395 80.0508 110.638 78.7349 110.642 78.6476C110.7 77.6588 110.227 75.7176 109.188 75.3177C109.014 75.2561 108.829 75.2318 108.645 75.2463C108.462 75.2608 108.283 75.3138 108.121 75.402C107.959 75.4901 107.818 75.6114 107.706 75.7578C107.594 75.9043 107.514 76.0727 107.472 76.252C107.268 77.0045 107.701 77.877 108.133 78.4622Z" fill="white"/>
</g>
<path d="M37.1779 60.0793C37.1997 60.0793 36.8944 58.5562 36.8617 58.4653C36.4981 57.3747 35.1894 55.4807 33.9098 55.4844C33.6973 55.491 33.4886 55.5423 33.2971 55.6349C33.1057 55.7275 32.9359 55.8594 32.7988 56.0219C32.6617 56.1844 32.5602 56.3739 32.5011 56.5782C32.442 56.7825 32.4266 56.9969 32.4557 57.2075C32.5503 58.1054 33.3573 58.8724 34.088 59.3123C34.9386 59.8321 37.1779 60.0793 37.1779 60.0793Z" fill="#BDBDBD"/>
<path d="M39.6518 49.8244C38.4449 50.257 37.8342 52.4891 37.8851 53.6305C37.8851 53.7287 38.1141 55.2664 38.1359 55.2555H38.1614C38.0632 55.619 37.9651 55.9825 37.8633 56.4006C37.6815 57.1676 37.4998 58.0365 37.3325 58.9962C37.1599 60.0298 37.0458 61.0724 36.9908 62.1189C36.927 63.2894 36.9671 64.4634 37.1108 65.6269C37.1125 65.6414 37.1125 65.656 37.1108 65.6705C36.9545 65.3288 36.4819 64.3945 36.4346 64.3255C35.8094 63.3694 34.0354 61.8898 32.7994 62.2315C32.5963 62.2944 32.4086 62.3992 32.2486 62.5392C32.0885 62.6791 31.9596 62.8511 31.8701 63.044C31.7807 63.2369 31.7328 63.4464 31.7294 63.659C31.726 63.8716 31.7673 64.0826 31.8506 64.2782C32.1778 65.1179 33.1593 65.645 33.9808 65.8777C34.9078 66.1431 36.9726 65.8304 37.1362 65.805C37.3109 66.9864 37.5647 68.1548 37.896 69.3021C38.085 69.971 38.2959 70.6399 38.5176 71.3088C38.3722 71.018 38.2377 70.7598 38.2159 70.7271C37.587 69.7711 35.8166 68.2915 34.5807 68.6332C34.3773 68.6952 34.1894 68.7993 34.029 68.9388C33.8686 69.0783 33.7395 69.25 33.65 69.4428C33.5604 69.6356 33.5126 69.8451 33.5094 70.0576C33.5063 70.2701 33.548 70.4809 33.6319 70.6762C33.959 71.5196 34.9405 72.0467 35.7621 72.2794C36.5837 72.512 38.3577 72.2794 38.8266 72.2176C38.9139 72.4721 38.9975 72.7301 39.0847 72.9846C39.5064 74.2061 39.9354 75.4275 40.3171 76.6199C40.4516 77.0452 40.5679 77.4705 40.6806 77.8922C40.5497 77.6341 40.4407 77.4196 40.4189 77.3906C39.7936 76.4345 38.0196 74.9549 36.7836 75.2966C36.5803 75.3586 36.3923 75.4627 36.232 75.6022C36.0716 75.7417 35.9424 75.9135 35.8529 76.1062C35.7634 76.299 35.7155 76.5085 35.7124 76.721C35.7093 76.9335 35.751 77.1443 35.8348 77.3397C36.162 78.183 37.1435 78.7101 37.9651 78.9428C38.7866 79.1755 40.3898 78.9719 40.946 78.8919C41.055 79.3318 41.1641 79.768 41.2477 80.197C41.3022 80.4914 41.3713 80.7713 41.4077 81.073C41.444 81.3748 41.4876 81.6583 41.5312 81.9455C41.5894 82.5053 41.6512 83.0833 41.6948 83.6323C41.7276 83.9958 41.7494 84.3593 41.7748 84.7228C41.6476 84.2975 41.3749 83.4687 41.3459 83.4032C40.8932 82.5047 40.2188 81.7365 39.3865 81.1712C39.34 81.0692 39.284 80.9718 39.2192 80.8804C39.1041 80.7014 38.9526 80.5485 38.7746 80.4318C38.5966 80.3151 38.396 80.237 38.1859 80.2027C37.9758 80.1685 37.7609 80.1787 37.555 80.2328C37.3491 80.287 37.1569 80.3837 36.9908 80.5169C36.0238 81.3566 36.2638 83.6505 36.7109 84.7047C36.7364 84.7665 37.0999 85.4063 37.3325 85.7952C37.158 85.5808 36.9945 85.3699 36.8127 85.1482C36.4492 84.7156 36.0856 84.2903 35.693 83.8322L35.0932 83.1815C34.8969 82.9598 34.6643 82.7525 34.4461 82.5344C33.9372 82.04 33.3919 81.5638 32.8357 81.0803C33.1993 80.7677 34.5516 79.6262 34.9369 78.8737C35.3222 78.1212 35.5912 77.0307 35.1914 76.22C35.1039 76.0262 34.9766 75.8529 34.8177 75.7116C34.6588 75.5703 34.4718 75.4641 34.2691 75.4C34.0663 75.3358 33.8523 75.3152 33.6411 75.3393C33.4298 75.3635 33.226 75.4319 33.0429 75.5402C31.9524 76.22 31.8506 78.5247 32.1305 79.6335C32.1487 79.7026 32.4395 80.4732 32.6067 80.8949C32.2686 80.6186 31.9342 80.3387 31.5852 80.0661C30.571 79.2845 29.524 78.5247 28.4807 77.7613C28.1608 77.5287 27.8445 77.2888 27.5283 77.0561C27.6664 76.9434 29.2841 75.6383 29.7094 74.7804C30.0911 74.017 30.3674 72.9374 29.9675 72.1267C29.8801 71.9329 29.7527 71.7596 29.5938 71.6183C29.4349 71.477 29.248 71.3708 29.0452 71.3067C28.8425 71.2425 28.6285 71.2219 28.4172 71.246C28.2059 71.2702 28.0021 71.3386 27.8191 71.4469C26.7285 72.1267 26.6231 74.4314 26.9066 75.5402C26.9066 75.6238 27.3465 76.7362 27.4665 77.0125C26.7685 76.4926 26.0814 75.9692 25.4198 75.4239C24.5222 74.6938 23.6722 73.9069 22.8751 73.0682C22.9406 73.0173 24.6346 71.6614 25.0563 70.7817C25.438 70.0183 25.7143 68.9386 25.3144 68.1279C25.227 67.9341 25.0996 67.7609 24.9407 67.6196C24.7818 67.4783 24.5948 67.3721 24.3921 67.3079C24.1893 67.2438 23.9754 67.2231 23.7641 67.2473C23.5528 67.2714 23.349 67.3399 23.166 67.4481C22.0754 68.1279 21.97 70.4327 22.2535 71.5414C22.2535 71.6141 22.5916 72.4611 22.7515 72.861L22.6897 72.8974C21.9142 72.0311 21.2182 71.0967 20.6104 70.1055C20.2687 69.5675 19.9742 69.0149 19.6979 68.5024C20.036 68.2806 21.5883 67.2591 22.0718 66.5102C22.5552 65.7614 22.926 64.7508 22.617 63.9038C22.5514 63.7014 22.4439 63.5151 22.3016 63.357C22.1592 63.1989 21.9851 63.0725 21.7907 62.9861C21.5963 62.8997 21.3859 62.8552 21.1731 62.8554C20.9604 62.8557 20.7501 62.9008 20.5559 62.9877C19.4035 63.5475 19.0436 65.8268 19.1999 66.9574C19.1999 67.0192 19.3635 67.6372 19.4835 68.0843C19.3635 67.8444 19.2363 67.5972 19.1199 67.3573C18.6982 66.4848 18.3674 65.6632 18.0766 64.9289C17.9167 64.5109 17.7822 64.1328 17.6586 63.7729C17.8803 63.3839 18.7491 61.7953 18.8364 60.9265C18.9236 60.0577 18.7891 58.9707 18.1093 58.36C17.9578 58.2109 17.7765 58.0954 17.5774 58.0209C17.3782 57.9464 17.1657 57.9147 16.9534 57.9277C16.7412 57.9407 16.5341 57.9982 16.3456 58.0965C16.1571 58.1948 15.9913 58.3316 15.8591 58.4981C15.0957 59.5233 15.8264 61.7153 16.488 62.646C16.5425 62.7259 17.5786 63.8856 17.5786 63.8638V63.8383C17.6913 64.2019 17.8149 64.5654 17.9421 64.958C18.2148 65.685 18.531 66.5321 18.9345 67.4154C19.3577 68.3735 19.8372 69.3058 20.3705 70.2073C20.9642 71.2197 21.6454 72.1782 22.4062 73.0719L22.4353 73.1009C22.1154 72.9046 21.2066 72.3739 21.1302 72.3521C20.0796 71.9013 17.7858 71.6468 16.9424 72.6102C16.8074 72.7747 16.7085 72.9658 16.6521 73.171C16.5957 73.3762 16.583 73.591 16.6149 73.8014C16.6468 74.0119 16.7225 74.2132 16.8371 74.3925C16.9518 74.5718 17.1028 74.725 17.2805 74.8422C18.0075 75.3621 19.1272 75.2603 19.9379 75.0022C20.8576 74.7114 22.4062 73.3118 22.5298 73.1846C23.3219 74.0724 24.172 74.9067 25.0745 75.682C25.6016 76.1364 26.1469 76.5799 26.6994 77.0125L26.1287 76.6926C25.0781 76.2418 22.7843 75.9873 21.9409 76.9543C21.8058 77.1183 21.7067 77.3089 21.6501 77.5137C21.5934 77.7185 21.5804 77.9329 21.6119 78.143C21.6435 78.3531 21.7188 78.5542 21.8331 78.7334C21.9474 78.9125 22.0981 79.0656 22.2753 79.1827C23.0024 79.7062 24.122 79.6008 24.9363 79.3427C25.7506 79.0846 27.1175 77.9177 27.4592 77.6014L28.099 78.0994C29.1278 78.8846 30.1565 79.6662 31.1417 80.4623C31.4871 80.7422 31.8179 81.0331 32.1523 81.3203C31.9015 81.1785 31.6906 81.0585 31.6543 81.044C30.6073 80.5932 28.3098 80.3387 27.4701 81.3021C27.335 81.4664 27.2358 81.6573 27.1791 81.8623C27.1224 82.0674 27.1094 82.2821 27.1409 82.4925C27.1725 82.7029 27.2478 82.9043 27.3621 83.0838C27.4765 83.2632 27.6272 83.4166 27.8045 83.5341C28.5316 84.054 29.6512 83.9522 30.4655 83.6941C31.2798 83.436 32.5049 82.3781 32.923 82.0073C33.2574 82.3127 33.5882 82.618 33.8972 82.9307C34.1044 83.1451 34.3153 83.3415 34.5116 83.5705L35.0969 84.2321C35.4604 84.6683 35.8239 85.1154 36.162 85.548C36.3983 85.8461 36.62 86.137 36.8418 86.4278C36.5001 86.1442 35.8166 85.6026 35.7512 85.5662C34.7806 84.9591 32.5522 84.3593 31.5743 85.2027C31.4158 85.3445 31.289 85.5182 31.2022 85.7124C31.1154 85.9066 31.0705 86.1169 31.0705 86.3296C31.0705 86.5423 31.1154 86.7527 31.2022 86.9468C31.289 87.141 31.4158 87.3147 31.5743 87.4566C32.225 88.0854 33.3374 88.1509 34.1808 88.02C35.1078 87.8746 36.7909 86.7768 36.9981 86.6386C37.3616 87.1221 37.7251 87.5947 38.0414 88.0491C39.1756 89.6123 40.059 90.9573 40.6624 91.9061L40.7242 92.0043L41.5058 91.6226L41.3822 91.4372C40.7497 90.492 39.83 89.1506 38.6521 87.5983C38.2886 87.1039 37.8778 86.5877 37.4561 86.0606C37.8889 85.5822 38.2943 85.0798 38.6703 84.5556C39.5682 84.9192 41.444 84.9192 41.6839 84.9192C41.7239 85.5262 41.7566 86.1152 41.7784 86.6713C41.8584 88.598 41.8548 90.2084 41.833 91.3354V91.4662L42.6909 91.0482C42.6909 89.9285 42.6509 88.4199 42.5346 86.6314C42.4982 86.017 42.4473 85.359 42.3855 84.6865C42.6255 84.6283 44.5667 84.1267 45.2937 83.5414C45.959 83.007 46.6606 82.1418 46.6388 81.2403C46.6404 81.0274 46.5971 80.8165 46.5118 80.6215C46.4265 80.4264 46.301 80.2515 46.1436 80.1081C45.9862 79.9648 45.8003 79.8562 45.5982 79.7895C45.396 79.7227 45.182 79.6993 44.9702 79.7207C43.7015 79.8843 42.6364 81.931 42.4255 83.0579C42.4255 83.1233 42.3601 83.8577 42.331 84.3193C42.3056 84.0467 42.2837 83.7777 42.2547 83.4941C42.1965 82.9379 42.1238 82.3781 42.0475 81.7819L41.9057 80.9058C41.8657 80.615 41.7857 80.3133 41.7239 80.0116C41.5712 79.3136 41.3822 78.6193 41.175 77.9177C41.6621 77.8704 43.3998 77.6632 44.145 77.2379C44.8902 76.8125 45.7082 76.0637 45.8208 75.1658C45.8549 74.9558 45.8442 74.741 45.7895 74.5354C45.7349 74.3298 45.6375 74.1381 45.5037 73.9727C45.3699 73.8074 45.2027 73.6721 45.013 73.5758C44.8234 73.4794 44.6156 73.4241 44.4031 73.4136C43.1235 73.3809 41.7603 75.2312 41.3858 76.3218C41.3604 76.3872 41.1786 77.1942 41.0841 77.6377C40.9569 77.2197 40.8333 76.8016 40.6915 76.3799C40.2771 75.1694 39.8227 73.9589 39.3719 72.7447L38.9684 71.6323C39.1429 71.6141 41.215 71.4178 42.0475 70.938C42.7745 70.5127 43.6106 69.7638 43.7233 68.8695C43.7573 68.6593 43.7466 68.4444 43.692 68.2386C43.6374 68.0328 43.54 67.8409 43.4063 67.6752C43.2725 67.5096 43.1054 67.374 42.9157 67.2772C42.7261 67.1805 42.5182 67.1247 42.3056 67.1137C41.026 67.0846 39.6627 68.9313 39.2883 70.0219C39.2592 70.1055 38.9975 71.2615 38.943 71.5596C38.6485 70.7417 38.3613 69.9237 38.1141 69.1058C37.7691 68.0041 37.4971 66.8807 37.2998 65.7432C37.3798 65.7432 39.5428 65.5396 40.3971 65.0489C41.1241 64.6235 41.9602 63.8747 42.0729 62.9768C42.1063 62.7669 42.0952 62.5523 42.0403 62.347C41.9855 62.1416 41.888 61.9501 41.7543 61.7849C41.6206 61.6197 41.4537 61.4844 41.2643 61.3879C41.075 61.2913 40.8674 61.2357 40.6552 61.2246C39.3755 61.1919 38.0123 63.0422 37.6379 64.1328C37.6125 64.2055 37.4125 65.0852 37.3253 65.5069H37.2526C37.0857 64.3564 37.0213 63.1935 37.0599 62.0316C37.0599 61.3918 37.1217 60.7811 37.1799 60.1885C37.587 60.1885 39.4446 60.1885 40.2589 59.825C41.0732 59.4615 41.9457 58.8326 42.1565 57.9529C42.2134 57.7478 42.2264 57.533 42.1946 57.3226C42.1628 57.1121 42.087 56.9108 41.972 56.7317C41.8571 56.5526 41.7056 56.3997 41.5276 56.2832C41.3495 56.1666 41.1488 56.0889 40.9387 56.0553C39.67 55.8808 38.1105 57.5857 37.6197 58.5999C37.5906 58.6581 37.3834 59.2579 37.2344 59.6905C37.2671 59.4215 37.2962 59.1452 37.3289 58.8908C37.4598 57.931 37.6379 57.0731 37.8015 56.2915C37.8996 55.8553 37.9942 55.4627 38.0887 55.0955C38.4885 54.892 40.0953 54.0522 40.6333 53.3688C41.1714 52.6854 41.6694 51.7111 41.4513 50.8241C41.3322 50.4616 41.0808 50.1573 40.7473 49.972C40.4137 49.7867 40.0225 49.734 39.6518 49.8244Z" fill="#BDBDBD"/>
<path d="M16.511 69.5592C17.5107 69.5192 19.5101 68.4941 19.5137 68.4941C19.5174 68.4941 18.4231 67.3817 18.3577 67.3199C17.4634 66.5928 15.3186 65.7567 14.2535 66.462C14.0792 66.5842 13.9327 66.7418 13.8235 66.9245C13.7143 67.1072 13.6449 67.3109 13.6199 67.5223C13.5948 67.7336 13.6147 67.9479 13.6781 68.1511C13.7416 68.3543 13.8472 68.5418 13.9881 68.7013C14.5625 69.4029 15.6567 69.6065 16.511 69.5592Z" fill="#BDBDBD"/>
<g opacity="0.5">
<path d="M37.1779 60.0793C37.1997 60.0793 36.8944 58.5562 36.8617 58.4653C36.4981 57.3747 35.1894 55.4807 33.9098 55.4844C33.6973 55.491 33.4886 55.5423 33.2971 55.6349C33.1057 55.7275 32.9359 55.8594 32.7988 56.0219C32.6617 56.1844 32.5602 56.3739 32.5011 56.5782C32.442 56.7825 32.4266 56.9969 32.4557 57.2075C32.5503 58.1054 33.3573 58.8724 34.088 59.3123C34.9386 59.8321 37.1779 60.0793 37.1779 60.0793Z" fill="white"/>
<path d="M39.6538 49.8244C38.4469 50.257 37.8362 52.4891 37.887 53.6305C37.887 53.7287 38.1161 55.2664 38.1379 55.2555H38.1633C38.0652 55.619 37.967 55.9825 37.8652 56.4006C37.6835 57.1676 37.5017 58.0365 37.3345 58.9962C37.1619 60.0298 37.0478 61.0724 36.9928 62.1189C36.929 63.2894 36.9691 64.4634 37.1127 65.6269C37.1145 65.6414 37.1145 65.656 37.1127 65.6705C36.9564 65.3288 36.4838 64.3945 36.4366 64.3255C35.8113 63.3694 34.0373 61.8898 32.8013 62.2315C32.5982 62.2944 32.4106 62.3992 32.2505 62.5392C32.0904 62.6791 31.9615 62.8511 31.8721 63.044C31.7827 63.2369 31.7347 63.4464 31.7314 63.659C31.728 63.8716 31.7693 64.0826 31.8525 64.2782C32.1797 65.1179 33.1612 65.645 33.9828 65.8777C34.9098 66.1431 36.9746 65.8304 37.1382 65.805C37.3128 66.9864 37.5666 68.1548 37.898 69.3021C38.087 69.971 38.2978 70.6399 38.5196 71.3088C38.3742 71.018 38.2397 70.7598 38.2179 70.7271C37.589 69.7711 35.8186 68.2915 34.5826 68.6332C34.3793 68.6952 34.1913 68.7993 34.031 68.9388C33.8706 69.0783 33.7414 69.25 33.6519 69.4428C33.5624 69.6356 33.5145 69.8451 33.5114 70.0576C33.5083 70.2701 33.55 70.4809 33.6338 70.6762C33.961 71.5196 34.9425 72.0467 35.7641 72.2794C36.5856 72.512 38.3596 72.2794 38.8286 72.2176C38.9158 72.4721 38.9994 72.7301 39.0867 72.9846C39.5084 74.2061 39.9373 75.4275 40.319 76.6199C40.4535 77.0452 40.5699 77.4705 40.6826 77.8922C40.5517 77.6341 40.4426 77.4196 40.4208 77.3906C39.7956 76.4345 38.0216 74.9549 36.7856 75.2966C36.5823 75.3586 36.3943 75.4627 36.2339 75.6022C36.0736 75.7417 35.9444 75.9135 35.8549 76.1062C35.7653 76.299 35.7175 76.5085 35.7143 76.721C35.7112 76.9335 35.7529 77.1443 35.8368 77.3397C36.1639 78.183 37.1455 78.7101 37.967 78.9428C38.7886 79.1755 40.3917 78.9719 40.9479 78.8919C41.057 79.3318 41.166 79.768 41.2497 80.197C41.3042 80.4914 41.3733 80.7713 41.4096 81.073C41.446 81.3748 41.4896 81.6583 41.5332 81.9455C41.5914 82.5053 41.6532 83.0833 41.6968 83.6323C41.7295 83.9958 41.7513 84.3593 41.7768 84.7228C41.6495 84.2975 41.3769 83.4687 41.3478 83.4032C40.8952 82.5047 40.2208 81.7365 39.3884 81.1712C39.342 81.0692 39.286 80.9718 39.2212 80.8804C39.106 80.7014 38.9545 80.5485 38.7765 80.4318C38.5985 80.3151 38.398 80.237 38.1879 80.2027C37.9778 80.1685 37.7628 80.1787 37.557 80.2328C37.3511 80.287 37.1589 80.3837 36.9928 80.5169C36.0258 81.3566 36.2657 83.6505 36.7129 84.7047C36.7383 84.7665 37.1018 85.4063 37.3345 85.7952C37.16 85.5808 36.9964 85.3699 36.8146 85.1482C36.4511 84.7156 36.0876 84.2903 35.695 83.8322L35.0952 83.1815C34.8989 82.9598 34.6662 82.7525 34.4481 82.5344C33.9392 82.04 33.3939 81.5638 32.8377 81.0803C33.2012 80.7677 34.5535 79.6262 34.9389 78.8737C35.3242 78.1212 35.5932 77.0307 35.1933 76.22C35.1059 76.0262 34.9785 75.8529 34.8196 75.7116C34.6607 75.5703 34.4738 75.4641 34.271 75.4C34.0683 75.3358 33.8543 75.3152 33.643 75.3393C33.4317 75.3635 33.2279 75.4319 33.0449 75.5402C31.9543 76.22 31.8525 78.5247 32.1324 79.6335C32.1506 79.7026 32.4414 80.4732 32.6087 80.8949C32.2706 80.6186 31.9361 80.3387 31.5872 80.0661C30.5729 79.2845 29.526 78.5247 28.4827 77.7613C28.1628 77.5287 27.8465 77.2888 27.5302 77.0561C27.6684 76.9434 29.286 75.6383 29.7114 74.7804C30.0931 74.017 30.3693 72.9374 29.9695 72.1267C29.882 71.9329 29.7547 71.7596 29.5958 71.6183C29.4368 71.477 29.2499 71.3708 29.0472 71.3067C28.8444 71.2425 28.6304 71.2219 28.4191 71.246C28.2079 71.2702 28.0041 71.3386 27.821 71.4469C26.7305 72.1267 26.625 74.4314 26.9086 75.5402C26.9086 75.6238 27.3485 76.7362 27.4684 77.0125C26.7704 76.4926 26.0834 75.9692 25.4218 75.4239C24.5241 74.6938 23.6742 73.9069 22.8771 73.0682C22.9425 73.0173 24.6366 71.6614 25.0582 70.7817C25.44 70.0183 25.7162 68.9386 25.3163 68.1279C25.2289 67.9341 25.1016 67.7609 24.9427 67.6196C24.7837 67.4783 24.5968 67.3721 24.394 67.3079C24.1913 67.2438 23.9773 67.2231 23.766 67.2473C23.5548 67.2714 23.3509 67.3399 23.1679 67.4481C22.0773 68.1279 21.9719 70.4327 22.2555 71.5414C22.2555 71.6141 22.5935 72.4611 22.7535 72.861L22.6917 72.8974C21.9161 72.0311 21.2202 71.0967 20.6123 70.1055C20.2706 69.5675 19.9762 69.0149 19.6999 68.5024C20.038 68.2806 21.5902 67.2591 22.0737 66.5102C22.5572 65.7614 22.928 64.7508 22.619 63.9038C22.5534 63.7014 22.4459 63.5151 22.3035 63.357C22.1611 63.1989 21.9871 63.0725 21.7927 62.9861C21.5983 62.8997 21.3878 62.8552 21.1751 62.8554C20.9623 62.8557 20.752 62.9008 20.5578 62.9877C19.4054 63.5475 19.0455 65.8268 19.2019 66.9574C19.2019 67.0192 19.3654 67.6372 19.4854 68.0843C19.3654 67.8444 19.2382 67.5972 19.1219 67.3573C18.7002 66.4848 18.3694 65.6632 18.0786 64.9289C17.9186 64.5109 17.7841 64.1328 17.6605 63.7729C17.8823 63.3839 18.7511 61.7953 18.8383 60.9265C18.9256 60.0577 18.7911 58.9707 18.1113 58.36C17.9597 58.2109 17.7785 58.0954 17.5793 58.0209C17.3802 57.9464 17.1676 57.9147 16.9554 57.9277C16.7432 57.9407 16.5361 57.9982 16.3475 58.0965C16.159 58.1948 15.9933 58.3316 15.8611 58.4981C15.0977 59.5233 15.8283 61.7153 16.49 62.646C16.5445 62.7259 17.5805 63.8856 17.5805 63.8638V63.8383C17.6932 64.2019 17.8168 64.5654 17.9441 64.958C18.2167 65.685 18.533 66.5321 18.9365 67.4154C19.3597 68.3735 19.8392 69.3058 20.3724 70.2073C20.9662 71.2197 21.6474 72.1782 22.4082 73.0719L22.4372 73.1009C22.1173 72.9046 21.2085 72.3739 21.1322 72.3521C20.0816 71.9013 17.7877 71.6468 16.9444 72.6102C16.8094 72.7747 16.7105 72.9658 16.6541 73.171C16.5977 73.3762 16.585 73.591 16.6168 73.8014C16.6487 74.0119 16.7244 74.2132 16.8391 74.3925C16.9538 74.5718 17.1048 74.725 17.2824 74.8422C18.0095 75.3621 19.1292 75.2603 19.9398 75.0022C20.8595 74.7114 22.4081 73.3118 22.5317 73.1846C23.3238 74.0724 24.1739 74.9067 25.0764 75.682C25.6035 76.1364 26.1488 76.5799 26.7014 77.0125L26.1306 76.6926C25.0801 76.2418 22.7862 75.9873 21.9428 76.9543C21.8078 77.1183 21.7087 77.3089 21.652 77.5137C21.5953 77.7185 21.5824 77.9329 21.6139 78.143C21.6454 78.3531 21.7208 78.5542 21.8351 78.7334C21.9493 78.9125 22.1 79.0656 22.2773 79.1827C23.0043 79.7062 24.124 79.6008 24.9383 79.3427C25.7526 79.0846 27.1194 77.9177 27.4612 77.6014L28.101 78.0994C29.1297 78.8846 30.1585 79.6662 31.1437 80.4623C31.489 80.7422 31.8198 81.0331 32.1543 81.3203C31.9034 81.1785 31.6926 81.0585 31.6562 81.044C30.6093 80.5932 28.3118 80.3387 27.4721 81.3021C27.3369 81.4664 27.2378 81.6573 27.1811 81.8623C27.1244 82.0674 27.1114 82.2821 27.1429 82.4925C27.1744 82.7029 27.2498 82.9043 27.3641 83.0838C27.4784 83.2632 27.6291 83.4166 27.8065 83.5341C28.5335 84.054 29.6532 83.9522 30.4675 83.6941C31.2818 83.436 32.5069 82.3781 32.9249 82.0073C33.2594 82.3127 33.5902 82.618 33.8992 82.9307C34.1064 83.1451 34.3172 83.3415 34.5135 83.5705L35.0988 84.2321C35.4623 84.6683 35.8259 85.1154 36.1639 85.548C36.4002 85.8461 36.622 86.137 36.8437 86.4278C36.502 86.1442 35.8186 85.6026 35.7532 85.5662C34.7825 84.9591 32.5541 84.3593 31.5763 85.2027C31.4177 85.3445 31.2909 85.5182 31.2041 85.7124C31.1173 85.9066 31.0724 86.1169 31.0724 86.3296C31.0724 86.5423 31.1173 86.7527 31.2041 86.9468C31.2909 87.141 31.4177 87.3147 31.5763 87.4566C32.227 88.0854 33.3393 88.1509 34.1827 88.02C35.1097 87.8746 36.7928 86.7768 37 86.6386C37.3636 87.1221 37.7271 87.5947 38.0434 88.0491C39.1776 89.6123 40.0609 90.9573 40.6644 91.9061L40.7262 92.0043L41.5078 91.6226L41.3842 91.4372C40.7516 90.492 39.8319 89.1506 38.6541 87.5983C38.2906 87.1039 37.8798 86.5877 37.4581 86.0606C37.8909 85.5822 38.2962 85.0798 38.6723 84.5556C39.5702 84.9192 41.446 84.9192 41.6859 84.9192C41.7259 85.5262 41.7586 86.1152 41.7804 86.6713C41.8604 88.598 41.8567 90.2084 41.8349 91.3354V91.4662L42.6928 91.0482C42.6928 89.9285 42.6529 88.4199 42.5365 86.6314C42.5002 86.017 42.4493 85.359 42.3875 84.6865C42.6274 84.6283 44.5686 84.1267 45.2957 83.5414C45.9609 83.007 46.6625 82.1418 46.6407 81.2403C46.6423 81.0274 46.5991 80.8165 46.5137 80.6215C46.4284 80.4264 46.303 80.2515 46.1455 80.1081C45.9881 79.9648 45.8023 79.8562 45.6001 79.7895C45.3979 79.7227 45.184 79.6993 44.9722 79.7207C43.7034 79.8843 42.6383 81.931 42.4275 83.0579C42.4275 83.1233 42.362 83.8577 42.333 84.3193C42.3075 84.0467 42.2857 83.7777 42.2566 83.4941C42.1985 82.9379 42.1257 82.3781 42.0494 81.7819L41.9076 80.9058C41.8676 80.615 41.7877 80.3133 41.7259 80.0116C41.5732 79.3136 41.3842 78.6193 41.1769 77.9177C41.6641 77.8704 43.4017 77.6632 44.1469 77.2379C44.8922 76.8125 45.7101 76.0637 45.8228 75.1658C45.8568 74.9558 45.8461 74.741 45.7915 74.5354C45.7368 74.3298 45.6394 74.1381 45.5056 73.9727C45.3718 73.8074 45.2046 73.6721 45.015 73.5758C44.8253 73.4794 44.6175 73.4241 44.4051 73.4136C43.1254 73.3809 41.7622 75.2312 41.3878 76.3218C41.3623 76.3872 41.1806 77.1942 41.0861 77.6377C40.9588 77.2197 40.8352 76.8016 40.6935 76.3799C40.279 75.1694 39.8246 73.9589 39.3739 72.7447L38.9703 71.6323C39.1448 71.6141 41.2169 71.4178 42.0494 70.938C42.7765 70.5127 43.6126 69.7638 43.7253 68.8695C43.7592 68.6593 43.7486 68.4444 43.694 68.2386C43.6393 68.0328 43.542 67.8409 43.4082 67.6752C43.2745 67.5096 43.1073 67.374 42.9177 67.2772C42.728 67.1805 42.5201 67.1247 42.3075 67.1137C41.0279 67.0846 39.6647 68.9313 39.2903 70.0219C39.2612 70.1055 38.9994 71.2615 38.9449 71.5596C38.6504 70.7417 38.3633 69.9237 38.1161 69.1058C37.771 68.0041 37.499 66.8807 37.3018 65.7432C37.3817 65.7432 39.5447 65.5396 40.399 65.0489C41.1261 64.6235 41.9622 63.8747 42.0749 62.9768C42.1083 62.7669 42.0972 62.5523 42.0423 62.347C41.9874 62.1416 41.89 61.9501 41.7563 61.7849C41.6226 61.6197 41.4556 61.4844 41.2663 61.3879C41.0769 61.2913 40.8694 61.2357 40.6571 61.2246C39.3775 61.1919 38.0143 63.0422 37.6399 64.1328C37.6144 64.2055 37.4145 65.0852 37.3272 65.5069H37.2545C37.0877 64.3564 37.0232 63.1935 37.0618 62.0316C37.0618 61.3918 37.1236 60.7811 37.1818 60.1885C37.589 60.1885 39.4466 60.1885 40.2609 59.825C41.0752 59.4615 41.9476 58.8326 42.1585 57.9529C42.2154 57.7478 42.2284 57.533 42.1966 57.3226C42.1648 57.1121 42.0889 56.9108 41.974 56.7317C41.859 56.5526 41.7076 56.3997 41.5295 56.2832C41.3515 56.1666 41.1508 56.0889 40.9407 56.0553C39.672 55.8808 38.1124 57.5857 37.6217 58.5999C37.5926 58.6581 37.3854 59.2579 37.2363 59.6905C37.2691 59.4215 37.2981 59.1452 37.3309 58.8908C37.4617 57.931 37.6399 57.0731 37.8034 56.2915C37.9016 55.8553 37.9961 55.4627 38.0906 55.0955C38.4905 54.892 40.0973 54.0522 40.6353 53.3688C41.1733 52.6854 41.6713 51.7111 41.4532 50.8241C41.3342 50.4616 41.0828 50.1573 40.7492 49.972C40.4157 49.7867 40.0245 49.734 39.6538 49.8244Z" fill="white"/>
<path d="M16.511 69.5592C17.5107 69.5192 19.5101 68.4941 19.5137 68.4941C19.5174 68.4941 18.4231 67.3817 18.3577 67.3199C17.4634 66.5928 15.3186 65.7567 14.2535 66.462C14.0792 66.5842 13.9327 66.7418 13.8235 66.9245C13.7143 67.1072 13.6449 67.3109 13.6199 67.5223C13.5948 67.7336 13.6147 67.9479 13.6781 68.1511C13.7416 68.3543 13.8472 68.5418 13.9881 68.7013C14.5625 69.4029 15.6567 69.6065 16.511 69.5592Z" fill="white"/>
</g>
<path d="M28.7293 97.0159C28.7293 97.0159 34.8001 82.384 38.1991 83.0202C41.5981 83.6563 32.3827 106.348 32.3827 106.348C32.3827 106.348 43.0631 86.201 50.3481 86.201C57.6331 86.201 47.6762 108.467 38.4536 115.89C38.4536 115.89 53.0164 100.197 61.512 103.592C70.0075 106.987 44.5208 122.888 44.5208 122.888C44.5208 122.888 59.3272 118.224 57.6295 121.83C55.9318 125.436 51.3187 126.069 51.3187 126.069L68.0663 126.919H9.79688L22.9056 125.647C22.9056 125.647 9.30975 118.86 12.9523 116.105C16.5948 113.349 24.6033 119.285 24.6033 119.285C24.6033 119.285 10.7675 104.017 13.4358 98.2882C16.104 92.5591 28.0022 108.681 28.0022 108.681C28.0022 108.681 18.2925 88.1095 20.2337 84.5142C22.1749 80.919 28.7293 97.0159 28.7293 97.0159Z" fill="#BDBDBD"/>
<path opacity="0.5" d="M28.7293 97.0159C28.7293 97.0159 34.8001 82.384 38.1991 83.0202C41.5981 83.6563 32.3827 106.348 32.3827 106.348C32.3827 106.348 43.0631 86.201 50.3481 86.201C57.6331 86.201 47.6762 108.467 38.4536 115.89C38.4536 115.89 53.0164 100.197 61.512 103.592C70.0075 106.987 44.5208 122.888 44.5208 122.888C44.5208 122.888 59.3272 118.224 57.6295 121.83C55.9318 125.436 51.3187 126.069 51.3187 126.069L68.0663 126.919H9.79688L22.9056 125.647C22.9056 125.647 9.30975 118.86 12.9523 116.105C16.5948 113.349 24.6033 119.285 24.6033 119.285C24.6033 119.285 10.7675 104.017 13.4358 98.2882C16.104 92.5591 28.0022 108.681 28.0022 108.681C28.0022 108.681 18.2925 88.1095 20.2337 84.5142C22.1749 80.919 28.7293 97.0159 28.7293 97.0159Z" fill="white"/>
<path d="M26.7886 97.7812C32.1288 113.562 32.1288 124.729 32.1288 124.729C32.1288 124.729 25.818 124.969 19.2637 120.116" stroke="#2C3948" stroke-linecap="round" stroke-linejoin="round"/>
<path d="M29.459 106.285C30.5568 101.567 32.0152 96.94 33.8213 92.4453" stroke="#2C3948" stroke-linecap="round" stroke-linejoin="round"/>
<path d="M45.2375 97.0547L31.6453 117.205C31.6453 117.205 22.4191 109.436 19.2637 105.067" stroke="#2C3948" stroke-linecap="round" stroke-linejoin="round"/>
<path d="M31.8887 122.055C31.8887 122.055 46.2079 115.257 52.0352 111.375" stroke="#2C3948" stroke-linecap="round" stroke-linejoin="round"/>
<path d="M107.043 97.0159C107.043 97.0159 100.975 82.384 97.591 83.0202C94.2066 83.6563 103.407 106.348 103.407 106.348C103.407 106.348 92.7271 86.201 85.4456 86.201C78.1642 86.201 88.1139 108.467 97.3402 115.89C97.3402 115.89 82.7737 100.197 74.2782 103.592C65.7826 106.987 91.273 122.888 91.273 122.888C91.273 122.888 76.4629 118.224 78.1642 121.83C79.8655 125.436 84.475 126.069 84.475 126.069L67.7129 126.919H125.979L112.87 125.647C112.87 125.647 126.462 118.86 122.823 116.105C119.184 113.349 111.169 119.285 111.169 119.285C111.169 119.285 125.008 104.017 122.336 98.2882C119.664 92.5591 107.77 108.681 107.77 108.681C107.77 108.681 117.483 88.1095 115.538 84.5033C113.593 80.8972 107.043 97.0159 107.043 97.0159Z" fill="#BDBDBD"/>
<path opacity="0.5" d="M107.043 97.0159C107.043 97.0159 100.975 82.384 97.591 83.0202C94.2066 83.6563 103.407 106.348 103.407 106.348C103.407 106.348 92.7271 86.201 85.4456 86.201C78.1642 86.201 88.1139 108.467 97.3402 115.89C97.3402 115.89 82.7737 100.197 74.2782 103.592C65.7826 106.987 91.273 122.888 91.273 122.888C91.273 122.888 76.4629 118.224 78.1642 121.83C79.8655 125.436 84.475 126.069 84.475 126.069L67.7129 126.919H125.979L112.87 125.647C112.87 125.647 126.462 118.86 122.823 116.105C119.184 113.349 111.169 119.285 111.169 119.285C111.169 119.285 125.008 104.017 122.336 98.2882C119.664 92.5591 107.77 108.681 107.77 108.681C107.77 108.681 117.483 88.1095 115.538 84.5033C113.593 80.8972 107.043 97.0159 107.043 97.0159Z" fill="white"/>
<path d="M108.987 97.7812C103.646 113.562 103.646 124.729 103.646 124.729C103.646 124.729 109.957 124.969 116.512 120.116" stroke="#2C3948" stroke-linecap="round" stroke-linejoin="round"/>
<path d="M106.315 106.285C105.218 101.567 103.759 96.94 101.953 92.4453" stroke="#2C3948" stroke-linecap="round" stroke-linejoin="round"/>
<path d="M90.5352 97.0547L104.131 117.205C104.131 117.205 113.354 109.436 116.509 105.067" stroke="#2C3948" stroke-linecap="round" stroke-linejoin="round"/>
<path d="M103.888 122.055C103.888 122.055 89.5656 115.257 83.7383 111.375" stroke="#2C3948" stroke-linecap="round" stroke-linejoin="round"/>
<path d="M97.2422 18.1641H41.114C39.7588 18.1641 38.6602 19.2627 38.6602 20.6179V125.709C38.6602 127.065 39.7588 128.163 41.114 128.163H97.2422C98.5974 128.163 99.696 127.065 99.696 125.709V20.6179C99.696 19.2627 98.5974 18.1641 97.2422 18.1641Z" fill="#2C3948" stroke="#2C3948" stroke-miterlimit="10"/>
<path d="M73.3988 24.7314H65.8011C65.6985 24.7314 65.5968 24.7112 65.502 24.6719C65.4072 24.6326 65.321 24.5751 65.2485 24.5025C65.1759 24.4299 65.1183 24.3437 65.079 24.2489C65.0397 24.1541 65.0195 24.0525 65.0195 23.9498C65.0195 23.8474 65.0398 23.7459 65.0791 23.6513C65.1184 23.5567 65.176 23.4707 65.2487 23.3984C65.3213 23.3262 65.4075 23.2689 65.5023 23.2301C65.5971 23.1912 65.6986 23.1714 65.8011 23.1719H73.3988C73.6051 23.1719 73.803 23.2538 73.9489 23.3997C74.0948 23.5456 74.1767 23.7435 74.1767 23.9498C74.1772 24.0523 74.1574 24.1538 74.1186 24.2487C74.0797 24.3435 74.0225 24.4296 73.9502 24.5023C73.8779 24.5749 73.792 24.6325 73.6973 24.6718C73.6027 24.7112 73.5013 24.7314 73.3988 24.7314Z" fill="#FF7500"/>
<path d="M95.8394 118.334H42.5176V24.8281H55.1573L56.5787 26.0059C57.0742 26.4202 57.6997 26.6467 58.3455 26.6458H80.6441C81.3134 26.6421 81.9589 26.3968 82.4617 25.955L83.745 24.8281H95.8285L95.8394 118.334Z" fill="white" stroke="#2C3948" stroke-width="0.938618" stroke-linecap="round" stroke-linejoin="round"/>
<path d="M63.8117 31.7163L63.0847 29.2734H44.9375V31.7163V113.364V115.811H93.5808V31.7163H63.8117Z" fill="#FF7500"/>
<path d="M91.869 36.125H46.6465V113.127H91.869V36.125Z" fill="white"/>
<path d="M70.8815 121.226C70.8822 120.985 70.8116 120.75 70.6786 120.55C70.5456 120.35 70.3563 120.194 70.1345 120.101C69.9127 120.009 69.6684 119.984 69.4327 120.031C69.1969 120.077 68.9802 120.192 68.81 120.362C68.6399 120.532 68.5239 120.748 68.4767 120.984C68.4296 121.219 68.4534 121.464 68.5452 121.686C68.637 121.908 68.7926 122.098 68.9924 122.231C69.1921 122.365 69.427 122.436 69.6673 122.436C69.9884 122.435 70.2961 122.307 70.5235 122.081C70.7509 121.854 70.8796 121.547 70.8815 121.226Z" fill="#FF7500"/>
<path d="M65.8626 109.763C74.0862 109.763 80.7526 100.278 80.7526 88.5769C80.7526 76.876 74.0862 67.3906 65.8626 67.3906C57.6391 67.3906 50.9727 76.876 50.9727 88.5769C50.9727 100.278 57.6391 109.763 65.8626 109.763Z" fill="#FBB931"/>
<path opacity="0.5" d="M65.8626 109.763C74.0862 109.763 80.7526 100.278 80.7526 88.5769C80.7526 76.876 74.0862 67.3906 65.8626 67.3906C57.6391 67.3906 50.9727 76.876 50.9727 88.5769C50.9727 100.278 57.6391 109.763 65.8626 109.763Z" fill="white"/>
<path d="M67.9731 64.9298C67.9731 64.9298 67.0425 63.3739 66.1882 63.2976C65.3339 63.2212 55.1625 69.6047 53.6066 72.9273C52.0507 76.25 50.5784 82.917 54.6971 89.3332C58.7141 95.5749 65.0103 95.3677 68.2748 95.0551C71.5393 94.7425 73.7277 93.681 77.0358 91.0273C80.3438 88.3735 83.3793 84.4656 83.8191 81.8119C84.259 79.1582 82.6413 77.6822 81.6089 77.3151C80.5765 76.9479 74.6038 77.0206 70.2524 72.5893C65.901 68.1579 67.9731 64.9298 67.9731 64.9298Z" fill="#2C3948" stroke="#2C3948" stroke-linecap="round" stroke-linejoin="round"/>
<path d="M69.2947 62.9062C69.2947 62.9062 66.6555 63.9169 65.0233 65.7018C63.3911 67.4867 62.3841 70.2858 62.3078 74.4009C62.2314 78.516 63.551 83.1728 68.6731 85.194C73.7952 87.2152 78.3792 85.6593 79.8551 84.2597C81.331 82.8601 83.1268 78.905 83.1268 78.905C83.1268 78.905 74.9766 81.0861 71.0942 76.4948C67.2117 71.9035 69.2947 62.9062 69.2947 62.9062Z" fill="white" stroke="#2C3948" stroke-linecap="round" stroke-linejoin="round"/>
<path d="M114.909 65.7768C112.917 62.7887 108.162 61.9053 104.403 60.6875C100.644 59.4697 98.4302 57.0522 99.4263 51.0686C100.422 45.085 105.606 35.3643 105.508 33.594C105.41 31.8236 87.5936 31.9363 85.9322 32.5034C84.2709 33.0705 83.9438 32.9433 82.3952 34.9354C81.5369 36.0112 80.7604 37.1498 80.0722 38.3416L81.9916 34.3065H82.1334C82.342 33.7761 82.6381 33.2846 83.0095 32.8524C84.6986 30.8928 85.6558 28.4081 85.7178 25.8218C85.7905 22.0157 83.0822 22.3829 82.5696 23.5534C82.0571 24.724 79.058 28.7518 78.1783 29.8497C77.2985 30.9475 75.47 33.9502 75.47 33.9502L73.4379 40.9953C73.4379 40.9953 72.9944 43.0965 70.4497 51.0613C67.905 59.0262 69.0138 62.6978 69.0138 62.6978C69.0138 62.6978 68.3485 62.367 66.7999 67.1219C65.2513 71.8768 65.9166 77.9586 68.6793 80.8341C71.4421 83.7095 75.0956 83.6005 79.1889 81.9428C81.7068 80.864 83.8039 78.9928 85.1616 76.6135C85.1616 76.6135 89.4766 75.5229 92.6829 73.0764C95.8892 70.6299 98.3212 68.0998 102.974 68.3215C107.627 68.5433 112.928 71.197 114.698 71.0843C116.468 70.9716 116.901 68.7614 114.909 65.7768Z" fill="white"/>
<mask id="mask0_282_32523" style="mask-type:luminance" maskUnits="userSpaceOnUse" x="65" y="22" width="52" height="62">
<path d="M114.909 65.7768C112.917 62.7887 108.162 61.9053 104.403 60.6875C100.644 59.4697 98.4302 57.0522 99.4263 51.0686C100.422 45.085 105.606 35.3643 105.508 33.594C105.41 31.8236 87.5936 31.9363 85.9322 32.5034C84.2709 33.0705 83.9438 32.9433 82.3952 34.9354C81.5369 36.0112 80.7604 37.1498 80.0722 38.3416L81.9916 34.3065H82.1334C82.342 33.7761 82.6381 33.2846 83.0095 32.8524C84.6986 30.8928 85.6558 28.4081 85.7178 25.8218C85.7905 22.0157 83.0822 22.3829 82.5696 23.5534C82.0571 24.724 79.058 28.7518 78.1783 29.8497C77.2985 30.9475 75.47 33.9502 75.47 33.9502L73.4379 40.9953C73.4379 40.9953 72.9944 43.0965 70.4497 51.0613C67.905 59.0262 69.0138 62.6978 69.0138 62.6978C69.0138 62.6978 68.3485 62.367 66.7999 67.1219C65.2513 71.8768 65.9166 77.9586 68.6793 80.8341C71.4421 83.7095 75.0956 83.6005 79.1889 81.9428C81.7068 80.864 83.8039 78.9928 85.1616 76.6135C85.1616 76.6135 89.4766 75.5229 92.6829 73.0764C95.8892 70.6299 98.3212 68.0998 102.974 68.3215C107.627 68.5433 112.928 71.197 114.698 71.0843C116.468 70.9716 116.901 68.7614 114.909 65.7768Z" fill="white"/>
</mask>
<g mask="url(#mask0_282_32523)">
<path d="M86.3826 55.4309C74.0773 57.2667 70.2094 60.2039 71.4381 64.2463C71.6931 65.0479 72.1073 65.7898 72.6559 66.4275C72.6559 66.5038 72.6559 66.5874 72.6778 66.6747C72.6778 66.6747 72.8959 66.8056 73.223 67.0382C73.6538 67.4543 74.1196 67.8326 74.6153 68.1688C75.4224 68.9358 76.1458 69.8955 75.9967 70.7862C75.6805 72.6838 71.2709 75.9991 69.0425 76.1591C66.8141 76.319 66.0398 74.1051 65.7235 76.4753C65.4073 78.8455 70.3076 84.691 75.0479 84.0585C79.7883 83.4259 83.7398 76.788 83.7398 76.788C83.7398 76.788 83.1073 75.6974 86.2845 72.3638C88.3711 70.1827 91.3557 69.2194 93.6422 68.3251C95.801 67.6902 97.9053 66.883 99.9349 65.9113C105.559 63.1558 112.24 64.9952 112.24 64.9952C112.24 64.9952 98.688 53.5732 86.3826 55.4309Z" fill="#FBB931"/>
<path opacity="0.5" d="M86.3826 55.4309C74.0773 57.2667 70.2094 60.2039 71.4381 64.2463C71.6931 65.0479 72.1073 65.7898 72.6559 66.4275C72.6559 66.5038 72.6559 66.5874 72.6778 66.6747C72.6778 66.6747 72.8959 66.8056 73.223 67.0382C73.6538 67.4543 74.1196 67.8326 74.6153 68.1688C75.4224 68.9358 76.1458 69.8955 75.9967 70.7862C75.6805 72.6838 71.2709 75.9991 69.0425 76.1591C66.8141 76.319 66.0398 74.1051 65.7235 76.4753C65.4073 78.8455 70.3076 84.691 75.0479 84.0585C79.7883 83.4259 83.7398 76.788 83.7398 76.788C83.7398 76.788 83.1073 75.6974 86.2845 72.3638C88.3711 70.1827 91.3557 69.2194 93.6422 68.3251C95.801 67.6902 97.9053 66.883 99.9349 65.9113C105.559 63.1558 112.24 64.9952 112.24 64.9952C112.24 64.9952 98.688 53.5732 86.3826 55.4309Z" fill="white"/>
</g>
<path d="M114.909 65.7768C112.917 62.7887 108.162 61.9053 104.403 60.6875C100.644 59.4697 98.4302 57.0522 99.4263 51.0686C100.422 45.085 105.606 35.3643 105.508 33.594C105.41 31.8236 87.5936 31.9363 85.9322 32.5034C84.2709 33.0705 83.9438 32.9433 82.3952 34.9354C81.5369 36.0112 80.7604 37.1498 80.0722 38.3416L81.9916 34.3065H82.1334C82.342 33.7761 82.6381 33.2846 83.0095 32.8524C84.6986 30.8928 85.6558 28.4081 85.7178 25.8218C85.7905 22.0157 83.0822 22.3829 82.5696 23.5534C82.0571 24.724 79.058 28.7518 78.1783 29.8497C77.2985 30.9475 75.47 33.9502 75.47 33.9502L73.4379 40.9953C73.4379 40.9953 72.9944 43.0965 70.4497 51.0613C67.905 59.0262 69.0138 62.6978 69.0138 62.6978C69.0138 62.6978 68.3485 62.367 66.7999 67.1219C65.2513 71.8768 65.9166 77.9586 68.6793 80.8341C71.4421 83.7095 75.0956 83.6005 79.1889 81.9428C81.7068 80.864 83.8039 78.9928 85.1616 76.6135C85.1616 76.6135 89.4766 75.5229 92.6829 73.0764C95.8892 70.6299 98.3212 68.0998 102.974 68.3215C107.627 68.5433 112.928 71.197 114.698 71.0843C116.468 70.9716 116.901 68.7614 114.909 65.7768Z" stroke="#2C3948" stroke-linecap="round" stroke-linejoin="round"/>
<path d="M114.971 71.0554C114.971 71.0554 115.203 70.1247 112.564 68.8742C109.925 67.6237 108.838 68.4853 108.838 69.1069C108.838 69.7285 114.563 71.0554 114.971 71.0554Z" fill="white" stroke="#2C3948" stroke-linecap="round" stroke-linejoin="round"/>
<path d="M89.9645 28.4654L83.3047 33.5911H92.2365C92.2365 33.5911 92.2365 27.2949 89.9645 28.4654Z" fill="white" stroke="#2C3948" stroke-linecap="round" stroke-linejoin="round"/>
<path d="M81.6113 65.4387C82.5572 64.3697 83.7364 63.5326 85.0575 62.9922" stroke="#2C3948" stroke-linecap="round" stroke-linejoin="round"/>
<path d="M80.4004 67.4251C80.5025 67.1297 80.6353 66.8458 80.7966 66.5781" stroke="#2C3948" stroke-linecap="round" stroke-linejoin="round"/>
<path d="M77.7461 74.3346C77.3898 74.0211 77.0569 73.6821 76.75 73.3203" stroke="#2C3948" stroke-linecap="round" stroke-linejoin="round"/>
<path d="M85.1618 76.6126C83.1079 76.8463 81.0328 76.4211 79.2363 75.3984" stroke="#2C3948" stroke-linecap="round" stroke-linejoin="round"/>
<path d="M110.064 33.1484H76.5034C71.8685 33.1484 68.1133 36.7364 68.1133 41.146V56.9593C68.1133 60.8054 70.9524 64.019 74.7403 64.7933L72.97 70.0317L81.1638 64.986H110.064C114.695 64.986 118.454 61.398 118.454 56.9884V41.1751C118.454 36.7364 114.695 33.1484 110.064 33.1484Z" fill="#FBB931" stroke="#2C3948" stroke-width="2" stroke-miterlimit="10"/>
<path d="M73.5762 43.7969H111.303" stroke="#2C3948" stroke-width="2.06409" stroke-miterlimit="10" stroke-linecap="round"/>
<path d="M73.5762 47.6797H111.303" stroke="#2C3948" stroke-width="2.06409" stroke-miterlimit="10" stroke-linecap="round"/>
<path d="M73.5762 51.5703H111.303" stroke="#2C3948" stroke-width="2.06409" stroke-miterlimit="10" stroke-linecap="round"/>
<path d="M73.5762 55.4453H111.303" stroke="#2C3948" stroke-width="2.06409" stroke-miterlimit="10" stroke-linecap="round"/>
<path d="M118.147 47.0136C120.731 47.0136 122.826 45.0133 122.826 42.5458C122.826 40.0784 120.731 38.0781 118.147 38.0781C115.563 38.0781 113.469 40.0784 113.469 42.5458C113.469 45.0133 115.563 47.0136 118.147 47.0136Z" fill="#2C3948"/>
<path d="M117.786 45.7C117.632 45.3928 117.563 45.0502 117.586 44.7075V41.0723L116.764 41.5303C116.676 41.5815 116.575 41.609 116.473 41.6103C116.397 41.6111 116.321 41.5956 116.251 41.5649C116.18 41.5342 116.117 41.489 116.066 41.4322C115.959 41.321 115.9 41.1721 115.902 41.0177C115.9 40.9129 115.931 40.8099 115.99 40.7233C116.075 40.6218 116.175 40.5347 116.288 40.4652L117.88 39.6509C118.058 39.5234 118.266 39.4444 118.484 39.4219C119.025 39.4219 119.294 39.829 119.294 40.6433V44.8348C119.294 45.6309 119.011 46.0271 118.44 46.0271C118.311 46.0385 118.182 46.0139 118.066 45.9561C117.951 45.8984 117.854 45.8097 117.786 45.7Z" fill="white"/>
<path d="M100.197 30.8079C100.197 30.8079 100.346 33.7342 102.982 35.1265C105.617 36.5188 108.983 36.2171 109.056 34.4686C109.129 32.72 107.079 30.8806 105.69 28.5358C104.301 26.1911 101.222 27.5143 99.9062 29.1247" fill="white"/>
<path d="M100.197 30.8079C100.197 30.8079 100.346 33.7342 102.982 35.1265C105.617 36.5188 108.983 36.2171 109.056 34.4686C109.129 32.72 107.079 30.8806 105.69 28.5358C104.301 26.1911 101.222 27.5143 99.9062 29.1247" stroke="#2C3948" stroke-linecap="round" stroke-linejoin="round"/>
<path d="M104.739 33.1481C104.517 34.3187 105.324 34.9657 106.054 35.3293C106.785 35.6928 108.236 35.4783 109.057 34.4532C109.094 33.5952 108.625 32.7228 107.967 31.7812C107.051 31.8976 104.909 32.232 104.739 33.1481Z" fill="white" stroke="#2C3948" stroke-linecap="round" stroke-linejoin="round"/>
<path d="M94.7085 30.8079C94.7085 30.8079 94.8539 33.7342 97.4895 35.1265C100.125 36.5188 103.495 36.2171 103.568 34.4686C103.64 32.72 101.59 30.8806 100.198 28.5358C98.8054 26.1911 95.7337 27.5143 94.4141 29.1247" fill="white"/>
<path d="M94.7085 30.8079C94.7085 30.8079 94.8539 33.7342 97.4895 35.1265C100.125 36.5188 103.495 36.2171 103.568 34.4686C103.64 32.72 101.59 30.8806 100.198 28.5358C98.8054 26.1911 95.7337 27.5143 94.4141 29.1247" stroke="#2C3948" stroke-linecap="round" stroke-linejoin="round"/>
<path d="M99.2503 33.1481C99.0285 34.3187 99.8355 34.9657 100.566 35.3293C101.297 35.6928 102.747 35.4783 103.569 34.4532C103.602 33.5952 103.133 32.7228 102.478 31.7812C101.562 31.8976 99.4211 32.232 99.2503 33.1481Z" fill="white" stroke="#2C3948" stroke-linecap="round" stroke-linejoin="round"/>
<path d="M89.6011 30.8079C89.6011 30.8079 89.7465 33.7342 92.3821 35.1265C95.0176 36.5188 98.3839 36.2171 98.4566 34.4686C98.5293 32.72 96.4826 30.8806 95.0903 28.5358C93.698 26.1911 90.6226 27.5143 89.3066 29.1247" fill="white"/>
<path d="M89.6011 30.8079C89.6011 30.8079 89.7465 33.7342 92.3821 35.1265C95.0176 36.5188 98.3839 36.2171 98.4566 34.4686C98.5293 32.72 96.4826 30.8806 95.0903 28.5358C93.698 26.1911 90.6226 27.5143 89.3066 29.1247" stroke="#2C3948" stroke-linecap="round" stroke-linejoin="round"/>
<path d="M94.1379 33.1481C93.9198 34.3187 94.7232 34.9657 95.4575 35.3293C96.1919 35.6928 97.6387 35.4783 98.4566 34.4532C98.493 33.5952 98.024 32.7228 97.3661 31.7812C96.45 31.8976 94.3088 32.232 94.1379 33.1481Z" fill="white" stroke="#2C3948" stroke-linecap="round" stroke-linejoin="round"/>
<path d="M69.0156 62.6953C69.0156 62.6953 69.2192 67.1958 71.7021 70.2239" stroke="#2C3948" stroke-linecap="round" stroke-linejoin="round"/>
<path d="M61.7889 81.478C61.7889 82.3941 61.1782 83.1357 60.4257 83.1357C59.6732 83.1357 59.0625 82.4086 59.0625 81.478C59.0625 80.5474 59.6732 79.8203 60.4257 79.8203C61.1782 79.8203 61.7889 80.5619 61.7889 81.478Z" fill="white"/>
<path d="M58.3964 83.5441C58.3964 84.4602 57.7856 85.2018 57.0331 85.2018C56.2806 85.2018 55.6699 84.4747 55.6699 83.5441C55.6699 82.6135 56.2806 81.8828 57.0331 81.8828C57.7856 81.8828 58.3964 82.628 58.3964 83.5441Z" stroke="#2C3948" stroke-linecap="round" stroke-linejoin="round"/>
</svg>
