<?xml version="1.0" encoding="UTF-8"?>
<svg id="Capa_2" data-name="Capa 2" xmlns="http://www.w3.org/2000/svg" viewBox="0 0 205.83 260.2">
  <defs>
    <style>
      .cls-1 {
        fill: #ff6b00;
        fill-rule: evenodd;
      }

      .cls-2 {
        fill: #4d4d4d;
      }

      .cls-3 {
        fill: #ccc;
      }
    </style>
  </defs>
  <g id="Capa_1-2" data-name="Capa 1">
    <g>
      <rect class="cls-3" x="46.19" y="122.6" width="113.45" height="15"/>
      <rect class="cls-3" x="46.19" y="52.27" width="113.45" height="15"/>
      <rect class="cls-3" x="46.19" y="192.94" width="113.45" height="15"/>
      <rect class="cls-2" x="46.19" y="66" width="113.45" height="2"/>
      <path class="cls-2" d="M176.72,260.2H29.11c-16.05,0-29.11-13.06-29.11-29.11V29.11C0,13.06,13.06,0,29.11,0h147.61c16.05,0,29.11,13.06,29.11,29.11v201.98c0,16.05-13.06,29.11-29.11,29.11ZM29.11,8c-11.64,0-21.11,9.47-21.11,21.11v201.98c0,11.64,9.47,21.11,21.11,21.11h147.61c11.64,0,21.11-9.47,21.11-21.11V29.11c0-11.64-9.47-21.11-21.11-21.11H29.11Z"/>
      <path class="cls-1" d="M149.14,48.36c-.88-.58-2.1-.39-2.68.54-4.68,6.87-14.57,9.55-22.08,5.95-.24-.1-.44-.24-.68-.34-1.71-.88-3.85-1.95-6.24-1.32-1.32.34-2.29,1.12-3.17,1.75-.73.58-1.36,1.07-1.9,1.07-.97.05-1.95-1.46-2.44-2.88-.1-.24-.19-.49-.24-.73-.68-2-1.51-4.43-3.8-5.75-2.83-1.61-6.29-.44-8.48,1.46-1.17.97-2.05,2.14-2.92,3.27-.58.73-1.12,1.41-1.66,2-3.66,3.85-9.89,4.87-14.72,2.73,3.7-3.36,6.34-7.55,7.51-12.13,1.17-4.58.49-10.28-3.8-12.57-2.19-1.17-4.82-1.17-7.41.1-2.14,1.07-4.09,2.88-5.31,5.02-1.9,3.41-2.49,7.51-1.61,11.6.68,3.07,2.1,5.85,4.09,8.04-4.09,2.39-8.87,3.56-13.55,2.97-1.07-.15-2.05.58-2.19,1.66s.58,2.05,1.66,2.19c1.02.15,2,.19,3.02.19,4.87,0,9.8-1.51,14.18-4.39,2.97,1.8,6.58,2.63,10.28,2.29,4.14-.39,7.94-2.14,10.62-4.97.73-.73,1.32-1.51,1.9-2.29.78-1.02,1.51-1.95,2.39-2.73,1.17-.97,2.92-1.66,4.04-1.02,1.02.58,1.51,2.05,2.05,3.66.1.24.19.54.29.78,1.22,3.41,3.46,5.41,6.04,5.41h.29c1.75-.1,3.02-1.07,4.04-1.9.63-.49,1.22-.97,1.75-1.07.97-.24,2.19.39,3.51,1.02.24.15.49.24.73.34,2.78,1.32,5.8,1.95,8.87,1.95,7.02,0,14.13-3.36,18.08-9.21.63-.88.44-2.1-.49-2.68h0ZM74.77,53.87c-3.95-3.9-5.07-10.62-2.34-15.45,1.22-2.19,3.66-4,5.85-4,.58,0,1.12.15,1.66.39,2.44,1.32,2.68,5.17,1.9,8.19-1.07,4.24-3.66,8.04-7.07,10.87h0Z"/>
    </g>
  </g>
</svg>