<svg width="25" height="24" viewBox="0 0 25 24" fill="none" xmlns="http://www.w3.org/2000/svg">
<path d="M5.59961 21L3.59961 9H21.5996L19.5996 21H5.59961ZM7.27461 19H17.9246L19.1996 11H5.99961L7.27461 19ZM10.5996 15H14.5996C14.8829 15 15.1204 14.9042 15.3121 14.7125C15.5038 14.5208 15.5996 14.2833 15.5996 14C15.5996 13.7167 15.5038 13.4792 15.3121 13.2875C15.1204 13.0958 14.8829 13 14.5996 13H10.5996C10.3163 13 10.0788 13.0958 9.88711 13.2875C9.69544 13.4792 9.59961 13.7167 9.59961 14C9.59961 14.2833 9.69544 14.5208 9.88711 14.7125C10.0788 14.9042 10.3163 15 10.5996 15ZM6.59961 8C6.31628 8 6.07878 7.90417 5.88711 7.7125C5.69544 7.52083 5.59961 7.28333 5.59961 7C5.59961 6.71667 5.69544 6.47917 5.88711 6.2875C6.07878 6.09583 6.31628 6 6.59961 6H18.5996C18.8829 6 19.1204 6.09583 19.3121 6.2875C19.5038 6.47917 19.5996 6.71667 19.5996 7C19.5996 7.28333 19.5038 7.52083 19.3121 7.7125C19.1204 7.90417 18.8829 8 18.5996 8H6.59961ZM8.59961 5C8.31628 5 8.07878 4.90417 7.88711 4.7125C7.69544 4.52083 7.59961 4.28333 7.59961 4C7.59961 3.71667 7.69544 3.47917 7.88711 3.2875C8.07878 3.09583 8.31628 3 8.59961 3H16.5996C16.8829 3 17.1204 3.09583 17.3121 3.2875C17.5038 3.47917 17.5996 3.71667 17.5996 4C17.5996 4.28333 17.5038 4.52083 17.3121 4.7125C17.1204 4.90417 16.8829 5 16.5996 5H8.59961Z" fill="#FF7500"/>
</svg>
