<svg width="4" height="10" viewBox="0 0 4 10" fill="none" xmlns="http://www.w3.org/2000/svg">
<path d="M3.014 1.26107C3.01405 1.40416 2.98591 1.54585 2.9312 1.67805C2.87648 1.81026 2.79627 1.9304 2.69513 2.03161C2.59398 2.13281 2.4739 2.21311 2.34173 2.2679C2.20955 2.3227 2.06788 2.35093 1.9248 2.35097C1.78172 2.35102 1.64003 2.32288 1.50782 2.26817C1.37561 2.21346 1.25548 2.13324 1.15427 2.0321C1.05306 1.93096 0.972769 1.81087 0.917971 1.6787C0.863174 1.54653 0.834946 1.40486 0.8349 1.26178C0.834807 0.972809 0.94951 0.69564 1.15377 0.491244C1.35804 0.286848 1.63513 0.171968 1.9241 0.171875C2.21307 0.171782 2.49023 0.286485 2.69463 0.490749C2.89903 0.695014 3.01391 0.972108 3.014 1.26107Z" fill="#969EAF"/>
<path d="M1.92477 6.09051C2.52632 6.09051 3.01397 5.60286 3.01397 5.00131C3.01397 4.39976 2.52632 3.91211 1.92477 3.91211C1.32322 3.91211 0.835571 4.39976 0.835571 5.00131C0.835571 5.60286 1.32322 6.09051 1.92477 6.09051Z" fill="#969EAF"/>
<path d="M1.92477 9.83074C2.52632 9.83074 3.01397 9.34309 3.01397 8.74154C3.01397 8.14 2.52632 7.65234 1.92477 7.65234C1.32322 7.65234 0.835571 8.14 0.835571 8.74154C0.835571 9.34309 1.32322 9.83074 1.92477 9.83074Z" fill="#969EAF"/>
</svg>
