<svg width="24" height="24" viewBox="0 0 24 24" fill="none" xmlns="http://www.w3.org/2000/svg">
<path d="M11.925 21.1875C9.44167 21.1875 7.33333 20.3083 5.6 18.55C3.86667 16.7917 3 14.6625 3 12.1625H4.5C4.5 14.2458 5.21667 16.0208 6.65 17.4875C8.08333 18.9542 9.84167 19.6875 11.925 19.6875C14.0417 19.6875 15.8333 18.9458 17.3 17.4625C18.7667 15.9792 19.5 14.1792 19.5 12.0625C19.5 9.99583 18.7583 8.25 17.275 6.825C15.7917 5.4 14.0083 4.6875 11.925 4.6875C10.7917 4.6875 9.72917 4.94583 8.7375 5.4625C7.74583 5.97917 6.88333 6.6625 6.15 7.5125H8.775V9.0125H3.55V3.8125H5.05V6.4625C5.91667 5.44583 6.94583 4.64583 8.1375 4.0625C9.32917 3.47917 10.5917 3.1875 11.925 3.1875C13.175 3.1875 14.35 3.42083 15.45 3.8875C16.55 4.35417 17.5125 4.99167 18.3375 5.8C19.1625 6.60833 19.8125 7.55417 20.2875 8.6375C20.7625 9.72083 21 10.8875 21 12.1375C21 13.3875 20.7625 14.5625 20.2875 15.6625C19.8125 16.7625 19.1625 17.7208 18.3375 18.5375C17.5125 19.3542 16.55 20 15.45 20.475C14.35 20.95 13.175 21.1875 11.925 21.1875ZM15.125 16.2625L11.275 12.4625V7.1125H12.775V11.8375L16.2 15.1875L15.125 16.2625Z" fill="#FF7500"/>
</svg>
