<svg width="65" height="35" viewBox="0 0 65 35" fill="none" xmlns="http://www.w3.org/2000/svg">
<path d="M12.1201 1.30855L12.0986 1.28709H12.1201V1.27637V1.28709H12.1415H12.1201V1.30855Z" fill="#9C9B9B"/>
<path d="M12.1094 11.7023L12.1308 11.6702L12.1094 11.7023Z" fill="#9C9B9B"/>
<path d="M23.3721 5.19162V5.17017V5.19162ZM23.3721 5.19162L23.3613 5.21307H23.3721V5.19162Z" fill="#9C9B9B"/>
<path d="M12.1308 19.5004L12.1094 19.4683L12.1308 19.5004Z" fill="#9C9B9B"/>
<path d="M12.1308 6.50021L12.1094 6.47876L12.1308 6.50021Z" fill="#9C9B9B"/>
<path d="M18.8669 2.59577L16.6144 3.89366L14.3619 5.19154L12.1308 6.4787L12.1093 6.48943L12.0879 6.50015L9.85681 7.78731L7.60428 9.0852L5.35175 10.3831V18.1811L3.20649 16.9369V9.22464L15.0591 2.38124C15.1342 2.42415 15.22 2.45633 15.3058 2.45633C15.5632 2.45633 15.7777 2.2418 15.7777 1.98437C15.7777 1.72694 15.5632 1.51241 15.3058 1.51241C15.0484 1.51241 14.8338 1.72694 14.8338 1.98437C14.8338 2.038 14.8446 2.09163 14.8553 2.13454L2.89542 9.05302V16.7652L0.857422 15.5961V7.78731L3.10995 6.48943L5.36248 5.19154L7.61501 3.89366L12.0986 1.30861H12.1093L12.1201 1.29789L12.1522 1.27643L14.3619 0L16.6144 1.29789L18.8669 2.59577Z" fill="#445268"/>
<path d="M12.0986 1.34072V1.28709H12.1201L12.1094 1.27637L12.1201 1.28709H12.1415H12.1201V1.27637H12.163L12.0986 1.34072Z" fill="#9C9B9B"/>
<path d="M9.86738 15.5852V28.5748L7.73284 27.352V19.9937C7.90446 19.9294 8.03318 19.747 8.03318 19.5539C8.03318 19.2965 7.81865 19.082 7.56122 19.082C7.30379 19.082 7.08926 19.2965 7.08926 19.5539C7.08926 19.7685 7.2287 19.9508 7.42178 20.0045V27.1696L5.37305 25.9897V18.1917L7.62558 16.8938L9.86738 15.5852Z" fill="#445268"/>
<path d="M12.0986 11.7345V11.6379L12.1523 11.6916L12.0986 11.7345Z" fill="#9C9B9B"/>
<path d="M12.0986 6.54305V6.43579L12.1523 6.48942L12.0986 6.54305Z" fill="#9C9B9B"/>
<path d="M12.0986 19.5326V19.436L12.1523 19.4789L12.0986 19.5326Z" fill="#9C9B9B"/>
<path d="M12.0986 16.9369V16.8403L12.1523 16.8832L12.0986 16.9369Z" fill="#9C9B9B"/>
<path d="M12.0986 14.3304V14.2339L12.1523 14.2875L12.0986 14.3304Z" fill="#9C9B9B"/>
<path d="M21.1198 19.479V31.1063H21.1091V35L18.8565 33.7021L16.604 32.4042V31.1814V22.0855L18.6956 20.8734V30.8275C18.5133 30.8918 18.3846 31.0634 18.3846 31.2672C18.3846 31.5247 18.5991 31.7392 18.8565 31.7392C19.114 31.7392 19.3285 31.5247 19.3285 31.2672C19.3285 31.0634 19.189 30.8811 19.0067 30.8167V20.6911L21.1198 19.479Z" fill="#958585"/>
<path d="M9.88861 28.575H9.8457V28.6071H9.88861V28.575Z" fill="#9C9B9B"/>
<path d="M12.0986 19.4897V19.479H12.1415L12.0986 19.4897Z" fill="#9C9B9B"/>
<path d="M27.8769 7.78734L27.8984 7.77661L27.8769 7.78734ZM27.8769 7.78734L27.8555 7.77661V7.79806L27.8769 7.78734Z" fill="#9C9B9B"/>
<path d="M27.8771 7.78718L25.7211 6.54292L14.5228 13.1396V17.7519C14.7159 17.8163 14.8554 17.9879 14.8554 18.2024C14.8554 18.4599 14.6408 18.6744 14.3834 18.6744C14.126 18.6744 13.9114 18.4599 13.9114 18.2024C13.9114 17.9986 14.0402 17.827 14.2118 17.7627V12.9573L25.4208 6.36058L23.3935 5.19141L21.141 6.48929L18.8885 7.78718L16.6359 9.08506L14.3834 10.3829L12.1523 11.6701L12.1416 11.6808V14.2766V16.8724V19.4682L12.1631 19.4789L14.3941 20.766L16.6467 22.0639V14.2659L18.8992 12.968L21.1517 11.6701L23.4042 10.3722L25.6568 9.07434L27.8771 7.78718Z" fill="#958585"/>
<path d="M32.5961 17.5696H30.2471V16.2825H36.4469V17.5696H34.0978V23.2117H32.6069V17.5696H32.5961Z" fill="#333333"/>
<path d="M37.1338 16.2825H40.105C42.143 16.2825 43.2156 17.4838 43.2156 18.9641C43.2156 19.8543 42.7544 20.7017 41.8963 21.163L43.3336 23.201H41.6174L40.5448 21.5813C40.341 21.6135 40.1586 21.6349 39.9548 21.6349H38.6247V23.201H37.1338V16.2825ZM40.1479 20.3585C41.0274 20.3585 41.6281 19.7256 41.6281 18.9748C41.6281 18.181 41.0167 17.5696 40.1586 17.5696H38.6247V20.3692H40.1479V20.3585Z" fill="#333333"/>
<path d="M44.0737 16.2825H49.4905V17.5696H45.5647V18.9748H49.2867V20.2512H45.5647V21.9245H49.6407V23.2117H44.0737V16.2825Z" fill="#333333"/>
<path d="M50.0913 22.3858L50.6384 21.2274C51.1961 21.635 51.8612 21.989 52.9123 21.989C53.4916 21.989 54.1995 21.7208 54.1995 21.1738C54.1995 20.6374 53.5774 20.498 52.966 20.3478C51.6681 20.0475 50.338 19.6077 50.338 18.1704C50.338 16.8296 51.593 16.1753 52.9123 16.1753C53.9635 16.1753 54.7465 16.4542 55.4437 16.9154L54.8967 18.0739C54.3389 17.7092 53.6095 17.5161 52.9123 17.5161C52.5476 17.5161 51.8612 17.6555 51.8612 18.1811C51.8612 18.6316 52.3653 18.7925 53.0518 18.9534C54.2853 19.243 55.7548 19.7043 55.7548 21.1845C55.7548 22.6754 54.3068 23.3298 52.9123 23.3298C51.2605 23.3298 50.4775 22.6969 50.0913 22.3858Z" fill="#333333"/>
<path d="M60.2915 17.5696H57.9424V16.2825H64.1422V17.5696H61.7931V23.2117H60.2915V17.5696Z" fill="#333333"/>
</svg>
