<svg width="21" height="20" viewBox="0 0 21 20" fill="none" xmlns="http://www.w3.org/2000/svg">
<path d="M18.505 1.875H6.56691C6.46908 1.87492 6.37219 1.89411 6.28177 1.93147C6.19135 1.96884 6.10917 2.02364 6.03994 2.09276C5.9707 2.16189 5.91575 2.24397 5.87824 2.33432C5.84072 2.42468 5.82137 2.52154 5.82129 2.61938V5.9375L12.7394 7.96875L19.2513 5.9375V2.61938C19.2512 2.52149 19.2318 2.42458 19.1943 2.33418C19.1567 2.24378 19.1017 2.16167 19.0324 2.09254C18.9631 2.02341 18.8809 1.96862 18.7904 1.93129C18.6999 1.89396 18.6029 1.87484 18.505 1.875Z" fill="#41A5EE"/>
<path d="M19.2513 5.9375H5.82129V10L12.7394 11.2188L19.2513 10V5.9375Z" fill="#2B7CD3"/>
<path d="M5.82129 10V14.0625L12.3325 14.875L19.2513 14.0625V10H5.82129Z" fill="#185ABD"/>
<path d="M6.56691 18.125H18.5044C18.6024 18.1252 18.6994 18.1062 18.7899 18.0689C18.8805 18.0316 18.9628 17.9768 19.0322 17.9077C19.1016 17.8385 19.1566 17.7564 19.1942 17.666C19.2318 17.5755 19.2512 17.4786 19.2513 17.3806V14.0625H5.82129V17.3806C5.82137 17.4785 5.84072 17.5753 5.87824 17.6657C5.91575 17.756 5.9707 17.8381 6.03994 17.9072C6.10917 17.9764 6.19135 18.0312 6.28177 18.0685C6.37219 18.1059 6.46908 18.1251 6.56691 18.125Z" fill="#103F91"/>
<path opacity="0.1" d="M10.7725 5.125H5.82129V15.2812H10.7725C10.9698 15.2803 11.1588 15.2016 11.2985 15.0623C11.4382 14.9229 11.5173 14.7342 11.5188 14.5369V5.86937C11.5173 5.67209 11.4382 5.48333 11.2985 5.34399C11.1588 5.20466 10.9698 5.12598 10.7725 5.125Z" fill="black"/>
<path opacity="0.2" d="M10.3657 5.53125H5.82129V15.6875H10.3657C10.563 15.6865 10.7519 15.6078 10.8916 15.4685C11.0313 15.3292 11.1104 15.1404 11.1119 14.9431V6.27562C11.1104 6.07834 11.0313 5.88958 10.8916 5.75024C10.7519 5.61091 10.563 5.53223 10.3657 5.53125Z" fill="black"/>
<path opacity="0.2" d="M10.3657 5.53125H5.82129V14.875H10.3657C10.563 14.874 10.7519 14.7953 10.8916 14.656C11.0313 14.5167 11.1104 14.3279 11.1119 14.1306V6.27562C11.1104 6.07834 11.0313 5.88958 10.8916 5.75024C10.7519 5.61091 10.563 5.53223 10.3657 5.53125Z" fill="black"/>
<path opacity="0.2" d="M9.95879 5.53125H5.82129V14.875H9.95879C10.1561 14.874 10.345 14.7953 10.4847 14.656C10.6244 14.5167 10.7036 14.3279 10.705 14.1306V6.27562C10.7036 6.07834 10.6244 5.88958 10.4847 5.75024C10.345 5.61091 10.1561 5.53223 9.95879 5.53125Z" fill="black"/>
<path d="M2.49723 5.53125H9.95848C10.1561 5.53109 10.3457 5.6094 10.4857 5.74898C10.6256 5.88856 10.7044 6.07798 10.7047 6.27563V13.7244C10.7044 13.922 10.6256 14.1114 10.4857 14.251C10.3457 14.3906 10.1561 14.4689 9.95848 14.4688H2.49723C2.39934 14.4689 2.30238 14.4498 2.21189 14.4125C2.1214 14.3751 2.03915 14.3203 1.96984 14.2512C1.90054 14.1821 1.84554 14.1 1.80799 14.0096C1.77043 13.9192 1.75106 13.8223 1.75098 13.7244V6.27563C1.75106 6.17774 1.77043 6.08083 1.80799 5.99043C1.84554 5.90003 1.90054 5.81792 1.96984 5.74879C2.03915 5.67966 2.1214 5.62487 2.21189 5.58754C2.30238 5.55021 2.39934 5.53109 2.49723 5.53125Z" fill="url(#paint0_linear_4701_90903)"/>
<path d="M4.81387 11.2417C4.82824 11.3567 4.83824 11.4567 4.84262 11.5423H4.86012C4.86637 11.4611 4.88012 11.363 4.90074 11.2486C4.92137 11.1342 4.93949 11.0373 4.95637 10.958L5.74074 7.57859H6.75574L7.56824 10.9073C7.61557 11.1132 7.64939 11.322 7.66949 11.5323H7.68324C7.69817 11.3276 7.72635 11.1241 7.76762 10.923L8.41699 7.57422H9.34012L8.20012 12.4167H7.12074L6.34762 9.21297C6.32512 9.12047 6.2997 9.00005 6.27137 8.85172C6.24303 8.70339 6.22553 8.59505 6.21887 8.52672H6.20574C6.19699 8.60547 6.17949 8.72234 6.15324 8.87734C6.12699 9.03297 6.10637 9.14734 6.09074 9.22234L5.36387 12.4186H4.26637L3.12012 7.57859H4.05762L4.76449 10.9648C4.78559 11.0562 4.80207 11.1487 4.81387 11.2417Z" fill="white"/>
<defs>
<linearGradient id="paint0_linear_4701_90903" x1="3.30973" y1="4.94625" x2="9.14598" y2="15.0538" gradientUnits="userSpaceOnUse">
<stop stop-color="#2368C4"/>
<stop offset="0.5" stop-color="#1A5DBE"/>
<stop offset="1" stop-color="#1146AC"/>
</linearGradient>
</defs>
</svg>
