<svg width="100" height="100" viewBox="0 0 100 100" fill="none" xmlns="http://www.w3.org/2000/svg">
<rect width="100" height="100" rx="50" fill="#F6F7F8"/>
<path d="M68.75 50C68.75 60.3553 60.3553 68.75 50 68.75C39.6447 68.75 31.25 60.3553 31.25 50C31.25 39.6447 39.6447 31.25 50 31.25C60.3553 31.25 68.75 39.6447 68.75 50Z" fill="white"/>
<path d="M60.9747 46.3184L53.6828 39.026C52.6983 38.0427 51.3907 37.5 49.9988 37.5C48.6069 37.5 47.2984 38.0427 46.3148 39.026L39.0229 46.3184C36.9924 48.3485 36.9924 51.6515 39.0229 53.6816L46.3148 60.974C47.2984 61.9573 48.6069 62.5 49.9988 62.5C51.3907 62.5 52.6983 61.9573 53.6828 60.974L60.9747 53.6816C61.9582 52.6983 62.5 51.3911 62.5 50.0005C62.5 48.61 61.9582 47.3017 60.9747 46.3184ZM59.5016 52.2088L52.2096 59.5012C51.0282 60.6813 48.9695 60.6813 47.788 59.5012L40.4961 52.2088C39.2782 50.9911 39.2782 49.0089 40.4961 47.7912L47.788 40.4988C48.3787 39.9093 49.1633 39.5832 49.9988 39.5832C50.8344 39.5832 51.6189 39.9082 52.2096 40.4988L59.5016 47.7912C60.0912 48.3808 60.4163 49.1651 60.4163 50.0005C60.4163 50.8359 60.0912 51.6192 59.5016 52.2088ZM51.5606 54.693C51.5606 55.5555 50.8604 56.2555 49.9978 56.2555C49.1351 56.2555 48.435 55.5555 48.435 54.693C48.435 53.8306 49.1351 53.1306 49.9978 53.1306C50.8604 53.1306 51.5606 53.8306 51.5606 54.693ZM48.9559 50.5265V44.7976C48.9559 44.2216 49.4227 43.756 49.9978 43.756C50.5729 43.756 51.0396 44.2216 51.0396 44.7976V50.5265C51.0396 51.1026 50.5729 51.5682 49.9978 51.5682C49.4227 51.5682 48.9559 51.1026 48.9559 50.5265Z" fill="#FF7500"/>
<path d="M50 27C62.7025 27 73 37.2974 73 50C73 62.7025 62.7025 73 50 73C37.2974 73 27 62.7025 27 50C27 37.2974 37.2974 27 50 27Z" stroke="#FF7500" stroke-width="5"/>
<path d="M68.75 50C68.75 60.3553 60.3553 68.75 50 68.75C39.6447 68.75 31.25 60.3553 31.25 50C31.25 39.6447 39.6447 31.25 50 31.25C60.3553 31.25 68.75 39.6447 68.75 50Z" stroke="white" stroke-width="3"/>
<circle cx="50" cy="50" r="21.25" stroke="#FF7500" stroke-width="2.5"/>
</svg>
